<?xml version="1.0" standalone="no"?>
<!DOCTYPE svg PUBLIC "-//W3C//DTD SVG 1.1//EN" "http://www.w3.org/Graphics/SVG/1.1/DTD/svg11.dtd" >
<svg xmlns="http://www.w3.org/2000/svg" xmlns:xlink="http://www.w3.org/1999/xlink" version="1.1">
<metadata>
Created by FontForge 20170731 at Mon Feb  8 13:23:39 2016
 By Aleksey,,,
(c) 1999-2016 Typodermic Fonts Inc.
</metadata>
<defs>
<font id="LibelSuitRg-Regular" horiz-adv-x="395" >
  <font-face 
    font-family="Libel Suit Rg"
    font-weight="400"
    font-stretch="normal"
    units-per-em="1000"
    panose-1="2 11 6 8 2 2 2 2 2 4"
    ascent="789"
    descent="-211"
    x-height="611"
    cap-height="783"
    bbox="-387 -210 756 1207"
    underline-thickness="20"
    underline-position="-173"
    unicode-range="U+0017-E000"
  />
<missing-glyph horiz-adv-x="521" 
d="M127 869h266q96 0 96 -83v-833q0 -83 -96 -83h-266q-95 0 -95 83v833q0 83 95 83zM91 655v-39h107v32q0 38 44 38q21 0 30 -12t9 -42q0 -34 -10 -62t-36 -77q-35 -66 -48 -102t-13 -80q0 -35 9 -84h65q4 74 16 108t64 124q39 67 53.5 106t14.5 82q0 77 -40 116.5
t-106 39.5q-69 0 -114 -40t-45 -108zM215 133q-32 0 -48.5 -19t-16.5 -49t16.5 -49.5t48.5 -19.5t48.5 19.5t16.5 49.5t-16.5 49t-48.5 19z" />
    <glyph glyph-name=".notdef" horiz-adv-x="521" 
d="M127 869h266q96 0 96 -83v-833q0 -83 -96 -83h-266q-95 0 -95 83v833q0 83 95 83zM91 655v-39h107v32q0 38 44 38q21 0 30 -12t9 -42q0 -34 -10 -62t-36 -77q-35 -66 -48 -102t-13 -80q0 -35 9 -84h65q4 74 16 108t64 124q39 67 53.5 106t14.5 82q0 77 -40 116.5
t-106 39.5q-69 0 -114 -40t-45 -108zM215 133q-32 0 -48.5 -19t-16.5 -49t16.5 -49.5t48.5 -19.5t48.5 19.5t16.5 49.5t-16.5 49t-48.5 19z" />
    <glyph glyph-name=".null" horiz-adv-x="0" 
 />
    <glyph glyph-name="nonmarkingreturn" horiz-adv-x="333" 
 />
    <glyph glyph-name="uni0017" horiz-adv-x="186" 
 />
    <glyph glyph-name="space" unicode=" " horiz-adv-x="186" 
 />
    <glyph glyph-name="exclam" unicode="!" horiz-adv-x="183" 
d="M38 797h107l-28 -588h-50zM91 107q26 0 39.5 -15.5t13.5 -39.5t-13.5 -39.5t-39.5 -15.5q-24 0 -37.5 15.5t-13.5 39.5t13 39.5t38 15.5z" />
    <glyph glyph-name="quotedbl" unicode="&#x22;" horiz-adv-x="274" 
d="M164 797h82l-11 -255h-59zM28 797h82l-11 -255h-59z" />
    <glyph glyph-name="numbersign" unicode="#" horiz-adv-x="519" 
d="M32 301h90l26 182h-90l10 70h90l34 230h70l-34 -230h108l34 230h70l-34 -230h90l-10 -70h-90l-26 -182h90l-10 -70h-90l-33 -231h-70l33 231h-108l-33 -231h-70l33 231h-90zM218 483l-26 -182h108l26 182h-108z" />
    <glyph glyph-name="dollar" unicode="$" horiz-adv-x="393" 
d="M183 803h36v-100q64 -4 96.5 -41t32.5 -92v-40h-81v28q0 62 -67 62q-68 0 -68 -59q0 -35 37 -74q15 -17 67.5 -64.5t71.5 -71.5q43 -53 43 -123q0 -65 -33 -104.5t-99 -45.5v-98h-36v97q-67 4 -104.5 41t-37.5 101v69l81 -21v-41q0 -30 19 -47t56 -17q71 0 71 69
q0 37 -35 77q-23 27 -72.5 72t-66.5 64q-48 57 -48 122q0 61 36.5 96.5t100.5 40.5v100z" />
    <glyph glyph-name="percent" unicode="%" horiz-adv-x="612" 
d="M455 783h64l-361 -783h-66zM565 352v-273q0 -40 -27.5 -63.5t-69.5 -23.5t-70 23.5t-28 63.5v273q0 40 28 63t70 23t69.5 -23.5t27.5 -62.5zM428 351v-272q0 -36 40 -36t40 36v272q0 35 -40 35t-40 -35zM241 704v-273q0 -40 -27.5 -63.5t-69.5 -23.5t-70 23.5t-28 63.5
v273q0 40 28 63t70 23t69.5 -23.5t27.5 -62.5zM104 703v-272q0 -36 40 -36t40 36v272q0 35 -40 35t-40 -35z" />
    <glyph glyph-name="ampersand" unicode="&#x26;" horiz-adv-x="428" 
d="M128 664v-144q0 -39 15.5 -54.5t52.5 -15.5h208v-76h-75v-241q0 -57 39 -57q18 0 35 16l15 -76q-28 -24 -70 -24q-52 0 -80 38q-40 -40 -103 -40q-55 0 -93.5 41t-38.5 109v157q0 94 65 117q-56 23 -56 110v145q0 69 42 111.5t108 42.5t108 -40.5t42 -109.5v-26h-81v21
q0 32 -17.5 49.5t-47.5 17.5q-33 0 -50.5 -19t-17.5 -52zM243 95q-2 9 -2 28v251h-50q-39 0 -55.5 -17t-16.5 -57v-155q0 -31 17.5 -49t42.5 -18q42 0 64 17z" />
    <glyph glyph-name="quotesingle" unicode="'" horiz-adv-x="138" 
d="M28 797h82l-11 -255h-59z" />
    <glyph glyph-name="parenleft" unicode="(" horiz-adv-x="287" 
d="M273 959v-73q-61 -11 -87 -43t-26 -111v-715q0 -79 26 -111t87 -43v-73q-186 23 -186 226v717q0 203 186 226z" />
    <glyph glyph-name="parenright" unicode=")" horiz-adv-x="287" 
d="M14 -210v73q61 11 87 43t26 111v715q0 79 -26 111t-87 43v73q186 -23 186 -226v-717q0 -203 -186 -226z" />
    <glyph glyph-name="asterisk" unicode="*" horiz-adv-x="441" 
d="M60 706l139 -89l-8 166h57l-8 -164l140 89l29 -50l-147 -76l147 -75l-28 -50l-139 90l8 -165h-57l8 164l-139 -91l-29 50l146 76l-147 75z" />
    <glyph glyph-name="plus" unicode="+" horiz-adv-x="531" 
d="M228 599h74v-183h183v-73h-183v-183h-74v183h-182v73h182v183z" />
    <glyph glyph-name="comma" unicode="," horiz-adv-x="160" 
d="M121 12l-70 -161h-32l9 201q2 55 51 55q26 0 39.5 -15.5t13.5 -38.5q0 -18 -11 -41z" />
    <glyph glyph-name="hyphen" unicode="-" horiz-adv-x="306" 
d="M27 416h251v-73h-251v73z" />
    <glyph glyph-name="period" unicode="." horiz-adv-x="160" 
d="M79 107q26 0 39.5 -15.5t13.5 -39.5t-13.5 -39.5t-39.5 -15.5q-24 0 -37.5 15.5t-13.5 39.5t13 39.5t38 15.5z" />
    <glyph glyph-name="slash" unicode="/" horiz-adv-x="353" 
d="M273 869h74l-267 -989h-74z" />
    <glyph glyph-name="zero" unicode="0" horiz-adv-x="404" 
d="M363 640v-497q0 -72 -46 -114.5t-115 -42.5t-115 42.5t-46 114.5v497q0 72 46 114.5t115 42.5t115 -42.5t46 -114.5zM132 639v-495q0 -33 19 -51t51 -18t51 18t19 51v495q0 33 -19 51t-51 18t-51 -18t-19 -51z" />
    <glyph glyph-name="one" unicode="1" horiz-adv-x="237" 
d="M15 718h38q46 0 46 65h92v-783h-92v641h-84v77z" />
    <glyph glyph-name="two" unicode="2" horiz-adv-x="363" 
d="M185 797q73 0 114 -42.5t41 -130.5q0 -68 -36 -132q-18 -31 -70 -105t-70 -104q-22 -36 -29 -61t-7 -68v-65h212v-89h-304v154q0 84 40 154q17 31 71.5 106t71.5 104q30 52 30 109q0 44 -16.5 62.5t-49.5 18.5q-69 0 -69 -68v-24h-85v26q0 72 41 113.5t115 41.5z" />
    <glyph glyph-name="three" unicode="3" horiz-adv-x="385" 
d="M185 797q76 0 117 -47t41 -122v-109q0 -89 -57 -113q66 -25 66 -120v-146q0 -70 -46 -112t-116 -42q-69 0 -113 42t-44 113v40l85 -22v-16q0 -33 19 -50.5t52 -17.5q34 0 53 17.5t19 50.5v144q0 42 -16 59.5t-56 17.5h-55v79h49q38 0 54 16.5t16 56.5v113q0 79 -69 79
q-66 0 -66 -72v-20h-85v26q0 72 41 113.5t111 41.5z" />
    <glyph glyph-name="four" unicode="4" horiz-adv-x="390" 
d="M231 783h85v-439h52v-90h-52v-254h-85v254h-209v84l97 294h81l-95 -288h126v439z" />
    <glyph glyph-name="five" unicode="5" horiz-adv-x="380" 
d="M55 783h281v-89h-203l-13 -132q47 34 103 34q118 0 118 -140v-315q0 -70 -44 -112.5t-110 -42.5q-67 0 -112 42.5t-45 112.5v40l85 -22v-16q0 -32 19 -50t48 -18q31 0 49.5 18t18.5 50v314q0 60 -55 60t-88 -51l-74 25z" />
    <glyph glyph-name="six" unicode="6" horiz-adv-x="393" 
d="M132 640v-133q43 38 98 38q54 0 88 -36.5t34 -105.5v-262q0 -70 -45 -112.5t-112 -42.5q-66 0 -110 42.5t-44 112.5v501q0 71 44 113t115 42q70 0 111 -41.5t41 -113.5v-26h-85v24q0 68 -66 68q-32 0 -50.5 -17.5t-18.5 -50.5zM206 461q-42 0 -74 -38v-280
q0 -33 18 -50.5t49 -17.5t49.5 17.5t18.5 50.5v242q0 76 -61 76z" />
    <glyph glyph-name="seven" unicode="7" horiz-adv-x="327" 
d="M22 783h283v-79l-151 -704h-96l161 694h-197v89z" />
    <glyph glyph-name="eight" unicode="8" horiz-adv-x="388" 
d="M37 533v95q0 75 40.5 122t114.5 47t114 -47t40 -122v-95q0 -97 -63 -126q72 -27 72 -128v-139q0 -70 -45.5 -112t-117.5 -42t-118 42t-46 112v139q0 101 72 128q-63 29 -63 126zM113 289v-139q0 -38 22 -58t57 -20t57 20t22 58v139q0 41 -19.5 59t-59.5 18q-41 0 -60 -18
t-19 -59zM121 632v-119q0 -39 16.5 -55.5t54.5 -16.5q37 0 53.5 16.5t16.5 55.5v119q0 79 -70 79q-71 0 -71 -79z" />
    <glyph glyph-name="nine" unicode="9" horiz-adv-x="393" 
d="M192 75q32 0 50.5 17.5t18.5 50.5v159q-41 -38 -98 -38q-54 0 -88 36.5t-34 105.5v236q0 70 45 112.5t112 42.5q66 0 110 -42.5t44 -112.5v-501q0 -71 -44 -113t-115 -42q-70 0 -111 41.5t-41 113.5v40l85 -22v-16q0 -68 66 -68zM126 640v-216q0 -76 61 -76q42 0 74 38
v254q0 33 -18 50.5t-49 17.5t-49.5 -17.5t-18.5 -50.5z" />
    <glyph glyph-name="colon" unicode=":" horiz-adv-x="206" 
d="M102 441q26 0 39.5 -15.5t13.5 -39.5t-13.5 -39.5t-39.5 -15.5q-24 0 -37.5 15.5t-13.5 39.5t13 39.5t38 15.5zM102 157q26 0 39.5 -15.5t13.5 -39.5t-13.5 -39.5t-39.5 -15.5q-24 0 -37.5 15.5t-13.5 39.5t13 39.5t38 15.5z" />
    <glyph glyph-name="semicolon" unicode=";" horiz-adv-x="206" 
d="M144 62l-70 -161h-32l9 201q2 55 51 55q26 0 39.5 -15.5t13.5 -38.5q0 -18 -11 -41zM102 441q26 0 39.5 -15.5t13.5 -39.5t-13.5 -39.5t-39.5 -15.5q-24 0 -37.5 15.5t-13.5 39.5t13 39.5t38 15.5z" />
    <glyph glyph-name="less" unicode="&#x3c;" horiz-adv-x="531" 
d="M46 415l439 161v-76l-353 -121l353 -121v-76l-439 161v72z" />
    <glyph glyph-name="equal" unicode="=" horiz-adv-x="531" 
d="M46 515h439v-73h-439v73zM46 316h439v-73h-439v73z" />
    <glyph glyph-name="greater" unicode="&#x3e;" horiz-adv-x="531" 
d="M485 343l-439 -161v76l353 121l-353 121v76l439 -161v-72z" />
    <glyph glyph-name="question" unicode="?" horiz-adv-x="357" 
d="M185 803q66 0 106 -39.5t40 -116.5q0 -44 -15.5 -84.5t-54.5 -106.5q-52 -90 -66 -130.5t-15 -116.5h-52q-6 41 -6 71q0 50 15 90.5t54 112.5q30 53 41.5 84t11.5 69q0 79 -65 79q-32 0 -52 -17t-20 -48v-34h-81v39q0 68 45 108t114 40zM155 107q25 0 38.5 -15.5
t13.5 -39.5t-13.5 -39.5t-38.5 -15.5t-38.5 15.5t-13.5 39.5t13.5 39.5t38.5 15.5z" />
    <glyph glyph-name="at" unicode="@" horiz-adv-x="686" 
d="M404 463l53 16v-349q0 -20 8 -29.5t29 -9.5q107 0 107 233q0 326 -230 326q-137 0 -211 -104.5t-74 -281.5q0 -284 195 -399l-27 -54q-223 129 -223 453q0 203 86.5 323t256.5 120q145 0 212.5 -93t67.5 -276q0 -144 -40 -223t-119 -79q-60 0 -82 42q-37 -42 -84 -42
q-36 0 -59.5 26t-23.5 74v230q0 48 23.5 74t58.5 26q43 0 76 -33v30zM301 360v-218q0 -51 40 -51q36 0 63 36v247q-31 37 -65 37q-38 0 -38 -51z" />
    <glyph glyph-name="A" unicode="A" 
d="M150 783h91l136 -783h-89l-18 113h-146l-17 -113h-89zM196 582l-60 -392h122z" />
    <glyph glyph-name="B" unicode="B" horiz-adv-x="402" 
d="M46 783h159q72 0 113.5 -41t41.5 -114v-109q0 -89 -57 -113q66 -25 66 -120v-125q0 -77 -41.5 -119t-114.5 -42h-167v783zM136 364v-277h70q72 0 72 80v120q0 42 -16 59.5t-56 17.5h-70zM136 696v-253h64q38 0 54 16.5t16 56.5v101q0 79 -72 79h-62z" />
    <glyph glyph-name="C" unicode="C" horiz-adv-x="379" 
d="M132 640v-497q0 -33 18 -50.5t49 -17.5t49.5 17.5t18.5 50.5v16l85 22v-40q0 -70 -45 -112.5t-112 -42.5q-66 0 -110 42.5t-44 112.5v501q0 71 44 113t115 42q70 0 111 -41.5t41 -113.5v-26h-85v24q0 68 -66 68q-32 0 -50.5 -17.5t-18.5 -50.5z" />
    <glyph glyph-name="D" unicode="D" horiz-adv-x="405" 
d="M46 783h162q74 0 115 -45.5t41 -134.5v-423q0 -89 -41 -134.5t-115 -45.5h-162v783zM138 694v-605h63q72 0 72 85v435q0 85 -72 85h-63z" />
    <glyph glyph-name="E" unicode="E" horiz-adv-x="334" 
d="M46 783h259v-89h-167v-246h118v-89h-118v-270h167v-89h-259v783z" />
    <glyph glyph-name="F" unicode="F" horiz-adv-x="336" 
d="M46 783h270v-89h-178v-272h131v-89h-131v-333h-92v783z" />
    <glyph glyph-name="G" unicode="G" horiz-adv-x="393" 
d="M130 640v-497q0 -33 18 -50.5t49 -17.5t51.5 17.5t20.5 50.5v208h-78v83h158v-434h-57l-4 34q-43 -48 -108 -48q-61 0 -100 42t-39 113v501q0 71 44 113t114 42q69 0 111 -41.5t42 -113.5v-26h-85v24q0 33 -18 50.5t-49 17.5q-32 0 -51 -17.5t-19 -50.5z" />
    <glyph glyph-name="H" unicode="H" horiz-adv-x="415" 
d="M46 783h92v-341h139v341h92v-783h-92v354h-139v-354h-92v783z" />
    <glyph glyph-name="I" unicode="I" horiz-adv-x="184" 
d="M46 783h92v-783h-92v783z" />
    <glyph glyph-name="J" unicode="J" horiz-adv-x="375" 
d="M240 783h91v-642q0 -71 -43.5 -113t-112.5 -42t-112 42t-43 113v40l85 -22v-16q0 -33 18 -50.5t49 -17.5t49.5 17.5t18.5 50.5v640z" />
    <glyph glyph-name="K" unicode="K" horiz-adv-x="387" 
d="M268 783h94l-146 -320l158 -463h-96l-140 423v-423h-92v783h92v-291z" />
    <glyph glyph-name="L" unicode="L" horiz-adv-x="305" 
d="M46 783h92v-694h147v-89h-239v783z" />
    <glyph glyph-name="M" unicode="M" horiz-adv-x="535" 
d="M46 783h100l122 -621l129 621h92v-783h-82v505l-96 -505h-85l-98 512v-512h-82v783z" />
    <glyph glyph-name="N" unicode="N" horiz-adv-x="405" 
d="M46 783h100l133 -540v540h80v-783h-82l-151 576v-576h-80v783z" />
    <glyph glyph-name="O" unicode="O" horiz-adv-x="404" 
d="M363 640v-497q0 -72 -46 -114.5t-115 -42.5t-115 42.5t-46 114.5v497q0 72 46 114.5t115 42.5t115 -42.5t46 -114.5zM132 639v-495q0 -33 19 -51t51 -18t51 18t19 51v495q0 33 -19 51t-51 18t-51 -18t-19 -51z" />
    <glyph glyph-name="P" unicode="P" 
d="M46 783h162q74 0 115 -45.5t41 -134.5v-114q0 -89 -41 -134.5t-115 -45.5h-70v-309h-92v783zM138 694v-296h63q72 0 72 85v126q0 85 -72 85h-63z" />
    <glyph glyph-name="Q" unicode="Q" horiz-adv-x="404" 
d="M363 640v-489q0 -60 -33 -101l68 -90l-65 -49l-70 93q-32 -10 -61 -10q-69 0 -115 42.5t-46 114.5v489q0 72 46 114.5t115 42.5t115 -42.5t46 -114.5zM132 639v-493q0 -33 19 -51t51 -18t51 18t19 51v493q0 33 -19 51t-51 18t-51 -18t-19 -51z" />
    <glyph glyph-name="R" unicode="R" horiz-adv-x="404" 
d="M46 783h159q72 0 113.5 -41t41.5 -114v-109q0 -87 -55 -111q61 -25 61 -114v-294h-91v297q0 37 -15.5 52.5t-55.5 15.5h-68v-365h-90v783zM136 696v-252h62q40 0 56 16t16 55v102q0 79 -72 79h-62z" />
    <glyph glyph-name="S" unicode="S" horiz-adv-x="376" 
d="M191 797q70 0 110.5 -42t40.5 -111v-28h-85v21q0 34 -18 54t-50 20q-35 0 -53.5 -23.5t-18.5 -60.5q0 -50 41 -108q1 -1 62 -82.5t83 -116.5q44 -70 44 -146q0 -89 -39.5 -138.5t-117.5 -49.5q-75 0 -120 43.5t-45 109.5v42l85 -22v-19q0 -29 20 -49.5t54 -20.5
q75 0 75 92q0 56 -39 117q-13 19 -61 80.5t-68 93.5q-59 93 -59 175q0 78 43.5 123.5t115.5 45.5z" />
    <glyph glyph-name="T" unicode="T" horiz-adv-x="308" 
d="M20 783h268v-89h-88v-694h-92v694h-88v89z" />
    <glyph glyph-name="U" unicode="U" horiz-adv-x="410" 
d="M44 783h92v-639q0 -33 19 -51t50 -18q32 0 51.5 18t19.5 51v639h90v-640q0 -72 -46 -114.5t-116 -42.5q-69 0 -114.5 42.5t-45.5 114.5v640z" />
    <glyph glyph-name="V" unicode="V" 
d="M18 783h90l89 -582l91 582h89l-135 -783h-91z" />
    <glyph glyph-name="W" unicode="W" horiz-adv-x="577" 
d="M22 783h88l48 -551l85 551h88l79 -554l56 554h89l-89 -783h-92l-87 590l-95 -590h-89z" />
    <glyph glyph-name="X" unicode="X" horiz-adv-x="408" 
d="M294 783h89l-134 -376l146 -407h-97l-100 286l-98 -286h-87l139 416l-128 367h93l87 -248z" />
    <glyph glyph-name="Y" unicode="Y" horiz-adv-x="412" 
d="M13 783h93l101 -304l103 304h89l-147 -417v-366h-92v366z" />
    <glyph glyph-name="Z" unicode="Z" horiz-adv-x="360" 
d="M32 783h300v-71l-210 -623h210v-89h-304v85l209 609h-205v89z" />
    <glyph glyph-name="bracketleft" unicode="[" horiz-adv-x="287" 
d="M87 959h186v-73h-113v-1023h113v-73h-186v1169z" />
    <glyph glyph-name="backslash" unicode="\" horiz-adv-x="346" 
d="M6 869h74l267 -989h-74z" />
    <glyph glyph-name="bracketright" unicode="]" horiz-adv-x="287" 
d="M200 -210h-186v73h113v1023h-113v73h186v-1169z" />
    <glyph glyph-name="asciicircum" unicode="^" horiz-adv-x="453" 
d="M190 783h72l161 -439h-76l-121 353l-121 -353h-76z" />
    <glyph glyph-name="underscore" unicode="_" horiz-adv-x="425" 
d="M0 -66h428v-59h-428v59z" />
    <glyph glyph-name="grave" unicode="`" horiz-adv-x="271" 
d="M75 817h97l88 -158h-79z" />
    <glyph glyph-name="a" unicode="a" horiz-adv-x="384" 
d="M102 490l-49 61q22 32 60 50t82 18q71 0 108 -45.5t37 -120.5v-453h-56l-16 34q-50 -42 -112 -42q-56 0 -92.5 38.5t-36.5 119.5q0 66 29 114t97 99q43 31 103 69v19q0 40 -18.5 63t-54.5 23q-53 0 -81 -47zM182 76q39 0 74 35v235q-37 -23 -59 -40q-81 -63 -81 -143
q0 -87 66 -87z" />
    <glyph glyph-name="b" unicode="b" 
d="M46 793l89 22v-231q45 35 98 35q54 0 90 -38.5t36 -109.5v-331q0 -71 -36 -109.5t-90 -38.5q-63 0 -111 46l-15 -38h-61v793zM208 531q-40 0 -73 -35v-381q33 -35 73 -35q62 0 62 79v293q0 79 -62 79z" />
    <glyph glyph-name="c" unicode="c" horiz-adv-x="370" 
d="M127 466v-321q0 -31 17.5 -48t46.5 -17t47 17t18 48v37l81 21v-63q0 -67 -42.5 -107.5t-106.5 -40.5q-63 0 -105 40.5t-42 107.5v331q0 67 42 107.5t105 40.5q64 0 106.5 -40.5t42.5 -107.5v-26h-81v21q0 31 -18 48t-47 17t-46.5 -17t-17.5 -48z" />
    <glyph glyph-name="d" unicode="d" horiz-adv-x="400" 
d="M265 793l89 22v-815h-61l-15 38q-49 -46 -111 -46q-54 0 -90 38.5t-36 109.5v331q0 71 36 109.5t90 38.5q52 0 98 -35v209zM130 452v-293q0 -79 62 -79q40 0 73 35v381q-33 35 -73 35q-62 0 -62 -79z" />
    <glyph glyph-name="e" unicode="e" horiz-adv-x="375" 
d="M241 274q-46 -40 -114 -82v-49q0 -31 17.5 -48t46.5 -17t47 17t18 48v39l81 21v-63q0 -67 -42.5 -107.5t-106.5 -40.5q-63 0 -105 40.5t-42 107.5v331q0 67 42 107.5t106 40.5q62 0 106 -38.5t44 -122.5q0 -56 -23 -98.5t-75 -85.5zM127 467v-189q45 29 69 52
q57 53 57 122q0 85 -65 85q-29 0 -45 -18.5t-16 -51.5z" />
    <glyph glyph-name="f" unicode="f" horiz-adv-x="309" 
d="M12 611h68v54q0 72 35.5 115t103.5 43q46 0 84 -20l-24 -78q-24 16 -50 16q-31 0 -47.5 -20.5t-16.5 -56.5v-53h101v-75h-101v-536h-85v536h-68v75z" />
    <glyph glyph-name="g" unicode="g" horiz-adv-x="392" 
d="M42 309v162q0 67 43.5 107.5t108.5 40.5q46 0 81 -21l111 6l-50 -77q10 -28 10 -56v-162q0 -67 -43.5 -107.5t-108.5 -40.5q-18 0 -35 3q-24 -20 -24 -48q0 -42 51 -42h175l-35 -76h-171q-61 0 -61 -47q0 -20 13 -33.5t37 -13.5h140l-35 -75h-122q-59 0 -91.5 34.5
t-32.5 83.5q0 80 74 110q-14 20 -14 50q0 48 44 77q-65 39 -65 125zM126 470v-160q0 -32 18.5 -49.5t49.5 -17.5q30 0 49 17.5t19 49.5v160q0 33 -18.5 50t-49.5 17t-49.5 -17t-18.5 -50z" />
    <glyph glyph-name="h" unicode="h" horiz-adv-x="403" 
d="M46 793l89 22v-228q43 32 96 32q56 0 92 -38t36 -110v-471h-89v452q0 79 -64 79q-37 0 -71 -32v-499h-89v793z" />
    <glyph glyph-name="i" unicode="i" horiz-adv-x="181" 
d="M46 611h89v-611h-89v611zM89 806q26 0 39.5 -15t13.5 -39q0 -25 -13.5 -40.5t-39.5 -15.5q-25 0 -38 16t-13 40t13 39t38 15z" />
    <glyph glyph-name="j" unicode="j" horiz-adv-x="194" 
d="M62 611h86v-637q0 -69 -34.5 -113t-102.5 -44q-49 0 -82 24l24 77q23 -17 45 -17q29 0 46.5 19.5t17.5 53.5v637zM105 806q26 0 39.5 -15t13.5 -39q0 -25 -13.5 -40.5t-39.5 -15.5q-25 0 -38 16t-13 40t13 39t38 15z" />
    <glyph glyph-name="k" unicode="k" horiz-adv-x="375" 
d="M259 611h91l-140 -250l152 -361h-92l-135 329v-329h-89v793l89 22v-431z" />
    <glyph glyph-name="l" unicode="l" horiz-adv-x="181" 
d="M46 793l89 22v-815h-89v793z" />
    <glyph glyph-name="m" unicode="m" horiz-adv-x="611" 
d="M46 611h61l14 -34q47 42 105 42q65 0 100 -53q48 53 116 53q54 0 89.5 -38t35.5 -110v-471h-89v452q0 79 -61 79q-36 0 -68 -32q2 -18 2 -28v-471h-89v452q0 79 -61 79q-36 0 -66 -30v-501h-89v611z" />
    <glyph glyph-name="n" unicode="n" horiz-adv-x="403" 
d="M46 611h61l14 -35q48 43 110 43q56 0 92 -38t36 -110v-471h-89v452q0 79 -64 79q-37 0 -71 -32v-499h-89v611z" />
    <glyph glyph-name="o" unicode="o" horiz-adv-x="386" 
d="M345 471v-331q0 -67 -43.5 -107.5t-108.5 -40.5t-108.5 40.5t-43.5 107.5v331q0 67 43.5 107.5t108.5 40.5t108.5 -40.5t43.5 -107.5zM127 466v-321q0 -31 18.5 -48t47.5 -17t47 17t18 48v321q0 31 -18 48t-47 17t-47.5 -17t-18.5 -48z" />
    <glyph glyph-name="p" unicode="p" horiz-adv-x="400" 
d="M46 611h61l15 -38q48 46 111 46q54 0 90 -38.5t36 -109.5v-331q0 -71 -36 -109.5t-90 -38.5q-55 0 -98 35v-198h-89v782zM208 531q-40 0 -73 -35v-381q33 -35 73 -35q62 0 62 79v293q0 79 -62 79z" />
    <glyph glyph-name="q" unicode="q" horiz-adv-x="400" 
d="M293 611h61v-782h-89v198q-44 -35 -98 -35t-90 38.5t-36 109.5v331q0 71 36 109.5t90 38.5q62 0 111 -46zM130 452v-293q0 -79 62 -79q40 0 73 35v381q-33 35 -73 35q-62 0 -62 -79z" />
    <glyph glyph-name="r" unicode="r" horiz-adv-x="312" 
d="M301 593l-25 -79q-28 17 -56 17q-50 0 -85 -52v-479h-89v611h61l17 -51q39 59 103 59q44 0 74 -26z" />
    <glyph glyph-name="s" unicode="s" horiz-adv-x="365" 
d="M187 619q73 0 110 -37.5t37 -96.5v-40h-81v28q0 62 -67 62q-68 0 -68 -59q0 -35 37 -74q15 -17 67.5 -64.5t71.5 -71.5q43 -53 43 -123t-38.5 -110.5t-115.5 -40.5q-73 0 -114.5 37.5t-41.5 104.5v69l81 -21v-41q0 -30 19 -47t56 -17q71 0 71 69q0 37 -35 77
q-23 27 -72.5 72t-66.5 64q-48 57 -48 122q0 66 41.5 102t113.5 36z" />
    <glyph glyph-name="t" unicode="t" horiz-adv-x="308" 
d="M12 611h66v107l86 36v-143h102v-75h-102v-386q0 -34 17.5 -54t47.5 -20q23 0 45 16l24 -76q-33 -24 -83 -24q-68 0 -102.5 44.5t-34.5 113.5v386h-66v75z" />
    <glyph glyph-name="u" unicode="u" horiz-adv-x="399" 
d="M264 611h89v-611h-61l-15 34q-45 -42 -106 -42q-55 0 -91 38t-36 110v471h89v-452q0 -79 63 -79q36 0 68 31v500z" />
    <glyph glyph-name="v" unicode="v" horiz-adv-x="378" 
d="M19 611h86l83 -454l87 454h85l-129 -611h-87z" />
    <glyph glyph-name="w" unicode="w" horiz-adv-x="542" 
d="M22 611h83l44 -431l80 431h82l74 -432l51 432h84l-83 -611h-87l-81 461l-88 -461h-84z" />
    <glyph glyph-name="x" unicode="x" horiz-adv-x="417" 
d="M300 611h92l-137 -293l149 -318h-99l-103 223l-100 -223h-89l143 324l-132 287h95l89 -193z" />
    <glyph glyph-name="y" unicode="y" horiz-adv-x="399" 
d="M264 611h89v-782h-89v204q-41 -31 -93 -31q-55 0 -91 38t-36 110v461h89v-442q0 -79 63 -79q36 0 68 31v490z" />
    <glyph glyph-name="z" unicode="z" horiz-adv-x="348" 
d="M31 611h290v-62l-200 -474h200v-75h-294v73l200 463h-196v75z" />
    <glyph glyph-name="braceleft" unicode="{" horiz-adv-x="287" 
d="M273 959v-73q-49 0 -64.5 -15.5t-15.5 -65.5v-345q0 -33 -19.5 -57t-41.5 -27q22 -3 41.5 -30t19.5 -61v-341q0 -51 15.5 -66t64.5 -15v-73q-84 0 -118.5 32.5t-34.5 121.5v334q0 60 -52 60h-36v72h36q52 0 52 57v338q0 89 34.5 121.5t118.5 32.5z" />
    <glyph glyph-name="bar" unicode="|" horiz-adv-x="247" 
d="M87 909h73v-1069h-73v1069z" />
    <glyph glyph-name="braceright" unicode="}" horiz-adv-x="287" 
d="M14 -210v73q49 0 64.5 15.5t15.5 65.5v345q0 33 19.5 57t41.5 27q-22 3 -41.5 30t-19.5 61v341q0 51 -15.5 66t-64.5 15v73q84 0 118.5 -32.5t34.5 -121.5v-334q0 -60 52 -60h36v-72h-36q-52 0 -52 -57v-338q0 -89 -34.5 -121.5t-118.5 -32.5z" />
    <glyph glyph-name="asciitilde" unicode="~" horiz-adv-x="531" 
d="M46 291v86q42 60 121 60q44 0 107 -23q57 -22 91 -22q73 0 120 74v-86q-44 -61 -121 -61q-44 0 -107 24q-56 21 -91 21q-74 0 -120 -73z" />
    <glyph glyph-name="nbspace" unicode="&#xa0;" horiz-adv-x="186" 
 />
    <glyph glyph-name="exclamdown" unicode="&#xa1;" horiz-adv-x="183" 
d="M139 -136h-107l28 588h50zM86 554q-26 0 -39.5 15.5t-13.5 39.5t13.5 39.5t39.5 15.5q24 0 37.5 -15.5t13.5 -39.5t-13 -39.5t-38 -15.5z" />
    <glyph glyph-name="cent" unicode="&#xa2;" horiz-adv-x="393" 
d="M134 551v-321q0 -31 17.5 -48t46.5 -17t47 17t18 48v37l81 21v-63q0 -62 -36.5 -101.5t-93.5 -45.5v-98h-36v98q-57 5 -93.5 44.5t-36.5 102.5v331q0 62 36.5 101.5t93.5 45.5v100h36v-100q57 -6 93.5 -45.5t36.5 -101.5v-26h-81v21q0 31 -18 48t-47 17t-46.5 -17
t-17.5 -48z" />
    <glyph glyph-name="sterling" unicode="&#xa3;" horiz-adv-x="437" 
d="M31 471h54v171q0 71 44 113t115 42q70 0 111 -41.5t41 -113.5v-26h-85v24q0 68 -66 68q-32 0 -50.5 -17.5t-18.5 -50.5v-169h186v-73h-186v-309h210v-89h-346v89h45v309h-54v73z" />
    <glyph glyph-name="currency" unicode="&#xa4;" horiz-adv-x="699" 
d="M79 701l113 -114q62 60 157 60t157 -59l114 114l52 -52l-123 -123q19 -43 19 -93v-109q0 -51 -20 -93l124 -124l-52 -51l-115 114q-62 -57 -156 -57t-155 58l-115 -115l-52 52l124 124q-19 43 -19 92v109q0 52 18 92l-123 124zM198 423v-87q0 -67 43 -107t108 -40
q66 0 109.5 40t43.5 107v87q0 68 -43.5 108.5t-109.5 40.5q-65 0 -108 -40.5t-43 -108.5z" />
    <glyph glyph-name="yen" unicode="&#xa5;" horiz-adv-x="494" 
d="M27 186h173v81h-173v59h173v40l-147 417h93l101 -304l103 304h89l-147 -417v-40h174v-59h-174v-81h174v-59h-174v-127h-92v127h-173v59z" />
    <glyph glyph-name="brokenbar" unicode="&#xa6;" horiz-adv-x="247" 
d="M87 909h73v-469h-73v469zM87 309h73v-469h-73v469z" />
    <glyph glyph-name="section" unicode="&#xa7;" horiz-adv-x="388" 
d="M213 797q61 0 96 -36.5t35 -96.5v-25h-74v19q0 30 -15.5 47t-43.5 17q-30 0 -46 -20.5t-16 -52.5q0 -45 35 -94q11 -16 59.5 -80.5t66.5 -92.5q39 -62 39 -128q0 -122 -81 -153q30 -47 41 -78.5t11 -69.5q0 -77 -34.5 -120t-102.5 -43q-65 0 -104 38t-39 95v37l74 -20
v-16q0 -25 17.5 -43t46.5 -18q65 0 65 80q0 51 -34 102q-11 17 -53 70.5t-59 80.5q-51 79 -51 153q0 107 87 138q-58 86 -58 163q0 67 37.5 107t100.5 40zM155 254q10 -16 66 -89q51 9 51 79q0 51 -34 102q-10 14 -30 40t-26 35q-29 -1 -45.5 -22t-16.5 -51q0 -45 35 -94z
" />
    <glyph glyph-name="dieresis" unicode="&#xa8;" horiz-adv-x="327" 
d="M246 806q26 0 39.5 -15t13.5 -39q0 -25 -13.5 -40.5t-39.5 -15.5q-25 0 -38 16t-13 40t13 39t38 15zM79 806q26 0 39.5 -15t13.5 -39q0 -25 -13.5 -40.5t-39.5 -15.5q-25 0 -38 16t-13 40t13 39t38 15z" />
    <glyph glyph-name="copyright" unicode="&#xa9;" horiz-adv-x="751" 
d="M44 307v166q0 147 94 235.5t236 88.5q143 0 238 -88.5t95 -235.5v-166q0 -145 -95.5 -233t-237.5 -88t-236 88t-94 233zM83 473v-166q0 -127 83.5 -204.5t207.5 -77.5q125 0 209 77.5t84 204.5v166q0 129 -84 206.5t-209 77.5t-208 -77.5t-83 -206.5zM328 561v-328
q0 -21 12 -33t32 -12q21 0 33 12t12 33v11l56 14v-26q0 -46 -29.5 -74t-73.5 -28t-73 28t-29 74v331q0 47 29.5 74.5t75.5 27.5t73 -27.5t27 -74.5v-17h-56v15q0 45 -43 45q-46 0 -46 -45z" />
    <glyph glyph-name="ordfeminine" unicode="&#xaa;" horiz-adv-x="305" 
d="M95 712l-36 41q28 44 91 44q46 0 69 -28.5t23 -77.5v-291h-42l-8 18q-30 -24 -68 -24q-35 0 -58.5 25t-23.5 77q0 76 69 132q37 29 72 49v12q0 25 -9 37t-31 12q-30 0 -48 -26zM144 454q20 0 39 16v144q-19 -12 -35 -26q-43 -34 -43 -82q0 -52 39 -52z" />
    <glyph glyph-name="guillemotleft" unicode="&#xab;" horiz-adv-x="373" 
d="M275 611h79l-105 -306l105 -305h-79l-104 305zM122 611h79l-105 -306l105 -305h-79l-104 305z" />
    <glyph glyph-name="logicalnot" unicode="&#xac;" horiz-adv-x="531" 
d="M46 427h438v-427h-73v354h-365v73z" />
    <glyph glyph-name="softhyphen" unicode="&#xad;" horiz-adv-x="306" 
d="M27 416h251v-73h-251v73z" />
    <glyph glyph-name="registered" unicode="&#xae;" horiz-adv-x="751" 
d="M44 307v166q0 147 94 235.5t236 88.5q143 0 238 -88.5t95 -235.5v-166q0 -145 -95.5 -233t-237.5 -88t-236 88t-94 233zM83 473v-166q0 -127 83.5 -204.5t207.5 -77.5q125 0 209 77.5t84 204.5v166q0 129 -84 206.5t-209 77.5t-208 -77.5t-83 -206.5zM271 656h105
q48 0 75.5 -27.5t27.5 -75.5v-71q0 -57 -36 -74q40 -16 40 -75v-194h-61v196q0 25 -10 35t-36 10h-45v-241h-60v517zM331 598v-166h41q26 0 36.5 10.5t10.5 36.5v67q0 52 -47 52h-41z" />
    <glyph glyph-name="macron" unicode="&#xaf;" horiz-adv-x="380" 
d="M28 779h324v-67h-324v67z" />
    <glyph glyph-name="degree" unicode="&#xb0;" horiz-adv-x="338" 
d="M52 591v92q0 52 33 83t83 31t83.5 -31t33.5 -83v-92q0 -51 -33.5 -82t-83.5 -31t-83 31t-33 82zM115 683v-91q0 -23 14.5 -37.5t39.5 -14.5q24 0 38.5 14.5t14.5 37.5v91q0 23 -14.5 37.5t-38.5 14.5q-25 0 -39.5 -14.5t-14.5 -37.5z" />
    <glyph glyph-name="plusminus" unicode="&#xb1;" horiz-adv-x="531" 
d="M228 599h74v-183h183v-73h-183v-183h-74v183h-182v73h182v183zM46 85h439v-73h-439v73z" />
    <glyph glyph-name="twosuperior" unicode="&#xb2;" horiz-adv-x="257" 
d="M36 691v14q0 40 24.5 62.5t69.5 22.5q95 0 95 -97q0 -40 -21 -72q-10 -17 -42.5 -59t-42.5 -56q-13 -19 -17 -31.5t-4 -37.5v-34h127v-51h-186v85q0 47 25 84q10 15 44 57t44 59q15 26 15 57q0 25 -8 34.5t-30 9.5q-40 0 -40 -34v-13h-53z" />
    <glyph glyph-name="threesuperior" unicode="&#xb3;" horiz-adv-x="270" 
d="M39 691v14q0 40 24.5 62.5t66.5 22.5q46 0 71 -25.5t25 -67.5v-60q0 -47 -33 -61q39 -16 39 -67v-80q0 -39 -28 -62t-70 -23t-68.5 23t-26.5 63v22l53 -13v-9q0 -35 42 -35q41 0 41 35v80q0 23 -9 32t-33 9h-33v46h30q22 0 30.5 8t8.5 30v63q0 40 -39 40q-38 0 -38 -36
v-11h-53z" />
    <glyph glyph-name="acute" unicode="&#xb4;" horiz-adv-x="271" 
d="M100 817h97l-107 -158h-78z" />
    <glyph glyph-name="paragraph" unicode="&#xb6;" horiz-adv-x="460" 
d="M180 783h247l-14 -66h-34v-837h-65v837h-109v-837h-65v679q-50 3 -80.5 35.5t-30.5 73.5q0 52 37.5 83.5t113.5 31.5z" />
    <glyph glyph-name="periodcentered" unicode="&#xb7;" horiz-adv-x="160" 
d="M79 443q26 0 39.5 -15.5t13.5 -39.5t-13.5 -39.5t-39.5 -15.5q-24 0 -37.5 15.5t-13.5 39.5t13 39.5t38 15.5z" />
    <glyph glyph-name="cedilla" unicode="&#xb8;" horiz-adv-x="191" 
d="M63 -20h88l-44 -190h-70z" />
    <glyph glyph-name="onesuperior" unicode="&#xb9;" horiz-adv-x="195" 
d="M28 741h20q20 0 28 9.5t8 32.5h59v-431h-59v344h-56v45z" />
    <glyph glyph-name="ordmasculine" unicode="&#xba;" horiz-adv-x="301" 
d="M246 702v-212q0 -44 -27.5 -69.5t-70.5 -25.5q-42 0 -69.5 25.5t-27.5 69.5v212q0 44 27.5 69.5t69.5 25.5q43 0 70.5 -25.5t27.5 -69.5zM112 696v-200q0 -40 36 -40q37 0 37 40v200q0 18 -10 28.5t-27 10.5q-36 0 -36 -39z" />
    <glyph glyph-name="guillemotright" unicode="&#xbb;" horiz-adv-x="373" 
d="M171 611h79l104 -306l-104 -305h-79l105 305zM18 611h79l104 -306l-104 -305h-79l105 305z" />
    <glyph glyph-name="onequarter" unicode="&#xbc;" horiz-adv-x="612" 
d="M438 783h64l-361 -783h-66zM72 741h20q20 0 28 9.5t8 32.5h59v-431h-59v344h-56v45zM458 431h54v-246h35v-52h-35v-133h-54v133h-120v48l54 165h50l-51 -161h67v246z" />
    <glyph glyph-name="onehalf" unicode="&#xbd;" horiz-adv-x="612" 
d="M436 783h64l-361 -783h-66zM70 741h20q20 0 28 9.5t8 32.5h59v-431h-59v344h-56v45zM360 339v14q0 40 24.5 62.5t69.5 22.5q95 0 95 -97q0 -40 -21 -72q-10 -17 -42.5 -59t-42.5 -56q-13 -19 -17 -31.5t-4 -37.5v-34h127v-51h-186v85q0 47 25 84q10 15 44 57t44 59
q15 26 15 57q0 25 -8 34.5t-30 9.5q-40 0 -40 -34v-13h-53z" />
    <glyph glyph-name="threequarters" unicode="&#xbe;" horiz-adv-x="612" 
d="M456 783h64l-361 -783h-66zM476 431h54v-246h35v-52h-35v-133h-54v133h-120v48l54 165h50l-51 -161h67v246zM46 691v14q0 40 24.5 62.5t66.5 22.5q46 0 71 -25.5t25 -67.5v-60q0 -47 -33 -61q39 -16 39 -67v-80q0 -39 -28 -62t-70 -23t-68.5 23t-26.5 63v22l53 -13v-9
q0 -35 42 -35q41 0 41 35v80q0 23 -9 32t-33 9h-33v46h30q22 0 30.5 8t8.5 30v63q0 40 -39 40q-38 0 -38 -36v-11h-53z" />
    <glyph glyph-name="questiondown" unicode="&#xbf;" horiz-adv-x="357" 
d="M172 -142q-66 0 -106 39.5t-40 116.5q0 44 15.5 84.5t54.5 106.5q52 90 66 130.5t15 116.5h52q6 -41 6 -71q0 -50 -15 -90.5t-54 -112.5q-30 -53 -41.5 -84t-11.5 -69q0 -79 65 -79q32 0 52 17t20 48v34h81v-39q0 -68 -45 -108t-114 -40zM202 554q-25 0 -38.5 15.5
t-13.5 39.5t13.5 39.5t38.5 15.5t38.5 -15.5t13.5 -39.5t-13.5 -39.5t-38.5 -15.5z" />
    <glyph glyph-name="Agrave" unicode="&#xc0;" 
d="M150 783h91l136 -783h-89l-18 113h-146l-17 -113h-89zM196 582l-60 -392h122zM96 989h97l88 -158h-79z" />
    <glyph glyph-name="Aacute" unicode="&#xc1;" 
d="M150 783h91l136 -783h-89l-18 113h-146l-17 -113h-89zM196 582l-60 -392h122zM201 989h97l-107 -158h-78z" />
    <glyph glyph-name="Acircumflex" unicode="&#xc2;" 
d="M150 783h91l136 -783h-89l-18 113h-146l-17 -113h-89zM196 582l-60 -392h122zM149 989h96l99 -158h-75l-72 115l-72 -115h-74z" />
    <glyph glyph-name="Atilde" unicode="&#xc3;" 
d="M150 783h91l136 -783h-89l-18 113h-146l-17 -113h-89zM196 582l-60 -392h122zM62 867l-36 32q37 76 104 76q34 0 73 -24t63 -24q43 0 66 49l36 -32q-38 -77 -101 -77q-31 0 -72 24t-67 24q-44 0 -66 -48z" />
    <glyph glyph-name="Adieresis" unicode="&#xc4;" 
d="M150 783h91l136 -783h-89l-18 113h-146l-17 -113h-89zM196 582l-60 -392h122zM279 978q26 0 39.5 -15t13.5 -39q0 -25 -13.5 -40.5t-39.5 -15.5q-25 0 -38 16t-13 40t13 39t38 15zM112 978q26 0 39.5 -15t13.5 -39q0 -25 -13.5 -40.5t-39.5 -15.5q-25 0 -38 16t-13 40
t13 39t38 15z" />
    <glyph glyph-name="Aring" unicode="&#xc5;" 
d="M150 783h91l136 -783h-89l-18 113h-146l-17 -113h-89zM196 582l-60 -392h122zM182 989h28q40 0 64 -25t24 -64t-24 -64.5t-64 -25.5h-28q-40 0 -63.5 25.5t-23.5 64.5q0 38 23.5 63.5t63.5 25.5zM210 940h-28q-17 0 -27.5 -11t-10.5 -30q0 -18 10.5 -29t27.5 -11h28
q17 0 28 11t11 29q0 19 -11 30t-28 11z" />
    <glyph glyph-name="AE" unicode="&#xc6;" horiz-adv-x="537" 
d="M135 783h373v-89h-167v-246h118v-89h-118v-270h167v-89h-259v113h-127l-15 -113h-89zM249 694h-49l-68 -504h117v504z" />
    <glyph glyph-name="Ccedilla" unicode="&#xc7;" horiz-adv-x="379" 
d="M132 640v-497q0 -33 18 -50.5t49 -17.5t49.5 17.5t18.5 50.5v16l85 22v-40q0 -70 -45 -112.5t-112 -42.5q-66 0 -110 42.5t-44 112.5v501q0 71 44 113t115 42q70 0 111 -41.5t41 -113.5v-26h-85v24q0 68 -66 68q-32 0 -50.5 -17.5t-18.5 -50.5zM147 -20h88l-44 -190h-70z
" />
    <glyph glyph-name="Egrave" unicode="&#xc8;" horiz-adv-x="334" 
d="M46 783h259v-89h-167v-246h118v-89h-118v-270h167v-89h-259v783zM76 989h97l88 -158h-79z" />
    <glyph glyph-name="Eacute" unicode="&#xc9;" horiz-adv-x="334" 
d="M46 783h259v-89h-167v-246h118v-89h-118v-270h167v-89h-259v783zM183 989h97l-107 -158h-78z" />
    <glyph glyph-name="Ecircumflex" unicode="&#xca;" horiz-adv-x="334" 
d="M46 783h259v-89h-167v-246h118v-89h-118v-270h167v-89h-259v783zM129 989h96l99 -158h-75l-72 115l-72 -115h-74z" />
    <glyph glyph-name="Edieresis" unicode="&#xcb;" horiz-adv-x="334" 
d="M46 783h259v-89h-167v-246h118v-89h-118v-270h167v-89h-259v783zM258 978q26 0 39.5 -15t13.5 -39q0 -25 -13.5 -40.5t-39.5 -15.5q-25 0 -38 16t-13 40t13 39t38 15zM91 978q26 0 39.5 -15t13.5 -39q0 -25 -13.5 -40.5t-39.5 -15.5q-25 0 -38 16t-13 40t13 39t38 15z
" />
    <glyph glyph-name="Igrave" unicode="&#xcc;" horiz-adv-x="205" 
d="M67 783h92v-783h-92v783zM12 989h97l88 -158h-79z" />
    <glyph glyph-name="Iacute" unicode="&#xcd;" horiz-adv-x="209" 
d="M46 783h92v-783h-92v783zM102 989h97l-107 -158h-78z" />
    <glyph glyph-name="Icircumflex" unicode="&#xce;" horiz-adv-x="258" 
d="M83 783h92v-783h-92v783zM81 989h96l99 -158h-75l-72 115l-72 -115h-74z" />
    <glyph glyph-name="Idieresis" unicode="&#xcf;" horiz-adv-x="234" 
d="M71 783h92v-783h-92v783zM200 978q26 0 39.5 -15t13.5 -39q0 -25 -13.5 -40.5t-39.5 -15.5q-25 0 -38 16t-13 40t13 39t38 15zM33 978q26 0 39.5 -15t13.5 -39q0 -25 -13.5 -40.5t-39.5 -15.5q-25 0 -38 16t-13 40t13 39t38 15z" />
    <glyph glyph-name="Eth" unicode="&#xd0;" horiz-adv-x="417" 
d="M58 783h162q74 0 115 -45.5t41 -134.5v-423q0 -89 -41 -134.5t-115 -45.5h-162v359h-49v89h49v335zM150 694v-246h82v-89h-82v-270h63q72 0 72 85v435q0 85 -72 85h-63z" />
    <glyph glyph-name="Ntilde" unicode="&#xd1;" horiz-adv-x="405" 
d="M46 783h100l133 -540v540h80v-783h-82l-151 576v-576h-80v783zM67 867l-36 32q37 76 104 76q34 0 73 -24t63 -24q43 0 66 49l36 -32q-38 -77 -101 -77q-31 0 -72 24t-67 24q-44 0 -66 -48z" />
    <glyph glyph-name="Ograve" unicode="&#xd2;" horiz-adv-x="404" 
d="M363 640v-497q0 -72 -46 -114.5t-115 -42.5t-115 42.5t-46 114.5v497q0 72 46 114.5t115 42.5t115 -42.5t46 -114.5zM132 639v-495q0 -33 19 -51t51 -18t51 18t19 51v495q0 33 -19 51t-51 18t-51 -18t-19 -51zM102 989h97l88 -158h-79z" />
    <glyph glyph-name="Oacute" unicode="&#xd3;" horiz-adv-x="404" 
d="M363 640v-497q0 -72 -46 -114.5t-115 -42.5t-115 42.5t-46 114.5v497q0 72 46 114.5t115 42.5t115 -42.5t46 -114.5zM132 639v-495q0 -33 19 -51t51 -18t51 18t19 51v495q0 33 -19 51t-51 18t-51 -18t-19 -51zM206 989h97l-107 -158h-78z" />
    <glyph glyph-name="Ocircumflex" unicode="&#xd4;" horiz-adv-x="404" 
d="M363 640v-497q0 -72 -46 -114.5t-115 -42.5t-115 42.5t-46 114.5v497q0 72 46 114.5t115 42.5t115 -42.5t46 -114.5zM132 639v-495q0 -33 19 -51t51 -18t51 18t19 51v495q0 33 -19 51t-51 18t-51 -18t-19 -51zM153 989h96l99 -158h-75l-72 115l-72 -115h-74z" />
    <glyph glyph-name="Otilde" unicode="&#xd5;" horiz-adv-x="404" 
d="M363 640v-497q0 -72 -46 -114.5t-115 -42.5t-115 42.5t-46 114.5v497q0 72 46 114.5t115 42.5t115 -42.5t46 -114.5zM132 639v-495q0 -33 19 -51t51 -18t51 18t19 51v495q0 33 -19 51t-51 18t-51 -18t-19 -51zM67 867l-36 32q37 76 104 76q34 0 73 -24t63 -24q43 0 66 49
l36 -32q-38 -77 -101 -77q-31 0 -72 24t-67 24q-44 0 -66 -48z" />
    <glyph glyph-name="Odieresis" unicode="&#xd6;" horiz-adv-x="404" 
d="M363 640v-497q0 -72 -46 -114.5t-115 -42.5t-115 42.5t-46 114.5v497q0 72 46 114.5t115 42.5t115 -42.5t46 -114.5zM132 639v-495q0 -33 19 -51t51 -18t51 18t19 51v495q0 33 -19 51t-51 18t-51 -18t-19 -51zM285 978q26 0 39.5 -15t13.5 -39q0 -25 -13.5 -40.5
t-39.5 -15.5q-25 0 -38 16t-13 40t13 39t38 15zM118 978q26 0 39.5 -15t13.5 -39q0 -25 -13.5 -40.5t-39.5 -15.5q-25 0 -38 16t-13 40t13 39t38 15z" />
    <glyph glyph-name="multiply" unicode="&#xd7;" horiz-adv-x="531" 
d="M120 577l145 -146l146 146l52 -52l-146 -145l146 -147l-52 -51l-146 146l-145 -146l-52 52l145 146l-145 145z" />
    <glyph glyph-name="Oslash" unicode="&#xd8;" horiz-adv-x="404" 
d="M324 843h53l-38 -116q24 -38 24 -87v-497q0 -72 -46 -114.5t-115 -42.5q-58 0 -99 29l-24 -75h-53l38 116q-23 37 -23 87v497q0 72 46 114.5t115 42.5q56 0 97 -29zM202 75q32 0 51 18t19 51v381l-136 -410q15 -40 66 -40zM132 639v-379l135 409q-16 39 -65 39
q-32 0 -51 -18t-19 -51z" />
    <glyph glyph-name="Ugrave" unicode="&#xd9;" horiz-adv-x="410" 
d="M44 783h92v-639q0 -33 19 -51t50 -18q32 0 51.5 18t19.5 51v639h90v-640q0 -72 -46 -114.5t-116 -42.5q-69 0 -114.5 42.5t-45.5 114.5v640zM105 989h97l88 -158h-79z" />
    <glyph glyph-name="Uacute" unicode="&#xda;" horiz-adv-x="410" 
d="M44 783h92v-639q0 -33 19 -51t50 -18q32 0 51.5 18t19.5 51v639h90v-640q0 -72 -46 -114.5t-116 -42.5q-69 0 -114.5 42.5t-45.5 114.5v640zM208 989h97l-107 -158h-78z" />
    <glyph glyph-name="Ucircumflex" unicode="&#xdb;" horiz-adv-x="410" 
d="M44 783h92v-639q0 -33 19 -51t50 -18q32 0 51.5 18t19.5 51v639h90v-640q0 -72 -46 -114.5t-116 -42.5q-69 0 -114.5 42.5t-45.5 114.5v640zM156 989h96l99 -158h-75l-72 115l-72 -115h-74z" />
    <glyph glyph-name="Udieresis" unicode="&#xdc;" horiz-adv-x="410" 
d="M44 783h92v-639q0 -33 19 -51t50 -18q32 0 51.5 18t19.5 51v639h90v-640q0 -72 -46 -114.5t-116 -42.5q-69 0 -114.5 42.5t-45.5 114.5v640zM287 978q26 0 39.5 -15t13.5 -39q0 -25 -13.5 -40.5t-39.5 -15.5q-25 0 -38 16t-13 40t13 39t38 15zM120 978q26 0 39.5 -15
t13.5 -39q0 -25 -13.5 -40.5t-39.5 -15.5q-25 0 -38 16t-13 40t13 39t38 15z" />
    <glyph glyph-name="Yacute" unicode="&#xdd;" horiz-adv-x="412" 
d="M13 783h93l101 -304l103 304h89l-147 -417v-366h-92v366zM210 989h97l-107 -158h-78z" />
    <glyph glyph-name="Thorn" unicode="&#xde;" horiz-adv-x="403" 
d="M46 783h92v-133h70q74 0 115 -45.5t41 -134.5v-148q0 -89 -41 -134.5t-115 -45.5h-70v-142h-92v783zM138 561v-330h63q72 0 72 85v160q0 85 -72 85h-63z" />
    <glyph glyph-name="germandbls" unicode="&#xdf;" horiz-adv-x="446" 
d="M130 663v-663h-84v657q0 77 37.5 121.5t116.5 44.5q143 0 143 -150v-141q0 -69 -21 -99q43 -12 64 -42.5t21 -88.5v-146q0 -72 -36.5 -118t-111.5 -46q-67 0 -109 46l27 74q25 -36 68 -36q35 0 55 21.5t20 58.5v142q0 50 -21.5 67.5t-77.5 17.5h-29v71h9q37 0 48.5 15.5
t11.5 55.5v142q0 68 -64 68q-67 0 -67 -72z" />
    <glyph glyph-name="agrave" unicode="&#xe0;" horiz-adv-x="384" 
d="M102 490l-49 61q22 32 60 50t82 18q71 0 108 -45.5t37 -120.5v-453h-56l-16 34q-50 -42 -112 -42q-56 0 -92.5 38.5t-36.5 119.5q0 66 29 114t97 99q43 31 103 69v19q0 40 -18.5 63t-54.5 23q-53 0 -81 -47zM182 76q39 0 74 35v235q-37 -23 -59 -40q-81 -63 -81 -143
q0 -87 66 -87zM91 817h97l88 -158h-79z" />
    <glyph glyph-name="aacute" unicode="&#xe1;" horiz-adv-x="384" 
d="M102 490l-49 61q22 32 60 50t82 18q71 0 108 -45.5t37 -120.5v-453h-56l-16 34q-50 -42 -112 -42q-56 0 -92.5 38.5t-36.5 119.5q0 66 29 114t97 99q43 31 103 69v19q0 40 -18.5 63t-54.5 23q-53 0 -81 -47zM182 76q39 0 74 35v235q-37 -23 -59 -40q-81 -63 -81 -143
q0 -87 66 -87zM197 817h97l-107 -158h-78z" />
    <glyph glyph-name="acircumflex" unicode="&#xe2;" horiz-adv-x="384" 
d="M102 490l-49 61q22 32 60 50t82 18q71 0 108 -45.5t37 -120.5v-453h-56l-16 34q-50 -42 -112 -42q-56 0 -92.5 38.5t-36.5 119.5q0 66 29 114t97 99q43 31 103 69v19q0 40 -18.5 63t-54.5 23q-53 0 -81 -47zM182 76q39 0 74 35v235q-37 -23 -59 -40q-81 -63 -81 -143
q0 -87 66 -87zM143 817h96l99 -158h-75l-72 115l-72 -115h-74z" />
    <glyph glyph-name="atilde" unicode="&#xe3;" horiz-adv-x="384" 
d="M102 490l-49 61q22 32 60 50t82 18q71 0 108 -45.5t37 -120.5v-453h-56l-16 34q-50 -42 -112 -42q-56 0 -92.5 38.5t-36.5 119.5q0 66 29 114t97 99q43 31 103 69v19q0 40 -18.5 63t-54.5 23q-53 0 -81 -47zM182 76q39 0 74 35v235q-37 -23 -59 -40q-81 -63 -81 -143
q0 -87 66 -87zM57 695l-36 32q37 76 104 76q34 0 73 -24t63 -24q43 0 66 49l36 -32q-38 -77 -101 -77q-31 0 -72 24t-67 24q-44 0 -66 -48z" />
    <glyph glyph-name="adieresis" unicode="&#xe4;" horiz-adv-x="384" 
d="M102 490l-49 61q22 32 60 50t82 18q71 0 108 -45.5t37 -120.5v-453h-56l-16 34q-50 -42 -112 -42q-56 0 -92.5 38.5t-36.5 119.5q0 66 29 114t97 99q43 31 103 69v19q0 40 -18.5 63t-54.5 23q-53 0 -81 -47zM182 76q39 0 74 35v235q-37 -23 -59 -40q-81 -63 -81 -143
q0 -87 66 -87zM275 806q26 0 39.5 -15t13.5 -39q0 -25 -13.5 -40.5t-39.5 -15.5q-25 0 -38 16t-13 40t13 39t38 15zM108 806q26 0 39.5 -15t13.5 -39q0 -25 -13.5 -40.5t-39.5 -15.5q-25 0 -38 16t-13 40t13 39t38 15z" />
    <glyph glyph-name="aring" unicode="&#xe5;" horiz-adv-x="384" 
d="M102 490l-49 61q22 32 60 50t82 18q71 0 108 -45.5t37 -120.5v-453h-56l-16 34q-50 -42 -112 -42q-56 0 -92.5 38.5t-36.5 119.5q0 66 29 114t97 99q43 31 103 69v19q0 40 -18.5 63t-54.5 23q-53 0 -81 -47zM182 76q39 0 74 35v235q-37 -23 -59 -40q-81 -63 -81 -143
q0 -87 66 -87zM177 817h28q40 0 64 -25t24 -64t-24 -64.5t-64 -25.5h-28q-40 0 -63.5 25.5t-23.5 64.5q0 38 23.5 63.5t63.5 25.5zM205 768h-28q-17 0 -27.5 -11t-10.5 -30q0 -18 10.5 -29t27.5 -11h28q17 0 28 11t11 29q0 19 -11 30t-28 11z" />
    <glyph glyph-name="ae" unicode="&#xe6;" horiz-adv-x="588" 
d="M102 490l-49 61q22 32 60 50t82 18q65 0 102 -39q42 39 106 39q61 0 105 -38.5t44 -122.5q0 -78 -47.5 -135.5t-164.5 -130.5v-49q0 -31 17.5 -48t46.5 -17t47 17t18 48v39l81 21v-63q0 -67 -42.5 -107.5t-106.5 -40.5q-79 0 -119 56q-53 -56 -126 -56q-56 0 -92.5 38.5
t-36.5 120.5q0 84 47.5 139.5t179.5 139.5v41q0 31 -20 48.5t-51 17.5q-53 0 -81 -47zM181 76q39 0 75 36q-2 9 -2 28v205q-81 -53 -109.5 -91.5t-28.5 -89.5q0 -88 65 -88zM340 467v-189q71 46 98.5 84t27.5 88q0 87 -65 87q-29 0 -45 -18.5t-16 -51.5z" />
    <glyph glyph-name="ccedilla" unicode="&#xe7;" horiz-adv-x="370" 
d="M127 466v-321q0 -31 17.5 -48t46.5 -17t47 17t18 48v37l81 21v-63q0 -67 -42.5 -107.5t-106.5 -40.5q-63 0 -105 40.5t-42 107.5v331q0 67 42 107.5t105 40.5q64 0 106.5 -40.5t42.5 -107.5v-26h-81v21q0 31 -18 48t-47 17t-46.5 -17t-17.5 -48zM142 -20h88l-44 -190h-70
z" />
    <glyph glyph-name="egrave" unicode="&#xe8;" horiz-adv-x="375" 
d="M241 274q-46 -40 -114 -82v-49q0 -31 17.5 -48t46.5 -17t47 17t18 48v39l81 21v-63q0 -67 -42.5 -107.5t-106.5 -40.5q-63 0 -105 40.5t-42 107.5v331q0 67 42 107.5t106 40.5q62 0 106 -38.5t44 -122.5q0 -56 -23 -98.5t-75 -85.5zM127 467v-189q45 29 69 52
q57 53 57 122q0 85 -65 85q-29 0 -45 -18.5t-16 -51.5zM87 817h97l88 -158h-79z" />
    <glyph glyph-name="eacute" unicode="&#xe9;" horiz-adv-x="375" 
d="M241 274q-46 -40 -114 -82v-49q0 -31 17.5 -48t46.5 -17t47 17t18 48v39l81 21v-63q0 -67 -42.5 -107.5t-106.5 -40.5q-63 0 -105 40.5t-42 107.5v331q0 67 42 107.5t106 40.5q62 0 106 -38.5t44 -122.5q0 -56 -23 -98.5t-75 -85.5zM127 467v-189q45 29 69 52
q57 53 57 122q0 85 -65 85q-29 0 -45 -18.5t-16 -51.5zM193 817h97l-107 -158h-78z" />
    <glyph glyph-name="ecircumflex" unicode="&#xea;" horiz-adv-x="375" 
d="M241 274q-46 -40 -114 -82v-49q0 -31 17.5 -48t46.5 -17t47 17t18 48v39l81 21v-63q0 -67 -42.5 -107.5t-106.5 -40.5q-63 0 -105 40.5t-42 107.5v331q0 67 42 107.5t106 40.5q62 0 106 -38.5t44 -122.5q0 -56 -23 -98.5t-75 -85.5zM127 467v-189q45 29 69 52
q57 53 57 122q0 85 -65 85q-29 0 -45 -18.5t-16 -51.5zM139 817h96l99 -158h-75l-72 115l-72 -115h-74z" />
    <glyph glyph-name="edieresis" unicode="&#xeb;" horiz-adv-x="375" 
d="M241 274q-46 -40 -114 -82v-49q0 -31 17.5 -48t46.5 -17t47 17t18 48v39l81 21v-63q0 -67 -42.5 -107.5t-106.5 -40.5q-63 0 -105 40.5t-42 107.5v331q0 67 42 107.5t106 40.5q62 0 106 -38.5t44 -122.5q0 -56 -23 -98.5t-75 -85.5zM127 467v-189q45 29 69 52
q57 53 57 122q0 85 -65 85q-29 0 -45 -18.5t-16 -51.5zM270 806q26 0 39.5 -15t13.5 -39q0 -25 -13.5 -40.5t-39.5 -15.5q-25 0 -38 16t-13 40t13 39t38 15zM103 806q26 0 39.5 -15t13.5 -39q0 -25 -13.5 -40.5t-39.5 -15.5q-25 0 -38 16t-13 40t13 39t38 15z" />
    <glyph glyph-name="igrave" unicode="&#xec;" horiz-adv-x="200" 
d="M9 817h97l88 -158h-79zM65 611h89v-611h-89v611z" />
    <glyph glyph-name="iacute" unicode="&#xed;" horiz-adv-x="205" 
d="M100 817h97l-107 -158h-78zM46 611h89v-611h-89v611z" />
    <glyph glyph-name="icircumflex" unicode="&#xee;" horiz-adv-x="270" 
d="M90 611h89v-611h-89v611zM86 817h96l99 -158h-75l-72 115l-72 -115h-74z" />
    <glyph glyph-name="idieresis" unicode="&#xef;" horiz-adv-x="263" 
d="M214 806q26 0 39.5 -15t13.5 -39q0 -25 -13.5 -40.5t-39.5 -15.5q-25 0 -38 16t-13 40t13 39t38 15zM47 806q26 0 39.5 -15t13.5 -39q0 -25 -13.5 -40.5t-39.5 -15.5q-25 0 -38 16t-13 40t13 39t38 15zM88 611h89v-611h-89v611z" />
    <glyph glyph-name="eth" unicode="&#xf0;" horiz-adv-x="377" 
d="M107 695l-49 60q22 32 60 50t82 18q51 0 87 -26l45 53l30 -27l-47 -55q30 -44 30 -111v-513q0 -69 -42.5 -110.5t-107.5 -41.5t-109 41.5t-44 110.5v220q0 67 34.5 103t85.5 36q57 0 101 -46v199q0 21 -7 42l-118 -139l-29 27l123 146q-16 12 -41 12q-52 0 -84 -49z
M194 80q30 0 49.5 17.5t19.5 49.5v226q-34 47 -78 47q-60 0 -60 -74v-199q0 -32 19.5 -49.5t49.5 -17.5z" />
    <glyph glyph-name="ntilde" unicode="&#xf1;" horiz-adv-x="403" 
d="M46 611h61l14 -35q48 43 110 43q56 0 92 -38t36 -110v-471h-89v452q0 79 -64 79q-37 0 -71 -32v-499h-89v611zM66 695l-36 32q37 76 104 76q34 0 73 -24t63 -24q43 0 66 49l36 -32q-38 -77 -101 -77q-31 0 -72 24t-67 24q-44 0 -66 -48z" />
    <glyph glyph-name="ograve" unicode="&#xf2;" horiz-adv-x="386" 
d="M345 471v-331q0 -67 -43.5 -107.5t-108.5 -40.5t-108.5 40.5t-43.5 107.5v331q0 67 43.5 107.5t108.5 40.5t108.5 -40.5t43.5 -107.5zM127 466v-321q0 -31 18.5 -48t47.5 -17t47 17t18 48v321q0 31 -18 48t-47 17t-47.5 -17t-18.5 -48zM92 817h97l88 -158h-79z" />
    <glyph glyph-name="oacute" unicode="&#xf3;" horiz-adv-x="386" 
d="M345 471v-331q0 -67 -43.5 -107.5t-108.5 -40.5t-108.5 40.5t-43.5 107.5v331q0 67 43.5 107.5t108.5 40.5t108.5 -40.5t43.5 -107.5zM127 466v-321q0 -31 18.5 -48t47.5 -17t47 17t18 48v321q0 31 -18 48t-47 17t-47.5 -17t-18.5 -48zM196 817h97l-107 -158h-78z" />
    <glyph glyph-name="ocircumflex" unicode="&#xf4;" horiz-adv-x="386" 
d="M345 471v-331q0 -67 -43.5 -107.5t-108.5 -40.5t-108.5 40.5t-43.5 107.5v331q0 67 43.5 107.5t108.5 40.5t108.5 -40.5t43.5 -107.5zM127 466v-321q0 -31 18.5 -48t47.5 -17t47 17t18 48v321q0 31 -18 48t-47 17t-47.5 -17t-18.5 -48zM144 817h96l99 -158h-75l-72 115
l-72 -115h-74z" />
    <glyph glyph-name="otilde" unicode="&#xf5;" horiz-adv-x="386" 
d="M345 471v-331q0 -67 -43.5 -107.5t-108.5 -40.5t-108.5 40.5t-43.5 107.5v331q0 67 43.5 107.5t108.5 40.5t108.5 -40.5t43.5 -107.5zM127 466v-321q0 -31 18.5 -48t47.5 -17t47 17t18 48v321q0 31 -18 48t-47 17t-47.5 -17t-18.5 -48zM58 695l-36 32q37 76 104 76
q34 0 73 -24t63 -24q43 0 66 49l36 -32q-38 -77 -101 -77q-31 0 -72 24t-67 24q-44 0 -66 -48z" />
    <glyph glyph-name="odieresis" unicode="&#xf6;" horiz-adv-x="386" 
d="M345 471v-331q0 -67 -43.5 -107.5t-108.5 -40.5t-108.5 40.5t-43.5 107.5v331q0 67 43.5 107.5t108.5 40.5t108.5 -40.5t43.5 -107.5zM127 466v-321q0 -31 18.5 -48t47.5 -17t47 17t18 48v321q0 31 -18 48t-47 17t-47.5 -17t-18.5 -48zM275 806q26 0 39.5 -15t13.5 -39
q0 -25 -13.5 -40.5t-39.5 -15.5q-25 0 -38 16t-13 40t13 39t38 15zM108 806q26 0 39.5 -15t13.5 -39q0 -25 -13.5 -40.5t-39.5 -15.5q-25 0 -38 16t-13 40t13 39t38 15z" />
    <glyph glyph-name="divide" unicode="&#xf7;" horiz-adv-x="531" 
d="M46 416h439v-73h-439v73zM264 231q26 0 39.5 -15.5t13.5 -39.5t-13.5 -39.5t-39.5 -15.5q-24 0 -37.5 15.5t-13.5 39.5t13 39.5t38 15.5zM264 639q26 0 39.5 -15.5t13.5 -39.5t-13.5 -39.5t-39.5 -15.5q-24 0 -37.5 15.5t-13.5 39.5t13 39.5t38 15.5z" />
    <glyph glyph-name="oslash" unicode="&#xf8;" horiz-adv-x="386" 
d="M283 671h49l-30 -94q43 -40 43 -106v-331q0 -67 -43.5 -107.5t-108.5 -40.5q-37 0 -70 14l-21 -66h-49l29 94q-41 39 -41 106v331q0 67 43.5 107.5t108.5 40.5q36 0 69 -14zM193 80q29 0 47 17t18 48v291l-108 -343q16 -13 43 -13zM127 466v-291l108 343q-16 13 -42 13
q-29 0 -47.5 -17t-18.5 -48z" />
    <glyph glyph-name="ugrave" unicode="&#xf9;" horiz-adv-x="399" 
d="M264 611h89v-611h-61l-15 34q-45 -42 -106 -42q-55 0 -91 38t-36 110v471h89v-452q0 -79 63 -79q36 0 68 31v500zM99 817h97l88 -158h-79z" />
    <glyph glyph-name="uacute" unicode="&#xfa;" horiz-adv-x="399" 
d="M264 611h89v-611h-61l-15 34q-45 -42 -106 -42q-55 0 -91 38t-36 110v471h89v-452q0 -79 63 -79q36 0 68 31v500zM204 817h97l-107 -158h-78z" />
    <glyph glyph-name="ucircumflex" unicode="&#xfb;" horiz-adv-x="399" 
d="M264 611h89v-611h-61l-15 34q-45 -42 -106 -42q-55 0 -91 38t-36 110v471h89v-452q0 -79 63 -79q36 0 68 31v500zM151 817h96l99 -158h-75l-72 115l-72 -115h-74z" />
    <glyph glyph-name="udieresis" unicode="&#xfc;" horiz-adv-x="399" 
d="M264 611h89v-611h-61l-15 34q-45 -42 -106 -42q-55 0 -91 38t-36 110v471h89v-452q0 -79 63 -79q36 0 68 31v500zM281 806q26 0 39.5 -15t13.5 -39q0 -25 -13.5 -40.5t-39.5 -15.5q-25 0 -38 16t-13 40t13 39t38 15zM114 806q26 0 39.5 -15t13.5 -39q0 -25 -13.5 -40.5
t-39.5 -15.5q-25 0 -38 16t-13 40t13 39t38 15z" />
    <glyph glyph-name="yacute" unicode="&#xfd;" horiz-adv-x="399" 
d="M264 611h89v-782h-89v204q-41 -31 -93 -31q-55 0 -91 38t-36 110v461h89v-442q0 -79 63 -79q36 0 68 31v490zM204 817h97l-107 -158h-78z" />
    <glyph glyph-name="thorn" unicode="&#xfe;" 
d="M46 793l89 22v-231q45 35 98 35q54 0 90 -38.5t36 -109.5v-331q0 -71 -36 -109.5t-90 -38.5q-55 0 -98 35v-198h-89v964zM208 531q-40 0 -73 -35v-381q33 -35 73 -35q62 0 62 79v293q0 79 -62 79z" />
    <glyph glyph-name="ydieresis" unicode="&#xff;" horiz-adv-x="399" 
d="M264 611h89v-782h-89v204q-41 -31 -93 -31q-55 0 -91 38t-36 110v461h89v-442q0 -79 63 -79q36 0 68 31v490zM282 806q26 0 39.5 -15t13.5 -39q0 -25 -13.5 -40.5t-39.5 -15.5q-25 0 -38 16t-13 40t13 39t38 15zM115 806q26 0 39.5 -15t13.5 -39q0 -25 -13.5 -40.5
t-39.5 -15.5q-25 0 -38 16t-13 40t13 39t38 15z" />
    <glyph glyph-name="Amacron" unicode="&#x100;" 
d="M150 783h91l136 -783h-89l-18 113h-146l-17 -113h-89zM196 582l-60 -392h122zM35 951h324v-67h-324v67z" />
    <glyph glyph-name="amacron" unicode="&#x101;" horiz-adv-x="384" 
d="M102 490l-49 61q22 32 60 50t82 18q71 0 108 -45.5t37 -120.5v-453h-56l-16 34q-50 -42 -112 -42q-56 0 -92.5 38.5t-36.5 119.5q0 66 29 114t97 99q43 31 103 69v19q0 40 -18.5 63t-54.5 23q-53 0 -81 -47zM182 76q39 0 74 35v235q-37 -23 -59 -40q-81 -63 -81 -143
q0 -87 66 -87zM30 779h324v-67h-324v67z" />
    <glyph glyph-name="Abreve" unicode="&#x102;" 
d="M150 783h91l136 -783h-89l-18 113h-146l-17 -113h-89zM196 582l-60 -392h122zM70 989h66q5 -103 61 -103t61 103h65q-3 -66 -34.5 -110.5t-91.5 -44.5q-61 0 -92.5 44.5t-34.5 110.5z" />
    <glyph glyph-name="abreve" unicode="&#x103;" horiz-adv-x="384" 
d="M102 490l-49 61q22 32 60 50t82 18q71 0 108 -45.5t37 -120.5v-453h-56l-16 34q-50 -42 -112 -42q-56 0 -92.5 38.5t-36.5 119.5q0 66 29 114t97 99q43 31 103 69v19q0 40 -18.5 63t-54.5 23q-53 0 -81 -47zM182 76q39 0 74 35v235q-37 -23 -59 -40q-81 -63 -81 -143
q0 -87 66 -87zM65 817h66q5 -103 61 -103t61 103h65q-3 -66 -34.5 -110.5t-91.5 -44.5q-61 0 -92.5 44.5t-34.5 110.5z" />
    <glyph glyph-name="Aogonek" unicode="&#x104;" 
d="M257 -21l33 11l-20 123h-146l-17 -113h-89l132 783h91l136 -783l-85 -37q-33 -15 -45 -27t-12 -28q0 -41 64 -41q49 0 75 18l29 -61q-32 -34 -118 -34q-70 0 -99.5 26t-29.5 64q0 67 101 99zM196 583l-60 -393h122z" />
    <glyph glyph-name="aogonek" unicode="&#x105;" horiz-adv-x="384" 
d="M220 -21l64 20l-16 35q-50 -42 -112 -42q-56 0 -92.5 38.5t-36.5 121.5q0 84 48 139t181 141v19q0 40 -18.5 63t-54.5 23q-53 0 -81 -47l-49 61q22 32 60 50t82 18q71 0 108 -45.5t37 -120.5v-453l-85 -37q-33 -15 -45 -27t-12 -28q0 -41 64 -41q50 0 75 18l29 -61
q-32 -34 -118 -34q-70 0 -99.5 26t-29.5 64q0 67 101 99zM182 76q39 0 74 35v235q-81 -51 -110.5 -91t-29.5 -91q0 -88 66 -88z" />
    <glyph glyph-name="Cacute" unicode="&#x106;" horiz-adv-x="379" 
d="M132 640v-497q0 -33 18 -50.5t49 -17.5t49.5 17.5t18.5 50.5v16l85 22v-40q0 -70 -45 -112.5t-112 -42.5q-66 0 -110 42.5t-44 112.5v501q0 71 44 113t115 42q70 0 111 -41.5t41 -113.5v-26h-85v24q0 68 -66 68q-32 0 -50.5 -17.5t-18.5 -50.5zM206 989h97l-107 -158h-78
z" />
    <glyph glyph-name="cacute" unicode="&#x107;" horiz-adv-x="370" 
d="M127 466v-321q0 -31 17.5 -48t46.5 -17t47 17t18 48v37l81 21v-63q0 -67 -42.5 -107.5t-106.5 -40.5q-63 0 -105 40.5t-42 107.5v331q0 67 42 107.5t105 40.5q64 0 106.5 -40.5t42.5 -107.5v-26h-81v21q0 31 -18 48t-47 17t-46.5 -17t-17.5 -48zM198 817h97l-107 -158
h-78z" />
    <glyph glyph-name="Cdotaccent" unicode="&#x10a;" horiz-adv-x="379" 
d="M132 640v-497q0 -33 18 -50.5t49 -17.5t49.5 17.5t18.5 50.5v16l85 22v-40q0 -70 -45 -112.5t-112 -42.5q-66 0 -110 42.5t-44 112.5v501q0 71 44 113t115 42q70 0 111 -41.5t41 -113.5v-26h-85v24q0 68 -66 68q-32 0 -50.5 -17.5t-18.5 -50.5zM201 978q26 0 39.5 -15
t13.5 -39q0 -25 -13.5 -40.5t-39.5 -15.5q-25 0 -38 16t-13 40t13 39t38 15z" />
    <glyph glyph-name="cdotaccent" unicode="&#x10b;" horiz-adv-x="370" 
d="M127 466v-321q0 -31 17.5 -48t46.5 -17t47 17t18 48v37l81 21v-63q0 -67 -42.5 -107.5t-106.5 -40.5q-63 0 -105 40.5t-42 107.5v331q0 67 42 107.5t105 40.5q64 0 106.5 -40.5t42.5 -107.5v-26h-81v21q0 31 -18 48t-47 17t-46.5 -17t-17.5 -48zM192 806q26 0 39.5 -15
t13.5 -39q0 -25 -13.5 -40.5t-39.5 -15.5q-25 0 -38 16t-13 40t13 39t38 15z" />
    <glyph glyph-name="Ccaron" unicode="&#x10c;" horiz-adv-x="379" 
d="M132 640v-497q0 -33 18 -50.5t49 -17.5t49.5 17.5t18.5 50.5v16l85 22v-40q0 -70 -45 -112.5t-112 -42.5q-66 0 -110 42.5t-44 112.5v501q0 71 44 113t115 42q70 0 111 -41.5t41 -113.5v-26h-85v24q0 68 -66 68q-32 0 -50.5 -17.5t-18.5 -50.5zM56 989h75l71 -116l73 116
h74l-98 -158h-96z" />
    <glyph glyph-name="ccaron" unicode="&#x10d;" horiz-adv-x="370" 
d="M127 466v-321q0 -31 17.5 -48t46.5 -17t47 17t18 48v37l81 21v-63q0 -67 -42.5 -107.5t-106.5 -40.5q-63 0 -105 40.5t-42 107.5v331q0 67 42 107.5t105 40.5q64 0 106.5 -40.5t42.5 -107.5v-26h-81v21q0 31 -18 48t-47 17t-46.5 -17t-17.5 -48zM46 817h75l71 -116
l73 116h74l-98 -158h-96z" />
    <glyph glyph-name="Dcaron" unicode="&#x10e;" horiz-adv-x="405" 
d="M46 783h162q74 0 115 -45.5t41 -134.5v-423q0 -89 -41 -134.5t-115 -45.5h-162v783zM138 694v-605h63q72 0 72 85v435q0 85 -72 85h-63zM36 989h75l71 -116l73 116h74l-98 -158h-96z" />
    <glyph glyph-name="dcaron" unicode="&#x10f;" horiz-adv-x="505" 
d="M265 793l89 22v-815h-61l-15 38q-49 -46 -111 -46q-54 0 -90 38.5t-36 109.5v331q0 71 36 109.5t90 38.5q52 0 98 -35v209zM130 452v-293q0 -79 62 -79q40 0 73 35v381q-33 35 -73 35q-62 0 -62 -79zM426 806h88l-44 -190h-70z" />
    <glyph glyph-name="Dcroat" unicode="&#x110;" horiz-adv-x="417" 
d="M58 783h162q74 0 115 -45.5t41 -134.5v-423q0 -89 -41 -134.5t-115 -45.5h-162v359h-49v89h49v335zM150 694v-246h82v-89h-82v-270h63q72 0 72 85v435q0 85 -72 85h-63z" />
    <glyph glyph-name="dmacron" unicode="&#x111;" horiz-adv-x="400" 
d="M70 739h195v54l89 22v-76h40v-67h-40v-672h-61l-15 38q-49 -46 -111 -46q-54 0 -90 38.5t-36 109.5v331q0 71 36 109.5t90 38.5q52 0 98 -35v88h-195v67zM130 452v-293q0 -79 62 -79q40 0 73 35v381q-33 35 -73 35q-62 0 -62 -79z" />
    <glyph glyph-name="Emacron" unicode="&#x112;" horiz-adv-x="334" 
d="M46 783h259v-89h-167v-246h118v-89h-118v-270h167v-89h-259v783zM15 951h324v-67h-324v67z" />
    <glyph glyph-name="emacron" unicode="&#x113;" horiz-adv-x="375" 
d="M241 274q-46 -40 -114 -82v-49q0 -31 17.5 -48t46.5 -17t47 17t18 48v39l81 21v-63q0 -67 -42.5 -107.5t-106.5 -40.5q-63 0 -105 40.5t-42 107.5v331q0 67 42 107.5t106 40.5q62 0 106 -38.5t44 -122.5q0 -56 -23 -98.5t-75 -85.5zM127 467v-189q45 29 69 52
q57 53 57 122q0 85 -65 85q-29 0 -45 -18.5t-16 -51.5zM26 779h324v-67h-324v67z" />
    <glyph glyph-name="Ebreve" unicode="&#x114;" horiz-adv-x="334" 
d="M46 783h259v-89h-167v-246h118v-89h-118v-270h167v-89h-259v783zM50 989h66q5 -103 61 -103t61 103h65q-3 -66 -34.5 -110.5t-91.5 -44.5q-61 0 -92.5 44.5t-34.5 110.5z" />
    <glyph glyph-name="ebreve" unicode="&#x115;" horiz-adv-x="375" 
d="M241 274q-46 -40 -114 -82v-49q0 -31 17.5 -48t46.5 -17t47 17t18 48v39l81 21v-63q0 -67 -42.5 -107.5t-106.5 -40.5q-63 0 -105 40.5t-42 107.5v331q0 67 42 107.5t106 40.5q62 0 106 -38.5t44 -122.5q0 -56 -23 -98.5t-75 -85.5zM127 467v-189q45 29 69 52
q57 53 57 122q0 85 -65 85q-29 0 -45 -18.5t-16 -51.5zM60 817h66q5 -103 61 -103t61 103h65q-3 -66 -34.5 -110.5t-91.5 -44.5q-61 0 -92.5 44.5t-34.5 110.5z" />
    <glyph glyph-name="Edotaccent" unicode="&#x116;" horiz-adv-x="334" 
d="M46 783h259v-89h-167v-246h118v-89h-118v-270h167v-89h-259v783zM177 978q26 0 39.5 -15t13.5 -39q0 -25 -13.5 -40.5t-39.5 -15.5q-25 0 -38 16t-13 40t13 39t38 15z" />
    <glyph glyph-name="edotaccent" unicode="&#x117;" horiz-adv-x="375" 
d="M241 274q-46 -40 -114 -82v-49q0 -31 17.5 -48t46.5 -17t47 17t18 48v39l81 21v-63q0 -67 -42.5 -107.5t-106.5 -40.5q-63 0 -105 40.5t-42 107.5v331q0 67 42 107.5t106 40.5q62 0 106 -38.5t44 -122.5q0 -56 -23 -98.5t-75 -85.5zM127 467v-189q45 29 69 52
q57 53 57 122q0 85 -65 85q-29 0 -45 -18.5t-16 -51.5zM187 806q26 0 39.5 -15t13.5 -39q0 -25 -13.5 -40.5t-39.5 -15.5q-25 0 -38 16t-13 40t13 39t38 15z" />
    <glyph glyph-name="Eogonek" unicode="&#x118;" horiz-adv-x="334" 
d="M185 -21l67 21h-206v783h259v-89h-167v-246h118v-89h-118v-270h167v-89l-85 -37q-33 -15 -45 -27t-12 -28q0 -41 64 -41q49 0 75 18l29 -61q-32 -34 -118 -34q-70 0 -99.5 26t-29.5 64q0 67 101 99z" />
    <glyph glyph-name="eogonek" unicode="&#x119;" horiz-adv-x="375" 
d="M118 -21l46 15q-55 7 -89 46t-34 100v331q0 67 42 107.5t106 40.5q62 0 106 -38.5t44 -122.5q0 -56 -23 -98.5t-75 -85.5q-46 -40 -114 -82v-49q0 -31 17.5 -48t46.5 -17t47 17t18 48v39l81 21v-63q0 -55 -28.5 -92.5t-75.5 -49.5l-80 -35q-33 -15 -45 -27t-12 -28
q0 -41 64 -41q50 0 75 18l29 -61q-32 -34 -118 -34q-70 0 -99.5 26t-29.5 64q0 67 101 99zM127 467v-189q45 29 69 52q57 53 57 122q0 85 -65 85q-29 0 -45 -18.5t-16 -51.5z" />
    <glyph glyph-name="Ecaron" unicode="&#x11a;" horiz-adv-x="334" 
d="M46 783h259v-89h-167v-246h118v-89h-118v-270h167v-89h-259v783zM31 989h75l71 -116l73 116h74l-98 -158h-96z" />
    <glyph glyph-name="ecaron" unicode="&#x11b;" horiz-adv-x="375" 
d="M241 274q-46 -40 -114 -82v-49q0 -31 17.5 -48t46.5 -17t47 17t18 48v39l81 21v-63q0 -67 -42.5 -107.5t-106.5 -40.5q-63 0 -105 40.5t-42 107.5v331q0 67 42 107.5t106 40.5q62 0 106 -38.5t44 -122.5q0 -56 -23 -98.5t-75 -85.5zM127 467v-189q45 29 69 52
q57 53 57 122q0 85 -65 85q-29 0 -45 -18.5t-16 -51.5zM41 817h75l71 -116l73 116h74l-98 -158h-96z" />
    <glyph glyph-name="Gbreve" unicode="&#x11e;" horiz-adv-x="393" 
d="M130 640v-497q0 -33 18 -50.5t49 -17.5t51.5 17.5t20.5 50.5v208h-78v83h158v-434h-57l-4 34q-43 -48 -108 -48q-61 0 -100 42t-39 113v501q0 71 44 113t114 42q69 0 111 -41.5t42 -113.5v-26h-85v24q0 33 -18 50.5t-49 17.5q-32 0 -51 -17.5t-19 -50.5zM72 989h66
q5 -103 61 -103t61 103h65q-3 -66 -34.5 -110.5t-91.5 -44.5q-61 0 -92.5 44.5t-34.5 110.5z" />
    <glyph glyph-name="gbreve" unicode="&#x11f;" horiz-adv-x="392" 
d="M42 309v162q0 67 43.5 107.5t108.5 40.5q46 0 81 -21l111 6l-50 -77q10 -28 10 -56v-162q0 -67 -43.5 -107.5t-108.5 -40.5q-18 0 -35 3q-24 -20 -24 -48q0 -42 51 -42h175l-35 -76h-171q-61 0 -61 -47q0 -20 13 -33.5t37 -13.5h140l-35 -75h-122q-59 0 -91.5 34.5
t-32.5 83.5q0 80 74 110q-14 20 -14 50q0 48 44 77q-65 39 -65 125zM126 470v-160q0 -32 18.5 -49.5t49.5 -17.5q30 0 49 17.5t19 49.5v160q0 33 -18.5 50t-49.5 17t-49.5 -17t-18.5 -50zM69 817h66q5 -103 61 -103t61 103h65q-3 -66 -34.5 -110.5t-91.5 -44.5
q-61 0 -92.5 44.5t-34.5 110.5z" />
    <glyph glyph-name="Gdotaccent" unicode="&#x120;" horiz-adv-x="393" 
d="M130 640v-497q0 -33 18 -50.5t49 -17.5t51.5 17.5t20.5 50.5v208h-78v83h158v-434h-57l-4 34q-43 -48 -108 -48q-61 0 -100 42t-39 113v501q0 71 44 113t114 42q69 0 111 -41.5t42 -113.5v-26h-85v24q0 33 -18 50.5t-49 17.5q-32 0 -51 -17.5t-19 -50.5zM199 978
q26 0 39.5 -15t13.5 -39q0 -25 -13.5 -40.5t-39.5 -15.5q-25 0 -38 16t-13 40t13 39t38 15z" />
    <glyph glyph-name="gdotaccent" unicode="&#x121;" horiz-adv-x="392" 
d="M42 309v162q0 67 43.5 107.5t108.5 40.5q46 0 81 -21l111 6l-50 -77q10 -28 10 -56v-162q0 -67 -43.5 -107.5t-108.5 -40.5q-18 0 -35 3q-24 -20 -24 -48q0 -42 51 -42h175l-35 -76h-171q-61 0 -61 -47q0 -20 13 -33.5t37 -13.5h140l-35 -75h-122q-59 0 -91.5 34.5
t-32.5 83.5q0 80 74 110q-14 20 -14 50q0 48 44 77q-65 39 -65 125zM126 470v-160q0 -32 18.5 -49.5t49.5 -17.5q30 0 49 17.5t19 49.5v160q0 33 -18.5 50t-49.5 17t-49.5 -17t-18.5 -50zM195 806q26 0 39.5 -15t13.5 -39q0 -25 -13.5 -40.5t-39.5 -15.5q-25 0 -38 16
t-13 40t13 39t38 15z" />
    <glyph glyph-name="Gcommaaccent" unicode="&#x122;" horiz-adv-x="393" 
d="M130 640v-497q0 -33 18 -50.5t49 -17.5t51.5 17.5t20.5 50.5v208h-78v83h158v-434h-57l-4 34q-43 -48 -108 -48q-61 0 -100 42t-39 113v501q0 71 44 113t114 42q69 0 111 -41.5t42 -113.5v-26h-85v24q0 33 -18 50.5t-49 17.5q-32 0 -51 -17.5t-19 -50.5zM148 -20h88
l-44 -190h-70z" />
    <glyph glyph-name="gcommaaccent" unicode="&#x123;" horiz-adv-x="392" 
d="M42 309v162q0 67 43.5 107.5t108.5 40.5q46 0 81 -21l111 6l-50 -77q10 -28 10 -56v-162q0 -67 -43.5 -107.5t-108.5 -40.5q-18 0 -35 3q-24 -20 -24 -48q0 -42 51 -42h175l-35 -76h-171q-61 0 -61 -47q0 -20 13 -33.5t37 -13.5h140l-35 -75h-122q-59 0 -91.5 34.5
t-32.5 83.5q0 80 74 110q-14 20 -14 50q0 48 44 77q-65 39 -65 125zM126 470v-160q0 -32 18.5 -49.5t49.5 -17.5q30 0 49 17.5t19 49.5v160q0 33 -18.5 50t-49.5 17t-49.5 -17t-18.5 -50zM232 932h32l-9 -202q-2 -55 -51 -55q-26 0 -39.5 15.5t-13.5 38.5q0 17 11 42z" />
    <glyph glyph-name="Hbar" unicode="&#x126;" horiz-adv-x="471" 
d="M13 651h61v132h92v-132h139v132h92v-132h60v-67h-60v-584h-92v354h-139v-354h-92v584h-61v67zM166 442h139v142h-139v-142z" />
    <glyph glyph-name="hbar" unicode="&#x127;" horiz-adv-x="403" 
d="M46 793l89 22v-76h195v-67h-195v-85q43 32 96 32q56 0 92 -38t36 -110v-471h-89v452q0 79 -64 79q-37 0 -71 -32v-499h-89v672h-40v67h40v54z" />
    <glyph glyph-name="Itilde" unicode="&#x128;" horiz-adv-x="282" 
d="M95 783h92v-783h-92v783zM6 867l-36 32q37 76 104 76q34 0 73 -24t63 -24q43 0 66 49l36 -32q-38 -77 -101 -77q-31 0 -72 24t-67 24q-44 0 -66 -48z" />
    <glyph glyph-name="itilde" unicode="&#x129;" horiz-adv-x="296" 
d="M13 695l-36 32q37 76 104 76q34 0 73 -24t63 -24q43 0 66 49l36 -32q-38 -77 -101 -77q-31 0 -72 24t-67 24q-44 0 -66 -48zM104 611h89v-611h-89v611z" />
    <glyph glyph-name="Imacron" unicode="&#x12a;" horiz-adv-x="259" 
d="M83 783h92v-783h-92v783zM-32 951h324v-67h-324v67z" />
    <glyph glyph-name="imacron" unicode="&#x12b;" horiz-adv-x="285" 
d="M-20 779h324v-67h-324v67zM98 611h89v-611h-89v611z" />
    <glyph glyph-name="Ibreve" unicode="&#x12c;" horiz-adv-x="214" 
d="M61 783h92v-783h-92v783zM-20 989h66q5 -103 61 -103t61 103h65q-3 -66 -34.5 -110.5t-91.5 -44.5q-61 0 -92.5 44.5t-34.5 110.5z" />
    <glyph glyph-name="ibreve" unicode="&#x12d;" horiz-adv-x="229" 
d="M-13 817h66q5 -103 61 -103t61 103h65q-3 -66 -34.5 -110.5t-91.5 -44.5q-61 0 -92.5 44.5t-34.5 110.5zM70 611h89v-611h-89v611z" />
    <glyph glyph-name="Iogonek" unicode="&#x12e;" horiz-adv-x="198" 
d="M60 -12v795h92v-783l-85 -37q-33 -15 -45 -27t-12 -28q0 -41 64 -41q50 0 75 18l29 -61q-32 -34 -118 -34q-70 0 -99.5 26t-29.5 64q0 36 29 61t100 47z" />
    <glyph glyph-name="iogonek" unicode="&#x12f;" horiz-adv-x="197" 
d="M62 611h89v-611l-85 -37q-33 -15 -45 -27t-12 -28q0 -41 64 -41q50 0 75 18l29 -61q-32 -34 -118 -34q-70 0 -99.5 26t-29.5 64q0 36 29.5 61t102.5 48v622zM106 806q26 0 39.5 -15t13.5 -39q0 -25 -13.5 -40.5t-39.5 -15.5q-25 0 -38 16t-13 40t13 39t38 15z" />
    <glyph glyph-name="Idotaccent" unicode="&#x130;" horiz-adv-x="184" 
d="M46 783h92v-783h-92v783zM91 978q26 0 39.5 -15t13.5 -39q0 -25 -13.5 -40.5t-39.5 -15.5q-25 0 -38 16t-13 40t13 39t38 15z" />
    <glyph glyph-name="dotlessi" unicode="&#x131;" horiz-adv-x="181" 
d="M46 611h89v-611h-89v611z" />
    <glyph glyph-name="IJ" unicode="&#x132;" horiz-adv-x="549" 
d="M46 783h92v-783h-92v783zM414 783h91v-642q0 -71 -43.5 -113t-112.5 -42t-112 42t-43 113v40l85 -22v-16q0 -33 18 -50.5t49 -17.5t49.5 17.5t18.5 50.5v640z" />
    <glyph glyph-name="ij" unicode="&#x133;" horiz-adv-x="381" 
d="M46 611h89v-611h-89v611zM248 611h86v-637q0 -69 -34.5 -113t-102.5 -44q-49 0 -82 24l24 77q23 -17 45 -17q29 0 46.5 19.5t17.5 53.5v637zM291 806q26 0 39.5 -15t13.5 -39q0 -25 -13.5 -40.5t-39.5 -15.5q-25 0 -38 16t-13 40t13 39t38 15zM89 806q26 0 39.5 -15
t13.5 -39q0 -25 -13.5 -40.5t-39.5 -15.5q-25 0 -38 16t-13 40t13 39t38 15z" />
    <glyph glyph-name="Kcommaaccent" unicode="&#x136;" horiz-adv-x="387" 
d="M268 783h94l-146 -320l158 -463h-96l-140 423v-423h-92v783h92v-291zM156 -20h88l-44 -190h-70z" />
    <glyph glyph-name="kcommaaccent" unicode="&#x137;" horiz-adv-x="375" 
d="M259 611h91l-140 -250l152 -361h-92l-135 329v-329h-89v793l89 22v-431zM153 -20h88l-44 -190h-70z" />
    <glyph glyph-name="Lacute" unicode="&#x139;" horiz-adv-x="305" 
d="M46 783h92v-694h147v-89h-239v783zM135 989h97l-107 -158h-78z" />
    <glyph glyph-name="lacute" unicode="&#x13a;" horiz-adv-x="181" 
d="M46 793l89 22v-815h-89v793zM100 989h97l-107 -158h-78z" />
    <glyph glyph-name="Lcommaaccent" unicode="&#x13b;" horiz-adv-x="305" 
d="M46 783h92v-694h147v-89h-239v783zM120 -20h88l-44 -190h-70z" />
    <glyph glyph-name="lcommaaccent" unicode="&#x13c;" horiz-adv-x="181" 
d="M46 793l89 22v-815h-89v793zM47 -20h88l-44 -190h-70z" />
    <glyph glyph-name="Lcaron" unicode="&#x13d;" horiz-adv-x="332" 
d="M46 783h92v-694h147v-89h-239v783zM227 806h88l-44 -190h-70z" />
    <glyph glyph-name="lcaron" unicode="&#x13e;" horiz-adv-x="285" 
d="M46 793l89 22v-815h-89v793zM206 806h88l-44 -190h-70z" />
    <glyph glyph-name="Lslash" unicode="&#x141;" horiz-adv-x="352" 
d="M67 783h92v-280l130 75l32 -55l-162 -94v-340h147v-89h-239v375l-35 -20l-32 56l67 38v334z" />
    <glyph glyph-name="lslash" unicode="&#x142;" horiz-adv-x="311" 
d="M112 793l89 22v-257l83 48l32 -55l-115 -67v-484h-89v432l-85 -49l-32 56l117 67v287z" />
    <glyph glyph-name="Nacute" unicode="&#x143;" horiz-adv-x="405" 
d="M46 783h100l133 -540v540h80v-783h-82l-151 576v-576h-80v783zM204 989h97l-107 -158h-78z" />
    <glyph glyph-name="nacute" unicode="&#x144;" horiz-adv-x="403" 
d="M46 611h61l14 -35q48 43 110 43q56 0 92 -38t36 -110v-471h-89v452q0 79 -64 79q-37 0 -71 -32v-499h-89v611zM206 817h97l-107 -158h-78z" />
    <glyph glyph-name="Ncommaaccent" unicode="&#x145;" horiz-adv-x="405" 
d="M46 783h100l133 -540v540h80v-783h-82l-151 576v-576h-80v783zM158 -20h88l-44 -190h-70z" />
    <glyph glyph-name="ncommaaccent" unicode="&#x146;" horiz-adv-x="403" 
d="M46 611h61l14 -35q48 43 110 43q56 0 92 -38t36 -110v-471h-89v452q0 79 -64 79q-37 0 -71 -32v-499h-89v611zM159 -20h88l-44 -190h-70z" />
    <glyph glyph-name="Ncaron" unicode="&#x147;" horiz-adv-x="405" 
d="M46 783h100l133 -540v540h80v-783h-82l-151 576v-576h-80v783zM56 989h75l71 -116l73 116h74l-98 -158h-96z" />
    <glyph glyph-name="ncaron" unicode="&#x148;" horiz-adv-x="403" 
d="M46 611h61l14 -35q48 43 110 43q56 0 92 -38t36 -110v-471h-89v452q0 79 -64 79q-37 0 -71 -32v-499h-89v611zM55 817h75l71 -116l73 116h74l-98 -158h-96z" />
    <glyph glyph-name="Eng" unicode="&#x14a;" horiz-adv-x="405" 
d="M46 783h100l133 -540v540h80v-809q0 -69 -34.5 -113t-102.5 -44q-49 0 -82 24l24 77q23 -17 45 -17q30 0 50 20t20 53v24l-153 578v-576h-80v783z" />
    <glyph glyph-name="eng" unicode="&#x14b;" horiz-adv-x="403" 
d="M270 452q0 79 -64 79q-37 0 -71 -32v-499h-89v611h61l14 -35q48 43 110 43q56 0 92 -38t36 -110v-497q0 -69 -34.5 -113t-102.5 -44q-49 0 -82 24l24 77q23 -17 45 -17q29 0 45 19.5t16 53.5v478z" />
    <glyph glyph-name="Omacron" unicode="&#x14c;" horiz-adv-x="404" 
d="M363 640v-497q0 -72 -46 -114.5t-115 -42.5t-115 42.5t-46 114.5v497q0 72 46 114.5t115 42.5t115 -42.5t46 -114.5zM132 639v-495q0 -33 19 -51t51 -18t51 18t19 51v495q0 33 -19 51t-51 18t-51 -18t-19 -51zM40 951h324v-67h-324v67z" />
    <glyph glyph-name="omacron" unicode="&#x14d;" horiz-adv-x="386" 
d="M345 471v-331q0 -67 -43.5 -107.5t-108.5 -40.5t-108.5 40.5t-43.5 107.5v331q0 67 43.5 107.5t108.5 40.5t108.5 -40.5t43.5 -107.5zM127 466v-321q0 -31 18.5 -48t47.5 -17t47 17t18 48v321q0 31 -18 48t-47 17t-47.5 -17t-18.5 -48zM31 779h324v-67h-324v67z" />
    <glyph glyph-name="Obreve" unicode="&#x14e;" horiz-adv-x="404" 
d="M363 640v-497q0 -72 -46 -114.5t-115 -42.5t-115 42.5t-46 114.5v497q0 72 46 114.5t115 42.5t115 -42.5t46 -114.5zM132 639v-495q0 -33 19 -51t51 -18t51 18t19 51v495q0 33 -19 51t-51 18t-51 -18t-19 -51zM75 989h66q5 -103 61 -103t61 103h65q-3 -66 -34.5 -110.5
t-91.5 -44.5q-61 0 -92.5 44.5t-34.5 110.5z" />
    <glyph glyph-name="obreve" unicode="&#x14f;" horiz-adv-x="386" 
d="M345 471v-331q0 -67 -43.5 -107.5t-108.5 -40.5t-108.5 40.5t-43.5 107.5v331q0 67 43.5 107.5t108.5 40.5t108.5 -40.5t43.5 -107.5zM127 466v-321q0 -31 18.5 -48t47.5 -17t47 17t18 48v321q0 31 -18 48t-47 17t-47.5 -17t-18.5 -48zM66 817h66q5 -103 61 -103t61 103
h65q-3 -66 -34.5 -110.5t-91.5 -44.5q-61 0 -92.5 44.5t-34.5 110.5z" />
    <glyph glyph-name="Ohungarumlaut" unicode="&#x150;" horiz-adv-x="404" 
d="M363 640v-497q0 -72 -46 -114.5t-115 -42.5t-115 42.5t-46 114.5v497q0 72 46 114.5t115 42.5t115 -42.5t46 -114.5zM132 639v-495q0 -33 19 -51t51 -18t51 18t19 51v495q0 33 -19 51t-51 18t-51 -18t-19 -51zM284 989h97l-106 -158h-79zM129 989h97l-107 -158h-78z" />
    <glyph glyph-name="ohungarumlaut" unicode="&#x151;" horiz-adv-x="386" 
d="M345 471v-331q0 -67 -43.5 -107.5t-108.5 -40.5t-108.5 40.5t-43.5 107.5v331q0 67 43.5 107.5t108.5 40.5t108.5 -40.5t43.5 -107.5zM127 466v-321q0 -31 18.5 -48t47.5 -17t47 17t18 48v321q0 31 -18 48t-47 17t-47.5 -17t-18.5 -48zM275 817h97l-106 -158h-79z
M120 817h97l-107 -158h-78z" />
    <glyph glyph-name="OE" unicode="&#x152;" horiz-adv-x="560" 
d="M531 0h-259q-33 -14 -70 -14q-69 0 -115 42.5t-46 114.5v497q0 72 46 114.5t115 42.5q37 0 70 -14h259v-89h-167v-246h118v-89h-118v-270h167v-89zM132 639v-495q0 -33 19 -51t51 -18q30 0 49 16.5t21 45.5v502q0 33 -19 51t-51 18t-51 -18t-19 -51z" />
    <glyph glyph-name="oe" unicode="&#x153;" horiz-adv-x="593" 
d="M459 274q-46 -40 -114 -82v-49q0 -32 18 -48.5t46 -16.5q29 0 47 17t18 48v39l81 21v-63q0 -67 -42.5 -107.5t-106.5 -40.5q-65 0 -105 40q-43 -40 -108 -40t-108.5 40.5t-43.5 107.5v331q0 67 43.5 107.5t108.5 40.5q64 0 108 -41q41 41 106 41q62 0 106 -38.5
t44 -122.5q0 -56 -23 -98.5t-75 -85.5zM345 467v-189q45 29 69 52q57 53 57 122q0 85 -65 85q-29 0 -45 -18.5t-16 -51.5zM127 466v-321q0 -31 18.5 -48t47.5 -17t47 17t18 48v321q0 31 -18 48t-47 17t-47.5 -17t-18.5 -48z" />
    <glyph glyph-name="Racute" unicode="&#x154;" horiz-adv-x="404" 
d="M46 783h159q72 0 113.5 -41t41.5 -114v-109q0 -87 -55 -111q61 -25 61 -114v-294h-91v297q0 37 -15.5 52.5t-55.5 15.5h-68v-365h-90v783zM136 696v-252h62q40 0 56 16t16 55v102q0 79 -72 79h-62zM205 989h97l-107 -158h-78z" />
    <glyph glyph-name="racute" unicode="&#x155;" horiz-adv-x="312" 
d="M301 593l-25 -79q-28 17 -56 17q-50 0 -85 -52v-479h-89v611h61l17 -51q39 59 103 59q44 0 74 -26zM162 817h97l-107 -158h-78z" />
    <glyph glyph-name="Rcommaaccent" unicode="&#x156;" horiz-adv-x="404" 
d="M46 783h159q72 0 113.5 -41t41.5 -114v-109q0 -87 -55 -111q61 -25 61 -114v-294h-91v297q0 37 -15.5 52.5t-55.5 15.5h-68v-365h-90v783zM136 696v-252h62q40 0 56 16t16 55v102q0 79 -72 79h-62zM157 -20h88l-44 -190h-70z" />
    <glyph glyph-name="rcommaaccent" unicode="&#x157;" horiz-adv-x="312" 
d="M301 593l-25 -79q-28 17 -56 17q-50 0 -85 -52v-479h-89v611h61l17 -51q39 59 103 59q44 0 74 -26zM45 -20h88l-44 -190h-70z" />
    <glyph glyph-name="Rcaron" unicode="&#x158;" horiz-adv-x="404" 
d="M46 783h159q72 0 113.5 -41t41.5 -114v-109q0 -87 -55 -111q61 -25 61 -114v-294h-91v297q0 37 -15.5 52.5t-55.5 15.5h-68v-365h-90v783zM136 696v-252h62q40 0 56 16t16 55v102q0 79 -72 79h-62zM55 989h75l71 -116l73 116h74l-98 -158h-96z" />
    <glyph glyph-name="rcaron" unicode="&#x159;" horiz-adv-x="312" 
d="M301 593l-25 -79q-28 17 -56 17q-50 0 -85 -52v-479h-89v611h61l17 -51q39 59 103 59q44 0 74 -26zM10 817h75l71 -116l73 116h74l-98 -158h-96z" />
    <glyph glyph-name="Sacute" unicode="&#x15a;" horiz-adv-x="376" 
d="M191 797q70 0 110.5 -42t40.5 -111v-28h-85v21q0 34 -18 54t-50 20q-35 0 -53.5 -23.5t-18.5 -60.5q0 -50 41 -108q1 -1 62 -82.5t83 -116.5q44 -70 44 -146q0 -89 -39.5 -138.5t-117.5 -49.5q-75 0 -120 43.5t-45 109.5v42l85 -22v-19q0 -29 20 -49.5t54 -20.5
q75 0 75 92q0 56 -39 117q-13 19 -61 80.5t-68 93.5q-59 93 -59 175q0 78 43.5 123.5t115.5 45.5zM193 989h97l-107 -158h-78z" />
    <glyph glyph-name="sacute" unicode="&#x15b;" horiz-adv-x="365" 
d="M187 619q73 0 110 -37.5t37 -96.5v-40h-81v28q0 62 -67 62q-68 0 -68 -59q0 -35 37 -74q15 -17 67.5 -64.5t71.5 -71.5q43 -53 43 -123t-38.5 -110.5t-115.5 -40.5q-73 0 -114.5 37.5t-41.5 104.5v69l81 -21v-41q0 -30 19 -47t56 -17q71 0 71 69q0 37 -35 77
q-23 27 -72.5 72t-66.5 64q-48 57 -48 122q0 66 41.5 102t113.5 36zM187 817h97l-107 -158h-78z" />
    <glyph glyph-name="Scedilla" unicode="&#x15e;" horiz-adv-x="376" 
d="M191 797q70 0 110.5 -42t40.5 -111v-28h-85v21q0 34 -18 54t-50 20q-35 0 -53.5 -23.5t-18.5 -60.5q0 -50 41 -108q1 -1 62 -82.5t83 -116.5q44 -70 44 -146q0 -89 -39.5 -138.5t-117.5 -49.5q-75 0 -120 43.5t-45 109.5v42l85 -22v-19q0 -29 20 -49.5t54 -20.5
q75 0 75 92q0 56 -39 117q-13 19 -61 80.5t-68 93.5q-59 93 -59 175q0 78 43.5 123.5t115.5 45.5zM139 -20h88l-44 -190h-70z" />
    <glyph glyph-name="scedilla" unicode="&#x15f;" horiz-adv-x="365" 
d="M187 619q73 0 110 -37.5t37 -96.5v-40h-81v28q0 62 -67 62q-68 0 -68 -59q0 -35 37 -74q15 -17 67.5 -64.5t71.5 -71.5q43 -53 43 -123t-38.5 -110.5t-115.5 -40.5q-73 0 -114.5 37.5t-41.5 104.5v69l81 -21v-41q0 -30 19 -47t56 -17q71 0 71 69q0 37 -35 77
q-23 27 -72.5 72t-66.5 64q-48 57 -48 122q0 66 41.5 102t113.5 36zM137 -20h88l-44 -190h-70z" />
    <glyph glyph-name="Scaron" unicode="&#x160;" horiz-adv-x="376" 
d="M191 797q70 0 110.5 -42t40.5 -111v-28h-85v21q0 34 -18 54t-50 20q-35 0 -53.5 -23.5t-18.5 -60.5q0 -50 41 -108q1 -1 62 -82.5t83 -116.5q44 -70 44 -146q0 -89 -39.5 -138.5t-117.5 -49.5q-75 0 -120 43.5t-45 109.5v42l85 -22v-19q0 -29 20 -49.5t54 -20.5
q75 0 75 92q0 56 -39 117q-13 19 -61 80.5t-68 93.5q-59 93 -59 175q0 78 43.5 123.5t115.5 45.5zM41 989h75l71 -116l73 116h74l-98 -158h-96z" />
    <glyph glyph-name="scaron" unicode="&#x161;" horiz-adv-x="365" 
d="M187 619q73 0 110 -37.5t37 -96.5v-40h-81v28q0 62 -67 62q-68 0 -68 -59q0 -35 37 -74q15 -17 67.5 -64.5t71.5 -71.5q43 -53 43 -123t-38.5 -110.5t-115.5 -40.5q-73 0 -114.5 37.5t-41.5 104.5v69l81 -21v-41q0 -30 19 -47t56 -17q71 0 71 69q0 37 -35 77
q-23 27 -72.5 72t-66.5 64q-48 57 -48 122q0 66 41.5 102t113.5 36zM36 817h75l71 -116l73 116h74l-98 -158h-96z" />
    <glyph glyph-name="Tcedilla" unicode="&#x162;" horiz-adv-x="308" 
d="M20 783h268v-89h-88v-694h-92v694h-88v89zM108 -20h88l-44 -190h-70z" />
    <glyph glyph-name="tcedilla" unicode="&#x163;" horiz-adv-x="308" 
d="M12 611h66v107l86 36v-143h102v-75h-102v-386q0 -34 17.5 -54t47.5 -20q23 0 45 16l24 -76q-33 -24 -83 -24q-68 0 -102.5 44.5t-34.5 113.5v386h-66v75zM127 -20h88l-44 -190h-70z" />
    <glyph glyph-name="Tcaron" unicode="&#x164;" horiz-adv-x="308" 
d="M20 783h268v-89h-88v-694h-92v694h-88v89zM8 989h75l71 -116l73 116h74l-98 -158h-96z" />
    <glyph glyph-name="tcaron" unicode="&#x165;" horiz-adv-x="381" 
d="M12 611h66v107l86 36v-143h102v-75h-102v-386q0 -34 17.5 -54t47.5 -20q23 0 45 16l24 -76q-33 -24 -83 -24q-68 0 -102.5 44.5t-34.5 113.5v386h-66v75zM302 802h88l-44 -190h-70z" />
    <glyph glyph-name="Tbar" unicode="&#x166;" horiz-adv-x="338" 
d="M7 451h116v243h-88v89h268v-89h-88v-243h116v-67h-116v-384h-92v384h-116v67z" />
    <glyph glyph-name="tbar" unicode="&#x167;" horiz-adv-x="348" 
d="M43 611h66v107l86 36v-143h102v-75h-102v-162h132v-67h-132v-157q0 -34 17.5 -54t47.5 -20q23 0 45 16l24 -76q-33 -24 -83 -24q-68 0 -102.5 44.5t-34.5 113.5v157h-106v67h106v162h-66v75z" />
    <glyph glyph-name="Utilde" unicode="&#x168;" horiz-adv-x="410" 
d="M44 783h92v-639q0 -33 19 -51t50 -18q32 0 51.5 18t19.5 51v639h90v-640q0 -72 -46 -114.5t-116 -42.5q-69 0 -114.5 42.5t-45.5 114.5v640zM70 867l-36 32q37 76 104 76q34 0 73 -24t63 -24q43 0 66 49l36 -32q-38 -77 -101 -77q-31 0 -72 24t-67 24q-44 0 -66 -48z" />
    <glyph glyph-name="utilde" unicode="&#x169;" horiz-adv-x="399" 
d="M264 611h89v-611h-61l-15 34q-45 -42 -106 -42q-55 0 -91 38t-36 110v471h89v-452q0 -79 63 -79q36 0 68 31v500zM64 695l-36 32q37 76 104 76q34 0 73 -24t63 -24q43 0 66 49l36 -32q-38 -77 -101 -77q-31 0 -72 24t-67 24q-44 0 -66 -48z" />
    <glyph glyph-name="Umacron" unicode="&#x16a;" horiz-adv-x="410" 
d="M44 783h92v-639q0 -33 19 -51t50 -18q32 0 51.5 18t19.5 51v639h90v-640q0 -72 -46 -114.5t-116 -42.5q-69 0 -114.5 42.5t-45.5 114.5v640zM43 951h324v-67h-324v67z" />
    <glyph glyph-name="umacron" unicode="&#x16b;" horiz-adv-x="399" 
d="M264 611h89v-611h-61l-15 34q-45 -42 -106 -42q-55 0 -91 38t-36 110v471h89v-452q0 -79 63 -79q36 0 68 31v500zM37 779h324v-67h-324v67z" />
    <glyph glyph-name="Uring" unicode="&#x16e;" horiz-adv-x="410" 
d="M44 783h92v-639q0 -33 19 -51t50 -18q32 0 51.5 18t19.5 51v639h90v-640q0 -72 -46 -114.5t-116 -42.5q-69 0 -114.5 42.5t-45.5 114.5v640zM190 989h28q40 0 64 -25t24 -64t-24 -64.5t-64 -25.5h-28q-40 0 -63.5 25.5t-23.5 64.5q0 38 23.5 63.5t63.5 25.5zM218 940h-28
q-17 0 -27.5 -11t-10.5 -30q0 -18 10.5 -29t27.5 -11h28q17 0 28 11t11 29q0 19 -11 30t-28 11z" />
    <glyph glyph-name="uring" unicode="&#x16f;" horiz-adv-x="399" 
d="M264 611h89v-611h-61l-15 34q-45 -42 -106 -42q-55 0 -91 38t-36 110v471h89v-452q0 -79 63 -79q36 0 68 31v500zM185 817h28q40 0 64 -25t24 -64t-24 -64.5t-64 -25.5h-28q-40 0 -63.5 25.5t-23.5 64.5q0 38 23.5 63.5t63.5 25.5zM213 768h-28q-17 0 -27.5 -11
t-10.5 -30q0 -18 10.5 -29t27.5 -11h28q17 0 28 11t11 29q0 19 -11 30t-28 11z" />
    <glyph glyph-name="Uhungarumlaut" unicode="&#x170;" horiz-adv-x="410" 
d="M44 783h92v-639q0 -33 19 -51t50 -18q32 0 51.5 18t19.5 51v639h90v-640q0 -72 -46 -114.5t-116 -42.5q-69 0 -114.5 42.5t-45.5 114.5v640zM289 989h97l-106 -158h-79zM134 989h97l-107 -158h-78z" />
    <glyph glyph-name="uhungarumlaut" unicode="&#x171;" horiz-adv-x="399" 
d="M264 611h89v-611h-61l-15 34q-45 -42 -106 -42q-55 0 -91 38t-36 110v471h89v-452q0 -79 63 -79q36 0 68 31v500zM282 817h97l-106 -158h-79zM127 817h97l-107 -158h-78z" />
    <glyph glyph-name="Uogonek" unicode="&#x172;" horiz-adv-x="410" 
d="M178 -12q-60 8 -97 49t-37 106v640h92v-639q0 -33 19 -51t50 -18q32 0 51.5 18t19.5 51v639h90v-640q0 -58 -31 -97.5t-82 -52.5l-67 -30q-33 -15 -45 -27t-12 -28q0 -41 64 -41q49 0 75 18l29 -61q-32 -34 -118 -34q-70 0 -99.5 26t-29.5 64q0 36 29 61t99 47z" />
    <glyph glyph-name="uogonek" unicode="&#x173;" horiz-adv-x="399" 
d="M233 -21l60 19l-16 36q-45 -42 -105 -42q-56 0 -92 38t-36 110v471h89v-452q0 -79 62 -79q37 0 69 31v500h89v-611l-85 -37q-33 -15 -45 -27t-12 -28q0 -41 64 -41q49 0 75 18l29 -61q-32 -34 -118 -34q-70 0 -99.5 26t-29.5 64q0 67 101 99z" />
    <glyph glyph-name="Wcircumflex" unicode="&#x174;" horiz-adv-x="577" 
d="M22 783h88l48 -551l85 551h88l79 -554l56 554h89l-89 -783h-92l-87 590l-95 -590h-89zM240 989h96l99 -158h-75l-72 115l-72 -115h-74z" />
    <glyph glyph-name="wcircumflex" unicode="&#x175;" horiz-adv-x="542" 
d="M22 611h83l44 -431l80 431h82l74 -432l51 432h84l-83 -611h-87l-81 461l-88 -461h-84zM222 817h96l99 -158h-75l-72 115l-72 -115h-74z" />
    <glyph glyph-name="Ycircumflex" unicode="&#x176;" horiz-adv-x="412" 
d="M13 783h93l101 -304l103 304h89l-147 -417v-366h-92v366zM157 989h96l99 -158h-75l-72 115l-72 -115h-74z" />
    <glyph glyph-name="ycircumflex" unicode="&#x177;" horiz-adv-x="399" 
d="M264 611h89v-782h-89v204q-41 -31 -93 -31q-55 0 -91 38t-36 110v461h89v-442q0 -79 63 -79q36 0 68 31v490zM151 817h96l99 -158h-75l-72 115l-72 -115h-74z" />
    <glyph glyph-name="Ydieresis" unicode="&#x178;" horiz-adv-x="412" 
d="M13 783h93l101 -304l103 304h89l-147 -417v-366h-92v366zM288 978q26 0 39.5 -15t13.5 -39q0 -25 -13.5 -40.5t-39.5 -15.5q-25 0 -38 16t-13 40t13 39t38 15zM121 978q26 0 39.5 -15t13.5 -39q0 -25 -13.5 -40.5t-39.5 -15.5q-25 0 -38 16t-13 40t13 39t38 15z" />
    <glyph glyph-name="Zacute" unicode="&#x179;" horiz-adv-x="360" 
d="M32 783h300v-71l-210 -623h210v-89h-304v85l209 609h-205v89zM193 989h97l-107 -158h-78z" />
    <glyph glyph-name="zacute" unicode="&#x17a;" horiz-adv-x="348" 
d="M31 611h290v-62l-200 -474h200v-75h-294v73l200 463h-196v75zM186 817h97l-107 -158h-78z" />
    <glyph glyph-name="Zdotaccent" unicode="&#x17b;" horiz-adv-x="360" 
d="M32 783h300v-71l-210 -623h210v-89h-304v85l209 609h-205v89zM187 978q26 0 39.5 -15t13.5 -39q0 -25 -13.5 -40.5t-39.5 -15.5q-25 0 -38 16t-13 40t13 39t38 15z" />
    <glyph glyph-name="zdotaccent" unicode="&#x17c;" horiz-adv-x="348" 
d="M31 611h290v-62l-200 -474h200v-75h-294v73l200 463h-196v75zM180 806q26 0 39.5 -15t13.5 -39q0 -25 -13.5 -40.5t-39.5 -15.5q-25 0 -38 16t-13 40t13 39t38 15z" />
    <glyph glyph-name="Zcaron" unicode="&#x17d;" horiz-adv-x="360" 
d="M32 783h300v-71l-210 -623h210v-89h-304v85l209 609h-205v89zM42 989h75l71 -116l73 116h74l-98 -158h-96z" />
    <glyph glyph-name="zcaron" unicode="&#x17e;" horiz-adv-x="348" 
d="M31 611h290v-62l-200 -474h200v-75h-294v73l200 463h-196v75zM34 817h75l71 -116l73 116h74l-98 -158h-96z" />
    <glyph glyph-name="uni0180" unicode="&#x180;" 
d="M6 739h40v54l89 22v-76h195v-67h-195v-88q45 35 98 35q54 0 90 -38.5t36 -109.5v-331q0 -71 -36 -109.5t-90 -38.5q-63 0 -111 46l-15 -38h-61v672h-40v67zM208 531q-40 0 -73 -35v-381q33 -35 73 -35q62 0 62 79v293q0 79 -62 79z" />
    <glyph glyph-name="uni0181" unicode="&#x181;" horiz-adv-x="556" 
d="M164 783h195q72 0 113.5 -41t41.5 -114v-109q0 -89 -57 -113q66 -25 66 -120v-125q0 -77 -41.5 -119t-114.5 -42h-167v699h-35q-36 0 -57 -16.5t-21 -49.5q0 -26 17 -49l-78 -25q-21 37 -21 85q0 68 44 103.5t115 35.5zM290 364v-277h70q72 0 72 80v120q0 42 -16 59.5
t-56 17.5h-70zM290 696v-253h64q38 0 54 16.5t16 56.5v101q0 79 -72 79h-62z" />
    <glyph glyph-name="uni0187" unicode="&#x187;" horiz-adv-x="491" 
d="M132 640v-497q0 -33 18 -50.5t49 -17.5t49.5 17.5t18.5 50.5v16l85 22v-40q0 -70 -45 -112.5t-112 -42.5q-66 0 -110 42.5t-44 112.5v501q0 70 42 112.5t105 42.5q76 0 110 -51q30 77 111 77q46 0 82 -21l-24 -78q-24 17 -50 17q-32 0 -48.5 -21.5t-16.5 -57.5v-51h-85
v35q0 30 -18 46t-48 16q-32 0 -50.5 -17.5t-18.5 -50.5z" />
    <glyph glyph-name="uni0188" unicode="&#x188;" horiz-adv-x="480" 
d="M127 466v-321q0 -31 17.5 -48t46.5 -17t47 17t18 48v37l81 21v-63q0 -67 -42.5 -107.5t-106.5 -40.5q-63 0 -105 40.5t-42 107.5v331q0 67 40.5 107.5t101.5 40.5q63 0 91 -32q4 61 33.5 97.5t88.5 36.5q47 0 83 -21l-24 -78q-24 17 -50 17q-32 0 -48.5 -21.5
t-16.5 -57.5v-115h-84v27q0 28 -18.5 43.5t-46.5 15.5q-29 0 -46.5 -17t-17.5 -48z" />
    <glyph glyph-name="uni018A" unicode="&#x18a;" horiz-adv-x="559" 
d="M164 783h198q74 0 115 -45.5t41 -134.5v-423q0 -89 -41 -134.5t-115 -45.5h-162v699h-35q-36 0 -57 -16.5t-21 -49.5q0 -26 17 -49l-78 -25q-21 37 -21 85q0 68 44 103.5t115 35.5zM292 694v-605h63q72 0 72 85v435q0 85 -72 85h-63z" />
    <glyph glyph-name="uni018E" unicode="&#x18e;" horiz-adv-x="334" 
d="M29 783h259v-783h-259v89h167v270h-118v89h118v246h-167v89z" />
    <glyph glyph-name="uni018F" unicode="&#x18f;" horiz-adv-x="404" 
d="M204 797q69 0 114 -43.5t45 -117.5v-489q0 -74 -45.5 -117.5t-114.5 -43.5q-67 0 -114.5 42.5t-47.5 133.5q0 120 102 225q51 52 129 108v142q0 34 -19 52.5t-50 18.5q-32 0 -51.5 -18.5t-19.5 -52.5v-46l-89 -23v68q0 74 45.5 117.5t115.5 43.5zM206 74q31 0 48.5 20
t17.5 56v250q-51 -40 -80 -73q-60 -69 -60 -157q0 -50 21 -73t53 -23z" />
    <glyph glyph-name="florin" unicode="&#x192;" horiz-adv-x="360" 
d="M52 611h68v54q0 72 35.5 115t103.5 43q46 0 84 -20l-24 -78q-24 16 -50 16q-31 0 -47.5 -20.5t-16.5 -56.5v-53h101v-75h-101v-562q0 -69 -34.5 -113t-102.5 -44q-49 0 -82 24l24 77q23 -17 45 -17q29 0 47 19.5t18 53.5v562h-68v75z" />
    <glyph glyph-name="uni0198" unicode="&#x198;" horiz-adv-x="464" 
d="M46 783h92v-292l123 264q32 68 119 68q48 0 84 -21l-24 -78q-24 17 -50 17q-39 0 -54 -31l-120 -247l158 -463h-96l-140 423v-423h-92v783z" />
    <glyph glyph-name="uni0199" unicode="&#x199;" horiz-adv-x="386" 
d="M259 611h91l-140 -250l152 -361h-92l-135 329v-329h-89v664q0 71 37.5 115t105.5 44q48 0 84 -21l-24 -78q-24 17 -50 17q-32 0 -48 -21.5t-16 -57.5v-278z" />
    <glyph glyph-name="uni019D" unicode="&#x19d;" horiz-adv-x="405" 
d="M46 783h100l133 -540v540h80v-783h-82l-151 576v-602q0 -70 -31.5 -113.5t-99.5 -43.5q-49 0 -82 24l24 77q23 -17 45 -17q29 0 46.5 19.5t17.5 53.5v809z" />
    <glyph glyph-name="uni01A0" unicode="&#x1a0;" horiz-adv-x="509" 
d="M363 640v-497q0 -72 -46 -114.5t-115 -42.5t-115 42.5t-46 114.5v497q0 72 46 114.5t115 42.5q90 0 135 -67q15 -5 28 -5q27 0 42.5 17.5t15.5 46.5v88h80v-62q0 -62 -31.5 -102.5t-92.5 -40.5q-13 0 -19 1q3 -17 3 -33zM132 639v-495q0 -33 19 -51t51 -18t51 18t19 51
v495q0 33 -19 51t-51 18t-51 -18t-19 -51z" />
    <glyph glyph-name="uni01A1" unicode="&#x1a1;" horiz-adv-x="458" 
d="M345 471v-331q0 -67 -43.5 -107.5t-108.5 -40.5t-108.5 40.5t-43.5 107.5v331q0 67 43.5 107.5t108.5 40.5q61 0 103 -36q6 -2 18 -2q27 0 42.5 17.5t15.5 46.5v88h80v-62q0 -60 -29.5 -100.5t-87.5 -42.5q10 -28 10 -57zM127 466v-321q0 -31 18.5 -48t47.5 -17t47 17
t18 48v321q0 31 -18 48t-47 17t-47.5 -17t-18.5 -48z" />
    <glyph glyph-name="uni01AF" unicode="&#x1af;" horiz-adv-x="532" 
d="M44 783h92v-639q0 -33 19 -51t50 -18q32 0 51.5 18t19.5 51v639h90v-27q10 -3 22 -3q27 0 42.5 17.5t15.5 46.5v88h80v-62q0 -62 -31.5 -102.5t-92.5 -40.5q-18 0 -36 5v-562q0 -72 -46 -114.5t-116 -42.5q-69 0 -114.5 42.5t-45.5 114.5v640z" />
    <glyph glyph-name="uni01B0" unicode="&#x1b0;" horiz-adv-x="504" 
d="M264 611h89v-30q32 0 48.5 17t16.5 47v88h80v-62q0 -62 -31.5 -102.5t-92.5 -40.5q-14 0 -21 1v-529h-61l-15 34q-45 -42 -106 -42q-55 0 -91 38t-36 110v471h89v-452q0 -79 63 -79q36 0 68 31v500z" />
    <glyph glyph-name="uni01B3" unicode="&#x1b3;" horiz-adv-x="504" 
d="M13 783h93l100 -304l78 231q20 59 52.5 86t83.5 27q48 0 84 -21l-24 -78q-24 17 -50 17q-45 0 -65 -57l-113 -318v-366h-92v366z" />
    <glyph glyph-name="uni01B4" unicode="&#x1b4;" horiz-adv-x="492" 
d="M264 -171v204q-41 -31 -93 -31q-55 0 -91 38t-36 110v461h89v-442q0 -79 63 -79q36 0 68 31v441q0 71 38 115t106 44q48 0 84 -21l-24 -78q-24 17 -50 17q-32 0 -48.5 -21.5t-16.5 -57.5v-731h-89z" />
    <glyph glyph-name="uni01C4" unicode="&#x1c4;" horiz-adv-x="765" 
d="M46 783h162q74 0 115 -45.5t41 -134.5v-423q0 -89 -41 -134.5t-115 -45.5h-162v783zM138 694v-605h63q72 0 72 85v435q0 85 -72 85h-63zM437 783h300v-71l-210 -623h210v-89h-304v85l209 609h-205v89zM447 989h75l71 -116l73 116h74l-98 -158h-96z" />
    <glyph glyph-name="uni01C5" unicode="&#x1c5;" horiz-adv-x="753" 
d="M46 783h162q74 0 115 -45.5t41 -134.5v-423q0 -89 -41 -134.5t-115 -45.5h-162v783zM138 694v-605h63q72 0 72 85v435q0 85 -72 85h-63zM436 611h290v-62l-200 -474h200v-75h-294v73l200 463h-196v75zM439 817h75l71 -116l73 116h74l-98 -158h-96z" />
    <glyph glyph-name="uni01C6" unicode="&#x1c6;" horiz-adv-x="748" 
d="M265 793l89 22v-815h-61l-15 38q-49 -46 -111 -46q-54 0 -90 38.5t-36 109.5v331q0 71 36 109.5t90 38.5q52 0 98 -35v209zM130 452v-293q0 -79 62 -79q40 0 73 35v381q-33 35 -73 35q-62 0 -62 -79zM431 611h290v-62l-200 -474h200v-75h-294v73l200 463h-196v75z
M434 817h75l71 -116l73 116h74l-98 -158h-96z" />
    <glyph glyph-name="uni01DD" unicode="&#x1dd;" horiz-adv-x="375" 
d="M41 149q0 47 16 86t51 73t64 55.5t81 54.5v50q0 31 -17.5 48t-46.5 17t-47 -17t-18 -48v-39l-81 -21v63q0 67 42.5 107.5t106.5 40.5q63 0 105 -40.5t42 -107.5v-331q0 -67 -42 -107.5t-106 -40.5q-61 0 -105.5 38.5t-44.5 118.5zM253 144v189q-62 -41 -94 -80t-32 -96
q0 -42 18 -62.5t47 -20.5t45 18.5t16 51.5z" />
    <glyph glyph-name="uni01E6" unicode="&#x1e6;" horiz-adv-x="393" 
d="M130 640v-497q0 -33 18 -50.5t49 -17.5t51.5 17.5t20.5 50.5v208h-78v83h158v-434h-57l-4 34q-43 -48 -108 -48q-61 0 -100 42t-39 113v501q0 71 44 113t114 42q69 0 111 -41.5t42 -113.5v-26h-85v24q0 33 -18 50.5t-49 17.5q-32 0 -51 -17.5t-19 -50.5zM53 989h75
l71 -116l73 116h74l-98 -158h-96z" />
    <glyph glyph-name="uni01E7" unicode="&#x1e7;" horiz-adv-x="392" 
d="M42 309v162q0 67 43.5 107.5t108.5 40.5q46 0 81 -21l111 6l-50 -77q10 -28 10 -56v-162q0 -67 -43.5 -107.5t-108.5 -40.5q-18 0 -35 3q-24 -20 -24 -48q0 -42 51 -42h175l-35 -76h-171q-61 0 -61 -47q0 -20 13 -33.5t37 -13.5h140l-35 -75h-122q-59 0 -91.5 34.5
t-32.5 83.5q0 80 74 110q-14 20 -14 50q0 48 44 77q-65 39 -65 125zM126 470v-160q0 -32 18.5 -49.5t49.5 -17.5q30 0 49 17.5t19 49.5v160q0 33 -18.5 50t-49.5 17t-49.5 -17t-18.5 -50zM49 817h75l71 -116l73 116h74l-98 -158h-96z" />
    <glyph glyph-name="uni01F0" unicode="&#x1f0;" horiz-adv-x="258" 
d="M-16 817h75l71 -116l73 116h74l-98 -158h-96zM92 611h86v-637q0 -69 -34.5 -113t-102.5 -44q-49 0 -82 24l24 77q23 -17 45 -17q29 0 46.5 19.5t17.5 53.5v637z" />
    <glyph glyph-name="uni01F1" unicode="&#x1f1;" horiz-adv-x="765" 
d="M46 783h162q74 0 115 -45.5t41 -134.5v-423q0 -89 -41 -134.5t-115 -45.5h-162v783zM138 694v-605h63q72 0 72 85v435q0 85 -72 85h-63zM437 783h300v-71l-210 -623h210v-89h-304v85l209 609h-205v89z" />
    <glyph glyph-name="uni01F2" unicode="&#x1f2;" horiz-adv-x="753" 
d="M46 783h162q74 0 115 -45.5t41 -134.5v-423q0 -89 -41 -134.5t-115 -45.5h-162v783zM138 694v-605h63q72 0 72 85v435q0 85 -72 85h-63zM436 611h290v-62l-200 -474h200v-75h-294v73l200 463h-196v75z" />
    <glyph glyph-name="uni01F3" unicode="&#x1f3;" horiz-adv-x="748" 
d="M265 793l89 22v-815h-61l-15 38q-49 -46 -111 -46q-54 0 -90 38.5t-36 109.5v331q0 71 36 109.5t90 38.5q52 0 98 -35v209zM130 452v-293q0 -79 62 -79q40 0 73 35v381q-33 35 -73 35q-62 0 -62 -79zM431 611h290v-62l-200 -474h200v-75h-294v73l200 463h-196v75z" />
    <glyph glyph-name="uni01F4" unicode="&#x1f4;" horiz-adv-x="393" 
d="M130 640v-497q0 -33 18 -50.5t49 -17.5t51.5 17.5t20.5 50.5v208h-78v83h158v-434h-57l-4 34q-43 -48 -108 -48q-61 0 -100 42t-39 113v501q0 71 44 113t114 42q69 0 111 -41.5t42 -113.5v-26h-85v24q0 33 -18 50.5t-49 17.5q-32 0 -51 -17.5t-19 -50.5zM204 989h97
l-107 -158h-78z" />
    <glyph glyph-name="uni01F5" unicode="&#x1f5;" horiz-adv-x="392" 
d="M42 309v162q0 67 43.5 107.5t108.5 40.5q46 0 81 -21l111 6l-50 -77q10 -28 10 -56v-162q0 -67 -43.5 -107.5t-108.5 -40.5q-18 0 -35 3q-24 -20 -24 -48q0 -42 51 -42h175l-35 -76h-171q-61 0 -61 -47q0 -20 13 -33.5t37 -13.5h140l-35 -75h-122q-59 0 -91.5 34.5
t-32.5 83.5q0 80 74 110q-14 20 -14 50q0 48 44 77q-65 39 -65 125zM126 470v-160q0 -32 18.5 -49.5t49.5 -17.5q30 0 49 17.5t19 49.5v160q0 33 -18.5 50t-49.5 17t-49.5 -17t-18.5 -50zM199 817h97l-107 -158h-78z" />
    <glyph glyph-name="uni01F8" unicode="&#x1f8;" horiz-adv-x="405" 
d="M46 783h100l133 -540v540h80v-783h-82l-151 576v-576h-80v783zM102 989h97l88 -158h-79z" />
    <glyph glyph-name="uni01F9" unicode="&#x1f9;" horiz-adv-x="403" 
d="M46 611h61l14 -35q48 43 110 43q56 0 92 -38t36 -110v-471h-89v452q0 79 -64 79q-37 0 -71 -32v-499h-89v611zM98 817h97l88 -158h-79z" />
    <glyph glyph-name="Scommaaccent" unicode="&#x218;" horiz-adv-x="376" 
d="M191 797q70 0 110.5 -42t40.5 -111v-28h-85v21q0 34 -18 54t-50 20q-35 0 -53.5 -23.5t-18.5 -60.5q0 -50 41 -108q1 -1 62 -82.5t83 -116.5q44 -70 44 -146q0 -89 -39.5 -138.5t-117.5 -49.5q-75 0 -120 43.5t-45 109.5v42l85 -22v-19q0 -29 20 -49.5t54 -20.5
q75 0 75 92q0 56 -39 117q-13 19 -61 80.5t-68 93.5q-59 93 -59 175q0 78 43.5 123.5t115.5 45.5zM138 -20h88l-44 -190h-70z" />
    <glyph glyph-name="scommaaccent" unicode="&#x219;" horiz-adv-x="365" 
d="M187 619q73 0 110 -37.5t37 -96.5v-40h-81v28q0 62 -67 62q-68 0 -68 -59q0 -35 37 -74q15 -17 67.5 -64.5t71.5 -71.5q43 -53 43 -123t-38.5 -110.5t-115.5 -40.5q-73 0 -114.5 37.5t-41.5 104.5v69l81 -21v-41q0 -30 19 -47t56 -17q71 0 71 69q0 37 -35 77
q-23 27 -72.5 72t-66.5 64q-48 57 -48 122q0 66 41.5 102t113.5 36zM137 -20h88l-44 -190h-70z" />
    <glyph glyph-name="uni021A" unicode="&#x21a;" horiz-adv-x="308" 
d="M20 783h268v-89h-88v-694h-92v694h-88v89zM108 -20h88l-44 -190h-70z" />
    <glyph glyph-name="uni021B" unicode="&#x21b;" horiz-adv-x="308" 
d="M12 611h66v107l86 36v-143h102v-75h-102v-386q0 -34 17.5 -54t47.5 -20q23 0 45 16l24 -76q-33 -24 -83 -24q-68 0 -102.5 44.5t-34.5 113.5v386h-66v75zM121 -20h88l-44 -190h-70z" />
    <glyph glyph-name="dotlessj" unicode="&#x237;" horiz-adv-x="194" 
d="M62 611h86v-637q0 -69 -34.5 -113t-102.5 -44q-49 0 -82 24l24 77q23 -17 45 -17q29 0 46.5 19.5t17.5 53.5v637z" />
    <glyph glyph-name="uni0241" unicode="&#x241;" horiz-adv-x="357" 
d="M183 803q68 0 108 -40t40 -122q0 -48 -14.5 -87t-48.5 -103q-31 -55 -43 -90.5t-12 -86.5v-274h-88v274q0 56 15.5 101t50.5 108q30 53 41.5 84t11.5 69q0 79 -65 79q-32 0 -52 -17t-20 -48v-34h-81v39q0 68 43 108t114 40z" />
    <glyph glyph-name="uni0243" unicode="&#x243;" horiz-adv-x="451" 
d="M5 271h90v512h159q72 0 113.5 -41t41.5 -114v-109q0 -89 -57 -113q66 -25 66 -120v-125q0 -77 -41.5 -119t-114.5 -42h-167v204h-90v67zM185 696v-253h64q38 0 54 16.5t16 56.5v101q0 79 -72 79h-62zM182 364v-93h117v-67h-117v-117h73q72 0 72 80v120q0 42 -16 59.5
t-56 17.5h-73z" />
    <glyph glyph-name="uni024C" unicode="&#x24c;" horiz-adv-x="441" 
d="M3 440h80v343h159q72 0 113.5 -41t41.5 -114v-109q0 -87 -55 -111q61 -25 61 -114v-294h-91v305q0 37 -15 52.5t-56 15.5h-68v-373h-90v373h-80v67zM173 696v-256h62q40 0 56 16t16 55v106q0 79 -72 79h-62z" />
    <glyph glyph-name="uni024D" unicode="&#x24d;" horiz-adv-x="352" 
d="M6 381h66v230h61l17 -51q39 59 103 59q44 0 74 -26l-25 -79q-28 17 -56 17q-50 0 -85 -52v-98h129v-67h-129v-314h-89v314h-66v67z" />
    <glyph glyph-name="uni0253" unicode="&#x253;" 
d="M46 0v664q0 71 37.5 115t105.5 44q48 0 84 -21l-24 -78q-24 17 -50 17q-32 0 -48 -21.5t-16 -57.5v-78q45 35 98 35q54 0 90 -38.5t36 -109.5v-331q0 -71 -36 -109.5t-90 -38.5q-63 0 -111 46l-15 -38h-61zM208 531q-40 0 -73 -35v-381q33 -35 73 -35q62 0 62 79v293
q0 79 -62 79z" />
    <glyph glyph-name="uni0257" unicode="&#x257;" horiz-adv-x="493" 
d="M293 0l-15 38q-49 -46 -111 -46q-54 0 -90 38.5t-36 109.5v331q0 71 36 109.5t90 38.5q52 0 98 -35v80q0 71 38 115t106 44q48 0 84 -21l-24 -78q-24 17 -50 17q-32 0 -48.5 -21.5t-16.5 -57.5v-662h-61zM130 452v-293q0 -79 62 -79q40 0 73 35v381q-33 35 -73 35
q-62 0 -62 -79z" />
    <glyph glyph-name="uni0272" unicode="&#x272;" horiz-adv-x="403" 
d="M46 611h61l14 -35q48 43 110 43q56 0 92 -38t36 -110v-471h-89v452q0 79 -64 79q-37 0 -71 -32v-525q0 -68 -35.5 -112.5t-104.5 -44.5q-49 0 -82 24l24 77q23 -17 45 -17q29 0 46.5 19.5t17.5 53.5v637z" />
    <glyph glyph-name="circumflex" unicode="&#x2c6;" horiz-adv-x="367" 
d="M135 817h96l99 -158h-75l-72 115l-72 -115h-74z" />
    <glyph glyph-name="caron" unicode="&#x2c7;" horiz-adv-x="367" 
d="M37 817h75l71 -116l73 116h74l-98 -158h-96z" />
    <glyph glyph-name="breve" unicode="&#x2d8;" horiz-adv-x="318" 
d="M32 817h66q5 -103 61 -103t61 103h65q-3 -66 -34.5 -110.5t-91.5 -44.5q-61 0 -92.5 44.5t-34.5 110.5z" />
    <glyph glyph-name="dotaccent" unicode="&#x2d9;" horiz-adv-x="160" 
d="M79 806q26 0 39.5 -15t13.5 -39q0 -25 -13.5 -40.5t-39.5 -15.5q-25 0 -38 16t-13 40t13 39t38 15z" />
    <glyph glyph-name="ring" unicode="&#x2da;" horiz-adv-x="259" 
d="M115 817h28q40 0 64 -25t24 -64t-24 -64.5t-64 -25.5h-28q-40 0 -63.5 25.5t-23.5 64.5q0 38 23.5 63.5t63.5 25.5zM143 768h-28q-17 0 -27.5 -11t-10.5 -30q0 -18 10.5 -29t27.5 -11h28q17 0 28 11t11 29q0 19 -11 30t-28 11z" />
    <glyph glyph-name="ogonek" unicode="&#x2db;" horiz-adv-x="303" 
d="M129 -21l67 21h53l-85 -37q-33 -13 -45 -25.5t-12 -29.5q0 -41 64 -41q49 0 75 18l29 -61q-32 -34 -118 -34q-70 0 -99.5 26t-29.5 64q0 67 101 99z" />
    <glyph glyph-name="tilde" unicode="&#x2dc;" horiz-adv-x="398" 
d="M64 695l-36 32q37 76 104 76q34 0 73 -24t63 -24q43 0 66 49l36 -32q-38 -77 -101 -77q-31 0 -72 24t-67 24q-44 0 -66 -48z" />
    <glyph glyph-name="hungarumlaut" unicode="&#x2dd;" horiz-adv-x="410" 
d="M255 817h97l-106 -158h-79zM100 817h97l-107 -158h-78z" />
    <glyph glyph-name="gravecomb" unicode="&#x300;" horiz-adv-x="12" 
d="M-299 817h97l88 -158h-79z" />
    <glyph glyph-name="acutecomb" unicode="&#x301;" horiz-adv-x="12" 
d="M-196 817h97l-107 -158h-78z" />
    <glyph glyph-name="uni0302" unicode="&#x302;" horiz-adv-x="12" 
d="M-248 817h96l99 -158h-75l-72 115l-72 -115h-74z" />
    <glyph glyph-name="tildecomb" unicode="&#x303;" horiz-adv-x="12" 
d="M-336 695l-36 32q37 76 104 76q34 0 73 -24t63 -24q43 0 66 49l36 -32q-38 -77 -101 -77q-31 0 -72 24t-67 24q-44 0 -66 -48z" />
    <glyph glyph-name="uni0304" unicode="&#x304;" horiz-adv-x="12" 
d="M-362 779h324v-67h-324v67z" />
    <glyph glyph-name="uni0306" unicode="&#x306;" horiz-adv-x="12" 
d="M-328 817h66q5 -103 61 -103t61 103h65q-3 -66 -34.5 -110.5t-91.5 -44.5q-61 0 -92.5 44.5t-34.5 110.5z" />
    <glyph glyph-name="uni0307" unicode="&#x307;" horiz-adv-x="12" 
d="M-203 806q26 0 39.5 -15t13.5 -39q0 -25 -13.5 -40.5t-39.5 -15.5q-25 0 -38 16t-13 40t13 39t38 15z" />
    <glyph glyph-name="uni0308" unicode="&#x308;" horiz-adv-x="12" 
d="M-118 806q26 0 39.5 -15t13.5 -39q0 -25 -13.5 -40.5t-39.5 -15.5q-25 0 -38 16t-13 40t13 39t38 15zM-285 806q26 0 39.5 -15t13.5 -39q0 -25 -13.5 -40.5t-39.5 -15.5q-25 0 -38 16t-13 40t13 39t38 15z" />
    <glyph glyph-name="hookabovecomb" unicode="&#x309;" horiz-adv-x="12" 
d="M-301 741v16q0 78 97 78q93 0 93 -65q0 -31 -20.5 -56t-40 -44t-17.5 -38h-40q-7 25 7 46t31.5 41.5t17.5 42.5q0 26 -37 26q-21 0 -29.5 -7.5t-8.5 -23.5v-16h-53z" />
    <glyph glyph-name="uni030A" unicode="&#x30a;" horiz-adv-x="12" 
d="M-216 817h28q40 0 64 -25t24 -64t-24 -64.5t-64 -25.5h-28q-40 0 -63.5 25.5t-23.5 64.5q0 38 23.5 63.5t63.5 25.5zM-188 768h-28q-17 0 -27.5 -11t-10.5 -30q0 -18 10.5 -29t27.5 -11h28q17 0 28 11t11 29q0 19 -11 30t-28 11z" />
    <glyph glyph-name="uni030B" unicode="&#x30b;" horiz-adv-x="12" 
d="M-117 817h97l-106 -158h-79zM-272 817h97l-107 -158h-78z" />
    <glyph glyph-name="uni030C" unicode="&#x30c;" horiz-adv-x="12" 
d="M-351 817h75l71 -116l73 116h74l-98 -158h-96z" />
    <glyph glyph-name="uni0313" unicode="&#x313;" horiz-adv-x="12" 
d="M-177 932h32l-9 -202q-2 -55 -51 -55q-26 0 -39.5 15.5t-13.5 38.5q0 17 11 42z" />
    <glyph glyph-name="uni031B" unicode="&#x31b;" horiz-adv-x="97" 
d="M4 733h80v-62q0 -62 -31.5 -102.5t-92.5 -40.5q-43 0 -76 23l22 42q16 -12 39 -12q28 0 43.5 17.5t15.5 46.5v88z" />
    <glyph glyph-name="dotbelowcomb" unicode="&#x323;" horiz-adv-x="186" 
d="M-204 -57q26 0 39.5 -15t13.5 -39q0 -25 -13.5 -40.5t-39.5 -15.5q-25 0 -38 16t-13 40t13 39t38 15z" />
    <glyph glyph-name="uni0326" unicode="&#x326;" horiz-adv-x="12" 
d="M-244 -20h88l-44 -190h-70z" />
    <glyph glyph-name="uni0328" unicode="&#x328;" horiz-adv-x="12" 
d="M-270 -21l67 21h53l-85 -37q-33 -13 -45 -25.5t-12 -29.5q0 -41 64 -41q50 0 75 18l29 -61q-32 -34 -118 -34q-70 0 -99.5 26t-29.5 64q0 67 101 99z" />
    <glyph glyph-name="uni0337" unicode="&#x337;" horiz-adv-x="12" 
d="M-89 843h53l-298 -903h-53z" />
    <glyph glyph-name="uni0338" unicode="&#x338;" horiz-adv-x="12" 
d="M-115 671h49l-230 -731h-49z" />
    <glyph glyph-name="tonos" unicode="&#x384;" horiz-adv-x="146" 
d="M43 867h92l-50 -208h-73z" />
    <glyph glyph-name="dieresistonos" unicode="&#x385;" horiz-adv-x="376" 
d="M163 867h92l-50 -208h-73zM317 806q26 0 39.5 -15t13.5 -39q0 -25 -13.5 -40.5t-39.5 -15.5q-25 0 -38 16t-13 40t13 39t38 15zM57 806q26 0 39.5 -15t13.5 -39q0 -25 -13.5 -40.5t-39.5 -15.5q-25 0 -38 16t-13 40t13 39t38 15z" />
    <glyph glyph-name="Alphatonos" unicode="&#x386;" horiz-adv-x="435" 
d="M190 783h91l136 -783h-89l-18 113h-146l-17 -113h-89zM236 582l-60 -392h122zM49 867h92l-50 -208h-73z" />
    <glyph glyph-name="anoteleia" unicode="&#x387;" horiz-adv-x="160" 
d="M79 442q26 0 39.5 -15.5t13.5 -39.5t-13.5 -39.5t-39.5 -15.5q-24 0 -37.5 15.5t-13.5 39.5t13 39.5t38 15.5z" />
    <glyph glyph-name="Epsilontonos" unicode="&#x388;" horiz-adv-x="459" 
d="M171 783h259v-89h-167v-246h118v-89h-118v-270h167v-89h-259v783zM49 867h92l-50 -208h-73z" />
    <glyph glyph-name="Etatonos" unicode="&#x389;" horiz-adv-x="540" 
d="M171 783h92v-341h139v341h92v-783h-92v354h-139v-354h-92v783zM49 867h92l-50 -208h-73z" />
    <glyph glyph-name="Iotatonos" unicode="&#x38a;" horiz-adv-x="309" 
d="M171 783h92v-783h-92v783zM49 867h92l-50 -208h-73z" />
    <glyph glyph-name="Omicrontonos" unicode="&#x38c;" horiz-adv-x="497" 
d="M456 640v-497q0 -72 -46 -114.5t-115 -42.5t-115 42.5t-46 114.5v497q0 72 46 114.5t115 42.5t115 -42.5t46 -114.5zM225 639v-495q0 -33 19 -51t51 -18t51 18t19 51v495q0 33 -19 51t-51 18t-51 -18t-19 -51zM49 867h92l-50 -208h-73z" />
    <glyph glyph-name="Upsilontonos" unicode="&#x38e;" horiz-adv-x="540" 
d="M141 783h93l101 -304l103 304h89l-147 -417v-366h-92v366zM49 867h92l-50 -208h-73z" />
    <glyph glyph-name="Omegatonos" unicode="&#x38f;" horiz-adv-x="489" 
d="M212 639v-353q0 -52 41 -67v-219h-129v89h64v72q-65 43 -65 132v347q0 72 46 114.5t115 42.5t115 -42.5t46 -114.5v-347q0 -88 -65 -132v-72h65v-89h-130v219q41 15 41 67v353q0 32 -20.5 50.5t-51.5 18.5t-51.5 -18.5t-20.5 -50.5zM49 867h92l-50 -208h-73z" />
    <glyph glyph-name="iotadieresistonos" unicode="&#x390;" horiz-adv-x="339" 
d="M105 611h86v-474q0 -28 13.5 -44.5t37.5 -16.5q21 0 41 16l22 -76q-30 -24 -77 -24q-63 0 -93 40.5t-30 104.5v474zM143 867h92l-50 -208h-73zM298 806q26 0 39.5 -15t13.5 -39q0 -25 -13.5 -40.5t-39.5 -15.5q-25 0 -38 16t-13 40t13 39t38 15zM35 806q26 0 39.5 -15
t13.5 -39q0 -25 -13.5 -40.5t-39.5 -15.5q-25 0 -38 16t-13 40t13 39t38 15z" />
    <glyph glyph-name="Alpha" unicode="&#x391;" 
d="M150 783h91l136 -783h-89l-18 113h-146l-17 -113h-89zM196 582l-60 -392h122z" />
    <glyph glyph-name="Beta" unicode="&#x392;" horiz-adv-x="402" 
d="M46 783h159q72 0 113.5 -41t41.5 -114v-109q0 -89 -57 -113q66 -25 66 -120v-125q0 -77 -41.5 -119t-114.5 -42h-167v783zM136 364v-277h70q72 0 72 80v120q0 42 -16 59.5t-56 17.5h-70zM136 696v-253h64q38 0 54 16.5t16 56.5v101q0 79 -72 79h-62z" />
    <glyph glyph-name="Gamma" unicode="&#x393;" horiz-adv-x="305" 
d="M46 783h239v-89h-147v-694h-92v783z" />
    <glyph glyph-name="Delta" unicode="&#x394;" 
d="M150 783h91l136 -783h-359zM196 583l-76 -494h154z" />
    <glyph glyph-name="Epsilon" unicode="&#x395;" horiz-adv-x="334" 
d="M46 783h259v-89h-167v-246h118v-89h-118v-270h167v-89h-259v783z" />
    <glyph glyph-name="Zeta" unicode="&#x396;" horiz-adv-x="360" 
d="M32 783h300v-71l-210 -623h210v-89h-304v85l209 609h-205v89z" />
    <glyph glyph-name="Eta" unicode="&#x397;" horiz-adv-x="415" 
d="M46 783h92v-341h139v341h92v-783h-92v354h-139v-354h-92v783z" />
    <glyph glyph-name="Theta" unicode="&#x398;" horiz-adv-x="404" 
d="M147 448h110v-89h-110v89zM363 640v-497q0 -72 -46 -114.5t-115 -42.5t-115 42.5t-46 114.5v497q0 72 46 114.5t115 42.5t115 -42.5t46 -114.5zM132 639v-495q0 -33 19 -51t51 -18t51 18t19 51v495q0 33 -19 51t-51 18t-51 -18t-19 -51z" />
    <glyph glyph-name="Iota" unicode="&#x399;" horiz-adv-x="184" 
d="M46 783h92v-783h-92v783z" />
    <glyph glyph-name="Kappa" unicode="&#x39a;" horiz-adv-x="387" 
d="M268 783h94l-146 -320l158 -463h-96l-140 423v-423h-92v783h92v-291z" />
    <glyph glyph-name="Lambda" unicode="&#x39b;" 
d="M377 0h-90l-89 582l-91 -582h-89l135 783h91z" />
    <glyph glyph-name="Mu" unicode="&#x39c;" horiz-adv-x="535" 
d="M46 783h100l122 -621l129 621h92v-783h-82v505l-96 -505h-85l-98 512v-512h-82v783z" />
    <glyph glyph-name="Nu" unicode="&#x39d;" horiz-adv-x="405" 
d="M46 783h100l133 -540v540h80v-783h-82l-151 576v-576h-80v783z" />
    <glyph glyph-name="Xi" unicode="&#x39e;" horiz-adv-x="353" 
d="M29 783h295v-89h-295v89zM29 89h295v-89h-295v89zM78 448h197v-89h-197v89z" />
    <glyph glyph-name="Omicron" unicode="&#x39f;" horiz-adv-x="404" 
d="M363 640v-497q0 -72 -46 -114.5t-115 -42.5t-115 42.5t-46 114.5v497q0 72 46 114.5t115 42.5t115 -42.5t46 -114.5zM132 639v-495q0 -33 19 -51t51 -18t51 18t19 51v495q0 33 -19 51t-51 18t-51 -18t-19 -51z" />
    <glyph glyph-name="Pi" unicode="&#x3a0;" horiz-adv-x="415" 
d="M46 783h323v-783h-92v694h-139v-694h-92v783z" />
    <glyph glyph-name="Rho" unicode="&#x3a1;" 
d="M46 783h162q74 0 115 -45.5t41 -134.5v-114q0 -89 -41 -134.5t-115 -45.5h-70v-309h-92v783zM138 694v-296h63q72 0 72 85v126q0 85 -72 85h-63z" />
    <glyph glyph-name="Sigma" unicode="&#x3a3;" horiz-adv-x="337" 
d="M16 783h300v-89h-200l107 -291l-120 -314h215v-89h-302v72l120 320l-120 319v72z" />
    <glyph glyph-name="Tau" unicode="&#x3a4;" horiz-adv-x="308" 
d="M20 783h268v-89h-88v-694h-92v694h-88v89z" />
    <glyph glyph-name="Upsilon" unicode="&#x3a5;" horiz-adv-x="412" 
d="M13 783h93l101 -304l103 304h89l-147 -417v-366h-92v366z" />
    <glyph glyph-name="Phi" unicode="&#x3a6;" horiz-adv-x="564" 
d="M236 783h92v-87q111 -6 153 -44.5t42 -111.5v-297q0 -73 -42 -111.5t-153 -44.5v-87h-92v87q-111 6 -153 44.5t-42 111.5v297q0 73 42 111.5t153 44.5v87zM132 539v-295q0 -32 21 -48t83 -20v431q-62 -4 -83 -20t-21 -48zM432 539q0 32 -21 48t-83 20v-431q61 4 82.5 20
t21.5 48v295z" />
    <glyph glyph-name="Chi" unicode="&#x3a7;" horiz-adv-x="408" 
d="M294 783h89l-134 -376l146 -407h-97l-100 286l-98 -286h-87l139 416l-128 367h93l87 -248z" />
    <glyph glyph-name="Psi" unicode="&#x3a8;" horiz-adv-x="596" 
d="M254 783h92v-427q116 9 116 68v359h90v-360q0 -66 -53.5 -107t-152.5 -48v-268h-92v267q-100 7 -155 48t-55 108v360h92v-359q0 -59 118 -68v427z" />
    <glyph glyph-name="Omega" unicode="&#x3a9;" horiz-adv-x="410" 
d="M133 639v-353q0 -52 41 -67v-219h-129v89h64v72q-65 43 -65 132v347q0 72 46 114.5t115 42.5t115 -42.5t46 -114.5v-347q0 -88 -65 -132v-72h65v-89h-130v219q41 15 41 67v353q0 32 -20.5 50.5t-51.5 18.5t-51.5 -18.5t-20.5 -50.5z" />
    <glyph glyph-name="Iotadieresis" unicode="&#x3aa;" horiz-adv-x="189" 
d="M49 783h92v-783h-92v783zM177 978q26 0 39.5 -15t13.5 -39q0 -25 -13.5 -40.5t-39.5 -15.5q-25 0 -38 16t-13 40t13 39t38 15zM10 978q26 0 39.5 -15t13.5 -39q0 -25 -13.5 -40.5t-39.5 -15.5q-25 0 -38 16t-13 40t13 39t38 15z" />
    <glyph glyph-name="Upsilondieresis" unicode="&#x3ab;" horiz-adv-x="412" 
d="M13 783h93l101 -304l103 304h89l-147 -417v-366h-92v366zM288 978q26 0 39.5 -15t13.5 -39q0 -25 -13.5 -40.5t-39.5 -15.5q-25 0 -38 16t-13 40t13 39t38 15zM121 978q26 0 39.5 -15t13.5 -39q0 -25 -13.5 -40.5t-39.5 -15.5q-25 0 -38 16t-13 40t13 39t38 15z" />
    <glyph glyph-name="alphatonos" unicode="&#x3ac;" horiz-adv-x="486" 
d="M384 -8q-68 0 -98 56q-51 -56 -119 -56q-59 0 -92.5 39t-33.5 109v331q0 70 42 109t116 39q68 0 99.5 -35.5t31.5 -109.5v-157q28 106 56 294h82q-71 -367 -134 -490q12 -45 61 -45q31 0 47 18l24 -77q-33 -25 -82 -25zM127 466v-321q0 -65 54 -65q46 0 84 63v320
q0 36 -16.5 52t-51.5 16q-70 0 -70 -65zM198 867h92l-50 -208h-73z" />
    <glyph glyph-name="epsilontonos" unicode="&#x3ad;" horiz-adv-x="376" 
d="M164 867h92l-50 -208h-73zM195 619q69 0 109.5 -32t40.5 -88v-54h-81v32q0 54 -68 54t-68 -60v-64q0 -31 15.5 -43t53.5 -12h115v-73h-121q-39 0 -55 -13.5t-16 -45.5v-89q0 -51 71 -51q33 0 53 13.5t20 38.5v50l81 21v-91q0 -56 -43 -88t-112 -32t-114 32t-45 87v112
q0 74 63 94q-55 18 -55 88v84q0 59 40.5 94.5t115.5 35.5z" />
    <glyph glyph-name="etatonos" unicode="&#x3ae;" horiz-adv-x="428" 
d="M20 611h40q61 0 85 -36q47 44 111 44q56 0 92 -38t36 -110v-642h-89v623q0 79 -64 79q-37 0 -71 -32v-499h-89v490q0 46 -38 46h-13v75zM191 867h92l-50 -208h-73z" />
    <glyph glyph-name="iotatonos" unicode="&#x3af;" horiz-adv-x="256" 
d="M46 611h86v-474q0 -28 13.5 -44.5t37.5 -16.5q21 0 41 16l22 -76q-30 -24 -77 -24q-63 0 -93 40.5t-30 104.5v474zM87 867h92l-50 -208h-73z" />
    <glyph glyph-name="upsilondieresistonos" unicode="&#x3b0;" horiz-adv-x="428" 
d="M186 867h92l-50 -208h-73zM20 611h34q97 0 97 -99v-367q0 -31 18.5 -48t46.5 -17q41 0 64 48t23 177q0 144 -24 306h88q23 -165 23 -290q0 -178 -44 -253.5t-127 -75.5q-67 0 -110.5 40t-43.5 108v350q0 46 -38 46h-7v75zM341 806q26 0 39.5 -15t13.5 -39
q0 -25 -13.5 -40.5t-39.5 -15.5q-25 0 -38 16t-13 40t13 39t38 15zM78 806q26 0 39.5 -15t13.5 -39q0 -25 -13.5 -40.5t-39.5 -15.5q-25 0 -38 16t-13 40t13 39t38 15z" />
    <glyph glyph-name="alpha" unicode="&#x3b1;" horiz-adv-x="486" 
d="M384 -8q-68 0 -98 56q-51 -56 -119 -56q-59 0 -92.5 39t-33.5 109v331q0 70 42 109t116 39q68 0 99.5 -35.5t31.5 -109.5v-157q28 106 56 294h82q-71 -367 -134 -490q12 -45 61 -45q31 0 47 18l24 -77q-33 -25 -82 -25zM127 466v-321q0 -65 54 -65q46 0 84 63v320
q0 36 -16.5 52t-51.5 16q-70 0 -70 -65z" />
    <glyph glyph-name="beta" unicode="&#x3b2;" horiz-adv-x="446" 
d="M258 -8q-81 0 -128 58v-221h-84v828q0 77 37.5 121.5t116.5 44.5q143 0 143 -150v-141q0 -69 -21 -99q43 -12 64 -42.5t21 -88.5v-146q0 -72 -36.5 -118t-112.5 -46zM130 663v-524q51 -63 114 -63q36 0 56 21.5t20 58.5v142q0 50 -21.5 67.5t-77.5 17.5h-29v71h9
q37 0 48.5 15.5t11.5 55.5v142q0 68 -64 68q-67 0 -67 -72z" />
    <glyph glyph-name="gamma" unicode="&#x3b3;" horiz-adv-x="378" 
d="M19 611h86q62 -240 84 -471q87 263 87 471h84q-1 -140 -39.5 -284.5t-107.5 -326.5v-171h-89v171q0 88 -32 273t-73 338z" />
    <glyph glyph-name="delta" unicode="&#x3b4;" horiz-adv-x="386" 
d="M41 375q0 119 63 169q-61 52 -61 131q0 74 41 111t112 37q77 0 113 -39.5t36 -100.5v-34h-81v21q0 69 -69 69q-66 0 -66 -65q0 -44 37 -76q11 -10 60.5 -45.5t72.5 -61.5q46 -51 46 -127v-224q0 -67 -43.5 -107.5t-108.5 -40.5t-108.5 40.5t-43.5 107.5v235zM258 367
q0 41 -24.5 71.5t-70.5 63.5q-36 -37 -36 -127v-230q0 -31 18.5 -48t47.5 -17t47 17t18 48v222z" />
    <glyph glyph-name="epsilon" unicode="&#x3b5;" horiz-adv-x="376" 
d="M195 619q69 0 109.5 -32t40.5 -88v-54h-81v32q0 54 -68 54t-68 -60v-64q0 -31 15.5 -43t53.5 -12h115v-73h-121q-39 0 -55 -13.5t-16 -45.5v-89q0 -51 71 -51q33 0 53 13.5t20 38.5v50l81 21v-91q0 -56 -43 -88t-112 -32t-114 32t-45 87v112q0 74 63 94q-55 18 -55 88v84
q0 59 40.5 94.5t115.5 35.5z" />
    <glyph glyph-name="zeta" unicode="&#x3b6;" horiz-adv-x="370" 
d="M42 815h290v-62q-141 -331 -173 -419.5t-32 -144.5q0 -60 17 -77.5t83 -36.5q56 -17 83.5 -45t27.5 -87q0 -52 -36 -114h-87q38 55 38 110q0 34 -15 46.5t-55 23.5q-47 13 -67 20.5t-41 26t-27.5 47.5t-6.5 79q0 73 32 164t164 394h-195v75z" />
    <glyph glyph-name="eta" unicode="&#x3b7;" horiz-adv-x="428" 
d="M20 611h40q61 0 85 -36q47 44 111 44q56 0 92 -38t36 -110v-642h-89v623q0 79 -64 79q-37 0 -71 -32v-499h-89v490q0 46 -38 46h-13v75z" />
    <glyph glyph-name="theta" unicode="&#x3b8;" horiz-adv-x="386" 
d="M193 823q65 0 108.5 -40.5t43.5 -107.5v-535q0 -67 -43.5 -107.5t-108.5 -40.5t-108.5 40.5t-43.5 107.5v535q0 67 43.5 107.5t108.5 40.5zM193 80q29 0 47 17t18 48v229h-131v-229q0 -31 18.5 -48t47.5 -17zM193 735q-29 0 -47.5 -17t-18.5 -48v-221h131v221
q0 31 -18 48t-47 17z" />
    <glyph glyph-name="iota" unicode="&#x3b9;" horiz-adv-x="256" 
d="M46 611h86v-474q0 -28 13.5 -44.5t37.5 -16.5q21 0 41 16l22 -76q-30 -24 -77 -24q-63 0 -93 40.5t-30 104.5v474z" />
    <glyph glyph-name="kappa" unicode="&#x3ba;" horiz-adv-x="375" 
d="M259 611h91l-140 -250l152 -361h-92l-135 329v-329h-89v611h89v-227z" />
    <glyph glyph-name="lambda" unicode="&#x3bb;" horiz-adv-x="388" 
d="M16 815h27q74 0 113.5 -32.5t58.5 -111.5l154 -671h-85l-93 400l-86 -400h-86l133 572l-20 87q-12 49 -32.5 65t-62.5 16h-21v75z" />
    <glyph glyph-name="mu" unicode="&#x3bc;" horiz-adv-x="454" 
d="M266 611h88v-478q0 -57 39 -57q18 0 35 16l15 -76q-27 -24 -69 -24q-61 0 -89 50q-47 -50 -114 -50q-26 0 -50 9l13 -172h-90v782h89v-452q0 -79 63 -79q37 0 70 33v10v488z" />
    <glyph glyph-name="nu" unicode="&#x3bd;" horiz-adv-x="378" 
d="M19 611h86q62 -240 84 -471q87 263 87 471h84q-1 -140 -40 -284.5t-109 -326.5h-86q0 87 -32.5 272t-73.5 339z" />
    <glyph glyph-name="xi" unicode="&#x3be;" horiz-adv-x="370" 
d="M42 815h290v-61q-93 -106 -138 -166t-53 -79t-8 -41q0 -36 15 -51.5t61 -15.5h110v-73h-110q-45 0 -63.5 -30.5t-18.5 -103.5q0 -64 16.5 -81.5t83.5 -37.5q56 -17 83.5 -45t27.5 -87q0 -52 -36 -114h-87q38 55 38 110q0 34 -15 46.5t-55 23.5q-27 7 -40 11t-31.5 11.5
t-26.5 15.5t-19 21t-15 29.5t-7 40t-3 54.5q0 140 76 172q-37 9 -51.5 29.5t-14.5 58.5q0 45 31 97t147 191h-187v75z" />
    <glyph glyph-name="omicron" unicode="&#x3bf;" horiz-adv-x="386" 
d="M345 471v-331q0 -67 -43.5 -107.5t-108.5 -40.5t-108.5 40.5t-43.5 107.5v331q0 67 43.5 107.5t108.5 40.5t108.5 -40.5t43.5 -107.5zM127 466v-321q0 -31 18.5 -48t47.5 -17t47 17t18 48v321q0 31 -18 48t-47 17t-47.5 -17t-18.5 -48z" />
    <glyph glyph-name="pi" unicode="&#x3c0;" horiz-adv-x="522" 
d="M20 611h458v-75h-83v-399q0 -28 13.5 -44.5t36.5 -16.5q21 0 41 16l23 -76q-31 -24 -78 -24q-62 0 -92.5 40.5t-30.5 104.5v399h-133v-536h-89v536h-66v75z" />
    <glyph glyph-name="rho" unicode="&#x3c1;" horiz-adv-x="394" 
d="M235 -8q-60 0 -103 36v-199h-86v642q0 67 43.5 107.5t108.5 40.5t110 -40.5t45 -107.5v-331q0 -72 -37.5 -110t-80.5 -38zM132 466v-349q34 -37 70 -37q28 0 46 16.5t18 48.5v321q0 31 -19 48t-49 17q-29 0 -47.5 -17t-18.5 -48z" />
    <glyph glyph-name="sigma1" unicode="&#x3c2;" horiz-adv-x="370" 
d="M127 466v-275q0 -61 17.5 -79t82.5 -37q56 -17 83.5 -45t27.5 -87q0 -52 -36 -114h-87q38 55 38 110q0 34 -15 46.5t-55 23.5q-44 11 -64.5 19t-41.5 27t-28.5 51t-7.5 84v281q0 67 42 107.5t105 40.5q64 0 106.5 -40.5t42.5 -107.5v-26h-81v21q0 31 -18 48t-47 17
t-46.5 -17t-17.5 -48z" />
    <glyph glyph-name="sigma" unicode="&#x3c3;" horiz-adv-x="425" 
d="M193 611h212v-75h-97q37 -49 37 -131v-265q0 -67 -43.5 -107.5t-108.5 -40.5t-108.5 40.5t-43.5 107.5v331q0 67 42.5 103.5t109.5 36.5zM258 405q0 90 -23 131h-42q-30 0 -48 -16.5t-18 -46.5v-328q0 -31 18.5 -48t47.5 -17t47 17t18 48v260z" />
    <glyph glyph-name="tau" unicode="&#x3c4;" horiz-adv-x="359" 
d="M20 611h320v-75h-132v-399q0 -28 13.5 -44.5t37.5 -16.5q21 0 40 16l23 -76q-30 -24 -78 -24q-62 0 -92 40.5t-30 104.5v399h-102v75z" />
    <glyph glyph-name="upsilon" unicode="&#x3c5;" horiz-adv-x="428" 
d="M20 611h34q97 0 97 -99v-367q0 -31 18.5 -48t46.5 -17q41 0 64 48t23 177q0 144 -24 306h88q23 -165 23 -290q0 -178 -44 -253.5t-127 -75.5q-67 0 -110.5 40t-43.5 108v350q0 46 -38 46h-7v75z" />
    <glyph glyph-name="phi" unicode="&#x3c6;" horiz-adv-x="556" 
d="M234 793l88 22v-197q59 -3 97.5 -14t59 -31.5t28.5 -44t8 -57.5v-331q0 -70 -40 -105.5t-153 -41.5v-164h-88v164q-113 6 -153 41.5t-40 105.5v331q0 34 8 57.5t28.5 44t59 31.5t97.5 14v175zM127 466v-321q0 -30 22 -45t85 -19v449q-63 -4 -85 -19t-22 -45zM428 466
q0 30 -21.5 45t-84.5 19v-449q63 4 84.5 19t21.5 45v321z" />
    <glyph glyph-name="chi" unicode="&#x3c7;" horiz-adv-x="417" 
d="M308 611h91l-161 -381l57 -216q19 -68 36 -89t51 -21h18v-75h-24q-65 0 -89 27t-48 112l-43 163l-127 -302h-89l182 433l-43 164q-18 68 -35 89t-51 21h-18v75h24q34 0 55 -6t36 -24.5t24 -41t22 -67.5l28 -109z" />
    <glyph glyph-name="psi" unicode="&#x3c8;" horiz-adv-x="580" 
d="M245 740l88 22v-677q120 30 120 223q0 141 -24 303h88q23 -163 23 -281q0 -163 -58 -242t-149 -93v-166h-88v167q-90 15 -147.5 94t-57.5 235q0 121 23 286h88q-25 -159 -25 -302q0 -191 119 -223v654z" />
    <glyph glyph-name="omega" unicode="&#x3c9;" horiz-adv-x="571" 
d="M61 611h88q-24 -151 -24 -327q0 -83 8 -129t21 -60.5t35 -14.5q24 0 35.5 21t17 82.5t5.5 189.5h77q0 -128 5.5 -189.5t17 -82.5t35.5 -21q22 0 35 14.5t21 60.5t8 129q0 176 -24 327h88q23 -149 23 -303q0 -173 -36 -244.5t-113 -71.5q-73 0 -99 63q-26 -63 -99 -63
q-77 0 -112.5 71.5t-35.5 244.5q0 154 23 303z" />
    <glyph glyph-name="iotadieresis" unicode="&#x3ca;" horiz-adv-x="288" 
d="M78 611h86v-474q0 -28 13.5 -44.5t37.5 -16.5q21 0 41 16l22 -76q-30 -24 -77 -24q-63 0 -93 40.5t-30 104.5v474zM204 806q26 0 39.5 -15t13.5 -39q0 -25 -13.5 -40.5t-39.5 -15.5q-25 0 -38 16t-13 40t13 39t38 15zM37 806q26 0 39.5 -15t13.5 -39q0 -25 -13.5 -40.5
t-39.5 -15.5q-25 0 -38 16t-13 40t13 39t38 15z" />
    <glyph glyph-name="upsilondieresis" unicode="&#x3cb;" horiz-adv-x="428" 
d="M20 611h34q97 0 97 -99v-367q0 -31 18.5 -48t46.5 -17q41 0 64 48t23 177q0 144 -24 306h88q23 -165 23 -290q0 -178 -44 -253.5t-127 -75.5q-67 0 -110.5 40t-43.5 108v350q0 46 -38 46h-7v75zM283 806q26 0 39.5 -15t13.5 -39q0 -25 -13.5 -40.5t-39.5 -15.5
q-25 0 -38 16t-13 40t13 39t38 15zM116 806q26 0 39.5 -15t13.5 -39q0 -25 -13.5 -40.5t-39.5 -15.5q-25 0 -38 16t-13 40t13 39t38 15z" />
    <glyph glyph-name="omicrontonos" unicode="&#x3cc;" horiz-adv-x="386" 
d="M345 471v-331q0 -67 -43.5 -107.5t-108.5 -40.5t-108.5 40.5t-43.5 107.5v331q0 67 43.5 107.5t108.5 40.5t108.5 -40.5t43.5 -107.5zM127 466v-321q0 -31 18.5 -48t47.5 -17t47 17t18 48v321q0 31 -18 48t-47 17t-47.5 -17t-18.5 -48zM169 867h92l-50 -208h-73z" />
    <glyph glyph-name="upsilontonos" unicode="&#x3cd;" horiz-adv-x="428" 
d="M187 867h92l-50 -208h-73zM20 611h34q97 0 97 -99v-367q0 -31 18.5 -48t46.5 -17q41 0 64 48t23 177q0 144 -24 306h88q23 -165 23 -290q0 -178 -44 -253.5t-127 -75.5q-67 0 -110.5 40t-43.5 108v350q0 46 -38 46h-7v75z" />
    <glyph glyph-name="omegatonos" unicode="&#x3ce;" horiz-adv-x="571" 
d="M61 611h88q-24 -151 -24 -327q0 -83 8 -129t21 -60.5t35 -14.5q24 0 35.5 21t17 82.5t5.5 189.5h77q0 -128 5.5 -189.5t17 -82.5t35.5 -21q22 0 35 14.5t21 60.5t8 129q0 176 -24 327h88q23 -149 23 -303q0 -173 -36 -244.5t-113 -71.5q-73 0 -99 63q-26 -63 -99 -63
q-77 0 -112.5 71.5t-35.5 244.5q0 154 23 303zM261 867h92l-50 -208h-73z" />
    <glyph glyph-name="uni0400" unicode="&#x400;" horiz-adv-x="334" 
d="M46 783h259v-89h-167v-246h118v-89h-118v-270h167v-89h-259v783zM73 989h97l88 -158h-79z" />
    <glyph glyph-name="uni0401" unicode="&#x401;" horiz-adv-x="334" 
d="M46 783h259v-89h-167v-246h118v-89h-118v-270h167v-89h-259v783zM258 978q26 0 39.5 -15t13.5 -39q0 -25 -13.5 -40.5t-39.5 -15.5q-25 0 -38 16t-13 40t13 39t38 15zM91 978q26 0 39.5 -15t13.5 -39q0 -25 -13.5 -40.5t-39.5 -15.5q-25 0 -38 16t-13 40t13 39t38 15z
" />
    <glyph glyph-name="uni0402" unicode="&#x402;" horiz-adv-x="548" 
d="M20 783h384v-89h-158v-231q43 23 96 23q71 0 119 -43t48 -114v-290q0 -73 -33 -118.5t-104 -45.5q-52 0 -86 25l23 76q22 -17 49 -17q59 0 59 80v289q0 32 -27.5 50.5t-67.5 18.5q-44 0 -76 -10v-387h-92v694h-134v89z" />
    <glyph glyph-name="uni0403" unicode="&#x403;" horiz-adv-x="305" 
d="M174 989h97l-107 -158h-78zM46 783h239v-89h-147v-694h-92v783z" />
    <glyph glyph-name="uni0404" unicode="&#x404;" horiz-adv-x="379" 
d="M132 640v-192h146v-89h-146v-216q0 -33 18 -50.5t49 -17.5t49.5 17.5t18.5 50.5v16l85 22v-40q0 -70 -45 -112.5t-112 -42.5q-66 0 -110 42.5t-44 112.5v501q0 71 44 113t115 42q70 0 111 -41.5t41 -113.5v-26h-85v24q0 68 -66 68q-32 0 -50.5 -17.5t-18.5 -50.5z" />
    <glyph glyph-name="uni0405" unicode="&#x405;" horiz-adv-x="376" 
d="M191 797q70 0 110.5 -42t40.5 -111v-28h-85v21q0 34 -18 54t-50 20q-35 0 -53.5 -23.5t-18.5 -60.5q0 -50 41 -108q1 -1 62 -82.5t83 -116.5q44 -70 44 -146q0 -89 -39.5 -138.5t-117.5 -49.5q-75 0 -120 43.5t-45 109.5v42l85 -22v-19q0 -29 20 -49.5t54 -20.5
q75 0 75 92q0 56 -39 117q-13 19 -61 80.5t-68 93.5q-59 93 -59 175q0 78 43.5 123.5t115.5 45.5z" />
    <glyph glyph-name="uni0406" unicode="&#x406;" horiz-adv-x="184" 
d="M46 783h92v-783h-92v783z" />
    <glyph glyph-name="uni0407" unicode="&#x407;" horiz-adv-x="241" 
d="M74 783h92v-783h-92v783zM203 978q26 0 39.5 -15t13.5 -39q0 -25 -13.5 -40.5t-39.5 -15.5q-25 0 -38 16t-13 40t13 39t38 15zM36 978q26 0 39.5 -15t13.5 -39q0 -25 -13.5 -40.5t-39.5 -15.5q-25 0 -38 16t-13 40t13 39t38 15z" />
    <glyph glyph-name="uni0408" unicode="&#x408;" horiz-adv-x="375" 
d="M240 783h91v-642q0 -71 -43.5 -113t-112.5 -42t-112 42t-43 113v40l85 -22v-16q0 -33 18 -50.5t49 -17.5t49.5 17.5t18.5 50.5v640z" />
    <glyph glyph-name="uni0409" unicode="&#x409;" horiz-adv-x="697" 
d="M199 783h241v-340h70q74 0 115 -45.5t41 -134.5v-83q0 -89 -41 -134.5t-115 -45.5h-162v694h-81q-4 -237 -37 -412q-30 -158 -73.5 -220t-110.5 -62h-26v89h19q16 0 29.5 7t30 27t32 64.5t28.5 111.5q40 208 40 484zM440 354v-265h63q72 0 72 85v94q0 86 -72 86h-63z" />
    <glyph glyph-name="uni040A" unicode="&#x40a;" horiz-adv-x="626" 
d="M46 783h92v-341h139v341h92v-340h70q74 0 115 -45.5t41 -134.5v-83q0 -89 -41 -134.5t-115 -45.5h-162v354h-139v-354h-92v783zM369 354v-265h63q72 0 72 85v94q0 86 -72 86h-63z" />
    <glyph glyph-name="uni040B" unicode="&#x40b;" horiz-adv-x="505" 
d="M20 783h384v-89h-158v-232q43 24 96 24q132 0 132 -157v-329h-92v328q0 69 -72 69q-39 0 -64 -11v-386h-92v694h-134v89z" />
    <glyph glyph-name="uni040C" unicode="&#x40c;" horiz-adv-x="387" 
d="M268 783h94l-146 -320l158 -463h-96l-140 423v-423h-92v783h92v-291zM201 989h97l-107 -158h-78z" />
    <glyph glyph-name="uni040D" unicode="&#x40d;" horiz-adv-x="415" 
d="M106 989h97l88 -158h-79zM46 783h87v-530l138 530h98v-783h-88v582l-157 -582h-78v783z" />
    <glyph glyph-name="uni040E" unicode="&#x40e;" horiz-adv-x="432" 
d="M89 989h66q5 -103 61 -103t61 103h65q-3 -66 -34.5 -110.5t-91.5 -44.5q-61 0 -92.5 44.5t-34.5 110.5zM20 783h93l104 -400l110 400h89l-187 -666q-19 -68 -51 -92.5t-98 -24.5h-51v88h43q38 0 54 12t26 48l20 74z" />
    <glyph glyph-name="uni040F" unicode="&#x40f;" horiz-adv-x="415" 
d="M369 0h-122v-171h-80v171h-121v783h92v-694h139v694h92v-783z" />
    <glyph glyph-name="uni0410" unicode="&#x410;" 
d="M150 783h91l136 -783h-89l-18 113h-146l-17 -113h-89zM196 582l-60 -392h122z" />
    <glyph glyph-name="uni0411" unicode="&#x411;" 
d="M46 783h239v-89h-147v-251h70q74 0 115 -45.5t41 -134.5v-83q0 -89 -41 -134.5t-115 -45.5h-162v783zM138 354v-265h63q72 0 72 85v94q0 86 -72 86h-63z" />
    <glyph glyph-name="uni0412" unicode="&#x412;" horiz-adv-x="402" 
d="M46 783h159q72 0 113.5 -41t41.5 -114v-109q0 -89 -57 -113q66 -25 66 -120v-125q0 -77 -41.5 -119t-114.5 -42h-167v783zM136 364v-277h70q72 0 72 80v120q0 42 -16 59.5t-56 17.5h-70zM136 696v-253h64q38 0 54 16.5t16 56.5v101q0 79 -72 79h-62z" />
    <glyph glyph-name="uni0413" unicode="&#x413;" horiz-adv-x="305" 
d="M46 783h239v-89h-147v-694h-92v783z" />
    <glyph glyph-name="uni0414" unicode="&#x414;" horiz-adv-x="584" 
d="M217 783h241v-694h106v-260h-80v171h-384v-171h-80v260h37q16 0 29.5 7t30 27t32 64.5t28.5 111.5q40 208 40 484zM189 89h177v605h-81q-4 -237 -37 -412q-23 -120 -59 -193z" />
    <glyph glyph-name="uni0415" unicode="&#x415;" horiz-adv-x="334" 
d="M46 783h259v-89h-167v-246h118v-89h-118v-270h167v-89h-259v783z" />
    <glyph glyph-name="uni0416" unicode="&#x416;" horiz-adv-x="590" 
d="M249 783h92v-291l130 291h94l-146 -320l158 -463h-96l-140 423v-423h-92v423l-140 -423h-96l158 463l-146 320h94l130 -291v291z" />
    <glyph glyph-name="uni0417" unicode="&#x417;" horiz-adv-x="385" 
d="M185 797q76 0 117 -47t41 -122v-109q0 -89 -57 -113q66 -25 66 -120v-146q0 -70 -46 -112t-116 -42q-69 0 -113 42t-44 113v40l85 -22v-16q0 -33 19 -50.5t52 -17.5q34 0 53 17.5t19 50.5v144q0 42 -16 59.5t-56 17.5h-55v79h49q38 0 54 16.5t16 56.5v113q0 79 -69 79
q-66 0 -66 -72v-20h-85v26q0 72 41 113.5t111 41.5z" />
    <glyph glyph-name="uni0418" unicode="&#x418;" horiz-adv-x="415" 
d="M46 783h87v-530l138 530h98v-783h-88v582l-157 -582h-78v783z" />
    <glyph glyph-name="uni0419" unicode="&#x419;" horiz-adv-x="415" 
d="M80 989h66q5 -103 61 -103t61 103h65q-3 -66 -34.5 -110.5t-91.5 -44.5q-61 0 -92.5 44.5t-34.5 110.5zM46 783h87v-530l138 530h98v-783h-88v582l-157 -582h-78v783z" />
    <glyph glyph-name="uni041A" unicode="&#x41a;" horiz-adv-x="387" 
d="M268 783h94l-146 -320l158 -463h-96l-140 423v-423h-92v783h92v-291z" />
    <glyph glyph-name="uni041B" unicode="&#x41b;" horiz-adv-x="486" 
d="M199 783h241v-783h-92v694h-81q-4 -237 -37 -412q-30 -158 -73.5 -220t-110.5 -62h-26v89h19q16 0 29.5 7t30 27t32 64.5t28.5 111.5q40 208 40 484z" />
    <glyph glyph-name="uni041C" unicode="&#x41c;" horiz-adv-x="535" 
d="M46 783h100l122 -621l129 621h92v-783h-82v505l-96 -505h-85l-98 512v-512h-82v783z" />
    <glyph glyph-name="uni041D" unicode="&#x41d;" horiz-adv-x="415" 
d="M46 783h92v-341h139v341h92v-783h-92v354h-139v-354h-92v783z" />
    <glyph glyph-name="uni041E" unicode="&#x41e;" horiz-adv-x="404" 
d="M363 640v-497q0 -72 -46 -114.5t-115 -42.5t-115 42.5t-46 114.5v497q0 72 46 114.5t115 42.5t115 -42.5t46 -114.5zM132 639v-495q0 -33 19 -51t51 -18t51 18t19 51v495q0 33 -19 51t-51 18t-51 -18t-19 -51z" />
    <glyph glyph-name="uni041F" unicode="&#x41f;" horiz-adv-x="415" 
d="M46 783h323v-783h-92v694h-139v-694h-92v783z" />
    <glyph glyph-name="uni0420" unicode="&#x420;" 
d="M46 783h162q74 0 115 -45.5t41 -134.5v-114q0 -89 -41 -134.5t-115 -45.5h-70v-309h-92v783zM138 694v-296h63q72 0 72 85v126q0 85 -72 85h-63z" />
    <glyph glyph-name="uni0421" unicode="&#x421;" horiz-adv-x="379" 
d="M132 640v-497q0 -33 18 -50.5t49 -17.5t49.5 17.5t18.5 50.5v16l85 22v-40q0 -70 -45 -112.5t-112 -42.5q-66 0 -110 42.5t-44 112.5v501q0 71 44 113t115 42q70 0 111 -41.5t41 -113.5v-26h-85v24q0 68 -66 68q-32 0 -50.5 -17.5t-18.5 -50.5z" />
    <glyph glyph-name="uni0422" unicode="&#x422;" horiz-adv-x="308" 
d="M20 783h268v-89h-88v-694h-92v694h-88v89z" />
    <glyph glyph-name="uni0423" unicode="&#x423;" horiz-adv-x="432" 
d="M20 783h93l104 -400l110 400h89l-187 -666q-19 -68 -51 -92.5t-98 -24.5h-51v88h43q38 0 54 12t26 48l20 74z" />
    <glyph glyph-name="uni0424" unicode="&#x424;" horiz-adv-x="564" 
d="M236 783h92v-87q111 -6 153 -44.5t42 -111.5v-297q0 -73 -42 -111.5t-153 -44.5v-87h-92v87q-111 6 -153 44.5t-42 111.5v297q0 73 42 111.5t153 44.5v87zM132 539v-295q0 -32 21 -48t83 -20v431q-62 -4 -83 -20t-21 -48zM432 539q0 32 -21 48t-83 20v-431q61 4 82.5 20
t21.5 48v295z" />
    <glyph glyph-name="uni0425" unicode="&#x425;" horiz-adv-x="408" 
d="M294 783h89l-134 -376l146 -407h-97l-100 286l-98 -286h-87l139 416l-128 367h93l87 -248z" />
    <glyph glyph-name="uni0426" unicode="&#x426;" horiz-adv-x="495" 
d="M369 89h106v-260h-80v171h-349v783h92v-694h139v694h92v-694z" />
    <glyph glyph-name="uni0427" unicode="&#x427;" horiz-adv-x="404" 
d="M266 783h92v-783h-92v321q-43 -24 -96 -24q-132 0 -132 157v329h92v-328q0 -35 17 -52t57 -17q34 0 62 10v387z" />
    <glyph glyph-name="uni0428" unicode="&#x428;" horiz-adv-x="621" 
d="M46 783h92v-694h127v694h92v-694h126v694h92v-783h-529v783z" />
    <glyph glyph-name="uni0429" unicode="&#x429;" horiz-adv-x="701" 
d="M46 783h92v-694h127v694h92v-694h126v694h92v-694h106v-260h-80v171h-555v783z" />
    <glyph glyph-name="uni042A" unicode="&#x42a;" horiz-adv-x="503" 
d="M20 783h226v-340h70q74 0 115 -45.5t41 -134.5v-83q0 -89 -41 -134.5t-115 -45.5h-162v694h-134v89zM246 354v-265h63q72 0 72 85v94q0 86 -72 86h-63z" />
    <glyph glyph-name="uni042B" unicode="&#x42b;" horiz-adv-x="558" 
d="M420 783h92v-783h-92v783zM46 783h92v-340h70q74 0 115 -45.5t41 -134.5v-83q0 -89 -41 -134.5t-115 -45.5h-162v783zM138 354v-265h63q72 0 72 85v94q0 86 -72 86h-63z" />
    <glyph glyph-name="uni042C" unicode="&#x42c;" 
d="M46 783h92v-340h70q74 0 115 -45.5t41 -134.5v-83q0 -89 -41 -134.5t-115 -45.5h-162v783zM138 354v-265h63q72 0 72 85v94q0 86 -72 86h-63z" />
    <glyph glyph-name="uni042D" unicode="&#x42d;" horiz-adv-x="379" 
d="M179 797q71 0 115 -42t44 -113v-501q0 -70 -44 -112.5t-110 -42.5q-67 0 -112 42.5t-45 112.5v40l85 -22v-16q0 -33 18.5 -50.5t49.5 -17.5t49 17.5t18 50.5v216h-146v89h146v192q0 33 -18.5 50.5t-50.5 17.5q-66 0 -66 -68v-24h-85v26q0 72 41 113.5t111 41.5z" />
    <glyph glyph-name="uni042E" unicode="&#x42e;" horiz-adv-x="573" 
d="M532 640v-497q0 -72 -46 -114.5t-115 -42.5t-115 42.5t-46 114.5v216h-72v-359h-92v783h92v-335h72v192q0 72 46 114.5t115 42.5t115 -42.5t46 -114.5zM301 639v-495q0 -33 19 -51t51 -18t51 18t19 51v495q0 33 -19 51t-51 18t-51 -18t-19 -51z" />
    <glyph glyph-name="uni042F" unicode="&#x42f;" horiz-adv-x="410" 
d="M205 783h159v-783h-90v351h-61l-104 -351h-96l112 369q-75 41 -75 146v113q0 73 41.5 114t113.5 41zM140 617v-106q0 -81 72 -81h62v266h-62q-72 0 -72 -79z" />
    <glyph glyph-name="uni0430" unicode="&#x430;" horiz-adv-x="384" 
d="M102 490l-49 61q22 32 60 50t82 18q71 0 108 -45.5t37 -120.5v-453h-56l-16 34q-50 -42 -112 -42q-56 0 -92.5 38.5t-36.5 119.5q0 66 29 114t97 99q43 31 103 69v19q0 40 -18.5 63t-54.5 23q-53 0 -81 -47zM182 76q39 0 74 35v235q-37 -23 -59 -40q-81 -63 -81 -143
q0 -87 66 -87z" />
    <glyph glyph-name="uni0431" unicode="&#x431;" horiz-adv-x="386" 
d="M186 777h68q34 0 49 11t15 37v11h44v-11q-1 -73 -25 -104.5t-78 -31.5h-67q-48 0 -67.5 -14.5t-19.5 -58.5v-48q38 24 88 24q65 0 108.5 -40.5t43.5 -107.5v-304q0 -67 -43.5 -107.5t-108.5 -40.5t-108.5 40.5t-43.5 107.5v487q0 79 34 114.5t111 35.5zM127 439v-294
q0 -31 18.5 -48t47.5 -17t47 17t18 48v294q0 31 -18 48t-47 17t-47.5 -17t-18.5 -48z" />
    <glyph glyph-name="uni0432" unicode="&#x432;" horiz-adv-x="397" 
d="M46 611h158q71 0 112 -32t41 -89v-84q0 -71 -56 -89q65 -21 65 -94v-97q0 -60 -41 -93t-113 -33h-166v611zM135 283v-211h70q72 0 72 62v89q0 32 -16.5 46t-55.5 14h-70zM135 538v-190h64q38 0 54 12t16 43v76q0 59 -72 59h-62z" />
    <glyph glyph-name="uni0433" unicode="&#x433;" horiz-adv-x="312" 
d="M46 611h246v-75h-157v-536h-89v611z" />
    <glyph glyph-name="uni0434" unicode="&#x434;" horiz-adv-x="541" 
d="M192 611h231v-536h98v-246h-75v171h-351v-171h-75v246h18q79 0 116 158q38 161 38 378zM170 75h164v461h-76q-6 -186 -36 -316q-21 -92 -52 -145z" />
    <glyph glyph-name="uni0435" unicode="&#x435;" horiz-adv-x="375" 
d="M241 274q-46 -40 -114 -82v-49q0 -31 17.5 -48t46.5 -17t47 17t18 48v39l81 21v-63q0 -67 -42.5 -107.5t-106.5 -40.5q-63 0 -105 40.5t-42 107.5v331q0 67 42 107.5t106 40.5q62 0 106 -38.5t44 -122.5q0 -56 -23 -98.5t-75 -85.5zM127 467v-189q45 29 69 52
q57 53 57 122q0 85 -65 85q-29 0 -45 -18.5t-16 -51.5z" />
    <glyph glyph-name="uni0436" unicode="&#x436;" horiz-adv-x="570" 
d="M241 611h89v-227l124 227h91l-140 -250l152 -361h-92l-135 329v-329h-89v331l-136 -331h-92l152 361l-140 250h91l125 -228v228z" />
    <glyph glyph-name="uni0437" unicode="&#x437;" horiz-adv-x="376" 
d="M183 619q75 0 115.5 -35.5t40.5 -94.5v-84q0 -70 -56 -88q64 -20 64 -94v-112q0 -55 -45 -87t-114 -32t-112 32t-43 88v91l81 -21v-50q0 -25 20 -38.5t53 -13.5q71 0 71 51v89q0 32 -16 45.5t-55 13.5h-73v73h67q38 0 53.5 12t15.5 43v64q0 60 -68 60t-68 -54v-32h-81v54
q0 56 40.5 88t109.5 32z" />
    <glyph glyph-name="uni0438" unicode="&#x438;" horiz-adv-x="408" 
d="M46 611h89v-400l129 400h98v-611h-89v442l-147 -442h-80v611z" />
    <glyph glyph-name="uni0439" unicode="&#x439;" horiz-adv-x="408" 
d="M77 817h66q5 -103 61 -103t61 103h65q-3 -66 -34.5 -110.5t-91.5 -44.5q-61 0 -92.5 44.5t-34.5 110.5zM46 611h89v-400l129 400h98v-611h-89v442l-147 -442h-80v611z" />
    <glyph glyph-name="uni043A" unicode="&#x43a;" horiz-adv-x="375" 
d="M259 611h91l-140 -250l152 -361h-92l-135 329v-329h-89v611h89v-227z" />
    <glyph glyph-name="uni043B" unicode="&#x43b;" horiz-adv-x="469" 
d="M192 611h231v-611h-89v536h-76q-6 -186 -36 -316q-29 -126 -71.5 -173t-105.5 -47h-25v75h18q79 0 116 158q38 167 38 378z" />
    <glyph glyph-name="uni043C" unicode="&#x43c;" horiz-adv-x="538" 
d="M46 611h100l124 -484l129 484h93v-611h-82v397l-98 -397h-85l-99 401v-401h-82v611z" />
    <glyph glyph-name="uni043D" unicode="&#x43d;" horiz-adv-x="408" 
d="M46 611h89v-251h138v251h89v-611h-89v285h-138v-285h-89v611z" />
    <glyph glyph-name="uni043E" unicode="&#x43e;" horiz-adv-x="386" 
d="M345 471v-331q0 -67 -43.5 -107.5t-108.5 -40.5t-108.5 40.5t-43.5 107.5v331q0 67 43.5 107.5t108.5 40.5t108.5 -40.5t43.5 -107.5zM127 466v-321q0 -31 18.5 -48t47.5 -17t47 17t18 48v321q0 31 -18 48t-47 17t-47.5 -17t-18.5 -48z" />
    <glyph glyph-name="uni043F" unicode="&#x43f;" horiz-adv-x="408" 
d="M46 611h316v-611h-89v536h-138v-536h-89v611z" />
    <glyph glyph-name="uni0440" unicode="&#x440;" horiz-adv-x="400" 
d="M46 611h61l15 -38q48 46 111 46q54 0 90 -38.5t36 -109.5v-331q0 -71 -36 -109.5t-90 -38.5q-55 0 -98 35v-198h-89v782zM208 531q-40 0 -73 -35v-381q33 -35 73 -35q62 0 62 79v293q0 79 -62 79z" />
    <glyph glyph-name="uni0441" unicode="&#x441;" horiz-adv-x="370" 
d="M127 466v-321q0 -31 17.5 -48t46.5 -17t47 17t18 48v37l81 21v-63q0 -67 -42.5 -107.5t-106.5 -40.5q-63 0 -105 40.5t-42 107.5v331q0 67 42 107.5t105 40.5q64 0 106.5 -40.5t42.5 -107.5v-26h-81v21q0 31 -18 48t-47 17t-46.5 -17t-17.5 -48z" />
    <glyph glyph-name="uni0442" unicode="&#x442;" horiz-adv-x="359" 
d="M20 611h319v-75h-114v-536h-89v536h-116v75z" />
    <glyph glyph-name="uni0443" unicode="&#x443;" horiz-adv-x="388" 
d="M19 611h86l79 -399l100 399h85l-193 -782h-87l52 210z" />
    <glyph glyph-name="uni0444" unicode="&#x444;" horiz-adv-x="556" 
d="M234 793l88 22v-197q59 -3 97.5 -14t59 -31.5t28.5 -44t8 -57.5v-331q0 -70 -40 -105.5t-153 -41.5v-164h-88v164q-113 6 -153 41.5t-40 105.5v331q0 34 8 57.5t28.5 44t59 31.5t97.5 14v175zM127 466v-321q0 -30 22 -45t85 -19v449q-63 -4 -85 -19t-22 -45zM428 466
q0 30 -21.5 45t-84.5 19v-449q63 4 84.5 19t21.5 45v321z" />
    <glyph glyph-name="uni0445" unicode="&#x445;" horiz-adv-x="417" 
d="M300 611h92l-137 -293l149 -318h-99l-103 223l-100 -223h-89l143 324l-132 287h95l89 -193z" />
    <glyph glyph-name="uni0446" unicode="&#x446;" horiz-adv-x="480" 
d="M460 -171h-75v171h-339v611h89v-536h138v536h89v-536h98v-246z" />
    <glyph glyph-name="uni0447" unicode="&#x447;" horiz-adv-x="402" 
d="M267 611h89v-611h-89v248q-43 -25 -95 -25q-126 0 -126 151v237h89v-236q0 -67 68 -67q33 0 64 12v291z" />
    <glyph glyph-name="uni0448" unicode="&#x448;" horiz-adv-x="606" 
d="M46 611h89v-536h124v536h89v-536h123v536h89v-611h-514v611z" />
    <glyph glyph-name="uni0449" unicode="&#x449;" horiz-adv-x="678" 
d="M46 611h89v-536h124v536h89v-536h123v536h89v-536h98v-246h-75v171h-537v611z" />
    <glyph glyph-name="uni044A" unicode="&#x44a;" horiz-adv-x="485" 
d="M20 611h207v-245h66q71 0 110.5 -37.5t39.5 -112.5v-65q0 -75 -39.5 -113t-110.5 -38h-155v536h-118v75zM227 291v-216h60q69 0 69 71v75q0 70 -69 70h-60z" />
    <glyph glyph-name="uni044B" unicode="&#x44b;" horiz-adv-x="547" 
d="M46 611h89v-245h66q71 0 110.5 -37.5t39.5 -112.5v-65q0 -75 -39.5 -113t-110.5 -38h-155v611zM135 291v-216h60q69 0 69 71v75q0 70 -69 70h-60zM412 611h89v-611h-89v611z" />
    <glyph glyph-name="uni044C" unicode="&#x44c;" horiz-adv-x="393" 
d="M46 611h89v-245h66q71 0 110.5 -37.5t39.5 -112.5v-65q0 -75 -39.5 -113t-110.5 -38h-155v611zM135 291v-216h60q69 0 69 71v75q0 70 -69 70h-60z" />
    <glyph glyph-name="uni044D" unicode="&#x44d;" horiz-adv-x="370" 
d="M182 619q63 0 105 -40.5t42 -107.5v-331q0 -67 -42 -107.5t-105 -40.5q-64 0 -106.5 40.5t-42.5 107.5v63l81 -21v-37q0 -31 17.5 -48t46.5 -17t46.5 17t17.5 48v133h-132v73h132v115q0 31 -17.5 48t-46.5 17t-46.5 -17t-17.5 -48v-21h-81v26q0 67 42.5 107.5t106.5 40.5
z" />
    <glyph glyph-name="uni044E" unicode="&#x44e;" horiz-adv-x="547" 
d="M46 611h89v-266h67v126q0 67 43.5 107.5t108.5 40.5t108.5 -40.5t43.5 -107.5v-331q0 -67 -43.5 -107.5t-108.5 -40.5t-108.5 40.5t-43.5 107.5v130h-67v-270h-89v611zM288 466v-321q0 -31 18.5 -48t47.5 -17t47 17t18 48v321q0 31 -18 48t-47 17t-47.5 -17t-18.5 -48z
" />
    <glyph glyph-name="uni044F" unicode="&#x44f;" horiz-adv-x="410" 
d="M204 611h160v-611h-89v273h-63l-103 -273h-96l112 287q-73 31 -73 114v89q0 57 40.5 89t111.5 32zM140 479v-79q0 -62 71 -62h64v200h-64q-71 0 -71 -59z" />
    <glyph glyph-name="uni0450" unicode="&#x450;" horiz-adv-x="375" 
d="M241 274q-46 -40 -114 -82v-49q0 -31 17.5 -48t46.5 -17t47 17t18 48v39l81 21v-63q0 -67 -42.5 -107.5t-106.5 -40.5q-63 0 -105 40.5t-42 107.5v331q0 67 42 107.5t106 40.5q62 0 106 -38.5t44 -122.5q0 -56 -23 -98.5t-75 -85.5zM127 467v-189q45 29 69 52
q57 53 57 122q0 85 -65 85q-29 0 -45 -18.5t-16 -51.5zM97 817h97l88 -158h-79z" />
    <glyph glyph-name="uni0451" unicode="&#x451;" horiz-adv-x="375" 
d="M241 274q-46 -40 -114 -82v-49q0 -31 17.5 -48t46.5 -17t47 17t18 48v39l81 21v-63q0 -67 -42.5 -107.5t-106.5 -40.5q-63 0 -105 40.5t-42 107.5v331q0 67 42 107.5t106 40.5q62 0 106 -38.5t44 -122.5q0 -56 -23 -98.5t-75 -85.5zM127 467v-189q45 29 69 52
q57 53 57 122q0 85 -65 85q-29 0 -45 -18.5t-16 -51.5zM271 806q26 0 39.5 -15t13.5 -39q0 -25 -13.5 -40.5t-39.5 -15.5q-25 0 -38 16t-13 40t13 39t38 15zM104 806q26 0 39.5 -15t13.5 -39q0 -25 -13.5 -40.5t-39.5 -15.5q-25 0 -38 16t-13 40t13 39t38 15z" />
    <glyph glyph-name="uni0452" unicode="&#x452;" horiz-adv-x="403" 
d="M46 793l89 22v-76h195v-67h-195v-85q43 32 96 32q56 0 92 -38t36 -110v-497q0 -69 -34.5 -113t-102.5 -44q-49 0 -82 24l24 77q23 -17 45 -17q29 0 45 19.5t16 53.5v478q0 79 -64 79q-37 0 -71 -32v-499h-89v672h-40v67h40v54z" />
    <glyph glyph-name="uni0453" unicode="&#x453;" horiz-adv-x="312" 
d="M178 817h97l-107 -158h-78zM46 611h246v-75h-157v-536h-89v611z" />
    <glyph glyph-name="uni0454" unicode="&#x454;" horiz-adv-x="370" 
d="M127 466v-115h133v-73h-133v-133q0 -31 17.5 -48t46.5 -17t47 17t18 48v37l81 21v-63q0 -67 -42.5 -107.5t-106.5 -40.5q-63 0 -105 40.5t-42 107.5v331q0 67 42 107.5t105 40.5q64 0 106.5 -40.5t42.5 -107.5v-26h-81v21q0 31 -18 48t-47 17t-46.5 -17t-17.5 -48z" />
    <glyph glyph-name="uni0455" unicode="&#x455;" horiz-adv-x="365" 
d="M187 619q73 0 110 -37.5t37 -96.5v-40h-81v28q0 62 -67 62q-68 0 -68 -59q0 -35 37 -74q15 -17 67.5 -64.5t71.5 -71.5q43 -53 43 -123t-38.5 -110.5t-115.5 -40.5q-73 0 -114.5 37.5t-41.5 104.5v69l81 -21v-41q0 -30 19 -47t56 -17q71 0 71 69q0 37 -35 77
q-23 27 -72.5 72t-66.5 64q-48 57 -48 122q0 66 41.5 102t113.5 36z" />
    <glyph glyph-name="uni0456" unicode="&#x456;" horiz-adv-x="181" 
d="M46 611h89v-611h-89v611zM91 806q26 0 39.5 -15t13.5 -39q0 -25 -13.5 -40.5t-39.5 -15.5q-25 0 -38 16t-13 40t13 39t38 15z" />
    <glyph glyph-name="uni0457" unicode="&#x457;" horiz-adv-x="263" 
d="M214 806q26 0 39.5 -15t13.5 -39q0 -25 -13.5 -40.5t-39.5 -15.5q-25 0 -38 16t-13 40t13 39t38 15zM47 806q26 0 39.5 -15t13.5 -39q0 -25 -13.5 -40.5t-39.5 -15.5q-25 0 -38 16t-13 40t13 39t38 15zM88 611h89v-611h-89v611z" />
    <glyph glyph-name="uni0458" unicode="&#x458;" horiz-adv-x="194" 
d="M62 611h86v-637q0 -69 -34.5 -113t-102.5 -44q-49 0 -82 24l24 77q23 -17 45 -17q29 0 46.5 19.5t17.5 53.5v637zM105 806q26 0 39.5 -15t13.5 -39q0 -25 -13.5 -40.5t-39.5 -15.5q-25 0 -38 16t-13 40t13 39t38 15z" />
    <glyph glyph-name="uni0459" unicode="&#x459;" horiz-adv-x="681" 
d="M192 611h231v-245h66q71 0 110.5 -37.5t39.5 -112.5v-65q0 -75 -39.5 -113t-110.5 -38h-155v536h-76q-6 -186 -36 -316q-29 -126 -71.5 -173t-105.5 -47h-25v75h18q79 0 116 158q38 167 38 378zM423 291v-216h60q69 0 69 71v75q0 70 -69 70h-60z" />
    <glyph glyph-name="uni045A" unicode="&#x45a;" horiz-adv-x="620" 
d="M46 611h89v-251h138v251h89v-251h66q150 0 150 -144v-65q0 -75 -39.5 -113t-110.5 -38h-155v285h-138v-285h-89v611zM362 285v-210h60q69 0 69 71v75q0 34 -17 49t-52 15h-60z" />
    <glyph glyph-name="uni045B" unicode="&#x45b;" horiz-adv-x="403" 
d="M46 793l89 22v-76h195v-67h-195v-85q43 32 96 32q56 0 92 -38t36 -110v-471h-89v452q0 79 -64 79q-37 0 -71 -32v-499h-89v672h-40v67h40v54z" />
    <glyph glyph-name="uni045C" unicode="&#x45c;" horiz-adv-x="375" 
d="M196 817h97l-107 -158h-78zM259 611h91l-140 -250l152 -361h-92l-135 329v-329h-89v611h89v-227z" />
    <glyph glyph-name="uni045D" unicode="&#x45d;" horiz-adv-x="408" 
d="M104 817h97l88 -158h-79zM46 611h89v-400l129 400h98v-611h-89v442l-147 -442h-80v611z" />
    <glyph glyph-name="uni045E" unicode="&#x45e;" horiz-adv-x="388" 
d="M60 817h66q5 -103 61 -103t61 103h65q-3 -66 -34.5 -110.5t-91.5 -44.5q-61 0 -92.5 44.5t-34.5 110.5zM19 611h86l79 -399l100 399h85l-193 -782h-87l52 210z" />
    <glyph glyph-name="uni045F" unicode="&#x45f;" horiz-adv-x="408" 
d="M362 0h-120v-171h-75v171h-121v611h89v-536h138v536h89v-611z" />
    <glyph glyph-name="uni0490" unicode="&#x490;" horiz-adv-x="305" 
d="M46 783h159v171h80v-260h-147v-694h-92v783z" />
    <glyph glyph-name="uni0491" unicode="&#x491;" horiz-adv-x="312" 
d="M46 611h171v171h75v-246h-157v-536h-89v611z" />
    <glyph glyph-name="uni0492" unicode="&#x492;" horiz-adv-x="340" 
d="M81 783h239v-89h-147v-243h157v-67h-157v-384h-92v384h-75v67h75v332z" />
    <glyph glyph-name="uni0493" unicode="&#x493;" horiz-adv-x="347" 
d="M81 611h246v-75h-157v-197h160v-67h-160v-272h-89v272h-75v67h75v272z" />
    <glyph glyph-name="uni0496" unicode="&#x496;" horiz-adv-x="664" 
d="M249 783h92v-291l130 291h94l-146 -320l127 -374h98v-260h-80v171h-83l-140 423v-423h-92v423l-140 -423h-96l158 463l-146 320h94l130 -291v291z" />
    <glyph glyph-name="uni0497" unicode="&#x497;" horiz-adv-x="634" 
d="M241 611h89v-227l124 227h91l-140 -250l120 -286h90v-246h-75v171h-75l-135 329v-329h-89v331l-136 -331h-92l152 361l-140 250h91l125 -228v228z" />
    <glyph glyph-name="uni049A" unicode="&#x49a;" horiz-adv-x="459" 
d="M268 783h94l-146 -320l127 -374h95v-260h-80v171h-80l-140 423v-423h-92v783h92v-291z" />
    <glyph glyph-name="uni049B" unicode="&#x49b;" horiz-adv-x="440" 
d="M259 611h91l-140 -250l120 -286h90v-246h-75v171h-75l-135 329v-329h-89v611h89v-227z" />
    <glyph glyph-name="uni04A2" unicode="&#x4a2;" horiz-adv-x="495" 
d="M46 783h92v-341h139v341h92v-694h106v-260h-80v171h-118v354h-139v-354h-92v783z" />
    <glyph glyph-name="uni04A3" unicode="&#x4a3;" horiz-adv-x="480" 
d="M46 611h89v-251h138v251h89v-536h98v-246h-75v171h-112v285h-138v-285h-89v611z" />
    <glyph glyph-name="uni04AE" unicode="&#x4ae;" horiz-adv-x="412" 
d="M13 783h93l101 -304l103 304h89l-147 -417v-366h-92v366z" />
    <glyph glyph-name="uni04AF" unicode="&#x4af;" horiz-adv-x="378" 
d="M19 611h86l83 -453l87 453h85l-127 -611v-171h-89v171z" />
    <glyph glyph-name="uni04B0" unicode="&#x4b0;" horiz-adv-x="412" 
d="M44 365h116v1l-147 417h93l101 -304l103 304h89l-147 -417v-1h116v-67h-116v-298h-92v298h-116v67z" />
    <glyph glyph-name="uni04B1" unicode="&#x4b1;" horiz-adv-x="378" 
d="M19 611h86l83 -452l87 452h85l-113 -544h104v-67h-118v-171h-89v171h-117v67h103z" />
    <glyph glyph-name="uni04B2" unicode="&#x4b2;" horiz-adv-x="479" 
d="M294 783h89l-134 -376l114 -318h96v-260h-80v171h-81l-100 286l-98 -286h-87l139 416l-128 367h93l87 -248z" />
    <glyph glyph-name="uni04B3" unicode="&#x4b3;" horiz-adv-x="473" 
d="M300 611h92l-137 -293l114 -243h84v-246h-75v171h-73l-103 223l-100 -223h-89l143 324l-132 287h95l89 -193z" />
    <glyph glyph-name="uni04B6" unicode="&#x4b6;" horiz-adv-x="484" 
d="M266 783h92v-694h106v-260h-80v171h-118v321q-43 -24 -96 -24q-132 0 -132 157v329h92v-328q0 -69 72 -69q36 0 64 10v387z" />
    <glyph glyph-name="uni04B7" unicode="&#x4b7;" horiz-adv-x="474" 
d="M267 611h89v-536h98v-246h-75v171h-112v248q-43 -25 -95 -25q-126 0 -126 151v237h89v-236q0 -67 68 -67q33 0 64 12v291z" />
    <glyph glyph-name="uni04BA" unicode="&#x4ba;" horiz-adv-x="402" 
d="M130 0h-92v783h92v-321q43 24 96 24q132 0 132 -157v-329h-92v328q0 69 -72 69q-39 0 -64 -11v-386z" />
    <glyph glyph-name="uni04BB" unicode="&#x4bb;" horiz-adv-x="402" 
d="M135 0h-89v611h89v-249q43 26 95 26q126 0 126 -151v-237h-89v236q0 67 -68 67q-35 0 -64 -13v-290z" />
    <glyph glyph-name="uni04C0" unicode="&#x4c0;" horiz-adv-x="184" 
d="M46 783h92v-783h-92v783z" />
    <glyph glyph-name="uni04C3" unicode="&#x4c3;" horiz-adv-x="387" 
d="M268 783h94l-146 -320l158 -463q0 -183 -137 -183q-49 0 -82 24l24 77q23 -17 45 -17q28 0 45 18.5t19 50.5l-150 453v-423h-92v783h92v-291z" />
    <glyph glyph-name="uni04C4" unicode="&#x4c4;" horiz-adv-x="375" 
d="M259 611h91l-140 -250l152 -361q0 -183 -137 -183q-49 0 -82 24l24 77q23 -17 45 -17q64 0 64 86l-141 342v-329h-89v611h89v-227z" />
    <glyph glyph-name="uni04C7" unicode="&#x4c7;" horiz-adv-x="415" 
d="M46 783h92v-341h139v341h92v-809q0 -69 -34.5 -113t-102.5 -44q-49 0 -82 24l24 77q23 -17 45 -17q58 0 58 73v380h-139v-354h-92v783z" />
    <glyph glyph-name="uni04C8" unicode="&#x4c8;" horiz-adv-x="408" 
d="M46 611h89v-251h138v251h89v-637q0 -69 -34.5 -113t-102.5 -44q-49 0 -82 24l24 77q23 -17 45 -17q29 0 45 19.5t16 53.5v311h-138v-285h-89v611z" />
    <glyph glyph-name="uni04CF" unicode="&#x4cf;" horiz-adv-x="181" 
d="M46 793l89 22v-815h-89v793z" />
    <glyph glyph-name="uni04D8" unicode="&#x4d8;" horiz-adv-x="404" 
d="M204 797q69 0 114 -43.5t45 -117.5v-489q0 -74 -45.5 -117.5t-114.5 -43.5q-67 0 -114.5 42.5t-47.5 133.5q0 120 102 225q51 52 129 108v142q0 34 -19 52.5t-50 18.5q-32 0 -51.5 -18.5t-19.5 -52.5v-46l-89 -23v68q0 74 45.5 117.5t115.5 43.5zM206 74q31 0 48.5 20
t17.5 56v250q-51 -40 -80 -73q-60 -69 -60 -157q0 -50 21 -73t53 -23z" />
    <glyph glyph-name="uni04D9" unicode="&#x4d9;" horiz-adv-x="375" 
d="M41 149q0 47 16 86t51 73t64 55.5t81 54.5v50q0 31 -17.5 48t-46.5 17t-47 -17t-18 -48v-39l-81 -21v63q0 67 42.5 107.5t106.5 40.5q63 0 105 -40.5t42 -107.5v-331q0 -67 -42 -107.5t-106 -40.5q-61 0 -105.5 38.5t-44.5 118.5zM253 144v189q-62 -41 -94 -80t-32 -96
q0 -42 18 -62.5t47 -20.5t45 18.5t16 51.5z" />
    <glyph glyph-name="uni04E8" unicode="&#x4e8;" horiz-adv-x="404" 
d="M363 640v-497q0 -72 -46 -114.5t-115 -42.5t-115 42.5t-46 114.5v497q0 72 46 114.5t115 42.5t115 -42.5t46 -114.5zM202 75q32 0 51 18t19 51v215h-140v-215q0 -33 19 -51t51 -18zM132 639v-191h140v191q0 33 -19 51t-51 18t-51 -18t-19 -51z" />
    <glyph glyph-name="uni04E9" unicode="&#x4e9;" horiz-adv-x="386" 
d="M345 471v-331q0 -67 -43.5 -107.5t-108.5 -40.5t-108.5 40.5t-43.5 107.5v331q0 67 43.5 107.5t108.5 40.5t108.5 -40.5t43.5 -107.5zM193 80q29 0 47 17t18 48v133h-131v-133q0 -31 18.5 -48t47.5 -17zM127 466v-121h131v121q0 31 -18 48t-47 17t-47.5 -17t-18.5 -48z
" />
    <glyph glyph-name="uni04EE" unicode="&#x4ee;" horiz-adv-x="432" 
d="M54 951h324v-67h-324v67zM20 783h93l104 -400l110 400h89l-187 -666q-19 -68 -51 -92.5t-98 -24.5h-51v88h43q38 0 54 12t26 48l20 74z" />
    <glyph glyph-name="uni04EF" unicode="&#x4ef;" horiz-adv-x="388" 
d="M25 779h324v-67h-324v67zM19 611h86l79 -399l100 399h85l-193 -782h-87l52 210z" />
    <glyph glyph-name="uni0512" unicode="&#x512;" horiz-adv-x="486" 
d="M199 783h241v-809q0 -68 -34.5 -112.5t-102.5 -44.5q-50 0 -83 24l24 77q23 -17 47 -17q27 0 42 19t15 54v720h-81q-4 -237 -37 -412q-30 -158 -73.5 -220t-110.5 -62h-26v89h19q16 0 29.5 7t30 27t32 64.5t28.5 111.5q40 208 40 484z" />
    <glyph glyph-name="uni0513" unicode="&#x513;" horiz-adv-x="469" 
d="M192 611h231v-637q0 -69 -34.5 -113t-102.5 -44q-49 0 -82 24l24 77q23 -17 45 -17q29 0 45 19.5t16 53.5v562h-76q-6 -186 -36 -316q-29 -126 -71.5 -173t-105.5 -47h-25v75h18q79 0 116 158q38 167 38 378z" />
    <glyph glyph-name="uni1E62" unicode="&#x1e62;" horiz-adv-x="376" 
d="M191 797q70 0 110.5 -42t40.5 -111v-28h-85v21q0 34 -18 54t-50 20q-35 0 -53.5 -23.5t-18.5 -60.5q0 -50 41 -108q1 -1 62 -82.5t83 -116.5q44 -70 44 -146q0 -89 -39.5 -138.5t-117.5 -49.5q-75 0 -120 43.5t-45 109.5v42l85 -22v-19q0 -29 20 -49.5t54 -20.5
q75 0 75 92q0 56 -39 117q-13 19 -61 80.5t-68 93.5q-59 93 -59 175q0 78 43.5 123.5t115.5 45.5zM184 -57q26 0 39.5 -15t13.5 -39q0 -25 -13.5 -40.5t-39.5 -15.5q-25 0 -38 16t-13 40t13 39t38 15z" />
    <glyph glyph-name="uni1E63" unicode="&#x1e63;" horiz-adv-x="365" 
d="M187 619q73 0 110 -37.5t37 -96.5v-40h-81v28q0 62 -67 62q-68 0 -68 -59q0 -35 37 -74q15 -17 67.5 -64.5t71.5 -71.5q43 -53 43 -123t-38.5 -110.5t-115.5 -40.5q-73 0 -114.5 37.5t-41.5 104.5v69l81 -21v-41q0 -30 19 -47t56 -17q71 0 71 69q0 37 -35 77
q-23 27 -72.5 72t-66.5 64q-48 57 -48 122q0 66 41.5 102t113.5 36zM178 -57q26 0 39.5 -15t13.5 -39q0 -25 -13.5 -40.5t-39.5 -15.5q-25 0 -38 16t-13 40t13 39t38 15z" />
    <glyph glyph-name="Wgrave" unicode="&#x1e80;" horiz-adv-x="577" 
d="M22 783h88l48 -551l85 551h88l79 -554l56 554h89l-89 -783h-92l-87 590l-95 -590h-89zM187 989h97l88 -158h-79z" />
    <glyph glyph-name="wgrave" unicode="&#x1e81;" horiz-adv-x="542" 
d="M22 611h83l44 -431l80 431h82l74 -432l51 432h84l-83 -611h-87l-81 461l-88 -461h-84zM169 817h97l88 -158h-79z" />
    <glyph glyph-name="Wacute" unicode="&#x1e82;" horiz-adv-x="577" 
d="M22 783h88l48 -551l85 551h88l79 -554l56 554h89l-89 -783h-92l-87 590l-95 -590h-89zM293 989h97l-107 -158h-78z" />
    <glyph glyph-name="wacute" unicode="&#x1e83;" horiz-adv-x="542" 
d="M22 611h83l44 -431l80 431h82l74 -432l51 432h84l-83 -611h-87l-81 461l-88 -461h-84zM275 817h97l-107 -158h-78z" />
    <glyph glyph-name="Wdieresis" unicode="&#x1e84;" horiz-adv-x="577" 
d="M22 783h88l48 -551l85 551h88l79 -554l56 554h89l-89 -783h-92l-87 590l-95 -590h-89zM370 978q26 0 39.5 -15t13.5 -39q0 -25 -13.5 -40.5t-39.5 -15.5q-25 0 -38 16t-13 40t13 39t38 15zM203 978q26 0 39.5 -15t13.5 -39q0 -25 -13.5 -40.5t-39.5 -15.5q-25 0 -38 16
t-13 40t13 39t38 15z" />
    <glyph glyph-name="wdieresis" unicode="&#x1e85;" horiz-adv-x="542" 
d="M22 611h83l44 -431l80 431h82l74 -432l51 432h84l-83 -611h-87l-81 461l-88 -461h-84zM353 806q26 0 39.5 -15t13.5 -39q0 -25 -13.5 -40.5t-39.5 -15.5q-25 0 -38 16t-13 40t13 39t38 15zM186 806q26 0 39.5 -15t13.5 -39q0 -25 -13.5 -40.5t-39.5 -15.5q-25 0 -38 16
t-13 40t13 39t38 15z" />
    <glyph glyph-name="uni1EA0" unicode="&#x1ea0;" 
d="M150 783h91l136 -783h-89l-18 113h-146l-17 -113h-89zM196 582l-60 -392h122zM196 -57q26 0 39.5 -15t13.5 -39q0 -25 -13.5 -40.5t-39.5 -15.5q-25 0 -38 16t-13 40t13 39t38 15z" />
    <glyph glyph-name="uni1EA1" unicode="&#x1ea1;" horiz-adv-x="384" 
d="M102 490l-49 61q22 32 60 50t82 18q71 0 108 -45.5t37 -120.5v-453h-56l-16 34q-50 -42 -112 -42q-56 0 -92.5 38.5t-36.5 119.5q0 66 29 114t97 99q43 31 103 69v19q0 40 -18.5 63t-54.5 23q-53 0 -81 -47zM182 76q39 0 74 35v235q-37 -23 -59 -40q-81 -63 -81 -143
q0 -87 66 -87zM187 -57q26 0 39.5 -15t13.5 -39q0 -25 -13.5 -40.5t-39.5 -15.5q-25 0 -38 16t-13 40t13 39t38 15z" />
    <glyph glyph-name="uni1EA2" unicode="&#x1ea2;" 
d="M150 783h91l136 -783h-89l-18 113h-146l-17 -113h-89zM196 582l-60 -392h122zM103 913v16q0 78 97 78q93 0 93 -65q0 -31 -20.5 -56t-40 -44t-17.5 -38h-40q-7 25 7 46t31.5 41.5t17.5 42.5q0 26 -37 26q-21 0 -29.5 -7.5t-8.5 -23.5v-16h-53z" />
    <glyph glyph-name="uni1EA3" unicode="&#x1ea3;" horiz-adv-x="384" 
d="M102 490l-49 61q22 32 60 50t82 18q71 0 108 -45.5t37 -120.5v-453h-56l-16 34q-50 -42 -112 -42q-56 0 -92.5 38.5t-36.5 119.5q0 66 29 114t97 99q43 31 103 69v19q0 40 -18.5 63t-54.5 23q-53 0 -81 -47zM182 76q39 0 74 35v235q-37 -23 -59 -40q-81 -63 -81 -143
q0 -87 66 -87zM100 741v16q0 78 97 78q93 0 93 -65q0 -31 -20.5 -56t-40 -44t-17.5 -38h-40q-7 25 7 46t31.5 41.5t17.5 42.5q0 26 -37 26q-21 0 -29.5 -7.5t-8.5 -23.5v-16h-53z" />
    <glyph glyph-name="uni1EA4" unicode="&#x1ea4;" 
d="M150 783h91l136 -783h-89l-18 113h-146l-17 -113h-89zM196 582l-60 -392h122zM401 1089h97l-107 -158h-78zM149 989h96l99 -158h-75l-72 115l-72 -115h-74z" />
    <glyph glyph-name="uni1EA5" unicode="&#x1ea5;" horiz-adv-x="384" 
d="M102 490l-49 61q22 32 60 50t82 18q71 0 108 -45.5t37 -120.5v-453h-56l-16 34q-50 -42 -112 -42q-56 0 -92.5 38.5t-36.5 119.5q0 66 29 114t97 99q43 31 103 69v19q0 40 -18.5 63t-54.5 23q-53 0 -81 -47zM182 76q39 0 74 35v235q-37 -23 -59 -40q-81 -63 -81 -143
q0 -87 66 -87zM186 989h97l-107 -158h-78zM143 817h96l99 -158h-75l-72 115l-72 -115h-74z" />
    <glyph glyph-name="uni1EA6" unicode="&#x1ea6;" 
d="M150 783h91l136 -783h-89l-18 113h-146l-17 -113h-89zM196 582l-60 -392h122zM-111 1089h97l88 -158h-79zM149 989h96l99 -158h-75l-72 115l-72 -115h-74z" />
    <glyph glyph-name="uni1EA7" unicode="&#x1ea7;" horiz-adv-x="384" 
d="M102 490l-49 61q22 32 60 50t82 18q71 0 108 -45.5t37 -120.5v-453h-56l-16 34q-50 -42 -112 -42q-56 0 -92.5 38.5t-36.5 119.5q0 66 29 114t97 99q43 31 103 69v19q0 40 -18.5 63t-54.5 23q-53 0 -81 -47zM182 76q39 0 74 35v235q-37 -23 -59 -40q-81 -63 -81 -143
q0 -87 66 -87zM99 989h97l88 -158h-79zM143 817h96l99 -158h-75l-72 115l-72 -115h-74z" />
    <glyph glyph-name="uni1EA8" unicode="&#x1ea8;" 
d="M150 783h91l136 -783h-89l-18 113h-146l-17 -113h-89zM196 582l-60 -392h122zM149 989h96l99 -158h-75l-72 115l-72 -115h-74zM297 983v16q0 78 97 78q93 0 93 -65q0 -31 -20.5 -56t-40 -44t-17.5 -38h-40q-7 25 7 46t31.5 41.5t17.5 42.5q0 26 -37 26q-21 0 -29.5 -7.5
t-8.5 -23.5v-16h-53z" />
    <glyph glyph-name="uni1EA9" unicode="&#x1ea9;" horiz-adv-x="384" 
d="M102 490l-49 61q22 32 60 50t82 18q71 0 108 -45.5t37 -120.5v-453h-56l-16 34q-50 -42 -112 -42q-56 0 -92.5 38.5t-36.5 119.5q0 66 29 114t97 99q43 31 103 69v19q0 40 -18.5 63t-54.5 23q-53 0 -81 -47zM182 76q39 0 74 35v235q-37 -23 -59 -40q-81 -63 -81 -143
q0 -87 66 -87zM143 817h96l99 -158h-75l-72 115l-72 -115h-74zM219 913v16q0 78 97 78q93 0 93 -65q0 -31 -20.5 -56t-40 -44t-17.5 -38h-40q-7 25 7 46t31.5 41.5t17.5 42.5q0 26 -37 26q-21 0 -29.5 -7.5t-8.5 -23.5v-16h-53z" />
    <glyph glyph-name="uni1EAA" unicode="&#x1eaa;" 
d="M150 783h91l136 -783h-89l-18 113h-146l-17 -113h-89zM196 582l-60 -392h122zM63 1047l-36 32q37 76 104 76q34 0 73 -24t63 -24q43 0 66 49l36 -32q-38 -77 -101 -77q-31 0 -72 24t-67 24q-44 0 -66 -48zM149 989h96l99 -158h-75l-72 115l-72 -115h-74z" />
    <glyph glyph-name="uni1EAB" unicode="&#x1eab;" horiz-adv-x="384" 
d="M102 490l-49 61q22 32 60 50t82 18q71 0 108 -45.5t37 -120.5v-453h-56l-16 34q-50 -42 -112 -42q-56 0 -92.5 38.5t-36.5 119.5q0 66 29 114t97 99q43 31 103 69v19q0 40 -18.5 63t-54.5 23q-53 0 -81 -47zM182 76q39 0 74 35v235q-37 -23 -59 -40q-81 -63 -81 -143
q0 -87 66 -87zM57 867l-36 32q37 76 104 76q34 0 73 -24t63 -24q43 0 66 49l36 -32q-38 -77 -101 -77q-31 0 -72 24t-67 24q-44 0 -66 -48zM143 817h96l99 -158h-75l-72 115l-72 -115h-74z" />
    <glyph glyph-name="uni1EAC" unicode="&#x1eac;" 
d="M150 783h91l136 -783h-89l-18 113h-146l-17 -113h-89zM196 582l-60 -392h122zM195 -57q26 0 39.5 -15t13.5 -39q0 -25 -13.5 -40.5t-39.5 -15.5q-25 0 -38 16t-13 40t13 39t38 15zM149 989h96l99 -158h-75l-72 115l-72 -115h-74z" />
    <glyph glyph-name="uni1EAD" unicode="&#x1ead;" horiz-adv-x="384" 
d="M102 490l-49 61q22 32 60 50t82 18q71 0 108 -45.5t37 -120.5v-453h-56l-16 34q-50 -42 -112 -42q-56 0 -92.5 38.5t-36.5 119.5q0 66 29 114t97 99q43 31 103 69v19q0 40 -18.5 63t-54.5 23q-53 0 -81 -47zM182 76q39 0 74 35v235q-37 -23 -59 -40q-81 -63 -81 -143
q0 -87 66 -87zM190 -57q26 0 39.5 -15t13.5 -39q0 -25 -13.5 -40.5t-39.5 -15.5q-25 0 -38 16t-13 40t13 39t38 15zM143 817h96l99 -158h-75l-72 115l-72 -115h-74z" />
    <glyph glyph-name="uni1EAE" unicode="&#x1eae;" 
d="M150 783h91l136 -783h-89l-18 113h-146l-17 -113h-89zM196 582l-60 -392h122zM202 1189h97l-107 -158h-78zM70 989h66q5 -103 61 -103t61 103h65q-3 -66 -34.5 -110.5t-91.5 -44.5q-61 0 -92.5 44.5t-34.5 110.5z" />
    <glyph glyph-name="uni1EAF" unicode="&#x1eaf;" horiz-adv-x="384" 
d="M102 490l-49 61q22 32 60 50t82 18q71 0 108 -45.5t37 -120.5v-453h-56l-16 34q-50 -42 -112 -42q-56 0 -92.5 38.5t-36.5 119.5q0 66 29 114t97 99q43 31 103 69v19q0 40 -18.5 63t-54.5 23q-53 0 -81 -47zM182 76q39 0 74 35v235q-37 -23 -59 -40q-81 -63 -81 -143
q0 -87 66 -87zM196 989h97l-107 -158h-78zM65 817h66q5 -103 61 -103t61 103h65q-3 -66 -34.5 -110.5t-91.5 -44.5q-61 0 -92.5 44.5t-34.5 110.5z" />
    <glyph glyph-name="uni1EB0" unicode="&#x1eb0;" 
d="M150 783h91l136 -783h-89l-18 113h-146l-17 -113h-89zM196 582l-60 -392h122zM70 989h66q5 -103 61 -103t61 103h65q-3 -66 -34.5 -110.5t-91.5 -44.5q-61 0 -92.5 44.5t-34.5 110.5zM97 1189h97l88 -158h-79z" />
    <glyph glyph-name="uni1EB1" unicode="&#x1eb1;" horiz-adv-x="384" 
d="M102 490l-49 61q22 32 60 50t82 18q71 0 108 -45.5t37 -120.5v-453h-56l-16 34q-50 -42 -112 -42q-56 0 -92.5 38.5t-36.5 119.5q0 66 29 114t97 99q43 31 103 69v19q0 40 -18.5 63t-54.5 23q-53 0 -81 -47zM182 76q39 0 74 35v235q-37 -23 -59 -40q-81 -63 -81 -143
q0 -87 66 -87zM65 817h66q5 -103 61 -103t61 103h65q-3 -66 -34.5 -110.5t-91.5 -44.5q-61 0 -92.5 44.5t-34.5 110.5zM90 989h97l88 -158h-79z" />
    <glyph glyph-name="uni1EB2" unicode="&#x1eb2;" 
d="M150 783h91l136 -783h-89l-18 113h-146l-17 -113h-89zM196 582l-60 -392h122zM70 989h66q5 -103 61 -103t61 103h65q-3 -66 -34.5 -110.5t-91.5 -44.5q-61 0 -92.5 44.5t-34.5 110.5zM103 1113v16q0 78 97 78q93 0 93 -65q0 -31 -20.5 -56t-40 -44t-17.5 -38h-40
q-7 25 7 46t31.5 41.5t17.5 42.5q0 26 -37 26q-21 0 -29.5 -7.5t-8.5 -23.5v-16h-53z" />
    <glyph glyph-name="uni1EB3" unicode="&#x1eb3;" horiz-adv-x="384" 
d="M102 490l-49 61q22 32 60 50t82 18q71 0 108 -45.5t37 -120.5v-453h-56l-16 34q-50 -42 -112 -42q-56 0 -92.5 38.5t-36.5 119.5q0 66 29 114t97 99q43 31 103 69v19q0 40 -18.5 63t-54.5 23q-53 0 -81 -47zM182 76q39 0 74 35v235q-37 -23 -59 -40q-81 -63 -81 -143
q0 -87 66 -87zM65 817h66q5 -103 61 -103t61 103h65q-3 -66 -34.5 -110.5t-91.5 -44.5q-61 0 -92.5 44.5t-34.5 110.5zM98 913v16q0 78 97 78q93 0 93 -65q0 -31 -20.5 -56t-40 -44t-17.5 -38h-40q-7 25 7 46t31.5 41.5t17.5 42.5q0 26 -37 26q-21 0 -29.5 -7.5t-8.5 -23.5
v-16h-53z" />
    <glyph glyph-name="uni1EB4" unicode="&#x1eb4;" 
d="M150 783h91l136 -783h-89l-18 113h-146l-17 -113h-89zM196 582l-60 -392h122zM70 989h66q5 -103 61 -103t61 103h65q-3 -66 -34.5 -110.5t-91.5 -44.5q-61 0 -92.5 44.5t-34.5 110.5zM63 1067l-36 32q37 76 104 76q34 0 73 -24t63 -24q43 0 66 49l36 -32
q-38 -77 -101 -77q-31 0 -72 24t-67 24q-44 0 -66 -48z" />
    <glyph glyph-name="uni1EB5" unicode="&#x1eb5;" horiz-adv-x="384" 
d="M102 490l-49 61q22 32 60 50t82 18q71 0 108 -45.5t37 -120.5v-453h-56l-16 34q-50 -42 -112 -42q-56 0 -92.5 38.5t-36.5 119.5q0 66 29 114t97 99q43 31 103 69v19q0 40 -18.5 63t-54.5 23q-53 0 -81 -47zM182 76q39 0 74 35v235q-37 -23 -59 -40q-81 -63 -81 -143
q0 -87 66 -87zM65 817h66q5 -103 61 -103t61 103h65q-3 -66 -34.5 -110.5t-91.5 -44.5q-61 0 -92.5 44.5t-34.5 110.5zM57 867l-36 32q37 76 104 76q34 0 73 -24t63 -24q43 0 66 49l36 -32q-38 -77 -101 -77q-31 0 -72 24t-67 24q-44 0 -66 -48z" />
    <glyph glyph-name="uni1EB6" unicode="&#x1eb6;" 
d="M150 783h91l136 -783h-89l-18 113h-146l-17 -113h-89zM196 582l-60 -392h122zM70 989h66q5 -103 61 -103t61 103h65q-3 -66 -34.5 -110.5t-91.5 -44.5q-61 0 -92.5 44.5t-34.5 110.5zM196 -57q26 0 39.5 -15t13.5 -39q0 -25 -13.5 -40.5t-39.5 -15.5q-25 0 -38 16t-13 40
t13 39t38 15z" />
    <glyph glyph-name="uni1EB7" unicode="&#x1eb7;" horiz-adv-x="384" 
d="M102 490l-49 61q22 32 60 50t82 18q71 0 108 -45.5t37 -120.5v-453h-56l-16 34q-50 -42 -112 -42q-56 0 -92.5 38.5t-36.5 119.5q0 66 29 114t97 99q43 31 103 69v19q0 40 -18.5 63t-54.5 23q-53 0 -81 -47zM182 76q39 0 74 35v235q-37 -23 -59 -40q-81 -63 -81 -143
q0 -87 66 -87zM65 817h66q5 -103 61 -103t61 103h65q-3 -66 -34.5 -110.5t-91.5 -44.5q-61 0 -92.5 44.5t-34.5 110.5zM190 -57q26 0 39.5 -15t13.5 -39q0 -25 -13.5 -40.5t-39.5 -15.5q-25 0 -38 16t-13 40t13 39t38 15z" />
    <glyph glyph-name="uni1EB8" unicode="&#x1eb8;" horiz-adv-x="334" 
d="M46 783h259v-89h-167v-246h118v-89h-118v-270h167v-89h-259v783zM166 -57q26 0 39.5 -15t13.5 -39q0 -25 -13.5 -40.5t-39.5 -15.5q-25 0 -38 16t-13 40t13 39t38 15z" />
    <glyph glyph-name="uni1EB9" unicode="&#x1eb9;" horiz-adv-x="375" 
d="M241 274q-46 -40 -114 -82v-49q0 -31 17.5 -48t46.5 -17t47 17t18 48v39l81 21v-63q0 -67 -42.5 -107.5t-106.5 -40.5q-63 0 -105 40.5t-42 107.5v331q0 67 42 107.5t106 40.5q62 0 106 -38.5t44 -122.5q0 -56 -23 -98.5t-75 -85.5zM127 467v-189q45 29 69 52
q57 53 57 122q0 85 -65 85q-29 0 -45 -18.5t-16 -51.5zM187 -57q26 0 39.5 -15t13.5 -39q0 -25 -13.5 -40.5t-39.5 -15.5q-25 0 -38 16t-13 40t13 39t38 15z" />
    <glyph glyph-name="uni1EBA" unicode="&#x1eba;" horiz-adv-x="334" 
d="M46 783h259v-89h-167v-246h118v-89h-118v-270h167v-89h-259v783zM80 913v16q0 78 97 78q93 0 93 -65q0 -31 -20.5 -56t-40 -44t-17.5 -38h-40q-7 25 7 46t31.5 41.5t17.5 42.5q0 26 -37 26q-21 0 -29.5 -7.5t-8.5 -23.5v-16h-53z" />
    <glyph glyph-name="uni1EBB" unicode="&#x1ebb;" horiz-adv-x="375" 
d="M241 274q-46 -40 -114 -82v-49q0 -31 17.5 -48t46.5 -17t47 17t18 48v39l81 21v-63q0 -67 -42.5 -107.5t-106.5 -40.5q-63 0 -105 40.5t-42 107.5v331q0 67 42 107.5t106 40.5q62 0 106 -38.5t44 -122.5q0 -56 -23 -98.5t-75 -85.5zM127 467v-189q45 29 69 52
q57 53 57 122q0 85 -65 85q-29 0 -45 -18.5t-16 -51.5zM94 741v16q0 78 97 78q93 0 93 -65q0 -31 -20.5 -56t-40 -44t-17.5 -38h-40q-7 25 7 46t31.5 41.5t17.5 42.5q0 26 -37 26q-21 0 -29.5 -7.5t-8.5 -23.5v-16h-53z" />
    <glyph glyph-name="uni1EBC" unicode="&#x1ebc;" horiz-adv-x="334" 
d="M46 783h259v-89h-167v-246h118v-89h-118v-270h167v-89h-259v783zM42 867l-36 32q37 76 104 76q34 0 73 -24t63 -24q43 0 66 49l36 -32q-38 -77 -101 -77q-31 0 -72 24t-67 24q-44 0 -66 -48z" />
    <glyph glyph-name="uni1EBD" unicode="&#x1ebd;" horiz-adv-x="375" 
d="M241 274q-46 -40 -114 -82v-49q0 -31 17.5 -48t46.5 -17t47 17t18 48v39l81 21v-63q0 -67 -42.5 -107.5t-106.5 -40.5q-63 0 -105 40.5t-42 107.5v331q0 67 42 107.5t106 40.5q62 0 106 -38.5t44 -122.5q0 -56 -23 -98.5t-75 -85.5zM127 467v-189q45 29 69 52
q57 53 57 122q0 85 -65 85q-29 0 -45 -18.5t-16 -51.5zM53 695l-36 32q37 76 104 76q34 0 73 -24t63 -24q43 0 66 49l36 -32q-38 -77 -101 -77q-31 0 -72 24t-67 24q-44 0 -66 -48z" />
    <glyph glyph-name="uni1EBE" unicode="&#x1ebe;" horiz-adv-x="334" 
d="M46 783h259v-89h-167v-246h118v-89h-118v-270h167v-89h-259v783zM389 1089h97l-107 -158h-78zM129 989h96l99 -158h-75l-72 115l-72 -115h-74z" />
    <glyph glyph-name="uni1EBF" unicode="&#x1ebf;" horiz-adv-x="375" 
d="M241 274q-46 -40 -114 -82v-49q0 -31 17.5 -48t46.5 -17t47 17t18 48v39l81 21v-63q0 -67 -42.5 -107.5t-106.5 -40.5q-63 0 -105 40.5t-42 107.5v331q0 67 42 107.5t106 40.5q62 0 106 -38.5t44 -122.5q0 -56 -23 -98.5t-75 -85.5zM127 467v-189q45 29 69 52
q57 53 57 122q0 85 -65 85q-29 0 -45 -18.5t-16 -51.5zM183 989h97l-107 -158h-78zM139 817h96l99 -158h-75l-72 115l-72 -115h-74z" />
    <glyph glyph-name="uni1EC0" unicode="&#x1ec0;" horiz-adv-x="334" 
d="M46 783h259v-89h-167v-246h118v-89h-118v-270h167v-89h-259v783zM-131 1089h97l88 -158h-79zM129 989h96l99 -158h-75l-72 115l-72 -115h-74z" />
    <glyph glyph-name="uni1EC1" unicode="&#x1ec1;" horiz-adv-x="375" 
d="M241 274q-46 -40 -114 -82v-49q0 -31 17.5 -48t46.5 -17t47 17t18 48v39l81 21v-63q0 -67 -42.5 -107.5t-106.5 -40.5q-63 0 -105 40.5t-42 107.5v331q0 67 42 107.5t106 40.5q62 0 106 -38.5t44 -122.5q0 -56 -23 -98.5t-75 -85.5zM127 467v-189q45 29 69 52
q57 53 57 122q0 85 -65 85q-29 0 -45 -18.5t-16 -51.5zM95 989h97l88 -158h-79zM139 817h96l99 -158h-75l-72 115l-72 -115h-74z" />
    <glyph glyph-name="uni1EC2" unicode="&#x1ec2;" horiz-adv-x="334" 
d="M46 783h259v-89h-167v-246h118v-89h-118v-270h167v-89h-259v783zM129 989h96l99 -158h-75l-72 115l-72 -115h-74zM276 983v16q0 78 97 78q93 0 93 -65q0 -31 -20.5 -56t-40 -44t-17.5 -38h-40q-7 25 7 46t31.5 41.5t17.5 42.5q0 26 -37 26q-21 0 -29.5 -7.5t-8.5 -23.5
v-16h-53z" />
    <glyph glyph-name="uni1EC3" unicode="&#x1ec3;" horiz-adv-x="375" 
d="M241 274q-46 -40 -114 -82v-49q0 -31 17.5 -48t46.5 -17t47 17t18 48v39l81 21v-63q0 -67 -42.5 -107.5t-106.5 -40.5q-63 0 -105 40.5t-42 107.5v331q0 67 42 107.5t106 40.5q62 0 106 -38.5t44 -122.5q0 -56 -23 -98.5t-75 -85.5zM127 467v-189q45 29 69 52
q57 53 57 122q0 85 -65 85q-29 0 -45 -18.5t-16 -51.5zM139 817h96l99 -158h-75l-72 115l-72 -115h-74zM216 913v16q0 78 97 78q93 0 93 -65q0 -31 -20.5 -56t-40 -44t-17.5 -38h-40q-7 25 7 46t31.5 41.5t17.5 42.5q0 26 -37 26q-21 0 -29.5 -7.5t-8.5 -23.5v-16h-53z" />
    <glyph glyph-name="uni1EC4" unicode="&#x1ec4;" horiz-adv-x="334" 
d="M46 783h259v-89h-167v-246h118v-89h-118v-270h167v-89h-259v783zM32 1067l-36 32q37 76 104 76q34 0 73 -24t63 -24q43 0 66 49l36 -32q-38 -77 -101 -77q-31 0 -72 24t-67 24q-44 0 -66 -48zM129 989h96l99 -158h-75l-72 115l-72 -115h-74z" />
    <glyph glyph-name="uni1EC5" unicode="&#x1ec5;" horiz-adv-x="375" 
d="M241 274q-46 -40 -114 -82v-49q0 -31 17.5 -48t46.5 -17t47 17t18 48v39l81 21v-63q0 -67 -42.5 -107.5t-106.5 -40.5q-63 0 -105 40.5t-42 107.5v331q0 67 42 107.5t106 40.5q62 0 106 -38.5t44 -122.5q0 -56 -23 -98.5t-75 -85.5zM127 467v-189q45 29 69 52
q57 53 57 122q0 85 -65 85q-29 0 -45 -18.5t-16 -51.5zM53 867l-36 32q37 76 104 76q34 0 73 -24t63 -24q43 0 66 49l36 -32q-38 -77 -101 -77q-31 0 -72 24t-67 24q-44 0 -66 -48zM139 817h96l99 -158h-75l-72 115l-72 -115h-74z" />
    <glyph glyph-name="uni1EC6" unicode="&#x1ec6;" horiz-adv-x="334" 
d="M46 783h259v-89h-167v-246h118v-89h-118v-270h167v-89h-259v783zM163 -57q26 0 39.5 -15t13.5 -39q0 -25 -13.5 -40.5t-39.5 -15.5q-25 0 -38 16t-13 40t13 39t38 15zM129 989h96l99 -158h-75l-72 115l-72 -115h-74z" />
    <glyph glyph-name="uni1EC7" unicode="&#x1ec7;" horiz-adv-x="375" 
d="M241 274q-46 -40 -114 -82v-49q0 -31 17.5 -48t46.5 -17t47 17t18 48v39l81 21v-63q0 -67 -42.5 -107.5t-106.5 -40.5q-63 0 -105 40.5t-42 107.5v331q0 67 42 107.5t106 40.5q62 0 106 -38.5t44 -122.5q0 -56 -23 -98.5t-75 -85.5zM127 467v-189q45 29 69 52
q57 53 57 122q0 85 -65 85q-29 0 -45 -18.5t-16 -51.5zM173 -57q26 0 39.5 -15t13.5 -39q0 -25 -13.5 -40.5t-39.5 -15.5q-25 0 -38 16t-13 40t13 39t38 15zM139 817h96l99 -158h-75l-72 115l-72 -115h-74z" />
    <glyph glyph-name="uni1EC8" unicode="&#x1ec8;" horiz-adv-x="184" 
d="M46 783h92v-783h-92v783zM-2 913v16q0 78 97 78q93 0 93 -65q0 -31 -20.5 -56t-40 -44t-17.5 -38h-40q-7 25 7 46t31.5 41.5t17.5 42.5q0 26 -37 26q-21 0 -29.5 -7.5t-8.5 -23.5v-16h-53z" />
    <glyph glyph-name="uni1EC9" unicode="&#x1ec9;" horiz-adv-x="190" 
d="M50 611h89v-611h-89v611zM1 741v16q0 78 97 78q93 0 93 -65q0 -31 -20.5 -56t-40 -44t-17.5 -38h-40q-7 25 7 46t31.5 41.5t17.5 42.5q0 26 -37 26q-21 0 -29.5 -7.5t-8.5 -23.5v-16h-53z" />
    <glyph glyph-name="uni1ECA" unicode="&#x1eca;" horiz-adv-x="184" 
d="M46 783h92v-783h-92v783zM91 -57q26 0 39.5 -15t13.5 -39q0 -25 -13.5 -40.5t-39.5 -15.5q-25 0 -38 16t-13 40t13 39t38 15z" />
    <glyph glyph-name="uni1ECB" unicode="&#x1ecb;" horiz-adv-x="181" 
d="M46 611h89v-611h-89v611zM90 -57q26 0 39.5 -15t13.5 -39q0 -25 -13.5 -40.5t-39.5 -15.5q-25 0 -38 16t-13 40t13 39t38 15zM90 806q26 0 39.5 -15t13.5 -39q0 -25 -13.5 -40.5t-39.5 -15.5q-25 0 -38 16t-13 40t13 39t38 15z" />
    <glyph glyph-name="uni1ECC" unicode="&#x1ecc;" horiz-adv-x="404" 
d="M363 640v-497q0 -72 -46 -114.5t-115 -42.5t-115 42.5t-46 114.5v497q0 72 46 114.5t115 42.5t115 -42.5t46 -114.5zM132 639v-495q0 -33 19 -51t51 -18t51 18t19 51v495q0 33 -19 51t-51 18t-51 -18t-19 -51zM201 -57q26 0 39.5 -15t13.5 -39q0 -25 -13.5 -40.5
t-39.5 -15.5q-25 0 -38 16t-13 40t13 39t38 15z" />
    <glyph glyph-name="uni1ECD" unicode="&#x1ecd;" horiz-adv-x="386" 
d="M345 471v-331q0 -67 -43.5 -107.5t-108.5 -40.5t-108.5 40.5t-43.5 107.5v331q0 67 43.5 107.5t108.5 40.5t108.5 -40.5t43.5 -107.5zM127 466v-321q0 -31 18.5 -48t47.5 -17t47 17t18 48v321q0 31 -18 48t-47 17t-47.5 -17t-18.5 -48zM193 -57q26 0 39.5 -15t13.5 -39
q0 -25 -13.5 -40.5t-39.5 -15.5q-25 0 -38 16t-13 40t13 39t38 15z" />
    <glyph glyph-name="uni1ECE" unicode="&#x1ece;" horiz-adv-x="404" 
d="M363 640v-497q0 -72 -46 -114.5t-115 -42.5t-115 42.5t-46 114.5v497q0 72 46 114.5t115 42.5t115 -42.5t46 -114.5zM132 639v-495q0 -33 19 -51t51 -18t51 18t19 51v495q0 33 -19 51t-51 18t-51 -18t-19 -51zM108 913v16q0 78 97 78q93 0 93 -65q0 -31 -20.5 -56
t-40 -44t-17.5 -38h-40q-7 25 7 46t31.5 41.5t17.5 42.5q0 26 -37 26q-21 0 -29.5 -7.5t-8.5 -23.5v-16h-53z" />
    <glyph glyph-name="uni1ECF" unicode="&#x1ecf;" horiz-adv-x="386" 
d="M345 471v-331q0 -67 -43.5 -107.5t-108.5 -40.5t-108.5 40.5t-43.5 107.5v331q0 67 43.5 107.5t108.5 40.5t108.5 -40.5t43.5 -107.5zM127 466v-321q0 -31 18.5 -48t47.5 -17t47 17t18 48v321q0 31 -18 48t-47 17t-47.5 -17t-18.5 -48zM100 741v16q0 78 97 78
q93 0 93 -65q0 -31 -20.5 -56t-40 -44t-17.5 -38h-40q-7 25 7 46t31.5 41.5t17.5 42.5q0 26 -37 26q-21 0 -29.5 -7.5t-8.5 -23.5v-16h-53z" />
    <glyph glyph-name="uni1ED0" unicode="&#x1ed0;" horiz-adv-x="404" 
d="M363 640v-497q0 -72 -46 -114.5t-115 -42.5t-115 42.5t-46 114.5v497q0 72 46 114.5t115 42.5t115 -42.5t46 -114.5zM132 639v-495q0 -33 19 -51t51 -18t51 18t19 51v495q0 33 -19 51t-51 18t-51 -18t-19 -51zM414 1089h97l-107 -158h-78zM153 989h96l99 -158h-75
l-72 115l-72 -115h-74z" />
    <glyph glyph-name="uni1ED1" unicode="&#x1ed1;" horiz-adv-x="386" 
d="M345 471v-331q0 -67 -43.5 -107.5t-108.5 -40.5t-108.5 40.5t-43.5 107.5v331q0 67 43.5 107.5t108.5 40.5t108.5 -40.5t43.5 -107.5zM127 466v-321q0 -31 18.5 -48t47.5 -17t47 17t18 48v321q0 31 -18 48t-47 17t-47.5 -17t-18.5 -48zM188 989h97l-107 -158h-78z
M144 817h96l99 -158h-75l-72 115l-72 -115h-74z" />
    <glyph glyph-name="uni1ED2" unicode="&#x1ed2;" horiz-adv-x="404" 
d="M363 640v-497q0 -72 -46 -114.5t-115 -42.5t-115 42.5t-46 114.5v497q0 72 46 114.5t115 42.5t115 -42.5t46 -114.5zM132 639v-495q0 -33 19 -51t51 -18t51 18t19 51v495q0 33 -19 51t-51 18t-51 -18t-19 -51zM-107 1089h97l88 -158h-79zM153 989h96l99 -158h-75l-72 115
l-72 -115h-74z" />
    <glyph glyph-name="uni1ED3" unicode="&#x1ed3;" horiz-adv-x="386" 
d="M345 471v-331q0 -67 -43.5 -107.5t-108.5 -40.5t-108.5 40.5t-43.5 107.5v331q0 67 43.5 107.5t108.5 40.5t108.5 -40.5t43.5 -107.5zM127 466v-321q0 -31 18.5 -48t47.5 -17t47 17t18 48v321q0 31 -18 48t-47 17t-47.5 -17t-18.5 -48zM100 989h97l88 -158h-79zM144 817
h96l99 -158h-75l-72 115l-72 -115h-74z" />
    <glyph glyph-name="uni1ED4" unicode="&#x1ed4;" horiz-adv-x="404" 
d="M363 640v-497q0 -72 -46 -114.5t-115 -42.5t-115 42.5t-46 114.5v497q0 72 46 114.5t115 42.5t115 -42.5t46 -114.5zM132 639v-495q0 -33 19 -51t51 -18t51 18t19 51v495q0 33 -19 51t-51 18t-51 -18t-19 -51zM153 989h96l99 -158h-75l-72 115l-72 -115h-74zM290 983v16
q0 78 97 78q93 0 93 -65q0 -31 -20.5 -56t-40 -44t-17.5 -38h-40q-7 25 7 46t31.5 41.5t17.5 42.5q0 26 -37 26q-21 0 -29.5 -7.5t-8.5 -23.5v-16h-53z" />
    <glyph glyph-name="uni1ED5" unicode="&#x1ed5;" horiz-adv-x="386" 
d="M345 471v-331q0 -67 -43.5 -107.5t-108.5 -40.5t-108.5 40.5t-43.5 107.5v331q0 67 43.5 107.5t108.5 40.5t108.5 -40.5t43.5 -107.5zM127 466v-321q0 -31 18.5 -48t47.5 -17t47 17t18 48v321q0 31 -18 48t-47 17t-47.5 -17t-18.5 -48zM144 817h96l99 -158h-75l-72 115
l-72 -115h-74zM218 913v16q0 78 97 78q93 0 93 -65q0 -31 -20.5 -56t-40 -44t-17.5 -38h-40q-7 25 7 46t31.5 41.5t17.5 42.5q0 26 -37 26q-21 0 -29.5 -7.5t-8.5 -23.5v-16h-53z" />
    <glyph glyph-name="uni1ED6" unicode="&#x1ed6;" horiz-adv-x="404" 
d="M363 640v-497q0 -72 -46 -114.5t-115 -42.5t-115 42.5t-46 114.5v497q0 72 46 114.5t115 42.5t115 -42.5t46 -114.5zM132 639v-495q0 -33 19 -51t51 -18t51 18t19 51v495q0 33 -19 51t-51 18t-51 -18t-19 -51zM67 1047l-36 32q37 76 104 76q34 0 73 -24t63 -24
q43 0 66 49l36 -32q-38 -77 -101 -77q-31 0 -72 24t-67 24q-44 0 -66 -48zM153 989h96l99 -158h-75l-72 115l-72 -115h-74z" />
    <glyph glyph-name="uni1ED7" unicode="&#x1ed7;" horiz-adv-x="386" 
d="M345 471v-331q0 -67 -43.5 -107.5t-108.5 -40.5t-108.5 40.5t-43.5 107.5v331q0 67 43.5 107.5t108.5 40.5t108.5 -40.5t43.5 -107.5zM127 466v-321q0 -31 18.5 -48t47.5 -17t47 17t18 48v321q0 31 -18 48t-47 17t-47.5 -17t-18.5 -48zM58 867l-36 32q37 76 104 76
q34 0 73 -24t63 -24q43 0 66 49l36 -32q-38 -77 -101 -77q-31 0 -72 24t-67 24q-44 0 -66 -48zM144 817h96l99 -158h-75l-72 115l-72 -115h-74z" />
    <glyph glyph-name="uni1ED8" unicode="&#x1ed8;" horiz-adv-x="404" 
d="M363 640v-497q0 -72 -46 -114.5t-115 -42.5t-115 42.5t-46 114.5v497q0 72 46 114.5t115 42.5t115 -42.5t46 -114.5zM132 639v-495q0 -33 19 -51t51 -18t51 18t19 51v495q0 33 -19 51t-51 18t-51 -18t-19 -51zM201 -57q26 0 39.5 -15t13.5 -39q0 -25 -13.5 -40.5
t-39.5 -15.5q-25 0 -38 16t-13 40t13 39t38 15zM153 989h96l99 -158h-75l-72 115l-72 -115h-74z" />
    <glyph glyph-name="uni1ED9" unicode="&#x1ed9;" horiz-adv-x="386" 
d="M345 471v-331q0 -67 -43.5 -107.5t-108.5 -40.5t-108.5 40.5t-43.5 107.5v331q0 67 43.5 107.5t108.5 40.5t108.5 -40.5t43.5 -107.5zM127 466v-321q0 -31 18.5 -48t47.5 -17t47 17t18 48v321q0 31 -18 48t-47 17t-47.5 -17t-18.5 -48zM192 -57q26 0 39.5 -15t13.5 -39
q0 -25 -13.5 -40.5t-39.5 -15.5q-25 0 -38 16t-13 40t13 39t38 15zM144 817h96l99 -158h-75l-72 115l-72 -115h-74z" />
    <glyph glyph-name="uni1EDA" unicode="&#x1eda;" horiz-adv-x="509" 
d="M205 989h97l-107 -158h-78zM363 640v-497q0 -72 -46 -114.5t-115 -42.5t-115 42.5t-46 114.5v497q0 72 46 114.5t115 42.5q90 0 135 -67q15 -5 28 -5q27 0 42.5 17.5t15.5 46.5v88h80v-62q0 -62 -31.5 -102.5t-92.5 -40.5q-13 0 -19 1q3 -17 3 -33zM132 639v-495
q0 -33 19 -51t51 -18t51 18t19 51v495q0 33 -19 51t-51 18t-51 -18t-19 -51z" />
    <glyph glyph-name="uni1EDB" unicode="&#x1edb;" horiz-adv-x="458" 
d="M197 817h97l-107 -158h-78zM345 471v-331q0 -67 -43.5 -107.5t-108.5 -40.5t-108.5 40.5t-43.5 107.5v331q0 67 43.5 107.5t108.5 40.5q61 0 103 -36q6 -2 18 -2q27 0 42.5 17.5t15.5 46.5v88h80v-62q0 -60 -29.5 -100.5t-87.5 -42.5q10 -28 10 -57zM127 466v-321
q0 -31 18.5 -48t47.5 -17t47 17t18 48v321q0 31 -18 48t-47 17t-47.5 -17t-18.5 -48z" />
    <glyph glyph-name="uni1EDC" unicode="&#x1edc;" horiz-adv-x="509" 
d="M102 989h97l88 -158h-79zM363 640v-497q0 -72 -46 -114.5t-115 -42.5t-115 42.5t-46 114.5v497q0 72 46 114.5t115 42.5q90 0 135 -67q15 -5 28 -5q27 0 42.5 17.5t15.5 46.5v88h80v-62q0 -62 -31.5 -102.5t-92.5 -40.5q-13 0 -19 1q3 -17 3 -33zM132 639v-495
q0 -33 19 -51t51 -18t51 18t19 51v495q0 33 -19 51t-51 18t-51 -18t-19 -51z" />
    <glyph glyph-name="uni1EDD" unicode="&#x1edd;" horiz-adv-x="458" 
d="M93 817h97l88 -158h-79zM345 471v-331q0 -67 -43.5 -107.5t-108.5 -40.5t-108.5 40.5t-43.5 107.5v331q0 67 43.5 107.5t108.5 40.5q61 0 103 -36q6 -2 18 -2q27 0 42.5 17.5t15.5 46.5v88h80v-62q0 -60 -29.5 -100.5t-87.5 -42.5q10 -28 10 -57zM127 466v-321
q0 -31 18.5 -48t47.5 -17t47 17t18 48v321q0 31 -18 48t-47 17t-47.5 -17t-18.5 -48z" />
    <glyph glyph-name="uni1EDE" unicode="&#x1ede;" horiz-adv-x="509" 
d="M363 640v-497q0 -72 -46 -114.5t-115 -42.5t-115 42.5t-46 114.5v497q0 72 46 114.5t115 42.5q90 0 135 -67q15 -5 28 -5q27 0 42.5 17.5t15.5 46.5v88h80v-62q0 -62 -31.5 -102.5t-92.5 -40.5q-13 0 -19 1q3 -17 3 -33zM132 639v-495q0 -33 19 -51t51 -18t51 18t19 51
v495q0 33 -19 51t-51 18t-51 -18t-19 -51zM107 913v16q0 78 97 78q93 0 93 -65q0 -31 -20.5 -56t-40 -44t-17.5 -38h-40q-7 25 7 46t31.5 41.5t17.5 42.5q0 26 -37 26q-21 0 -29.5 -7.5t-8.5 -23.5v-16h-53z" />
    <glyph glyph-name="uni1EDF" unicode="&#x1edf;" horiz-adv-x="458" 
d="M345 471v-331q0 -67 -43.5 -107.5t-108.5 -40.5t-108.5 40.5t-43.5 107.5v331q0 67 43.5 107.5t108.5 40.5q61 0 103 -36q6 -2 18 -2q27 0 42.5 17.5t15.5 46.5v88h80v-62q0 -60 -29.5 -100.5t-87.5 -42.5q10 -28 10 -57zM127 466v-321q0 -31 18.5 -48t47.5 -17t47 17
t18 48v321q0 31 -18 48t-47 17t-47.5 -17t-18.5 -48zM103 741v16q0 78 97 78q93 0 93 -65q0 -31 -20.5 -56t-40 -44t-17.5 -38h-40q-7 25 7 46t31.5 41.5t17.5 42.5q0 26 -37 26q-21 0 -29.5 -7.5t-8.5 -23.5v-16h-53z" />
    <glyph glyph-name="uni1EE0" unicode="&#x1ee0;" horiz-adv-x="509" 
d="M66 867l-36 32q37 76 104 76q34 0 73 -24t63 -24q43 0 66 49l36 -32q-38 -77 -101 -77q-31 0 -72 24t-67 24q-44 0 -66 -48zM363 640v-497q0 -72 -46 -114.5t-115 -42.5t-115 42.5t-46 114.5v497q0 72 46 114.5t115 42.5q90 0 135 -67q15 -5 28 -5q27 0 42.5 17.5
t15.5 46.5v88h80v-62q0 -62 -31.5 -102.5t-92.5 -40.5q-13 0 -19 1q3 -17 3 -33zM132 639v-495q0 -33 19 -51t51 -18t51 18t19 51v495q0 33 -19 51t-51 18t-51 -18t-19 -51z" />
    <glyph glyph-name="uni1EE1" unicode="&#x1ee1;" horiz-adv-x="458" 
d="M62 695l-36 32q37 76 104 76q34 0 73 -24t63 -24q43 0 66 49l36 -32q-38 -77 -101 -77q-31 0 -72 24t-67 24q-44 0 -66 -48zM345 471v-331q0 -67 -43.5 -107.5t-108.5 -40.5t-108.5 40.5t-43.5 107.5v331q0 67 43.5 107.5t108.5 40.5q61 0 103 -36q6 -2 18 -2
q27 0 42.5 17.5t15.5 46.5v88h80v-62q0 -60 -29.5 -100.5t-87.5 -42.5q10 -28 10 -57zM127 466v-321q0 -31 18.5 -48t47.5 -17t47 17t18 48v321q0 31 -18 48t-47 17t-47.5 -17t-18.5 -48z" />
    <glyph glyph-name="uni1EE2" unicode="&#x1ee2;" horiz-adv-x="509" 
d="M363 640v-497q0 -72 -46 -114.5t-115 -42.5t-115 42.5t-46 114.5v497q0 72 46 114.5t115 42.5q90 0 135 -67q15 -5 28 -5q27 0 42.5 17.5t15.5 46.5v88h80v-62q0 -62 -31.5 -102.5t-92.5 -40.5q-13 0 -19 1q3 -17 3 -33zM132 639v-495q0 -33 19 -51t51 -18t51 18t19 51
v495q0 33 -19 51t-51 18t-51 -18t-19 -51zM202 -57q26 0 39.5 -15t13.5 -39q0 -25 -13.5 -40.5t-39.5 -15.5q-25 0 -38 16t-13 40t13 39t38 15z" />
    <glyph glyph-name="uni1EE3" unicode="&#x1ee3;" horiz-adv-x="458" 
d="M345 471v-331q0 -67 -43.5 -107.5t-108.5 -40.5t-108.5 40.5t-43.5 107.5v331q0 67 43.5 107.5t108.5 40.5q61 0 103 -36q6 -2 18 -2q27 0 42.5 17.5t15.5 46.5v88h80v-62q0 -60 -29.5 -100.5t-87.5 -42.5q10 -28 10 -57zM127 466v-321q0 -31 18.5 -48t47.5 -17t47 17
t18 48v321q0 31 -18 48t-47 17t-47.5 -17t-18.5 -48zM191 -57q26 0 39.5 -15t13.5 -39q0 -25 -13.5 -40.5t-39.5 -15.5q-25 0 -38 16t-13 40t13 39t38 15z" />
    <glyph glyph-name="uni1EE4" unicode="&#x1ee4;" horiz-adv-x="410" 
d="M44 783h92v-639q0 -33 19 -51t50 -18q32 0 51.5 18t19.5 51v639h90v-640q0 -72 -46 -114.5t-116 -42.5q-69 0 -114.5 42.5t-45.5 114.5v640zM204 -57q26 0 39.5 -15t13.5 -39q0 -25 -13.5 -40.5t-39.5 -15.5q-25 0 -38 16t-13 40t13 39t38 15z" />
    <glyph glyph-name="uni1EE5" unicode="&#x1ee5;" horiz-adv-x="399" 
d="M264 611h89v-611h-61l-15 34q-45 -42 -106 -42q-55 0 -91 38t-36 110v471h89v-452q0 -79 63 -79q36 0 68 31v500zM198 -57q26 0 39.5 -15t13.5 -39q0 -25 -13.5 -40.5t-39.5 -15.5q-25 0 -38 16t-13 40t13 39t38 15z" />
    <glyph glyph-name="uni1EE6" unicode="&#x1ee6;" horiz-adv-x="410" 
d="M44 783h92v-639q0 -33 19 -51t50 -18q32 0 51.5 18t19.5 51v639h90v-640q0 -72 -46 -114.5t-116 -42.5q-69 0 -114.5 42.5t-45.5 114.5v640zM111 913v16q0 78 97 78q93 0 93 -65q0 -31 -20.5 -56t-40 -44t-17.5 -38h-40q-7 25 7 46t31.5 41.5t17.5 42.5q0 26 -37 26
q-21 0 -29.5 -7.5t-8.5 -23.5v-16h-53z" />
    <glyph glyph-name="uni1EE7" unicode="&#x1ee7;" horiz-adv-x="399" 
d="M264 611h89v-611h-61l-15 34q-45 -42 -106 -42q-55 0 -91 38t-36 110v471h89v-452q0 -79 63 -79q36 0 68 31v500zM107 741v16q0 78 97 78q93 0 93 -65q0 -31 -20.5 -56t-40 -44t-17.5 -38h-40q-7 25 7 46t31.5 41.5t17.5 42.5q0 26 -37 26q-21 0 -29.5 -7.5t-8.5 -23.5
v-16h-53z" />
    <glyph glyph-name="uni1EE8" unicode="&#x1ee8;" horiz-adv-x="532" 
d="M212 989h97l-107 -158h-78zM44 783h92v-639q0 -33 19 -51t50 -18q32 0 51.5 18t19.5 51v639h90v-27q10 -3 22 -3q27 0 42.5 17.5t15.5 46.5v88h80v-62q0 -62 -31.5 -102.5t-92.5 -40.5q-18 0 -36 5v-562q0 -72 -46 -114.5t-116 -42.5q-69 0 -114.5 42.5t-45.5 114.5v640z
" />
    <glyph glyph-name="uni1EE9" unicode="&#x1ee9;" horiz-adv-x="504" 
d="M206 817h97l-107 -158h-78zM264 611h89v-30q32 0 48.5 17t16.5 47v88h80v-62q0 -62 -31.5 -102.5t-92.5 -40.5q-14 0 -21 1v-529h-61l-15 34q-45 -42 -106 -42q-55 0 -91 38t-36 110v471h89v-452q0 -79 63 -79q36 0 68 31v500z" />
    <glyph glyph-name="uni1EEA" unicode="&#x1eea;" horiz-adv-x="532" 
d="M107 989h97l88 -158h-79zM44 783h92v-639q0 -33 19 -51t50 -18q32 0 51.5 18t19.5 51v639h90v-27q10 -3 22 -3q27 0 42.5 17.5t15.5 46.5v88h80v-62q0 -62 -31.5 -102.5t-92.5 -40.5q-18 0 -36 5v-562q0 -72 -46 -114.5t-116 -42.5q-69 0 -114.5 42.5t-45.5 114.5v640z
" />
    <glyph glyph-name="uni1EEB" unicode="&#x1eeb;" horiz-adv-x="504" 
d="M100 817h97l88 -158h-79zM264 611h89v-30q32 0 48.5 17t16.5 47v88h80v-62q0 -62 -31.5 -102.5t-92.5 -40.5q-14 0 -21 1v-529h-61l-15 34q-45 -42 -106 -42q-55 0 -91 38t-36 110v471h89v-452q0 -79 63 -79q36 0 68 31v500z" />
    <glyph glyph-name="uni1EEC" unicode="&#x1eec;" horiz-adv-x="532" 
d="M44 783h92v-639q0 -33 19 -51t50 -18q32 0 51.5 18t19.5 51v639h90v-27q10 -3 22 -3q27 0 42.5 17.5t15.5 46.5v88h80v-62q0 -62 -31.5 -102.5t-92.5 -40.5q-18 0 -36 5v-562q0 -72 -46 -114.5t-116 -42.5q-69 0 -114.5 42.5t-45.5 114.5v640zM115 913v16q0 78 97 78
q93 0 93 -65q0 -31 -20.5 -56t-40 -44t-17.5 -38h-40q-7 25 7 46t31.5 41.5t17.5 42.5q0 26 -37 26q-21 0 -29.5 -7.5t-8.5 -23.5v-16h-53z" />
    <glyph glyph-name="uni1EED" unicode="&#x1eed;" horiz-adv-x="504" 
d="M264 611h89v-30q32 0 48.5 17t16.5 47v88h80v-62q0 -62 -31.5 -102.5t-92.5 -40.5q-14 0 -21 1v-529h-61l-15 34q-45 -42 -106 -42q-55 0 -91 38t-36 110v471h89v-452q0 -79 63 -79q36 0 68 31v500zM108 741v16q0 78 97 78q93 0 93 -65q0 -31 -20.5 -56t-40 -44
t-17.5 -38h-40q-7 25 7 46t31.5 41.5t17.5 42.5q0 26 -37 26q-21 0 -29.5 -7.5t-8.5 -23.5v-16h-53z" />
    <glyph glyph-name="uni1EEE" unicode="&#x1eee;" horiz-adv-x="532" 
d="M71 867l-36 32q37 76 104 76q34 0 73 -24t63 -24q43 0 66 49l36 -32q-38 -77 -101 -77q-31 0 -72 24t-67 24q-44 0 -66 -48zM44 783h92v-639q0 -33 19 -51t50 -18q32 0 51.5 18t19.5 51v639h90v-27q10 -3 22 -3q27 0 42.5 17.5t15.5 46.5v88h80v-62q0 -62 -31.5 -102.5
t-92.5 -40.5q-18 0 -36 5v-562q0 -72 -46 -114.5t-116 -42.5q-69 0 -114.5 42.5t-45.5 114.5v640z" />
    <glyph glyph-name="uni1EEF" unicode="&#x1eef;" horiz-adv-x="504" 
d="M65 695l-36 32q37 76 104 76q34 0 73 -24t63 -24q43 0 66 49l36 -32q-38 -77 -101 -77q-31 0 -72 24t-67 24q-44 0 -66 -48zM264 611h89v-30q32 0 48.5 17t16.5 47v88h80v-62q0 -62 -31.5 -102.5t-92.5 -40.5q-14 0 -21 1v-529h-61l-15 34q-45 -42 -106 -42q-55 0 -91 38
t-36 110v471h89v-452q0 -79 63 -79q36 0 68 31v500z" />
    <glyph glyph-name="uni1EF0" unicode="&#x1ef0;" horiz-adv-x="532" 
d="M44 783h92v-639q0 -33 19 -51t50 -18q32 0 51.5 18t19.5 51v639h90v-27q10 -3 22 -3q27 0 42.5 17.5t15.5 46.5v88h80v-62q0 -62 -31.5 -102.5t-92.5 -40.5q-18 0 -36 5v-562q0 -72 -46 -114.5t-116 -42.5q-69 0 -114.5 42.5t-45.5 114.5v640zM208 -57q26 0 39.5 -15
t13.5 -39q0 -25 -13.5 -40.5t-39.5 -15.5q-25 0 -38 16t-13 40t13 39t38 15z" />
    <glyph glyph-name="uni1EF1" unicode="&#x1ef1;" horiz-adv-x="504" 
d="M264 611h89v-30q32 0 48.5 17t16.5 47v88h80v-62q0 -62 -31.5 -102.5t-92.5 -40.5q-14 0 -21 1v-529h-61l-15 34q-45 -42 -106 -42q-55 0 -91 38t-36 110v471h89v-452q0 -79 63 -79q36 0 68 31v500zM200 -57q26 0 39.5 -15t13.5 -39q0 -25 -13.5 -40.5t-39.5 -15.5
q-25 0 -38 16t-13 40t13 39t38 15z" />
    <glyph glyph-name="Ygrave" unicode="&#x1ef2;" horiz-adv-x="412" 
d="M13 783h93l101 -304l103 304h89l-147 -417v-366h-92v366zM105 989h97l88 -158h-79z" />
    <glyph glyph-name="ygrave" unicode="&#x1ef3;" horiz-adv-x="399" 
d="M264 611h89v-782h-89v204q-41 -31 -93 -31q-55 0 -91 38t-36 110v461h89v-442q0 -79 63 -79q36 0 68 31v490zM99 817h97l88 -158h-79z" />
    <glyph glyph-name="endash" unicode="&#x2013;" horiz-adv-x="439" 
d="M27 416h384v-73h-384v73z" />
    <glyph glyph-name="emdash" unicode="&#x2014;" horiz-adv-x="657" 
d="M27 416h602v-73h-602v73z" />
    <glyph glyph-name="quoteleft" unicode="&#x2018;" horiz-adv-x="160" 
d="M106 797h32l-9 -202q-2 -55 -51 -55q-26 0 -39.5 15.5t-13.5 38.5q0 17 11 42z" />
    <glyph glyph-name="quoteright" unicode="&#x2019;" horiz-adv-x="160" 
d="M121 707l-70 -161h-32l9 201q2 55 51 55q26 0 39.5 -15.5t13.5 -38.5q0 -18 -11 -41z" />
    <glyph glyph-name="quotesinglbase" unicode="&#x201a;" horiz-adv-x="160" 
d="M121 12l-70 -161h-32l9 201q2 55 51 55q26 0 39.5 -15.5t13.5 -38.5q0 -18 -11 -41z" />
    <glyph glyph-name="quotedblleft" unicode="&#x201c;" horiz-adv-x="304" 
d="M250 797h32l-9 -202q-2 -55 -51 -55q-26 0 -39.5 15.5t-13.5 38.5q0 17 11 42zM106 797h32l-9 -202q-2 -55 -51 -55q-26 0 -39.5 15.5t-13.5 38.5q0 17 11 42z" />
    <glyph glyph-name="quotedblright" unicode="&#x201d;" horiz-adv-x="304" 
d="M265 707l-70 -161h-32l9 201q2 55 51 55q26 0 39.5 -15.5t13.5 -38.5q0 -18 -11 -41zM121 707l-70 -161h-32l9 201q2 55 51 55q26 0 39.5 -15.5t13.5 -38.5q0 -18 -11 -41z" />
    <glyph glyph-name="quotedblbase" unicode="&#x201e;" horiz-adv-x="304" 
d="M265 12l-70 -161h-32l9 201q2 55 51 55q26 0 39.5 -15.5t13.5 -38.5q0 -18 -11 -41zM121 12l-70 -161h-32l9 201q2 55 51 55q26 0 39.5 -15.5t13.5 -38.5q0 -18 -11 -41z" />
    <glyph glyph-name="dagger" unicode="&#x2020;" horiz-adv-x="400" 
d="M166 783h67l-7 -191l149 7v-59l-150 6l-14 -546h-23l-14 546l-150 -6v59l149 -7z" />
    <glyph glyph-name="daggerdbl" unicode="&#x2021;" horiz-adv-x="400" 
d="M166 783h67l-7 -170l149 7v-59l-150 6l-14 -176l14 -175l150 6v-59l-149 7l7 -170h-67l7 170l-149 -7v59l150 -6l13 175l-13 176l-150 -6v59l149 -7z" />
    <glyph glyph-name="bullet" unicode="&#x2022;" horiz-adv-x="295" 
d="M150 498q46 0 78.5 -33t32.5 -80q0 -46 -32.5 -79t-78.5 -33q-47 0 -79.5 33t-32.5 79q0 47 32 80t80 33z" />
    <glyph glyph-name="ellipsis" unicode="&#x2026;" horiz-adv-x="621" 
d="M310 107q26 0 39.5 -15.5t13.5 -39.5t-13.5 -39.5t-39.5 -15.5q-24 0 -37.5 15.5t-13.5 39.5t13 39.5t38 15.5zM518 107q26 0 39.5 -15.5t13.5 -39.5t-13.5 -39.5t-39.5 -15.5q-24 0 -37.5 15.5t-13.5 39.5t13 39.5t38 15.5zM102 107q26 0 39.5 -15.5t13.5 -39.5
t-13.5 -39.5t-39.5 -15.5q-24 0 -37.5 15.5t-13.5 39.5t13 39.5t38 15.5z" />
    <glyph glyph-name="perthousand" unicode="&#x2030;" horiz-adv-x="774" 
d="M424 783h64l-361 -783h-66zM530 352v-273q0 -40 -27.5 -63.5t-69.5 -23.5t-70 23.5t-28 63.5v273q0 40 28 63t70 23t69.5 -23.5t27.5 -62.5zM393 351v-272q0 -36 40 -36t40 36v272q0 35 -40 35t-40 -35zM756 352v-273q0 -40 -27.5 -63.5t-69.5 -23.5t-70 23.5t-28 63.5
v273q0 40 28 63t70 23t69.5 -23.5t27.5 -62.5zM619 351v-272q0 -36 40 -36t40 36v272q0 35 -40 35t-40 -35zM212 704v-273q0 -40 -27.5 -63.5t-69.5 -23.5t-70 23.5t-28 63.5v273q0 40 28 63t70 23t69.5 -23.5t27.5 -62.5zM75 703v-272q0 -36 40 -36t40 36v272q0 35 -40 35
t-40 -35z" />
    <glyph glyph-name="guilsinglleft" unicode="&#x2039;" horiz-adv-x="220" 
d="M122 611h79l-105 -306l105 -305h-79l-104 305z" />
    <glyph glyph-name="guilsinglright" unicode="&#x203a;" horiz-adv-x="220" 
d="M18 611h79l104 -306l-104 -305h-79l105 305z" />
    <glyph glyph-name="fraction" unicode="&#x2044;" horiz-adv-x="121" 
d="M211 783h64l-361 -783h-66z" />
    <glyph glyph-name="zerosuperior" unicode="&#x2070;" horiz-adv-x="283" 
d="M238 704v-273q0 -40 -27.5 -63.5t-69.5 -23.5t-70 23.5t-28 63.5v273q0 40 28 63t70 23t69.5 -23.5t27.5 -62.5zM101 703v-272q0 -36 40 -36t40 36v272q0 35 -40 35t-40 -35z" />
    <glyph glyph-name="foursuperior" unicode="&#x2074;" horiz-adv-x="274" 
d="M152 783h54v-246h35v-52h-35v-133h-54v133h-120v48l54 165h50l-51 -161h67v246z" />
    <glyph glyph-name="fivesuperior" unicode="&#x2075;" horiz-adv-x="267" 
d="M52 783h171v-52h-122l-7 -79q27 18 60 18q71 0 71 -77v-165q0 -39 -26.5 -62.5t-65.5 -23.5q-41 0 -68.5 23.5t-27.5 62.5v24l54 -13v-10q0 -35 38 -35q39 0 39 35v164q0 17 -7 24t-23 7q-34 0 -53 -26l-46 14z" />
    <glyph glyph-name="sixsuperior" unicode="&#x2076;" horiz-adv-x="276" 
d="M101 703v-71q25 20 58 20t53 -20t20 -58v-144q0 -39 -27 -62.5t-68 -23.5t-67.5 23.5t-26.5 62.5v275q0 39 27 62t70 23q42 0 67 -22.5t25 -62.5v-14h-54v12q0 35 -38 35q-39 0 -39 -35zM145 603q-25 0 -44 -19v-153q0 -36 38 -36q39 0 39 36v132q0 21 -7 30.5t-26 9.5z
" />
    <glyph glyph-name="sevensuperior" unicode="&#x2077;" horiz-adv-x="235" 
d="M32 783h171v-47l-90 -384h-61l97 379h-117v52z" />
    <glyph glyph-name="eightsuperior" unicode="&#x2078;" horiz-adv-x="273" 
d="M45 645v52q0 43 23.5 68t67.5 25t67.5 -25t23.5 -68v-52q0 -52 -35 -69q41 -16 41 -71v-76q0 -39 -27 -62t-70 -23t-69.5 23t-26.5 62v76q0 56 40 71q-35 17 -35 69zM93 511v-76q0 -41 43 -41t43 41v76q0 23 -9.5 32.5t-33.5 9.5q-23 0 -33 -9.5t-10 -32.5zM99 700v-66
q0 -22 7.5 -30t29.5 -8q23 0 30.5 8t7.5 30v66q0 41 -38 41q-37 0 -37 -41z" />
    <glyph glyph-name="ninesuperior" unicode="&#x2079;" horiz-adv-x="276" 
d="M135 395q40 0 40 36v85q-27 -19 -59 -19q-33 0 -53 20t-20 58v130q0 39 27 62t69 23q41 0 67 -23t26 -62v-275q0 -39 -26.5 -62.5t-69.5 -23.5q-42 0 -67.5 23t-25.5 63v22l54 -13v-8q0 -36 38 -36zM97 703v-117q0 -21 7 -30.5t26 -9.5q24 0 45 18v139q0 35 -39 35
t-39 -35z" />
    <glyph glyph-name="zeroinferior" unicode="&#x2080;" horiz-adv-x="283" 
d="M238 352v-273q0 -40 -27.5 -63.5t-69.5 -23.5t-70 23.5t-28 63.5v273q0 40 28 63t70 23t69.5 -23.5t27.5 -62.5zM101 351v-272q0 -36 40 -36t40 36v272q0 35 -40 35t-40 -35z" />
    <glyph glyph-name="oneinferior" unicode="&#x2081;" horiz-adv-x="195" 
d="M28 389h20q20 0 28 9.5t8 32.5h59v-431h-59v344h-56v45z" />
    <glyph glyph-name="twoinferior" unicode="&#x2082;" horiz-adv-x="257" 
d="M36 339v14q0 40 24.5 62.5t69.5 22.5q95 0 95 -97q0 -40 -21 -72q-10 -17 -42.5 -59t-42.5 -56q-13 -19 -17 -31.5t-4 -37.5v-34h127v-51h-186v85q0 47 25 84q10 15 44 57t44 59q15 26 15 57q0 25 -8 34.5t-30 9.5q-40 0 -40 -34v-13h-53z" />
    <glyph glyph-name="threeinferior" unicode="&#x2083;" horiz-adv-x="270" 
d="M39 339v14q0 40 24.5 62.5t66.5 22.5q46 0 71 -25.5t25 -67.5v-60q0 -47 -33 -61q39 -16 39 -67v-80q0 -39 -28 -62t-70 -23t-68.5 23t-26.5 63v22l53 -13v-9q0 -35 42 -35q41 0 41 35v80q0 23 -9 32t-33 9h-33v46h30q22 0 30.5 8t8.5 30v63q0 40 -39 40q-38 0 -38 -36
v-11h-53z" />
    <glyph glyph-name="fourinferior" unicode="&#x2084;" horiz-adv-x="274" 
d="M152 431h54v-246h35v-52h-35v-133h-54v133h-120v48l54 165h50l-51 -161h67v246z" />
    <glyph glyph-name="fiveinferior" unicode="&#x2085;" horiz-adv-x="267" 
d="M52 431h171v-52h-122l-7 -79q27 18 60 18q71 0 71 -77v-165q0 -39 -26.5 -62.5t-65.5 -23.5q-41 0 -68.5 23.5t-27.5 62.5v24l54 -13v-10q0 -35 38 -35q39 0 39 35v164q0 17 -7 24t-23 7q-34 0 -53 -26l-46 14z" />
    <glyph glyph-name="sixinferior" unicode="&#x2086;" horiz-adv-x="276" 
d="M101 351v-71q25 20 58 20t53 -20t20 -58v-144q0 -39 -27 -62.5t-68 -23.5t-67.5 23.5t-26.5 62.5v275q0 39 27 62t70 23q42 0 67 -22.5t25 -62.5v-14h-54v12q0 35 -38 35q-39 0 -39 -35zM145 251q-25 0 -44 -19v-153q0 -36 38 -36q39 0 39 36v132q0 21 -7 30.5t-26 9.5z
" />
    <glyph glyph-name="seveninferior" unicode="&#x2087;" horiz-adv-x="235" 
d="M32 431h171v-47l-90 -384h-61l97 379h-117v52z" />
    <glyph glyph-name="eightinferior" unicode="&#x2088;" horiz-adv-x="273" 
d="M45 293v52q0 43 23.5 68t67.5 25t67.5 -25t23.5 -68v-52q0 -52 -35 -69q41 -16 41 -71v-76q0 -39 -27 -62t-70 -23t-69.5 23t-26.5 62v76q0 56 40 71q-35 17 -35 69zM93 159v-76q0 -41 43 -41t43 41v76q0 23 -9.5 32.5t-33.5 9.5q-23 0 -33 -9.5t-10 -32.5zM99 348v-66
q0 -22 7.5 -30t29.5 -8q23 0 30.5 8t7.5 30v66q0 41 -38 41q-37 0 -37 -41z" />
    <glyph glyph-name="nineinferior" unicode="&#x2089;" horiz-adv-x="276" 
d="M135 43q40 0 40 36v85q-27 -19 -59 -19q-33 0 -53 20t-20 58v130q0 39 27 62t69 23q41 0 67 -23t26 -62v-275q0 -39 -26.5 -62.5t-69.5 -23.5q-42 0 -67.5 23t-25.5 63v22l54 -13v-8q0 -36 38 -36zM97 351v-117q0 -21 7 -30.5t26 -9.5q24 0 45 18v139q0 35 -39 35
t-39 -35z" />
    <glyph glyph-name="dong" unicode="&#x20ab;" horiz-adv-x="422" 
d="M265 793l89 22v-63h47v-67h-47v-541h-61l-15 38q-49 -46 -111 -46q-54 0 -90 38.5t-36 109.5v181q0 71 36 109.5t90 38.5q53 0 98 -36v108h-153v67h153v41zM130 446v-143q0 -79 62 -79q40 0 73 35v230q-33 36 -73 36q-62 0 -62 -79zM41 74h341v-74h-341v74z" />
    <glyph glyph-name="Euro" unicode="&#x20ac;" horiz-adv-x="421" 
d="M38 353h39v92h-56l17 52h39v145q0 71 44 113t115 42q70 0 111 -41.5t41 -113.5v-26h-85v24q0 68 -66 68q-32 0 -50.5 -17.5t-18.5 -50.5v-143h212l-19 -52h-193v-92h164l-19 -52h-145v-158q0 -33 18 -50.5t49 -17.5t49.5 17.5t18.5 50.5v16l85 22v-40q0 -70 -45 -112.5
t-112 -42.5q-66 0 -110 42.5t-44 112.5v160h-56z" />
    <glyph glyph-name="uni20B4" unicode="&#x20b4;" horiz-adv-x="471" 
d="M17 243v73h97q24 38 91 126h-188v73h242q44 60 44 111q0 37 -18.5 61t-53.5 24q-32 0 -50 -20t-18 -54v-21h-85v28q0 69 40.5 111t110.5 42q72 0 115.5 -45.5t43.5 -123.5q0 -56 -26 -113h94v-73h-135q-10 -14 -95 -126h230v-73h-277q-18 -40 -18 -81q0 -92 74 -92
q35 0 55 20.5t20 49.5v19l85 22v-42q0 -66 -45 -109.5t-120 -43.5q-78 0 -117.5 50t-39.5 140q0 39 8 67h-64z" />
    <glyph glyph-name="uni20B9" unicode="&#x20b9;" horiz-adv-x="497" 
d="M37 549h227v54q0 55 -18 91h-209v89h423v-89h-124q19 -36 19 -91v-54h105v-59h-105v-59q0 -173 -156 -173h-44l134 -258h-100l-152 315v32h155q37 0 54.5 18t17.5 60v65h-227v59z" />
    <glyph glyph-name="uni20BA" unicode="&#x20ba;" horiz-adv-x="431" 
d="M15 507l63 35v241h92v-189l165 93v-74l-165 -93v-126l165 93v-74l-165 -93v-231h63q72 0 72 85v84l91 21v-99q0 -89 -41 -134.5t-115 -45.5h-162v268l-63 -35v74l63 35v126l-63 -35v74z" />
    <glyph glyph-name="uni20BD" unicode="&#x20bd;" horiz-adv-x="443" 
d="M32 235h62v74h-62v89h62v385h162q74 0 115 -45.5t41 -134.5v-114q0 -89 -41 -134.5t-115 -45.5h-70v-74h230v-73h-230v-162h-92v162h-62v73zM186 694v-296h63q72 0 72 85v126q0 85 -72 85h-63z" />
    <glyph glyph-name="uni2116" unicode="&#x2116;" horiz-adv-x="643" 
d="M46 783h100l133 -540v540h80v-783h-82l-151 576v-576h-80v783zM607 688v-212q0 -44 -27.5 -69.5t-70.5 -25.5q-42 0 -69.5 25.5t-27.5 69.5v212q0 44 27.5 69.5t69.5 25.5q43 0 70.5 -25.5t27.5 -69.5zM473 682v-200q0 -40 36 -40q37 0 37 40v200q0 18 -10 28.5t-27 10.5
q-36 0 -36 -39z" />
    <glyph glyph-name="uni2117" unicode="&#x2117;" horiz-adv-x="751" 
d="M44 307v166q0 147 94 235.5t236 88.5q143 0 238 -88.5t95 -235.5v-166q0 -145 -95.5 -233t-237.5 -88t-236 88t-94 233zM83 473v-166q0 -127 83.5 -204.5t207.5 -77.5q125 0 209 77.5t84 204.5v166q0 129 -84 206.5t-209 77.5t-208 -77.5t-83 -206.5zM279 656h107
q49 0 76 -30t27 -89v-75q0 -119 -103 -119h-46v-204h-61v517zM340 597v-195h42q47 0 47 56v83q0 56 -47 56h-42z" />
    <glyph glyph-name="trademark" unicode="&#x2122;" horiz-adv-x="539" 
d="M227 783h60l73 -374l77 374h55v-470h-49v302l-57 -302h-51l-59 306v-306h-49v470zM25 783h161v-54h-53v-416h-55v416h-53v54z" />
    <glyph glyph-name="onethird" unicode="&#x2153;" horiz-adv-x="612" 
d="M437 783h64l-361 -783h-66zM71 741h20q20 0 28 9.5t8 32.5h59v-431h-59v344h-56v45zM354 339v14q0 40 24.5 62.5t66.5 22.5q46 0 71 -25.5t25 -67.5v-60q0 -47 -33 -61q39 -16 39 -67v-80q0 -39 -28 -62t-70 -23t-68.5 23t-26.5 63v22l53 -13v-9q0 -35 42 -35q41 0 41 35
v80q0 23 -9 32t-33 9h-33v46h30q22 0 30.5 8t8.5 30v63q0 40 -39 40q-38 0 -38 -36v-11h-53z" />
    <glyph glyph-name="twothirds" unicode="&#x2154;" horiz-adv-x="612" 
d="M460 783h64l-361 -783h-66zM40 691v14q0 40 24.5 62.5t69.5 22.5q95 0 95 -97q0 -40 -21 -72q-10 -17 -42.5 -59t-42.5 -56q-13 -19 -17 -31.5t-4 -37.5v-34h127v-51h-186v85q0 47 25 84q10 15 44 57t44 59q15 26 15 57q0 25 -8 34.5t-30 9.5q-40 0 -40 -34v-13h-53z
M377 339v14q0 40 24.5 62.5t66.5 22.5q46 0 71 -25.5t25 -67.5v-60q0 -47 -33 -61q39 -16 39 -67v-80q0 -39 -28 -62t-70 -23t-68.5 23t-26.5 63v22l53 -13v-9q0 -35 42 -35q41 0 41 35v80q0 23 -9 32t-33 9h-33v46h30q22 0 30.5 8t8.5 30v63q0 40 -39 40q-38 0 -38 -36v-11
h-53z" />
    <glyph glyph-name="uni2155" unicode="&#x2155;" horiz-adv-x="612" 
d="M436 783h64l-361 -783h-66zM70 741h20q20 0 28 9.5t8 32.5h59v-431h-59v344h-56v45zM376 431h171v-52h-122l-7 -79q27 18 60 18q71 0 71 -77v-165q0 -39 -26.5 -62.5t-65.5 -23.5q-41 0 -68.5 23.5t-27.5 62.5v24l54 -13v-10q0 -35 38 -35q39 0 39 35v164q0 17 -7 24
t-23 7q-34 0 -53 -26l-46 14z" />
    <glyph glyph-name="uni2156" unicode="&#x2156;" horiz-adv-x="612" 
d="M459 783h64l-361 -783h-66zM39 691v14q0 40 24.5 62.5t69.5 22.5q95 0 95 -97q0 -40 -21 -72q-10 -17 -42.5 -59t-42.5 -56q-13 -19 -17 -31.5t-4 -37.5v-34h127v-51h-186v85q0 47 25 84q10 15 44 57t44 59q15 26 15 57q0 25 -8 34.5t-30 9.5q-40 0 -40 -34v-13h-53z
M399 431h171v-52h-122l-7 -79q27 18 60 18q71 0 71 -77v-165q0 -39 -26.5 -62.5t-65.5 -23.5q-41 0 -68.5 23.5t-27.5 62.5v24l54 -13v-10q0 -35 38 -35q39 0 39 35v164q0 17 -7 24t-23 7q-34 0 -53 -26l-46 14z" />
    <glyph glyph-name="uni2157" unicode="&#x2157;" horiz-adv-x="612" 
d="M454 783h64l-361 -783h-66zM394 431h171v-52h-122l-7 -79q27 18 60 18q71 0 71 -77v-165q0 -39 -26.5 -62.5t-65.5 -23.5q-41 0 -68.5 23.5t-27.5 62.5v24l54 -13v-10q0 -35 38 -35q39 0 39 35v164q0 17 -7 24t-23 7q-34 0 -53 -26l-46 14zM44 691v14q0 40 24.5 62.5
t66.5 22.5q46 0 71 -25.5t25 -67.5v-60q0 -47 -33 -61q39 -16 39 -67v-80q0 -39 -28 -62t-70 -23t-68.5 23t-26.5 63v22l53 -13v-9q0 -35 42 -35q41 0 41 35v80q0 23 -9 32t-33 9h-33v46h30q22 0 30.5 8t8.5 30v63q0 40 -39 40q-38 0 -38 -36v-11h-53z" />
    <glyph glyph-name="uni2158" unicode="&#x2158;" horiz-adv-x="612" 
d="M460 783h64l-361 -783h-66zM400 431h171v-52h-122l-7 -79q27 18 60 18q71 0 71 -77v-165q0 -39 -26.5 -62.5t-65.5 -23.5q-41 0 -68.5 23.5t-27.5 62.5v24l54 -13v-10q0 -35 38 -35q39 0 39 35v164q0 17 -7 24t-23 7q-34 0 -53 -26l-46 14zM159 783h54v-246h35v-52h-35
v-133h-54v133h-120v48l54 165h50l-51 -161h67v246z" />
    <glyph glyph-name="uni2159" unicode="&#x2159;" horiz-adv-x="612" 
d="M437 783h64l-361 -783h-66zM71 741h20q20 0 28 9.5t8 32.5h59v-431h-59v344h-56v45zM416 351v-71q25 20 58 20t53 -20t20 -58v-144q0 -39 -27 -62.5t-68 -23.5t-67.5 23.5t-26.5 62.5v275q0 39 27 62t70 23q42 0 67 -22.5t25 -62.5v-14h-54v12q0 35 -38 35q-39 0 -39 -35
zM460 251q-25 0 -44 -19v-153q0 -36 38 -36q39 0 39 36v132q0 21 -7 30.5t-26 9.5z" />
    <glyph glyph-name="uni215A" unicode="&#x215a;" horiz-adv-x="612" 
d="M455 783h64l-361 -783h-66zM434 351v-71q25 20 58 20t53 -20t20 -58v-144q0 -39 -27 -62.5t-68 -23.5t-67.5 23.5t-26.5 62.5v275q0 39 27 62t70 23q42 0 67 -22.5t25 -62.5v-14h-54v12q0 35 -38 35q-39 0 -39 -35zM478 251q-25 0 -44 -19v-153q0 -36 38 -36q39 0 39 36
v132q0 21 -7 30.5t-26 9.5zM61 783h171v-52h-122l-7 -79q27 18 60 18q71 0 71 -77v-165q0 -39 -26.5 -62.5t-65.5 -23.5q-41 0 -68.5 23.5t-27.5 62.5v24l54 -13v-10q0 -35 38 -35q39 0 39 35v164q0 17 -7 24t-23 7q-34 0 -53 -26l-46 14z" />
    <glyph glyph-name="oneeighth" unicode="&#x215b;" horiz-adv-x="612" 
d="M436 783h64l-361 -783h-66zM70 741h20q20 0 28 9.5t8 32.5h59v-431h-59v344h-56v45zM359 293v52q0 43 23.5 68t67.5 25t67.5 -25t23.5 -68v-52q0 -52 -35 -69q41 -16 41 -71v-76q0 -39 -27 -62t-70 -23t-69.5 23t-26.5 62v76q0 56 40 71q-35 17 -35 69zM407 159v-76
q0 -41 43 -41t43 41v76q0 23 -9.5 32.5t-33.5 9.5q-23 0 -33 -9.5t-10 -32.5zM413 348v-66q0 -22 7.5 -30t29.5 -8q23 0 30.5 8t7.5 30v66q0 41 -38 41q-37 0 -37 -41z" />
    <glyph glyph-name="threeeighths" unicode="&#x215c;" horiz-adv-x="612" 
d="M455 783h64l-361 -783h-66zM378 293v52q0 43 23.5 68t67.5 25t67.5 -25t23.5 -68v-52q0 -52 -35 -69q41 -16 41 -71v-76q0 -39 -27 -62t-70 -23t-69.5 23t-26.5 62v76q0 56 40 71q-35 17 -35 69zM426 159v-76q0 -41 43 -41t43 41v76q0 23 -9.5 32.5t-33.5 9.5
q-23 0 -33 -9.5t-10 -32.5zM432 348v-66q0 -22 7.5 -30t29.5 -8q23 0 30.5 8t7.5 30v66q0 41 -38 41q-37 0 -37 -41zM45 691v14q0 40 24.5 62.5t66.5 22.5q46 0 71 -25.5t25 -67.5v-60q0 -47 -33 -61q39 -16 39 -67v-80q0 -39 -28 -62t-70 -23t-68.5 23t-26.5 63v22l53 -13
v-9q0 -35 42 -35q41 0 41 35v80q0 23 -9 32t-33 9h-33v46h30q22 0 30.5 8t8.5 30v63q0 40 -39 40q-38 0 -38 -36v-11h-53z" />
    <glyph glyph-name="fiveeighths" unicode="&#x215d;" horiz-adv-x="612" 
d="M454 783h64l-361 -783h-66zM60 783h171v-52h-122l-7 -79q27 18 60 18q71 0 71 -77v-165q0 -39 -26.5 -62.5t-65.5 -23.5q-41 0 -68.5 23.5t-27.5 62.5v24l54 -13v-10q0 -35 38 -35q39 0 39 35v164q0 17 -7 24t-23 7q-34 0 -53 -26l-46 14zM377 293v52q0 43 23.5 68
t67.5 25t67.5 -25t23.5 -68v-52q0 -52 -35 -69q41 -16 41 -71v-76q0 -39 -27 -62t-70 -23t-69.5 23t-26.5 62v76q0 56 40 71q-35 17 -35 69zM425 159v-76q0 -41 43 -41t43 41v76q0 23 -9.5 32.5t-33.5 9.5q-23 0 -33 -9.5t-10 -32.5zM431 348v-66q0 -22 7.5 -30t29.5 -8
q23 0 30.5 8t7.5 30v66q0 41 -38 41q-37 0 -37 -41z" />
    <glyph glyph-name="seveneighths" unicode="&#x215e;" horiz-adv-x="612" 
d="M436 783h64l-361 -783h-66zM359 293v52q0 43 23.5 68t67.5 25t67.5 -25t23.5 -68v-52q0 -52 -35 -69q41 -16 41 -71v-76q0 -39 -27 -62t-70 -23t-69.5 23t-26.5 62v76q0 56 40 71q-35 17 -35 69zM407 159v-76q0 -41 43 -41t43 41v76q0 23 -9.5 32.5t-33.5 9.5
q-23 0 -33 -9.5t-10 -32.5zM413 348v-66q0 -22 7.5 -30t29.5 -8q23 0 30.5 8t7.5 30v66q0 41 -38 41q-37 0 -37 -41zM74 783h171v-47l-90 -384h-61l97 379h-117v52z" />
    <glyph glyph-name="partialdiff" unicode="&#x2202;" horiz-adv-x="446" 
d="M140 685l-28 64q35 26 64.5 37t71.5 11q88 0 125 -48t37 -154q0 -60 -11 -150q-16 -134 -41.5 -227t-58 -142t-66.5 -69.5t-74 -20.5q-125 0 -125 185q0 48 8.5 96t28.5 98t60.5 81t97.5 31q64 0 101 -39l3 20q10 79 10 136q0 72 -22.5 101t-77.5 29q-54 0 -103 -39z
M165 59q22 0 41 12t40 43t39.5 94.5t33.5 156.5q-33 39 -86 39q-33 0 -58 -16t-38.5 -39t-22 -55t-10.5 -57t-2 -52q0 -72 16 -99t47 -27z" />
    <glyph glyph-name="product" unicode="&#x220f;" horiz-adv-x="415" 
d="M46 783h323v-783h-92v694h-139v-694h-92v783z" />
    <glyph glyph-name="summation" unicode="&#x2211;" horiz-adv-x="337" 
d="M16 783h300v-89h-200l107 -291l-120 -314h215v-89h-302v72l120 320l-120 319v72z" />
    <glyph glyph-name="minus" unicode="&#x2212;" horiz-adv-x="531" 
d="M46 416h439v-73h-439v73z" />
    <glyph glyph-name="radical" unicode="&#x221a;" horiz-adv-x="577" 
d="M18 427h139l105 -335l220 691h76l-260 -783h-72l-120 354h-88v73z" />
    <glyph glyph-name="infinity" unicode="&#x221e;" horiz-adv-x="572" 
d="M152 559h39q33 0 59 -17.5t36 -44.5q10 27 36 44.5t60 17.5h38q62 0 96.5 -40.5t34.5 -104.5q0 -65 -34.5 -105t-96.5 -40h-38q-33 0 -59.5 17.5t-36.5 43.5q-10 -26 -36 -43.5t-59 -17.5h-39q-62 0 -96.5 40t-34.5 105q0 64 34.5 104.5t96.5 40.5zM194 492h-42
q-32 0 -51.5 -22t-19.5 -56q0 -36 19 -57t52 -21h42q30 0 50 21.5t20 56.5q0 34 -19.5 56t-50.5 22zM420 492h-42q-31 0 -50.5 -22t-19.5 -56q0 -35 20 -56.5t50 -21.5h42q34 0 52.5 21t18.5 57q0 35 -19 56.5t-52 21.5z" />
    <glyph glyph-name="integral" unicode="&#x222b;" horiz-adv-x="306" 
d="M269 959v-73q-48 0 -63.5 -15.5t-15.5 -65.5v-861q0 -89 -34.5 -121.5t-118.5 -32.5v73q49 0 64.5 15t15.5 66v861q0 89 34 121.5t118 32.5z" />
    <glyph glyph-name="approxequal" unicode="&#x2248;" horiz-adv-x="531" 
d="M46 391v86q42 60 121 60q44 0 107 -23q57 -22 91 -22q73 0 120 74v-86q-44 -61 -121 -61q-44 0 -107 24q-56 21 -91 21q-74 0 -120 -73zM46 191v86q42 60 121 60q44 0 107 -23q57 -22 91 -22q73 0 120 74v-86q-44 -61 -121 -61q-44 0 -107 24q-56 21 -91 21
q-74 0 -120 -73z" />
    <glyph glyph-name="notequal" unicode="&#x2260;" horiz-adv-x="531" 
d="M46 316h152l59 126h-211v73h245l124 268h64l-124 -268h130v-73h-164l-58 -126h222v-73h-255l-112 -243h-66l112 243h-118v73z" />
    <glyph glyph-name="lessequal" unicode="&#x2264;" horiz-adv-x="531" 
d="M46 415l439 161v-76l-353 -121l353 -121v-76l-439 161v72zM46 85h439v-73h-439v73z" />
    <glyph glyph-name="greaterequal" unicode="&#x2265;" horiz-adv-x="531" 
d="M492 343l-439 -161v76l353 121l-353 121v76l439 -161v-72zM53 85h439v-73h-439v73z" />
    <glyph glyph-name="lozenge" unicode="&#x25ca;" horiz-adv-x="533" 
d="M227 783h79l179 -392l-179 -391h-79l-179 391zM402 391l-136 317l-134 -317l134 -316z" />
    <glyph glyph-name="g.1" unicode="&#xe000;" horiz-adv-x="400" 
d="M293 611h61v-646q0 -67 -42 -107.5t-105 -40.5q-64 0 -106.5 40.5t-42.5 107.5v52l81 -21v-28q0 -31 17.5 -48t46.5 -17t46.5 17t17.5 48v122q-45 -36 -100 -36q-54 0 -90 38.5t-36 109.5v269q0 71 36 109.5t90 38.5q62 0 111 -47zM130 452v-233q0 -79 62 -79q41 0 75 37
v317q-35 37 -75 37q-62 0 -62 -79z" />
    <glyph glyph-name="CR" horiz-adv-x="186" 
 />
    <glyph glyph-name="gbreve.1" horiz-adv-x="400" 
d="M293 611h61v-646q0 -67 -42 -107.5t-105 -40.5q-64 0 -106.5 40.5t-42.5 107.5v52l81 -21v-28q0 -31 17.5 -48t46.5 -17t46.5 17t17.5 48v122q-45 -36 -100 -36q-54 0 -90 38.5t-36 109.5v269q0 71 36 109.5t90 38.5q62 0 111 -47zM130 452v-233q0 -79 62 -79q41 0 75 37
v317q-35 37 -75 37q-62 0 -62 -79zM73 817h66q5 -103 61 -103t61 103h65q-3 -66 -34.5 -110.5t-91.5 -44.5q-61 0 -92.5 44.5t-34.5 110.5z" />
    <glyph glyph-name="gdotaccent.1" horiz-adv-x="400" 
d="M293 611h61v-646q0 -67 -42 -107.5t-105 -40.5q-64 0 -106.5 40.5t-42.5 107.5v52l81 -21v-28q0 -31 17.5 -48t46.5 -17t46.5 17t17.5 48v122q-45 -36 -100 -36q-54 0 -90 38.5t-36 109.5v269q0 71 36 109.5t90 38.5q62 0 111 -47zM130 452v-233q0 -79 62 -79q41 0 75 37
v317q-35 37 -75 37q-62 0 -62 -79zM197 806q26 0 39.5 -15t13.5 -39q0 -25 -13.5 -40.5t-39.5 -15.5q-25 0 -38 16t-13 40t13 39t38 15z" />
    <glyph glyph-name="gcommaaccent.1" horiz-adv-x="400" 
d="M293 611h61v-646q0 -67 -42 -107.5t-105 -40.5q-64 0 -106.5 40.5t-42.5 107.5v52l81 -21v-28q0 -31 17.5 -48t46.5 -17t46.5 17t17.5 48v122q-45 -36 -100 -36q-54 0 -90 38.5t-36 109.5v269q0 71 36 109.5t90 38.5q62 0 111 -47zM130 452v-233q0 -79 62 -79q41 0 75 37
v317q-35 37 -75 37q-62 0 -62 -79zM226 932h32l-9 -202q-2 -55 -51 -55q-26 0 -39.5 15.5t-13.5 38.5q0 17 11 42z" />
    <glyph glyph-name="yacute.1" horiz-adv-x="388" 
d="M217 817h97l-107 -158h-78zM19 611h86l79 -399l100 399h85l-193 -782h-87l52 210z" />
    <glyph glyph-name="ycircumflex.1" horiz-adv-x="388" 
d="M19 611h86l79 -399l100 399h85l-193 -782h-87l52 210zM145 817h96l99 -158h-75l-72 115l-72 -115h-74z" />
    <glyph glyph-name="ygrave.1" horiz-adv-x="388" 
d="M69 817h97l88 -158h-79zM19 611h86l79 -399l100 399h85l-193 -782h-87l52 210z" />
    <glyph glyph-name="gcaron.1" horiz-adv-x="400" 
d="M293 611h61v-646q0 -67 -42 -107.5t-105 -40.5q-64 0 -106.5 40.5t-42.5 107.5v52l81 -21v-28q0 -31 17.5 -48t46.5 -17t46.5 17t17.5 48v122q-45 -36 -100 -36q-54 0 -90 38.5t-36 109.5v269q0 71 36 109.5t90 38.5q62 0 111 -47zM130 452v-233q0 -79 62 -79q41 0 75 37
v317q-35 37 -75 37q-62 0 -62 -79zM53 817h75l71 -116l73 116h74l-98 -158h-96z" />
    <glyph glyph-name="gacute.1" horiz-adv-x="400" 
d="M293 611h61v-646q0 -67 -42 -107.5t-105 -40.5q-64 0 -106.5 40.5t-42.5 107.5v52l81 -21v-28q0 -31 17.5 -48t46.5 -17t46.5 17t17.5 48v122q-45 -36 -100 -36q-54 0 -90 38.5t-36 109.5v269q0 71 36 109.5t90 38.5q62 0 111 -47zM130 452v-233q0 -79 62 -79q41 0 75 37
v317q-35 37 -75 37q-62 0 -62 -79zM223 817h97l-107 -158h-78z" />
    <glyph glyph-name="ydieresis.1" horiz-adv-x="388" 
d="M19 611h86l79 -399l100 399h85l-193 -782h-87l52 210zM274 806q26 0 39.5 -15t13.5 -39q0 -25 -13.5 -40.5t-39.5 -15.5q-25 0 -38 16t-13 40t13 39t38 15zM107 806q26 0 39.5 -15t13.5 -39q0 -25 -13.5 -40.5t-39.5 -15.5q-25 0 -38 16t-13 40t13 39t38 15z" />
    </font>
</defs>
</svg>
