<?xml version="1.0" encoding="utf-8"?>
<!-- Generator: Adobe Illustrator 18.1.1, SVG Export Plug-In . SVG Version: 6.00 Build 0)  -->
<!DOCTYPE svg PUBLIC "-//W3C//DTD SVG 1.1//EN" "http://www.w3.org/Graphics/SVG/1.1/DTD/svg11.dtd">
<svg version="1.1" id="Layer_1" xmlns="http://www.w3.org/2000/svg" xmlns:xlink="http://www.w3.org/1999/xlink" x="0px" y="0px"
	 viewBox="0 0 85.8 14.3" enable-background="new 0 0 85.8 14.3" xml:space="preserve">
<g>
	<path fill="#FFFFFF" d="M3.1,1.4l1.8,10.2H3.7l-0.2-1.5H1.6l-0.2,1.5H0.2L2,1.4H3.1z M1.8,9.1h1.6L2.5,4L1.8,9.1z"/>
	<path fill="#FFFFFF" d="M6.9,1.4v9h1.9v1.2H5.7V1.4H6.9z"/>
	<path fill="#FFFFFF" d="M10.9,1.4v9h1.9v1.2H9.7V1.4H10.9z"/>
	<path fill="#FFFFFF" d="M18.1,1.4c1.2,0,2,0.8,2,2v1.4c0,0.8-0.2,1.2-0.7,1.4c0.5,0.2,0.8,0.6,0.8,1.5v3.8h-1.2V7.7
		c0-0.6-0.2-0.9-0.9-0.9h-0.9v4.7h-1.2V1.4H18.1z M17.3,5.8h0.8c0.7,0,0.9-0.3,0.9-0.9V3.6c0-0.7-0.3-1-0.9-1h-0.8V5.8z"/>
	<path fill="#FFFFFF" d="M22.5,1.4v10.2h-1.2V1.4H22.5z"/>
	<path fill="#FFFFFF" d="M24.8,9.7c0,0.6,0.4,0.9,0.9,0.9c0.5,0,0.9-0.3,0.9-0.9V7h-1V5.9h2.1v5.6h-0.7l-0.1-0.4
		c-0.3,0.4-0.8,0.6-1.4,0.6c-1,0-1.8-0.8-1.8-2V3.2c0-1.2,0.9-2,2.1-2s2,0.8,2,2v0.3h-1.1V3.3c0-0.6-0.4-0.9-0.9-0.9
		c-0.5,0-0.9,0.3-0.9,0.9V9.7z"/>
	<path fill="#FFFFFF" d="M30,1.4v4.4h1.8V1.4H33v10.2h-1.2V7H30v4.6h-1.2V1.4H30z"/>
	<path fill="#FFFFFF" d="M37.4,1.4v1.2h-1.1v9H35v-9h-1.1V1.4H37.4z"/>
	<path fill="#FFFFFF" d="M42.1,3.2v0.4H41V3.3c0-0.6-0.3-1-0.9-1c-0.6,0-0.9,0.5-0.9,1.1c0,0.5,0.2,0.9,0.5,1.4
		c0.5,0.6,1.4,1.8,1.9,2.6c0.4,0.6,0.6,1.2,0.6,1.9c0,1.5-0.6,2.4-2,2.4c-1.3,0-2.1-0.9-2.1-2V9.2l1.1,0.3v0.2c0,0.5,0.4,0.9,1,0.9
		c0.7,0,1-0.4,1-1.2C41,9,40.9,8.5,40.5,8c-0.4-0.6-1.2-1.5-1.7-2.3C38.2,4.8,38,4.1,38,3.4c0-1.4,0.8-2.2,2.1-2.2
		C41.3,1.2,42.1,2,42.1,3.2z"/>
	<path fill="#FFFFFF" d="M47.6,1.4c1.2,0,2,0.8,2,2v1.4c0,0.8-0.2,1.2-0.7,1.4c0.5,0.2,0.8,0.6,0.8,1.5v3.8h-1.2V7.7
		c0-0.6-0.2-0.9-0.9-0.9h-0.9v4.7h-1.2V1.4H47.6z M46.7,5.8h0.8c0.7,0,0.9-0.3,0.9-0.9V3.6c0-0.7-0.3-1-0.9-1h-0.8V5.8z"/>
	<path fill="#FFFFFF" d="M54.2,1.4v1.2H52v3.2h1.5v1.2H52v3.5h2.2v1.2h-3.4V1.4H54.2z"/>
	<path fill="#FFFFFF" d="M59,3.2v0.4h-1.1V3.3c0-0.6-0.3-1-0.9-1c-0.6,0-0.9,0.5-0.9,1.1c0,0.5,0.2,0.9,0.5,1.4
		c0.5,0.6,1.4,1.8,1.9,2.6C58.9,8.1,59,8.6,59,9.3c0,1.5-0.6,2.4-2,2.4c-1.3,0-2.1-0.9-2.1-2V9.2L56,9.5v0.2c0,0.5,0.4,0.9,1,0.9
		c0.6,0,1-0.4,1-1.2c0-0.5-0.1-0.9-0.5-1.5c-0.4-0.6-1.2-1.5-1.7-2.3c-0.6-0.9-0.8-1.6-0.8-2.3c0-1.4,0.8-2.2,2.1-2.2
		C58.2,1.2,59,2,59,3.2z"/>
	<path fill="#FFFFFF" d="M63.4,1.4v1.2h-2.2v3.2h1.5v1.2h-1.5v3.5h2.2v1.2H60V1.4H63.4z"/>
	<path fill="#FFFFFF" d="M66.4,1.4c1.2,0,2,0.8,2,2v1.4c0,0.8-0.2,1.2-0.7,1.4c0.5,0.2,0.8,0.6,0.8,1.5v3.8h-1.2V7.7
		c0-0.6-0.2-0.9-0.9-0.9h-0.9v4.7h-1.2V1.4H66.4z M65.5,5.8h0.8c0.7,0,0.9-0.3,0.9-0.9V3.6c0-0.7-0.3-1-0.9-1h-0.8V5.8z"/>
	<path fill="#FFFFFF" d="M70.4,1.4L71.6,9l1.2-7.6h1.2l-1.8,10.2H71L69.2,1.4H70.4z"/>
	<path fill="#FFFFFF" d="M78.1,1.4v1.2h-2.2v3.2h1.5v1.2h-1.5v3.5h2.2v1.2h-3.4V1.4H78.1z"/>
	<path fill="#FFFFFF" d="M81.2,1.4c1.2,0,2,0.8,2,2.3v5.5c0,1.6-0.8,2.3-2,2.3h-2.1V1.4H81.2z M80.3,10.4h0.8c0.6,0,0.9-0.4,0.9-1.1
		V3.7c0-0.7-0.3-1.1-0.9-1.1h-0.8V10.4z"/>
	<path fill="#FFFFFF" d="M85.5,10.9c0,0.4-0.2,0.7-0.7,0.7c-0.4,0-0.7-0.3-0.7-0.7c0-0.4,0.2-0.7,0.7-0.7
		C85.2,10.2,85.5,10.5,85.5,10.9z"/>
</g>
</svg>
