<?xml version="1.0" encoding="utf-8"?>
<!-- Generator: Adobe Illustrator 18.1.1, SVG Export Plug-In . SVG Version: 6.00 Build 0)  -->
<!DOCTYPE svg PUBLIC "-//W3C//DTD SVG 1.1//EN" "http://www.w3.org/Graphics/SVG/1.1/DTD/svg11.dtd">
<svg version="1.1" id="Layer_1" xmlns="http://www.w3.org/2000/svg" xmlns:xlink="http://www.w3.org/1999/xlink" x="0px" y="0px"
	 viewBox="0 0 147.1 739.7" enable-background="new 0 0 147.1 739.7" xml:space="preserve">
<g>
	<path fill="#FFFFFF" d="M130,88.7h0.7v2.2h-0.5c-1.2,0-1.9,0.6-1.9,1.8c0,1.3,1,1.9,2.2,1.9c1,0,1.8-0.4,2.8-1.1
		c1.3-0.9,3.7-2.8,5.2-3.8c1.3-0.8,2.3-1.1,3.8-1.1c3,0,4.9,1.3,4.9,4.1c0,2.7-1.8,4.3-4,4.3h-1.1l0.6-2.2h0.5c1,0,1.8-0.7,1.8-1.9
		c0-1.3-0.9-2-2.4-2c-0.9,0-1.9,0.3-3,1c-1.2,0.8-3,2.4-4.5,3.4c-1.8,1.2-3.2,1.5-4.5,1.5c-2.7,0-4.4-1.6-4.4-4.1
		C126,90.2,127.6,88.7,130,88.7z"/>
	<path fill="#FFFFFF" d="M126.4,80.3h2.3v2.3h18V85h-18v2.3h-2.3V80.3z"/>
	<path fill="#FFFFFF" d="M126.4,76.3H143c1.2,0,1.8-0.8,1.8-1.8c0-1.1-0.6-1.8-1.8-1.8h-16.6v-2.3H143c2.5,0,4.1,1.8,4.1,4.2
		c0,2.3-1.5,4.2-4.1,4.2h-16.6V76.3z"/>
	<path fill="#FFFFFF" d="M126.4,63.7c0-2.5,1.5-4.1,4.7-4.1h11c3.2,0,4.7,1.6,4.7,4.1V68h-20.4V63.7z M144.4,65.6v-1.6
		c0-1.3-0.7-1.9-2.2-1.9h-11.3c-1.5,0-2.2,0.6-2.2,1.9v1.6H144.4z"/>
	<path fill="#FFFFFF" d="M126.4,55h20.4v2.4h-20.4V55z"/>
	<path fill="#FFFFFF" d="M143,44.4c2.5,0,4.1,1.9,4.1,4.2c0,2.3-1.5,4.2-4.1,4.2h-12.9c-2.5,0-4.1-1.8-4.1-4.2
		c0-2.3,1.5-4.2,4.1-4.2H143z M143,50.4c1.2,0,1.8-0.8,1.8-1.8c0-1.1-0.6-1.8-1.8-1.8h-12.9c-1.2,0-1.8,0.8-1.8,1.8
		c0,1.1,0.6,1.8,1.8,1.8H143z"/>
	<path fill="#FFFFFF" d="M130,34.4h0.7v2.2h-0.5c-1.2,0-1.9,0.6-1.9,1.8c0,1.3,1,1.9,2.2,1.9c1,0,1.8-0.4,2.8-1.1
		c1.3-0.9,3.7-2.8,5.2-3.8c1.3-0.8,2.3-1.1,3.8-1.1c3,0,4.9,1.3,4.9,4.1c0,2.7-1.8,4.3-4,4.3h-1.1l0.6-2.2h0.5c1,0,1.8-0.7,1.8-1.9
		c0-1.3-0.9-2-2.4-2c-0.9,0-1.9,0.3-3,1c-1.2,0.8-3,2.4-4.5,3.4c-1.8,1.2-3.2,1.5-4.5,1.5c-2.7,0-4.4-1.6-4.4-4.1
		C126,35.9,127.6,34.4,130,34.4z"/>
	<path fill="#FFFFFF" d="M126.4,25.1h20.4v2.4h-20.4V25.1z"/>
	<path fill="#FFFFFF" d="M126.4,20.1l14-3.5h-14v-2.1h20.4v2.1l-15,3.9h15v2.1h-20.4V20.1z"/>
	<path fill="#FFFFFF" d="M143,10c1.2,0,1.8-0.7,1.8-1.7s-0.6-1.8-1.8-1.8h-0.4l-0.6-2.2h1c2.5,0,4,1.8,4,4.1c0,2.2-1.5,4-4,4h-13
		c-2.5,0-4-1.7-4-4.1s1.5-4,4-4h0.7v2.2h-0.6c-1.2,0-1.8,0.7-1.8,1.7c0,1.1,0.6,1.8,1.8,1.8H143z"/>
	<path fill="#FFFFFF" d="M145.4,0.1c0.8,0,1.4,0.4,1.4,1.4c0,0.9-0.7,1.3-1.4,1.3c-0.8,0-1.4-0.4-1.4-1.3
		C144,0.6,144.6,0.1,145.4,0.1z"/>
</g>
<g>
	<g>
		<path fill="#FFFFFF" d="M2.1,551.4c0-13.2,8-21.5,24.8-21.5h58.4c16.8,0,24.8,8.3,24.8,21.5v22.4H2.1V551.4z M97.9,561.1v-8.7
			c0-6.8-3.9-9.9-11.7-9.9h-60c-7.9,0-11.7,3.2-11.7,9.9v8.7H97.9z"/>
		<path fill="#FFFFFF" d="M2.1,506.9L87.8,490L2.1,472.2v-12.7h108.1v11.3H40.5l69.7,13.2v11.7l-70.7,13.5h70.7v11.3H2.1V506.9z"/>
		<path fill="#FFFFFF" d="M2.1,436.9h108.1v12.7H2.1V436.9z"/>
		<path fill="#FFFFFF" d="M2.1,393.6h12.3v12.1h95.8v12.7H14.4v12.1H2.1V393.6z"/>
		<path fill="#FFFFFF" d="M90.4,320.6c13.5,0,21.7,9.9,21.7,22.2c0,12.4-8.1,22.2-21.7,22.2H21.9c-13.5,0-21.7-9.8-21.7-22.2
			c0-12.3,8.1-22.2,21.7-22.2H90.4z M90.3,352.4c6.2,0,9.5-4,9.5-9.7c0-5.7-3.3-9.7-9.5-9.7H22c-6.2,0-9.5,4-9.5,9.7
			c0,5.7,3.3,9.7,9.5,9.7H90.3z"/>
		<path fill="#FFFFFF" d="M2.1,297.5l74.5-18.4H2.1v-11h108.1v11.3l-79.5,20.8h79.5v11H2.1V297.5z"/>
		<path fill="#FFFFFF" d="M2.1,245.5h95.8v-20.3h12.3v33H2.1V245.5z"/>
		<path fill="#FFFFFF" d="M2.1,210.6l42-13.9l-42-14.2v-12.3l57.5,20.3h50.5v12.7H59.7L2.1,223.4V210.6z"/>
		<path fill="#FFFFFF" d="M90.4,98.1c13.5,0,21.7,9.9,21.7,22.2c0,12.4-8.1,22.2-21.7,22.2H21.9c-13.5,0-21.7-9.8-21.7-22.2
			c0-12.3,8.1-22.2,21.7-22.2H90.4z M90.3,130c6.2,0,9.5-4,9.5-9.7c0-5.7-3.3-9.7-9.5-9.7H22c-6.2,0-9.5,4-9.5,9.7
			c0,5.7,3.3,9.7,9.5,9.7H90.3z"/>
		<path fill="#FFFFFF" d="M2.1,75.1l74.5-18.4H2.1v-11h108.1V57L30.7,77.8h79.5v11H2.1V75.1z"/>
		<path fill="#FFFFFF" d="M2.1,0h12.3v23h33.9V6.8h12.3V23h37.3V0h12.3v35.7H2.1V0z"/>
	</g>
	<g>
		<polygon fill="#FFFFFF" points="40.8,625.5 0,650.9 0,652.4 0,669.3 0,670.8 40.8,696.3 110.3,739.7 110.3,704.7 22.4,668.9 
			22.4,652.9 110.3,617.1 110.3,582.1 		"/>
	</g>
	<path fill="#FFFFFF" d="M51.5,660.9c0,9.9,8.1,18,18,18c9.9,0,18-8.1,18-18c0-9.9-8.1-18-18-18C59.6,642.8,51.5,650.9,51.5,660.9z"
		/>
</g>
</svg>
