<?xml version="1.0" encoding="utf-8"?>
<!-- Generator: Adobe Illustrator 18.1.1, SVG Export Plug-In . SVG Version: 6.00 Build 0)  -->
<!DOCTYPE svg PUBLIC "-//W3C//DTD SVG 1.1//EN" "http://www.w3.org/Graphics/SVG/1.1/DTD/svg11.dtd">
<svg version="1.1" id="Layer_1" xmlns="http://www.w3.org/2000/svg" xmlns:xlink="http://www.w3.org/1999/xlink" x="0px" y="0px"
	 viewBox="0 0 279.1 290" enable-background="new 0 0 279.1 290" xml:space="preserve">
<g>
	<path fill="#FFFFFF" d="M154.9,255.3c0,8.5-6.9,15.4-15.4,15.4c-8.5,0-15.4-6.9-15.4-15.4c0-8.5,6.9-15.4,15.4-15.4
		C148,239.9,154.9,246.8,154.9,255.3z M231.9,142.1c-6.1-8.5-20.3-26-41.1-38.8c6,9.4,9.4,20.5,9.4,32.5c0,14-4.8,26.9-12.7,37.2
		C202.9,166,217.7,155.7,231.9,142.1z M78.8,135.8c0-12,3.5-23.1,9.5-32.6c-20.9,12.8-35.1,30.4-41.1,38.9
		c14.2,13.6,29.1,23.9,44.4,30.8C83.5,162.6,78.8,149.7,78.8,135.8z M279.1,139.5l-91.2,91.2l59.3,59.3h-47.8l-48.9-74.9h-21.9
		L79.7,290H31.9l59.3-59.3L0,139.5l14.5-14.5c5.5,7.1,12.3,15.2,20.4,23.3c28.3,28.2,60.3,44.5,93.1,47.6v-13.9
		c-20.7-5.2-36.2-24-36.2-46.3c0-26.3,21.4-47.7,47.7-47.7c26.3,0,47.7,21.4,47.7,47.7c0,22.3-15.4,41.1-36.2,46.3V196
		c32.8-3.1,64.8-19.4,93.1-47.6c8.1-8.1,14.9-16.1,20.4-23.3L279.1,139.5z M166,135.8c0-14.6-11.8-26.4-26.4-26.4
		c-14.6,0-26.4,11.8-26.4,26.4c0,14.6,11.8,26.4,26.4,26.4C154.1,162.2,166,150.4,166,135.8z M60.5,107.8
		c23.9-21.4,51.2-32.8,79-32.8c27.8,0,55.1,11.3,79,32.8c10.4,9.3,18,18.6,22.6,24.9c5.4-5.9,10.1-11.7,14.1-16.9L139.5,0
		L23.8,115.7c3.9,5.2,8.6,11,14.1,16.9C42.5,126.4,50.1,117.1,60.5,107.8z"/>
	<g>
		<g>
			<path fill-rule="evenodd" clip-rule="evenodd" fill="#FFFFFF" d="M261.1,275.3c4,0,7.3,3.3,7.3,7.3c0,4-3.3,7.3-7.3,7.3
				c-4,0-7.3-3.3-7.3-7.3C253.8,278.6,257.1,275.3,261.1,275.3z M266.9,282.6c0-3.2-2.6-5.8-5.8-5.8c-3.2,0-5.8,2.6-5.8,5.8
				c0,3.2,2.6,5.8,5.8,5.8C264.3,288.4,266.9,285.8,266.9,282.6z"/>
			<path fill-rule="evenodd" clip-rule="evenodd" fill="#FFFFFF" d="M259.9,286.2c-0.7,0-1.3,0-2,0c0-2.5,0-5.1,0-7.6c0,0,0,0,0,0
				c1.1,0,2.1,0,3.2,0c0.4,0,0.9,0,1.3,0.2c0.2,0.1,0.5,0.2,0.7,0.3c0.3,0.2,0.5,0.5,0.6,0.9c0.1,0.5,0.1,1,0,1.4
				c-0.1,0.4-0.4,0.7-0.7,1c-0.2,0.1-0.4,0.2-0.6,0.3c0,0,0,0,0,0c0,0,0,0,0,0c0.3,0.1,0.6,0.3,0.8,0.5c0.2,0.3,0.4,0.5,0.5,0.8
				c0.4,0.7,0.7,1.5,1.1,2.2c0,0,0,0,0,0c0,0,0,0,0,0c-0.7,0-1.3,0-2,0c0,0,0,0-0.1,0c-0.3-0.6-0.6-1.3-0.9-1.9
				c-0.1-0.2-0.2-0.4-0.3-0.5c-0.2-0.2-0.4-0.4-0.7-0.4c-0.2,0-0.4,0-0.6,0c-0.1,0-0.1,0-0.2,0C259.9,284.3,259.9,285.3,259.9,286.2
				z M259.9,282C259.9,282,259.9,282,259.9,282c0.3,0,0.6,0,0.9,0c0.2,0,0.3,0,0.5-0.1c0.3-0.1,0.5-0.2,0.5-0.5
				c0.1-0.3,0.1-0.5,0-0.8c-0.1-0.3-0.2-0.4-0.5-0.5c-0.2-0.1-0.4-0.1-0.5-0.1c-0.3,0-0.6,0-0.8,0c0,0,0,0,0,0
				C259.9,280.7,259.9,281.3,259.9,282z"/>
		</g>
	</g>
</g>
</svg>
