<?xml version="1.0" encoding="utf-8"?>
<!-- Generator: Adobe Illustrator 18.1.1, SVG Export Plug-In . SVG Version: 6.00 Build 0)  -->
<!DOCTYPE svg PUBLIC "-//W3C//DTD SVG 1.1//EN" "http://www.w3.org/Graphics/SVG/1.1/DTD/svg11.dtd">
<svg version="1.1" id="Layer_1" xmlns="http://www.w3.org/2000/svg" xmlns:xlink="http://www.w3.org/1999/xlink" x="0px" y="0px"
	 viewBox="0 0 156.1 18.1" enable-background="new 0 0 156.1 18.1" xml:space="preserve">
<g>
	<g>
		<path fill="#FFFFFF" d="M1.6,12.1c0,0.8,0.5,1.2,1.2,1.2c0.7,0,1.2-0.4,1.2-1.2v-0.3l1.5-0.4v0.7c0,1.7-1.3,2.8-2.8,2.8
			c-1.5,0-2.8-1.1-2.8-2.8v-9c0-1.7,1.2-2.8,2.9-2.8c1.7,0,2.7,1.1,2.7,2.8v0.5H4.1V3.2c0-0.8-0.5-1.2-1.2-1.2
			c-0.8,0-1.2,0.4-1.2,1.2V12.1z"/>
		<path fill="#FFFFFF" d="M11.9,12.2c0,1.7-1.2,2.7-2.7,2.7c-1.5,0-2.7-1-2.7-2.7v-6c0-1.7,1.2-2.7,2.7-2.7c1.5,0,2.7,1,2.7,2.7
			V12.2z M8,12.1c0,0.8,0.5,1.2,1.2,1.2c0.7,0,1.2-0.4,1.2-1.2V6.3c0-0.8-0.5-1.2-1.2-1.2C8.5,5.1,8,5.5,8,6.3V12.1z"/>
		<path fill="#FFFFFF" d="M14.2,3.7l0.3,0.6c0.6-0.5,1.3-0.8,2-0.8c1.3,0,2.3,0.9,2.3,2.7v8.5h-1.6V6.5c0-0.9-0.3-1.4-1.2-1.4
			c-0.5,0-0.9,0.2-1.3,0.6v9h-1.6v-11H14.2z"/>
		<path fill="#FFFFFF" d="M20.6,3.7V1.7l1.5-0.6v2.6H24V5h-1.8V12c0,0.8,0.5,1.3,1.2,1.3c0.3,0,0.5-0.1,0.8-0.3l0.4,1.4
			c-0.4,0.3-0.9,0.4-1.5,0.4c-1.7,0-2.5-1.3-2.5-2.8V5h-1.2V3.7H20.6z"/>
		<path fill="#FFFFFF" d="M25.3,4.8c0.5-0.8,1.5-1.2,2.6-1.2c1.7,0,2.6,1.2,2.6,3v8.2h-1l-0.3-0.6c-0.5,0.5-1.3,0.8-2,0.8
			c-1.2,0-2.3-0.8-2.3-2.8c0-1.6,0.7-2.6,2.3-3.8c0.5-0.4,1.2-0.8,1.9-1.2V6.6C29,5.6,28.6,5,27.7,5c-0.6,0-1.2,0.3-1.5,0.8
			L25.3,4.8z M29,12.7V8.4c-0.4,0.3-0.8,0.5-1.1,0.7c-1.1,0.9-1.5,1.7-1.5,2.6c0,1.1,0.5,1.6,1.2,1.6C28.2,13.3,28.6,13.1,29,12.7z"
			/>
		<path fill="#FFFFFF" d="M33.2,12.1c0,0.8,0.5,1.2,1.2,1.2c0.7,0,1.2-0.4,1.2-1.2v-0.7L37,11v1.1c0,1.7-1.2,2.7-2.7,2.7
			c-1.5,0-2.6-1-2.6-2.7v-6c0-1.7,1.2-2.7,2.6-2.7c1.5,0,2.7,1,2.7,2.7v0.5h-1.5V6.3c0-0.8-0.5-1.2-1.2-1.2c-0.7,0-1.2,0.4-1.2,1.2
			V12.1z"/>
		<path fill="#FFFFFF" d="M38.6,3.7V1.7l1.5-0.6v2.6H42V5h-1.8V12c0,0.8,0.5,1.3,1.2,1.3c0.3,0,0.5-0.1,0.8-0.3l0.4,1.4
			c-0.4,0.3-0.9,0.4-1.5,0.4c-1.7,0-2.5-1.3-2.5-2.8V5h-1.2V3.7H38.6z"/>
		<path fill="#FFFFFF" d="M50.7,6v6.3c0,0.5,0.1,0.7,0.7,0.7c1.3,0,1.9-1.6,1.9-4.2c0-4-1.4-5.9-4.1-5.9C45.8,3,44,5.8,44,9.9
			c0,4.1,1.8,6.2,3.5,7.2l-0.5,1c-2-1.2-4-3.4-4-8.2c0-4.7,1.9-8,6.2-8c3.6,0,5,2.3,5,6.6c0,3.4-0.9,5.4-2.9,5.4
			c-0.7,0-1.2-0.3-1.5-0.8c-0.4,0.5-0.9,0.8-1.5,0.8c-0.8,0-1.5-0.6-1.5-1.8V8.1c0-1.2,0.7-1.8,1.5-1.8c0.5,0,1,0.2,1.4,0.6V6.3
			L50.7,6z M47.8,12.1c0,0.6,0.1,0.9,0.7,0.9c0.5,0,0.8-0.2,1.1-0.6V7.9c-0.3-0.4-0.7-0.7-1.2-0.7c-0.5,0-0.7,0.4-0.7,0.9V12.1z"/>
		<path fill="#FFFFFF" d="M58.8,0.6l2.4,14.1h-1.6l-0.3-2h-2.6l-0.3,2h-1.6l2.4-14.1H58.8z M56.9,11.3h2.2l-1.1-7.1L56.9,11.3z"/>
		<path fill="#FFFFFF" d="M67.5,0v14.7h-1.1L66.2,14c-0.6,0.5-1.3,0.8-2,0.8c-1.2,0-2.3-0.9-2.3-2.7v-6c0-1.8,1.1-2.7,2.3-2.7
			c0.6,0,1.2,0.2,1.8,0.6V0.4L67.5,0z M63.5,11.8c0,0.9,0.3,1.4,1.1,1.4c0.5,0,0.9-0.2,1.3-0.6V5.7c-0.4-0.4-0.8-0.6-1.3-0.6
			c-0.8,0-1.1,0.5-1.1,1.4V11.8z"/>
		<path fill="#FFFFFF" d="M69.9,3.7l0.3,0.6c0.5-0.5,1.2-0.8,1.9-0.8c0.7,0,1.4,0.3,1.8,1c0.6-0.6,1.3-1,2.1-1
			c1.2,0,2.3,0.9,2.3,2.7v8.5h-1.6V6.5c0-0.9-0.3-1.4-1.1-1.4c-0.5,0-0.8,0.2-1.2,0.6c0,0.2,0,0.3,0,0.5v8.5h-1.6V6.5
			c0-0.9-0.3-1.4-1.1-1.4c-0.4,0-0.8,0.2-1.2,0.5v9h-1.6v-11H69.9z"/>
		<path fill="#FFFFFF" d="M81.2,1.1c0,0.6-0.3,1-1,1c-0.6,0-0.9-0.5-0.9-1c0-0.5,0.3-1,0.9-1C80.9,0.2,81.2,0.6,81.2,1.1z M81.1,3.7
			v11h-1.6v-11H81.1z"/>
		<path fill="#FFFFFF" d="M82.9,3.7V1.7l1.5-0.6v2.6h1.8V5h-1.8V12c0,0.8,0.5,1.3,1.2,1.3c0.3,0,0.5-0.1,0.8-0.3l0.4,1.4
			c-0.4,0.3-0.9,0.4-1.5,0.4c-1.7,0-2.5-1.3-2.5-2.8V5h-1.2V3.7H82.9z"/>
		<path fill="#FFFFFF" d="M93.3,12.1c0,1.8-1.3,2.8-2.9,2.8c-1.6,0-2.9-1.1-2.9-2.8V3.2c0-1.8,1.3-2.8,2.9-2.8
			c1.6,0,2.9,1.1,2.9,2.8V12.1z M89.1,12.1c0,0.8,0.5,1.2,1.3,1.2s1.3-0.4,1.3-1.2V3.2c0-0.8-0.5-1.2-1.3-1.2s-1.3,0.4-1.3,1.2V12.1
			z"/>
		<path fill="#FFFFFF" d="M95.6,3.7l0.3,0.6c0.6-0.5,1.3-0.8,2-0.8c1.3,0,2.3,0.9,2.3,2.7v8.5h-1.6V6.5c0-0.9-0.3-1.4-1.2-1.4
			c-0.5,0-0.9,0.2-1.3,0.6v9h-1.6v-11H95.6z"/>
		<path fill="#FFFFFF" d="M103,0v14.7h-1.6V0.4L103,0z"/>
		<path fill="#FFFFFF" d="M109.8,3.7v14.1h-1.6v-3.7c-0.5,0.4-1.1,0.6-1.7,0.6c-1.2,0-2.3-0.9-2.3-2.7V3.7h1.6v8
			c0,1,0.4,1.4,1.1,1.4c0.4,0,0.8-0.2,1.2-0.6V3.7H109.8z"/>
		<path fill="#FFFFFF" d="M116.8,12.1c0,1.8-1.3,2.8-2.9,2.8c-1.6,0-2.9-1.1-2.9-2.8V3.2c0-1.8,1.3-2.8,2.9-2.8
			c1.6,0,2.9,1.1,2.9,2.8V12.1z M112.6,12.1c0,0.8,0.5,1.2,1.3,1.2s1.3-0.4,1.3-1.2V3.2c0-0.8-0.5-1.2-1.3-1.2s-1.3,0.4-1.3,1.2
			V12.1z"/>
		<path fill="#FFFFFF" d="M119.1,3.7l0.3,0.6c0.6-0.5,1.3-0.8,2-0.8c1.3,0,2.3,0.9,2.3,2.7v8.5H122V6.5c0-0.9-0.3-1.4-1.2-1.4
			c-0.5,0-0.9,0.2-1.3,0.6v9H118v-11H119.1z"/>
		<path fill="#FFFFFF" d="M126.3,11.2v0.9c0,0.8,0.5,1.2,1.2,1.2c0.7,0,1.2-0.4,1.2-1.2v-0.7l1.5-0.4v1.1c0,1.7-1.2,2.7-2.7,2.7
			c-1.5,0-2.6-1-2.6-2.7v-6c0-1.7,1.2-2.7,2.7-2.7c1.3,0,2.7,0.7,2.7,2.9c0,1.3-0.5,2.3-1.8,3.3C127.9,10.2,127.2,10.7,126.3,11.2z
			 M126.3,9.7c0.5-0.3,1-0.7,1.2-0.9c0.7-0.7,1-1.3,1-2.2c0-1.1-0.5-1.5-1.2-1.5c-0.7,0-1.1,0.5-1.1,1.3V9.7z"/>
		<path fill="#FFFFFF" d="M132.8,13.7c0,0.5-0.3,1-1,1c-0.6,0-0.9-0.5-0.9-1c0-0.6,0.3-1,0.9-1C132.5,12.7,132.8,13.2,132.8,13.7z"
			/>
		<path fill="#FFFFFF" d="M135.3,12.1c0,0.8,0.5,1.2,1.2,1.2c0.7,0,1.2-0.4,1.2-1.2v-0.7L139,11v1.1c0,1.7-1.2,2.7-2.7,2.7
			c-1.5,0-2.6-1-2.6-2.7v-6c0-1.7,1.2-2.7,2.6-2.7c1.5,0,2.7,1,2.7,2.7v0.5h-1.5V6.3c0-0.8-0.5-1.2-1.2-1.2c-0.7,0-1.2,0.4-1.2,1.2
			V12.1z"/>
		<path fill="#FFFFFF" d="M145.5,12.2c0,1.7-1.2,2.7-2.7,2.7c-1.5,0-2.7-1-2.7-2.7v-6c0-1.7,1.2-2.7,2.7-2.7c1.5,0,2.7,1,2.7,2.7
			V12.2z M141.6,12.1c0,0.8,0.5,1.2,1.2,1.2c0.7,0,1.2-0.4,1.2-1.2V6.3c0-0.8-0.5-1.2-1.2-1.2c-0.7,0-1.2,0.4-1.2,1.2V12.1z"/>
		<path fill="#FFFFFF" d="M147.8,3.7l0.3,0.6c0.5-0.5,1.2-0.8,1.9-0.8c0.7,0,1.4,0.3,1.8,1c0.6-0.6,1.3-1,2.1-1
			c1.2,0,2.3,0.9,2.3,2.7v8.5h-1.6V6.5c0-0.9-0.3-1.4-1.1-1.4c-0.5,0-0.8,0.2-1.2,0.6c0,0.2,0,0.3,0,0.5v8.5h-1.6V6.5
			c0-0.9-0.3-1.4-1.1-1.4c-0.4,0-0.8,0.2-1.2,0.5v9h-1.6v-11H147.8z"/>
	</g>
</g>
</svg>
