<?xml version="1.0" encoding="utf-8"?>
<!-- Generator: Adobe Illustrator 18.1.1, SVG Export Plug-In . SVG Version: 6.00 Build 0)  -->
<!DOCTYPE svg PUBLIC "-//W3C//DTD SVG 1.1//EN" "http://www.w3.org/Graphics/SVG/1.1/DTD/svg11.dtd">
<svg version="1.1" id="Layer_1" xmlns="http://www.w3.org/2000/svg" xmlns:xlink="http://www.w3.org/1999/xlink" x="0px" y="0px"
	 viewBox="0 0 154.7 82.1" enable-background="new 0 0 154.7 82.1" xml:space="preserve">
<rect x="121.3" y="67.4" width="4" height="14.5"/>
<g>
	<path d="M1.4,8.7c0,0.6,0.4,0.9,0.9,0.9c0.5,0,0.9-0.3,0.9-0.9V8.5l1.1-0.3v0.5c0,1.2-0.9,2-2,2c-1.1,0-2-0.8-2-2V2.2
		c0-1.2,0.9-2,2.1-2c1.2,0,2,0.8,2,2v0.3H3.1V2.3c0-0.6-0.3-0.9-0.9-0.9c-0.5,0-0.9,0.3-0.9,0.9V8.7z"/>
	<path d="M5.3,3.4c0.4-0.6,1.1-0.9,1.8-0.9C8.4,2.5,9,3.4,9,4.7v5.9H8.3l-0.2-0.4c-0.4,0.3-0.9,0.5-1.5,0.5C5.8,10.7,5,10.2,5,8.6
		c0-1.2,0.5-1.9,1.6-2.8C7,5.6,7.4,5.3,7.9,5V4.7c0-0.7-0.3-1.1-0.9-1.1c-0.4,0-0.8,0.2-1.1,0.6L5.3,3.4z M7.9,9.2V6.1
		C7.6,6.3,7.4,6.4,7.2,6.6C6.3,7.3,6.1,7.8,6.1,8.5c0,0.8,0.3,1.1,0.9,1.1C7.3,9.6,7.6,9.4,7.9,9.2z"/>
	<path d="M13.9,4.3v0.5h-1.1V4.4c0-0.5-0.3-0.8-0.9-0.8c-0.6,0-0.9,0.3-0.9,0.8c0,0.3,0.1,0.5,0.5,1c0.5,0.5,1.4,1.2,1.8,1.8
		C13.8,7.7,14,8.2,14,8.7c0,1.2-0.6,2-2,2c-1.3,0-2-0.7-2-1.8V8L11,8.2v0.5c0,0.5,0.3,0.8,1,0.8c0.6,0,0.9-0.3,0.9-0.9
		c0-0.4-0.1-0.6-0.5-1c-0.6-0.7-1.4-1.2-1.8-1.8C10.2,5.4,10,4.8,10,4.3c0-1.2,0.8-1.8,2-1.8C13.4,2.5,13.9,3.3,13.9,4.3z"/>
	<path d="M15,3.4c0.4-0.6,1.1-0.9,1.8-0.9c1.3,0,1.9,0.9,1.9,2.2v5.9H18l-0.2-0.4c-0.4,0.3-0.9,0.5-1.5,0.5c-0.9,0-1.7-0.5-1.7-2.1
		c0-1.2,0.5-1.9,1.6-2.8c0.4-0.3,0.8-0.6,1.3-0.9V4.7c0-0.7-0.3-1.1-0.9-1.1c-0.4,0-0.8,0.2-1.1,0.6L15,3.4z M17.7,9.2V6.1
		c-0.3,0.2-0.5,0.4-0.8,0.5c-0.8,0.6-1.1,1.2-1.1,1.9c0,0.8,0.3,1.1,0.9,1.1C17.1,9.6,17.4,9.4,17.7,9.2z"/>
	<path d="M25.9,0.4v1.2h-2.3v3.5h1.7v1.2h-1.7v4.3h-1.2V0.4H25.9z"/>
	<path d="M30.6,8.8c0,1.2-0.9,1.9-2,1.9c-1.1,0-2-0.7-2-1.9V4.5c0-1.2,0.9-1.9,2-1.9c1.1,0,2,0.7,2,1.9V8.8z M27.8,8.7
		c0,0.5,0.4,0.8,0.9,0.8s0.8-0.3,0.8-0.8V4.5c0-0.5-0.4-0.8-0.8-0.8S27.8,4,27.8,4.5V8.7z"/>
	<path d="M32.5,2.7l0.2,0.5c0.4-0.4,0.9-0.6,1.4-0.6c0.9,0,1.7,0.6,1.7,1.9v6.1h-1.2V4.7c0-0.7-0.2-1-0.8-1c-0.3,0-0.6,0.1-0.9,0.4
		v6.5h-1.2V2.7H32.5z"/>
	<path d="M41,0v10.6h-0.8L40,10.1c-0.4,0.4-0.9,0.6-1.4,0.6c-0.9,0-1.6-0.6-1.6-1.9V4.5c0-1.3,0.8-1.9,1.6-1.9
		c0.5,0,0.9,0.2,1.3,0.5V0.3L41,0z M38.1,8.5c0,0.7,0.2,1,0.8,1c0.4,0,0.7-0.2,0.9-0.5v-5c-0.3-0.3-0.6-0.5-0.9-0.5
		c-0.6,0-0.8,0.4-0.8,1V8.5z"/>
	<path d="M42.3,3.4c0.4-0.6,1.1-0.9,1.8-0.9c1.3,0,1.9,0.9,1.9,2.2v5.9h-0.7l-0.2-0.4c-0.4,0.3-0.9,0.5-1.5,0.5
		c-0.9,0-1.7-0.5-1.7-2.1c0-1.2,0.5-1.9,1.6-2.8c0.4-0.3,0.8-0.6,1.3-0.9V4.7c0-0.7-0.3-1.1-0.9-1.1c-0.4,0-0.8,0.2-1.1,0.6
		L42.3,3.4z M44.9,9.2V6.1c-0.3,0.2-0.5,0.4-0.8,0.5c-0.8,0.6-1.1,1.2-1.1,1.9c0,0.8,0.3,1.1,0.9,1.1C44.3,9.6,44.6,9.4,44.9,9.2z"
		/>
	<path d="M47.6,2.7V1.3l1.1-0.5v1.9H50v1h-1.3v5c0,0.6,0.3,1,0.8,1c0.2,0,0.4-0.1,0.6-0.2l0.3,1c-0.3,0.2-0.7,0.3-1.1,0.3
		c-1.2,0-1.8-0.9-1.8-2.1v-5h-0.9v-1H47.6z"/>
	<path d="M51.3,3.4c0.4-0.6,1.1-0.9,1.8-0.9c1.3,0,1.9,0.9,1.9,2.2v5.9h-0.7l-0.2-0.4c-0.4,0.3-0.9,0.5-1.5,0.5
		c-0.9,0-1.7-0.5-1.7-2.1c0-1.2,0.5-1.9,1.6-2.8c0.4-0.3,0.8-0.6,1.3-0.9V4.7c0-0.7-0.3-1.1-0.9-1.1c-0.4,0-0.8,0.2-1.1,0.6
		L51.3,3.4z M53.9,9.2V6.1c-0.3,0.2-0.5,0.4-0.8,0.5c-0.8,0.6-1.1,1.2-1.1,1.9c0,0.8,0.3,1.1,0.9,1.1C53.3,9.6,53.6,9.4,53.9,9.2z"
		/>
	<path d="M59.9,0.4l1.7,7v-7h1v10.2h-1.1l-2-7.5v7.5h-1V0.4H59.9z"/>
	<path d="M64.9,8.1v0.6c0,0.5,0.4,0.8,0.8,0.8c0.5,0,0.8-0.3,0.8-0.8V8.2L67.6,8v0.8c0,1.2-0.9,1.9-1.9,1.9c-1.1,0-1.9-0.7-1.9-1.9
		V4.5c0-1.2,0.8-1.9,1.9-1.9c0.9,0,2,0.5,2,2.1c0,1-0.4,1.7-1.3,2.4C66,7.3,65.5,7.7,64.9,8.1z M64.9,7c0.4-0.2,0.7-0.5,0.9-0.7
		c0.5-0.5,0.7-0.9,0.7-1.6c0-0.8-0.4-1.1-0.8-1.1c-0.5,0-0.8,0.3-0.8,0.9V7z"/>
	<path d="M69.9,0v10.6h-1.2V0.3L69.9,0z"/>
	<path d="M77.7,1.2C80,1.2,82,3.1,82,5.5S80,9.8,77.7,9.8c-2.4,0-4.3-1.9-4.3-4.3C73.4,3.1,75.3,1.2,77.7,1.2z"/>
	<path d="M91.2,0.4v1.2h-2.2v3.2h1.5v1.2h-1.5v3.5h2.2v1.2h-3.4V0.4H91.2z"/>
	<path d="M95.9,4.3v0.5h-1.1V4.4c0-0.5-0.3-0.8-0.9-0.8c-0.6,0-0.9,0.3-0.9,0.8c0,0.3,0.1,0.5,0.5,1c0.5,0.5,1.4,1.2,1.8,1.8
		C95.9,7.7,96,8.2,96,8.7c0,1.2-0.6,2-2,2c-1.3,0-2-0.7-2-1.8V8L93,8.2v0.5c0,0.5,0.3,0.8,1,0.8c0.6,0,0.9-0.3,0.9-0.9
		c0-0.4-0.1-0.6-0.5-1c-0.6-0.7-1.4-1.2-1.8-1.8C92.2,5.4,92,4.8,92,4.3c0-1.2,0.8-1.8,2-1.8C95.4,2.5,95.9,3.3,95.9,4.3z"/>
	<path d="M97.4,2.7V1.3l1.1-0.5v1.9h1.3v1h-1.3v5c0,0.6,0.3,1,0.8,1c0.2,0,0.4-0.1,0.6-0.2l0.3,1c-0.3,0.2-0.7,0.3-1.1,0.3
		c-1.2,0-1.8-0.9-1.8-2.1v-5h-0.9v-1H97.4z"/>
	<path d="M101,3.4c0.4-0.6,1.1-0.9,1.8-0.9c1.3,0,1.9,0.9,1.9,2.2v5.9H104l-0.2-0.4c-0.4,0.3-0.9,0.5-1.5,0.5
		c-0.9,0-1.7-0.5-1.7-2.1c0-1.2,0.5-1.9,1.6-2.8c0.4-0.3,0.8-0.6,1.3-0.9V4.7c0-0.7-0.3-1.1-0.9-1.1c-0.4,0-0.8,0.2-1.1,0.6L101,3.4
		z M103.7,9.2V6.1c-0.3,0.2-0.5,0.4-0.8,0.5c-0.8,0.6-1.1,1.2-1.1,1.9c0,0.8,0.3,1.1,0.9,1.1C103.1,9.6,103.4,9.4,103.7,9.2z"/>
	<path d="M107.1,0v3c0.4-0.3,0.8-0.5,1.3-0.5c0.9,0,1.6,0.6,1.6,1.9v4.3c0,1.3-0.8,1.9-1.6,1.9c-0.5,0-1.1-0.2-1.4-0.6l-0.2,0.5
		h-0.8V0.3L107.1,0z M107.1,4.1v5c0.3,0.3,0.6,0.5,0.9,0.5c0.6,0,0.8-0.4,0.8-1V4.7c0-0.7-0.2-1-0.8-1
		C107.7,3.7,107.4,3.8,107.1,4.1z"/>
	<path d="M112.2,0v10.6h-1.2V0.3L112.2,0z"/>
	<path d="M114.7,0.8c0,0.4-0.2,0.7-0.7,0.7c-0.4,0-0.7-0.3-0.7-0.7c0-0.4,0.2-0.7,0.7-0.7C114.5,0.1,114.7,0.4,114.7,0.8z
		 M114.6,2.7v7.9h-1.2V2.7H114.6z"/>
	<path d="M119.5,4.3v0.5h-1.1V4.4c0-0.5-0.3-0.8-0.9-0.8c-0.6,0-0.9,0.3-0.9,0.8c0,0.3,0.1,0.5,0.5,1c0.5,0.5,1.4,1.2,1.8,1.8
		c0.4,0.5,0.6,1.1,0.6,1.6c0,1.2-0.6,2-2,2c-1.3,0-2-0.7-2-1.8V8l1.1,0.3v0.5c0,0.5,0.3,0.8,1,0.8c0.6,0,0.9-0.3,0.9-0.9
		c0-0.4-0.1-0.6-0.5-1c-0.6-0.7-1.4-1.2-1.8-1.8c-0.5-0.6-0.6-1.1-0.6-1.6c0-1.2,0.8-1.8,2-1.8C118.9,2.5,119.5,3.3,119.5,4.3z"/>
	<path d="M121.7,0v3c0.4-0.3,0.8-0.4,1.2-0.4c0.9,0,1.7,0.6,1.7,1.9v6.1h-1.2V4.7c0-0.7-0.2-1-0.8-1c-0.3,0-0.6,0.1-0.9,0.4v6.5
		h-1.2V0.3L121.7,0z"/>
	<path d="M126.8,8.1v0.6c0,0.5,0.4,0.8,0.8,0.8c0.5,0,0.8-0.3,0.8-0.8V8.2l1.1-0.3v0.8c0,1.2-0.9,1.9-1.9,1.9
		c-1.1,0-1.9-0.7-1.9-1.9V4.5c0-1.2,0.8-1.9,1.9-1.9c0.9,0,2,0.5,2,2.1c0,1-0.4,1.7-1.3,2.4C127.9,7.3,127.4,7.7,126.8,8.1z
		 M126.8,7c0.4-0.2,0.7-0.5,0.9-0.7c0.5-0.5,0.7-0.9,0.7-1.6c0-0.8-0.4-1.1-0.8-1.1c-0.5,0-0.8,0.3-0.8,0.9V7z"/>
	<path d="M134.7,0v10.6h-0.8l-0.2-0.5c-0.4,0.4-0.9,0.6-1.4,0.6c-0.9,0-1.6-0.6-1.6-1.9V4.5c0-1.3,0.8-1.9,1.6-1.9
		c0.5,0,0.9,0.2,1.3,0.5V0.3L134.7,0z M131.7,8.5c0,0.7,0.2,1,0.8,1c0.4,0,0.7-0.2,0.9-0.5v-5c-0.3-0.3-0.6-0.5-0.9-0.5
		c-0.6,0-0.8,0.4-0.8,1V8.5z"/>
	<path d="M142.4,1.2c2.4,0,4.3,1.9,4.3,4.3s-1.9,4.3-4.3,4.3c-2.4,0-4.3-1.9-4.3-4.3C138.1,3.1,140.1,1.2,142.4,1.2z"/>
	<path d="M4.1,18.5v0.4H3v-0.3c0-0.6-0.3-1-0.9-1c-0.6,0-0.9,0.5-0.9,1.1c0,0.5,0.2,0.9,0.5,1.4c0.5,0.6,1.4,1.8,1.9,2.6
		c0.4,0.6,0.6,1.2,0.6,1.9c0,1.5-0.6,2.4-2,2.4C0.8,27,0,26.1,0,25v-0.5l1.1,0.3V25c0,0.5,0.4,0.9,1,0.9c0.7,0,1-0.4,1-1.2
		c0-0.5-0.1-0.9-0.5-1.5c-0.4-0.6-1.2-1.5-1.7-2.3c-0.6-0.9-0.8-1.6-0.8-2.3c0-1.4,0.8-2.2,2.1-2.2C3.4,16.5,4.1,17.3,4.1,18.5z"/>
	<path d="M9,25c0,1.2-0.9,1.9-2,1.9c-1.1,0-2-0.7-2-1.9v-4.3c0-1.2,0.9-1.9,2-1.9c1.1,0,2,0.7,2,1.9V25z M6.2,25
		c0,0.5,0.4,0.8,0.9,0.8s0.8-0.3,0.8-0.8v-4.2c0-0.5-0.4-0.8-0.8-0.8s-0.9,0.3-0.9,0.8V25z"/>
	<path d="M11.2,25c0,0.5,0.4,0.8,0.8,0.8c0.5,0,0.8-0.3,0.8-0.8v-0.5l1.1-0.3V25c0,1.2-0.9,1.9-1.9,1.9c-1.1,0-1.9-0.7-1.9-1.9v-4.3
		c0-1.2,0.8-1.9,1.9-1.9c1.1,0,1.9,0.7,1.9,1.9v0.3h-1.1v-0.3c0-0.5-0.4-0.8-0.8-0.8c-0.5,0-0.8,0.3-0.8,0.8V25z"/>
	<path d="M16.2,17.1c0,0.4-0.2,0.7-0.7,0.7c-0.4,0-0.7-0.3-0.7-0.7c0-0.4,0.2-0.7,0.7-0.7C16,16.4,16.2,16.7,16.2,17.1z M16.1,18.9
		v7.9H15v-7.9H16.1z"/>
	<path d="M18.4,24.3V25c0,0.5,0.4,0.8,0.8,0.8c0.5,0,0.8-0.3,0.8-0.8v-0.5l1.1-0.3V25c0,1.2-0.9,1.9-1.9,1.9c-1.1,0-1.9-0.7-1.9-1.9
		v-4.3c0-1.2,0.8-1.9,1.9-1.9c0.9,0,2,0.5,2,2.1c0,1-0.4,1.7-1.3,2.4C19.5,23.6,19,24,18.4,24.3z M20.5,16.2l-1.4,2.1h-1l1.1-2.1
		H20.5z M18.4,23.2c0.4-0.2,0.7-0.5,0.9-0.7c0.5-0.5,0.7-0.9,0.7-1.6c0-0.8-0.4-1.1-0.8-1.1c-0.5,0-0.8,0.3-0.8,0.9V23.2z"/>
	<path d="M22.6,18.9v-1.4l1.1-0.5v1.9h1.3v1h-1.3v5c0,0.6,0.3,1,0.8,1c0.2,0,0.4-0.1,0.6-0.2l0.3,1c-0.3,0.2-0.7,0.3-1.1,0.3
		c-1.2,0-1.8-0.9-1.8-2.1v-5h-0.9v-1H22.6z"/>
	<path d="M27.3,24.3V25c0,0.5,0.4,0.8,0.8,0.8c0.5,0,0.8-0.3,0.8-0.8v-0.5l1.1-0.3V25c0,1.2-0.9,1.9-1.9,1.9c-1.1,0-1.9-0.7-1.9-1.9
		v-4.3c0-1.2,0.8-1.9,1.9-1.9c0.9,0,2,0.5,2,2.1c0,1-0.4,1.7-1.3,2.4C28.4,23.6,27.9,24,27.3,24.3z M29.4,16.2L28,18.3h-1l1.1-2.1
		H29.4z M27.3,23.2c0.4-0.2,0.7-0.5,0.9-0.7c0.5-0.5,0.7-0.9,0.7-1.6c0-0.8-0.4-1.1-0.8-1.1c-0.5,0-0.8,0.3-0.8,0.9V23.2z"/>
	<path d="M37,16.7v1.2h-2.3v3.5h1.7v1.2h-1.7v4.3h-1.2V16.7H37z"/>
	<path d="M41.8,25c0,1.2-0.9,1.9-2,1.9c-1.1,0-2-0.7-2-1.9v-4.3c0-1.2,0.9-1.9,2-1.9c1.1,0,2,0.7,2,1.9V25z M38.9,25
		c0,0.5,0.4,0.8,0.9,0.8s0.8-0.3,0.8-0.8v-4.2c0-0.5-0.4-0.8-0.8-0.8s-0.9,0.3-0.9,0.8V25z"/>
	<path d="M43.7,18.9l0.2,0.5c0.4-0.4,0.9-0.6,1.4-0.6c0.9,0,1.7,0.6,1.7,1.9v6.1h-1.2V21c0-0.7-0.2-1-0.8-1c-0.3,0-0.6,0.1-0.9,0.4
		v6.5h-1.2v-7.9H43.7z"/>
	<path d="M52.1,16.2v10.6h-0.8l-0.2-0.5c-0.4,0.4-0.9,0.6-1.4,0.6c-0.9,0-1.6-0.6-1.6-1.9v-4.3c0-1.3,0.8-1.9,1.6-1.9
		c0.5,0,0.9,0.2,1.3,0.5v-2.7L52.1,16.2z M49.2,24.8c0,0.7,0.2,1,0.8,1c0.4,0,0.7-0.2,0.9-0.5v-5c-0.3-0.3-0.6-0.5-0.9-0.5
		c-0.6,0-0.8,0.4-0.8,1V24.8z"/>
	<path d="M54.4,24.3V25c0,0.5,0.4,0.8,0.8,0.8c0.5,0,0.8-0.3,0.8-0.8v-0.5l1.1-0.3V25c0,1.2-0.9,1.9-1.9,1.9c-1.1,0-1.9-0.7-1.9-1.9
		v-4.3c0-1.2,0.8-1.9,1.9-1.9c0.9,0,2,0.5,2,2.1c0,1-0.4,1.7-1.3,2.4C55.5,23.6,55,24,54.4,24.3z M56.5,16.2l-1.4,2.1h-1l1.1-2.1
		H56.5z M54.4,23.2c0.4-0.2,0.7-0.5,0.9-0.7c0.5-0.5,0.7-0.9,0.7-1.6c0-0.8-0.4-1.1-0.8-1.1c-0.5,0-0.8,0.3-0.8,0.9V23.2z"/>
	<path d="M59.3,24.3V25c0,0.5,0.4,0.8,0.8,0.8c0.5,0,0.8-0.3,0.8-0.8v-0.5l1.1-0.3V25c0,1.2-0.9,1.9-1.9,1.9c-1.1,0-1.9-0.7-1.9-1.9
		v-4.3c0-1.2,0.8-1.9,1.9-1.9c0.9,0,2,0.5,2,2.1c0,1-0.4,1.7-1.3,2.4C60.4,23.6,59.9,24,59.3,24.3z M59.3,23.2
		c0.4-0.2,0.7-0.5,0.9-0.7c0.5-0.5,0.7-0.9,0.7-1.6c0-0.8-0.4-1.1-0.8-1.1c-0.5,0-0.8,0.3-0.8,0.9V23.2z"/>
	<path d="M69.7,17.5c2.4,0,4.3,1.9,4.3,4.3S72,26,69.7,26c-2.4,0-4.3-1.9-4.3-4.3C65.4,19.4,67.3,17.5,69.7,17.5z"/>
	<path d="M83.4,16.7v1.2h-2.3v3.5h1.7v1.2h-1.7v4.3h-1.2V16.7H83.4z"/>
	<path d="M88.2,18.9v7.9h-0.8l-0.2-0.4c-0.4,0.4-0.9,0.5-1.4,0.5c-0.9,0-1.7-0.6-1.7-1.9v-6.1h1.2v5.9c0,0.7,0.3,1,0.8,1
		c0.3,0,0.6-0.1,0.9-0.4v-6.5H88.2z"/>
	<path d="M90.2,18.9l0.2,0.5c0.4-0.4,0.9-0.6,1.4-0.6c0.9,0,1.7,0.6,1.7,1.9v6.1h-1.2V21c0-0.7-0.2-1-0.8-1c-0.3,0-0.6,0.1-0.9,0.4
		v6.5h-1.2v-7.9H90.2z"/>
	<path d="M98.7,16.2v10.6h-0.8l-0.2-0.5c-0.4,0.4-0.9,0.6-1.4,0.6c-0.9,0-1.6-0.6-1.6-1.9v-4.3c0-1.3,0.8-1.9,1.6-1.9
		c0.5,0,0.9,0.2,1.3,0.5v-2.7L98.7,16.2z M95.8,24.8c0,0.7,0.2,1,0.8,1c0.4,0,0.7-0.2,0.9-0.5v-5c-0.3-0.3-0.6-0.5-0.9-0.5
		c-0.6,0-0.8,0.4-0.8,1V24.8z"/>
	<path d="M100,19.7c0.4-0.6,1.1-0.9,1.8-0.9c1.3,0,1.9,0.9,1.9,2.2v5.9H103l-0.2-0.4c-0.4,0.3-0.9,0.5-1.5,0.5
		c-0.9,0-1.7-0.5-1.7-2.1c0-1.2,0.5-1.9,1.6-2.8c0.4-0.3,0.8-0.6,1.3-0.9V21c0-0.7-0.3-1.1-0.9-1.1c-0.4,0-0.8,0.2-1.1,0.6L100,19.7
		z M102.6,25.4v-3.1c-0.3,0.2-0.5,0.4-0.8,0.5c-0.8,0.6-1.1,1.2-1.1,1.9c0,0.8,0.3,1.1,0.9,1.1C102,25.9,102.3,25.7,102.6,25.4z"/>
	<path d="M105.9,25c0,0.5,0.4,0.8,0.8,0.8c0.5,0,0.8-0.3,0.8-0.8v-0.5l1.1-0.3V25c0,1.2-0.9,1.9-1.9,1.9c-1.1,0-1.9-0.7-1.9-1.9
		v-4.3c0-1.2,0.8-1.9,1.9-1.9c1.1,0,1.9,0.7,1.9,1.9v0.3h-1.1v-0.3c0-0.5-0.4-0.8-0.8-0.8c-0.5,0-0.8,0.3-0.8,0.8V25z"/>
	<path d="M110.9,17.1c0,0.4-0.2,0.7-0.7,0.7c-0.4,0-0.7-0.3-0.7-0.7c0-0.4,0.2-0.7,0.7-0.7C110.7,16.4,110.9,16.7,110.9,17.1z
		 M110.8,18.9v7.9h-1.2v-7.9H110.8z"/>
	<path d="M115.9,25c0,1.2-0.9,1.9-2,1.9c-1.1,0-2-0.7-2-1.9v-4.3c0-1.2,0.9-1.9,2-1.9c1.1,0,2,0.7,2,1.9V25z M115.2,16.2l-1.4,2.1
		h-1l1.1-2.1H115.2z M113.1,25c0,0.5,0.4,0.8,0.9,0.8s0.8-0.3,0.8-0.8v-4.2c0-0.5-0.4-0.8-0.8-0.8s-0.9,0.3-0.9,0.8V25z"/>
	<path d="M117.8,18.9l0.2,0.5c0.4-0.4,0.9-0.6,1.4-0.6c0.9,0,1.7,0.6,1.7,1.9v6.1H120V21c0-0.7-0.2-1-0.8-1c-0.3,0-0.6,0.1-0.9,0.4
		v6.5H117v-7.9H117.8z"/>
	<path d="M131.3,17.5c2.4,0,4.3,1.9,4.3,4.3s-1.9,4.3-4.3,4.3c-2.4,0-4.3-1.9-4.3-4.3C127,19.4,128.9,17.5,131.3,17.5z"/>
	<path d="M1.9,35.8h2.2c1.5,0,1.8,0,2.2,0c0,0.2,0,0.4,0,0.7v1.8c0,0.4,0,0.6,0,0.9c-0.3,0-0.5,0-1.3,0H2.4c0,0.2,0,0.4-0.1,0.7
		c0.4,0,1,0,2,0c1.3,0,1.7,0,2.1,0c0,0.2,0,0.4,0,0.9v1.1c0,0.5,0,0.8,0,1.2H5.4v-0.6H3v0.8H2.2c0-0.4,0-0.7,0-1.2v-1.4
		c0-0.3,0-0.5,0-0.6c-0.2,0.7-0.6,1.6-1,2.1c-0.3-0.2-0.5-0.4-0.9-0.6c0.9-0.9,1.4-2,1.4-3.7v-1.8c-0.2,0.2-0.4,0.4-0.6,0.6
		c-0.2-0.3-0.3-0.5-0.6-0.6c1.6-1.3,2.3-2.2,3.1-3.6c0.3,0.2,0.8,0.4,1.1,0.5c0.2,0,0.1,0.2,0,0.2c-0.1,0-0.2,0.1-0.4,0.2
		c0.8,0.4,1.6,0.9,2.6,1.5l-0.7,0.8c-0.5-0.5-1.2-1.1-2.4-1.8C2.9,34.7,2.4,35.3,1.9,35.8z M5.4,36.5h-3v0.6h3V36.5z M2.4,38.5h3
		v-0.7h-3V38.5z M5.4,40.5H3v1.3h2.4V40.5z M4.1,34.4c0.2,0.4,0.3,0.8,0.5,1.2l-1,0.1c-0.1-0.4-0.2-0.7-0.4-1.1L4.1,34.4z M8.3,34.9
		v3.7c0,0.8,0,1.2,0,1.7h-1c0-0.5,0-0.9,0-1.7v-2.9c0-0.7,0-1.2,0-1.5c0.3,0.1,0.8,0.1,1,0.1c0.2,0,0.2,0.1,0,0.2
		C8.3,34.6,8.3,34.7,8.3,34.9z M10.4,33.4v8.2c0,1.2-0.2,1.5-2,1.8c0-0.6-0.2-0.9-0.5-1.2c1.1,0.2,1.5,0,1.5-0.4v-6.9
		c0-1.2,0-1.7-0.1-2c0.3,0,0.6,0.1,1,0c0.2,0,0.2,0.1,0.1,0.2C10.4,33.2,10.4,33.2,10.4,33.4z"/>
	<path d="M18.6,36.3c0.4,0.2,1,0.4,1.4,0.5c0.1,0,0.2,0.1,0,0.2c-0.3,0.1-0.7,1.1-1.8,4.7c1.3,0,2.8-0.1,3.7-0.1v1.2
		c-0.9-0.1-1.7-0.1-5.2-0.1c-3.4,0-4.3,0-5.2,0.1v-1.2c0.9,0.1,2.3,0.1,3.7,0.1h1.9C17.9,39.9,18.5,37.7,18.6,36.3z M16.8,35.9
		c-2.6,0-3.8,0-4.5,0.1v-1.2c0.8,0.1,2,0.1,4.5,0.1c2.6,0,3.8,0,4.5-0.1V36C20.6,35.9,19.4,35.9,16.8,35.9z M14.8,41
		c-0.2-1.4-0.6-2.8-1-4l1-0.3c0.3,1,0.9,2.8,1.2,4L14.8,41z M16.6,34.6c-0.2-0.7-0.4-1.2-0.7-1.7l1.2-0.4c0.1,0.5,0.4,1.1,0.7,1.7
		L16.6,34.6z"/>
	<path d="M29.9,33.7c2.4,0,4.3,1.9,4.3,4.3s-1.9,4.3-4.3,4.3c-2.4,0-4.3-1.9-4.3-4.3C25.6,35.6,27.5,33.7,29.9,33.7z"/>
	<path d="M41.5,36.6c0.4,0,1.1,0.1,1.7,0.1c0.7,0,1.9,0,2.3-0.1l-0.2,3c0,0.5-0.5,0.8-1.9,0.9c0-0.4-0.1-0.7-0.3-1
		c1.1,0,1.4-0.1,1.4-0.4l0.1-1.6h-2.3v4.2c0,0.3,0.2,0.3,1.5,0.3c1.1,0,1.6-0.2,1.7-1.4c0.3,0.4,0.6,0.6,0.9,0.7
		c-0.6,1.5-1.1,1.7-2.6,1.7c-1.6,0-2.5-0.1-2.5-1V38c0-0.6,0-0.9-0.1-1.2c-0.3,0.3-0.5,0.5-0.9,0.9c0-0.3-0.3-0.9-0.5-1.1
		c0.9-0.5,1.5-1.2,2.3-2.4c0.4-0.7,0.7-1.2,0.8-1.5c0.2,0.1,0.9,0.4,1.1,0.5c0.1,0,0.1,0.1,0,0.2c-0.1,0.1-0.3,0.3-0.5,0.4
		c1.2,0.5,1.7,0.9,2.7,1.5l-0.7,0.9c-0.9-0.9-1.3-1.1-2.4-1.7C42.8,35.3,42.4,35.8,41.5,36.6z M46.9,40.9c0.1-0.5,0.1-1,0.1-1.5v-4
		c0-0.5,0-0.9-0.1-1.3c0.4,0.1,0.8,0.1,1,0.1c0.2,0,0.2,0.1,0,0.2c0,0-0.1,0.3-0.1,0.5v4.4c0,0.4,0,0.9,0.1,1.5H46.9z M50.1,33.4
		v8.8c0,0.9-0.1,1-2,1.2c0-0.4-0.2-0.9-0.5-1.2c1.3,0.1,1.6,0,1.6-0.4v-7.2c0-0.9,0-1.6-0.1-2c0.3,0,0.8,0.1,1.1,0.1
		c0.2,0,0.3,0.1,0.1,0.2C50.1,33,50.1,33.2,50.1,33.4z"/>
	<path d="M62.7,41.9c-0.2,0.5-0.3,0.8-0.3,1.2c-5.2,0.2-6.7-0.2-8.1-1.5c-0.3,0.6-0.8,1.1-1.3,1.6c-0.2-0.3-0.4-0.5-0.7-0.6
		c0.6-0.5,1-1,1.4-1.6c-0.5-0.7-1-1.6-1.2-2l0.8-0.4c0.2,0.5,0.4,1,0.8,1.5c0.3-0.6,0.4-1.4,0.5-2.3c-0.9,0.1-1.2,0.1-1.6,0.2
		c0-0.3-0.1-0.6-0.3-0.8c0.3-0.2,0.4-0.4,0.6-0.7l1-2.1h-0.8c-0.3,0-0.6,0-0.8,0.1v-0.9c0.4,0,0.9,0,1.5,0c0.5,0,1,0,1.4-0.1
		c-0.4,1.1-0.9,2.4-1.5,3.4c1.1,0,1.3-0.1,1.5-0.2c-0.2,1.6-0.4,2.9-0.9,3.9C56,42.2,57.3,42.5,62.7,41.9z M61.6,38.3v0.9
		c-0.7-0.1-1.2-0.1-2.5-0.1v1c1.4,0,2.2,0,2.9-0.1v0.9c-0.7-0.1-1.5-0.1-2.9-0.1c0,0.3,0,0.6,0.1,1h-1c0-0.4,0-0.7,0.1-1
		c-1.2,0-1.9,0-2.5,0.1V40c0.6,0.1,1.4,0.1,2.5,0.1v-1c-1.1,0-1.6,0-2.2,0.1v-0.9c0.6,0.1,1.1,0.1,2.2,0.1v-1c-1.2,0-1.6,0-1.9,0.1
		v-0.8c0.3,0,0.7,0,1.9,0.1v-0.9c-1.2,0-1.8,0-2.6,0.1V35c0.7,0.1,1.3,0.1,2.6,0.1v-0.8c-0.9,0-1.4,0-1.9,0.1v-0.8
		c0.5,0,1,0,1.9,0.1c0-0.5,0-0.9-0.1-1.1c0.4,0,0.6,0.1,1,0.1c0.3,0,0.3,0.1,0.1,0.2c-0.1,0.1-0.1,0.3-0.1,0.8c1.4,0,2,0,2.5-0.1
		c0,0.2,0,0.4,0,0.7v0.9c0.5,0,0.9,0,1.2-0.1v0.8c-0.3,0-0.7,0-1.2-0.1v0.7c0,0.4,0,0.7,0,1c-0.4,0-0.9,0-2.5,0v1
		C60.4,38.4,60.9,38.4,61.6,38.3z M60.7,35.1v-0.8h-1.6v0.8H60.7z M59.1,35.8v0.9h1.6v-0.9H59.1z"/>
	<path d="M71,33.7c2.4,0,4.3,1.9,4.3,4.3s-1.9,4.3-4.3,4.3c-2.4,0-4.3-1.9-4.3-4.3C66.7,35.6,68.6,33.7,71,33.7z"/>
</g>
<g>
	<g>
		<path d="M82.3,67.7l2.2,11.2l2.3-11.2h1.7v14.1H87v-9.1l-1.7,9.1h-1.5l-1.8-9.2v9.2h-1.5V67.7H82.3z"/>
		<path d="M91.9,67.7l2.2,11.2l2.3-11.2h1.7v14.1h-1.5v-9.1l-1.7,9.1h-1.5l-1.8-9.2v9.2h-1.5V67.7H91.9z"/>
		<path d="M105.8,67.7l-2.4,6.8l2.6,7.3h-1.7l-1.8-5.1l-1.8,5.1h-1.6l2.5-7.5l-2.3-6.6h1.7l1.6,4.5l1.6-4.5H105.8z"/>
		<path d="M108.7,67.7v14.1h-1.7V67.7H108.7z"/>
		<path d="M116.4,67.7l-2.4,6.8l2.6,7.3h-1.7l-1.8-5.1l-1.8,5.1h-1.6l2.5-7.5l-2.3-6.6h1.7l1.6,4.5l1.6-4.5H116.4z"/>
		<path d="M136.4,70.6c0,1-0.2,1.6-0.6,2.4c-0.6,1.1-1.8,2.6-2.5,3.8c-0.5,0.9-0.6,1.3-0.6,2.3v1.2h3.8v1.6h-5.5V79
			c0-0.9,0.2-1.8,0.7-2.8c0.6-1.1,1.9-2.7,2.6-3.8c0.4-0.7,0.5-1.3,0.5-2c0-1.1-0.4-1.5-1.2-1.5c-0.8,0-1.2,0.4-1.2,1.2v0.4h-1.5
			v-0.5c0-1.7,1-2.8,2.8-2.8C135.3,67.5,136.4,68.4,136.4,70.6z"/>
		<path d="M143.3,79.2c0,1.8-1.3,2.8-2.9,2.8c-1.6,0-2.9-1.1-2.9-2.8v-8.9c0-1.8,1.3-2.8,2.9-2.8c1.6,0,2.9,1.1,2.9,2.8V79.2z
			 M139.2,79.2c0,0.8,0.5,1.2,1.3,1.2s1.3-0.4,1.3-1.2v-8.9c0-0.8-0.5-1.2-1.3-1.2s-1.3,0.4-1.3,1.2V79.2z"/>
		<path d="M145,68.9c0.6,0,0.8-0.5,0.8-1.2h1.7v14.1h-1.7V70.3h-1.5v-1.4H145z"/>
		<path d="M153,79.2v-2.9c-0.5,0.4-1.1,0.7-1.8,0.7c-1.2,0-2.2-0.8-2.2-2.6v-4.2c0-1.7,1.3-2.8,2.8-2.8c1.5,0,2.8,1.1,2.8,2.8v9
			c0,1.7-1.2,2.8-2.9,2.8c-1.7,0-2.7-1.1-2.7-2.8v-0.7l1.5,0.4v0.3c0,0.8,0.5,1.2,1.2,1.2C152.6,80.5,153,80.1,153,79.2z
			 M150.6,74.2c0,0.8,0.3,1.4,1.1,1.4c0.5,0,1-0.2,1.3-0.7v-4.6c0-0.8-0.5-1.2-1.2-1.2c-0.7,0-1.2,0.4-1.2,1.2V74.2z"/>
	</g>
</g>
</svg>
