<?xml version="1.0" encoding="utf-8"?>
<!-- Generator: Adobe Illustrator 18.1.1, SVG Export Plug-In . SVG Version: 6.00 Build 0)  -->
<!DOCTYPE svg PUBLIC "-//W3C//DTD SVG 1.1//EN" "http://www.w3.org/Graphics/SVG/1.1/DTD/svg11.dtd">
<svg version="1.1" id="Layer_1" xmlns="http://www.w3.org/2000/svg" xmlns:xlink="http://www.w3.org/1999/xlink" x="0px" y="0px"
	 viewBox="0 0 36.8 29.9" enable-background="new 0 0 36.8 29.9" xml:space="preserve">
<g>
	<path fill="#FFFFFF" d="M11.6,29.9c13.9,0,21.5-11.5,21.5-21.5c0-0.3,0-0.7,0-1c1.5-1.1,2.8-2.4,3.8-3.9c-1.4,0.6-2.8,1-4.3,1.2
		c1.6-0.9,2.8-2.4,3.3-4.2C34.4,1.4,32.7,2,31,2.4C29.6,0.9,27.7,0,25.5,0c-4.2,0-7.6,3.4-7.6,7.6c0,0.6,0.1,1.2,0.2,1.7
		C11.9,9,6.3,6,2.6,1.4c-0.6,1.1-1,2.4-1,3.8c0,2.6,1.3,4.9,3.4,6.3c-1.2,0-2.4-0.4-3.4-0.9c0,0,0,0.1,0,0.1c0,3.7,2.6,6.7,6.1,7.4
		c-0.6,0.2-1.3,0.3-2,0.3c-0.5,0-1,0-1.4-0.1c1,3,3.8,5.2,7.1,5.2c-2.6,2-5.8,3.2-9.4,3.2c-0.6,0-1.2,0-1.8-0.1
		C3.3,28.7,7.3,29.9,11.6,29.9"/>
</g>
</svg>
