<?xml version="1.0" encoding="utf-8"?>
<!-- Generator: Adobe Illustrator 18.1.1, SVG Export Plug-In . SVG Version: 6.00 Build 0)  -->
<!DOCTYPE svg PUBLIC "-//W3C//DTD SVG 1.1//EN" "http://www.w3.org/Graphics/SVG/1.1/DTD/svg11.dtd">
<svg version="1.1" id="Layer_1" xmlns="http://www.w3.org/2000/svg" xmlns:xlink="http://www.w3.org/1999/xlink" x="0px" y="0px"
	 viewBox="0 0 30.5 30.5" enable-background="new 0 0 30.5 30.5" xml:space="preserve">
<path fill="#FFFFFF" d="M15.3,0C6.8,0,0,6.8,0,15.3c0,8.4,6.8,15.3,15.3,15.3c8.4,0,15.2-6.8,15.2-15.3C30.5,6.8,23.7,0,15.3,0z
	 M22.2,22c-0.3,0.5-0.9,0.6-1.3,0.3c-3.6-2.2-8.1-2.7-13.4-1.5c-0.5,0.1-1-0.2-1.1-0.7c-0.1-0.5,0.2-1,0.7-1.1
	c5.8-1.3,10.8-0.8,14.8,1.7C22.4,21,22.5,21.5,22.2,22z M24.1,17.8c-0.3,0.6-1.1,0.7-1.6,0.4c-4.1-2.5-10.3-3.2-15.2-1.8
	c-0.6,0.2-1.3-0.2-1.5-0.8C5.6,15,6,14.4,6.6,14.2c5.5-1.7,12.4-0.9,17.1,2C24.3,16.6,24.5,17.3,24.1,17.8z M24.3,13.5
	c-4.9-2.9-13-3.2-17.7-1.8c-0.8,0.2-1.6-0.2-1.8-1C4.5,10.1,5,9.3,5.7,9c5.4-1.6,14.3-1.3,20,2c0.7,0.4,0.9,1.3,0.5,2
	C25.8,13.7,24.9,13.9,24.3,13.5z"/>
</svg>
