<?xml version="1.0" encoding="utf-8"?>
<!-- Generator: Adobe Illustrator 18.1.1, SVG Export Plug-In . SVG Version: 6.00 Build 0)  -->
<!DOCTYPE svg PUBLIC "-//W3C//DTD SVG 1.1//EN" "http://www.w3.org/Graphics/SVG/1.1/DTD/svg11.dtd">
<svg version="1.1" id="Layer_1" xmlns="http://www.w3.org/2000/svg" xmlns:xlink="http://www.w3.org/1999/xlink" x="0px" y="0px"
	 viewBox="0 0 90.6 29.7" enable-background="new 0 0 90.6 29.7" xml:space="preserve">
<polygon fill="#FFFFFF" points="33.7,29 0,29 15.7,0 49.4,0 33.7,29 "/>
<path fill="#FFFFFF" d="M59.4,11.1c-3.8,0-5.7,3-5.7,7.5c0,4.2,2.1,7.4,5.7,7.4c4.1,0,5.6-3.8,5.6-7.4
	C65.1,14.8,63.2,11.1,59.4,11.1 M49.4,0h4.5v10.8H54c1.2-2,3.8-3.3,6.1-3.3c6.4,0,9.5,5.1,9.5,11.2c0,5.7-2.8,11-8.8,11
	c-2.8,0-5.7-0.7-7.1-3.5h-0.1v2.9h-4.3V0L49.4,0L49.4,0z"/>
<path fill="#FFFFFF" d="M86.1,15.1c-0.4-2.6-2.2-4-4.7-4c-2.3,0-5.6,1.3-5.6,7.7c0,3.5,1.5,7.2,5.4,7.2c2.6,0,4.4-1.8,4.8-4.8h4.5
	c-0.8,5.5-4.1,8.5-9.3,8.5c-6.4,0-9.9-4.7-9.9-10.9c0-6.4,3.3-11.3,10-11.3c4.7,0,8.8,2.4,9.2,7.6H86.1L86.1,15.1L86.1,15.1z"/>
</svg>
