<?xml version="1.0" encoding="utf-8"?>
<!-- Generator: Adobe Illustrator 18.1.1, SVG Export Plug-In . SVG Version: 6.00 Build 0)  -->
<!DOCTYPE svg PUBLIC "-//W3C//DTD SVG 1.1//EN" "http://www.w3.org/Graphics/SVG/1.1/DTD/svg11.dtd">
<svg version="1.1" id="Layer_1" xmlns="http://www.w3.org/2000/svg" xmlns:xlink="http://www.w3.org/1999/xlink" x="0px" y="0px"
	 viewBox="0 0 29.9 30" enable-background="new 0 0 29.9 30" xml:space="preserve">
<g>
	<path fill="#FFFFFF" d="M0,19.9c0-3.3,0-6.6,0-9.9C0,10,0,9.9,0,9.8c0-1.2,0.1-2.4,0.4-3.5C1.1,3.7,2.6,1.9,5,0.8
		c1.4-0.6,2.9-0.8,4.4-0.8C9.6,0.1,9.8,0,10,0c3.3,0,6.6,0,9.9,0c0.1,0,0.2,0,0.3,0c1,0.1,2,0.1,2.9,0.3c3.2,0.6,5.4,2.5,6.3,5.7
		c0.4,1.4,0.5,2.8,0.5,4.3c0,3.3,0,6.6,0,9.9c0,1.2-0.1,2.4-0.4,3.5c-0.7,2.5-2.1,4.4-4.6,5.4c-1.4,0.6-2.9,0.8-4.4,0.8
		c-0.2,0-0.4,0-0.7,0.1c-3.3,0-6.6,0-9.9,0c-0.1,0-0.2,0-0.3,0c-1.2,0-2.4-0.1-3.5-0.4c-2.5-0.6-4.4-2.1-5.4-4.6
		c-0.6-1.4-0.8-2.9-0.8-4.4C0.1,20.4,0,20.1,0,19.9z M27.2,15C27.2,15,27.2,15,27.2,15c0-1.3,0.1-2.5,0-3.8c0-1.3-0.1-2.5-0.2-3.8
		c-0.3-2.3-1.7-3.7-3.9-4.3c-1.2-0.3-2.5-0.3-3.7-0.3c-2.7,0-5.4,0-8.1,0C10,2.8,8.7,2.8,7.4,3C5.2,3.3,3.7,4.6,3.1,6.9
		c-0.3,1.2-0.3,2.5-0.3,3.7c0,2.7,0,5.4,0,8.1c0,1.3,0.1,2.6,0.2,3.8c0.3,2.3,1.7,3.7,3.9,4.3c1.2,0.3,2.5,0.3,3.7,0.3
		c2.7,0,5.4,0,8.1,0c1.3,0,2.6-0.1,3.8-0.2c2.3-0.3,3.7-1.7,4.3-3.9c0.3-1.1,0.3-2.2,0.3-3.2C27.2,18.2,27.2,16.6,27.2,15z"/>
	<path fill-rule="evenodd" clip-rule="evenodd" fill="#FFFFFF" d="M7.3,15c0-4.2,3.5-7.7,7.7-7.7c4.3,0,7.7,3.5,7.7,7.7
		c0,4.2-3.5,7.7-7.7,7.7C10.7,22.7,7.3,19.2,7.3,15z M15,20c2.7,0,5-2.2,5-4.9c0-2.8-2.2-5-5-5c-2.8,0-5,2.2-5,5
		C10,17.7,12.2,20,15,20z"/>
	<path fill-rule="evenodd" clip-rule="evenodd" fill="#FFFFFF" d="M23,8.8c-1,0-1.8-0.8-1.8-1.8c0-1,0.8-1.8,1.8-1.8
		c1,0,1.8,0.8,1.8,1.8C24.8,8,24,8.8,23,8.8z"/>
</g>
</svg>
