<?xml version="1.0" encoding="utf-8"?>
<!-- Generator: Adobe Illustrator 18.1.1, SVG Export Plug-In . SVG Version: 6.00 Build 0)  -->
<!DOCTYPE svg PUBLIC "-//W3C//DTD SVG 1.1//EN" "http://www.w3.org/Graphics/SVG/1.1/DTD/svg11.dtd">
<svg version="1.1" id="Layer_1" xmlns="http://www.w3.org/2000/svg" xmlns:xlink="http://www.w3.org/1999/xlink" x="0px" y="0px"
	 viewBox="0 0 42.4 29.9" enable-background="new 0 0 42.4 29.9" xml:space="preserve">
<path fill="#FFFFFF" d="M41.5,4.7c-0.5-1.8-1.9-3.3-3.8-3.8C34.5,0,21.2,0,21.2,0S7.9,0,4.6,0.9C2.8,1.4,1.4,2.8,0.9,4.7
	C0,8,0,14.9,0,14.9s0,6.9,0.9,10.3c0.5,1.8,1.9,3.3,3.8,3.8c3.3,0.9,16.6,0.9,16.6,0.9s13.3,0,16.6-0.9c1.8-0.5,3.3-1.9,3.8-3.8
	c0.9-3.3,0.9-10.3,0.9-10.3S42.4,8,41.5,4.7z M16.9,21.3V8.6L28,14.9L16.9,21.3z"/>
</svg>
