<?xml version="1.0" encoding="utf-8"?>
<!-- Generator: Adobe Illustrator 18.1.1, SVG Export Plug-In . SVG Version: 6.00 Build 0)  -->
<!DOCTYPE svg PUBLIC "-//W3C//DTD SVG 1.1//EN" "http://www.w3.org/Graphics/SVG/1.1/DTD/svg11.dtd">
<svg version="1.1" id="Layer_1" xmlns="http://www.w3.org/2000/svg" xmlns:xlink="http://www.w3.org/1999/xlink" x="0px" y="0px"
	 viewBox="0 0 124.5 29.6" enable-background="new 0 0 124.5 29.6" xml:space="preserve">
<g>
	<path d="M19.6,15.7c0-2.4,1-4.3,3.1-5.6c-1.2-1.7-3-2.7-5.3-2.9c-0.8-0.1-1.9,0.1-3.2,0.6c-1.4,0.5-2.2,0.8-2.3,0.8
		c-0.4,0-1.1-0.2-2.1-0.7c-1-0.4-1.9-0.7-2.7-0.7c-1.2,0-2.4,0.4-3.4,1c-1.1,0.7-1.9,1.6-2.5,2.7C0.4,12.3,0,14,0,16
		c0,1.8,0.3,3.6,0.9,5.3C1.5,23,2.2,24.5,3,25.8c0.8,1.2,1.4,2,2,2.5c0.8,0.8,1.7,1.2,2.5,1.2c0.6,0,1.3-0.2,2.2-0.6
		c0.8-0.4,1.7-0.6,2.5-0.6c0.8,0,1.6,0.2,2.5,0.6c0.9,0.4,1.7,0.6,2.3,0.6c0.9,0,1.7-0.4,2.5-1.2c0.3-0.2,0.6-0.6,0.9-1
		c0.4-0.5,0.7-1,1.1-1.5c0.3-0.4,0.5-0.9,0.8-1.3c0.3-0.5,0.5-1,0.7-1.5c0.1-0.2,0.2-0.4,0.3-0.7c0.1-0.2,0.2-0.5,0.2-0.7
		c-0.7-0.3-1.4-0.8-1.9-1.3C20.3,19.1,19.7,17.5,19.6,15.7L19.6,15.7z M40.6,21h-0.1L34.6,7.6H30v21.6h4v-14h0.2l4.9,11.1h2.8
		l4.9-11.1h0.2v14H51V7.6h-4.6L40.6,21z M16,4.7c1-1.3,1.5-2.7,1.5-4.1V0.3c0-0.1,0-0.2,0-0.3c-0.7,0-1.5,0.3-2.3,0.7
		c-0.8,0.4-1.5,0.9-2,1.6c-1,1.2-1.6,2.6-1.6,4v0.3c0,0.1,0,0.2,0,0.3C13.3,7,14.7,6.3,16,4.7z M97.9,7.6h4.5v21.6h-4.5V7.6z
		 M116,11c2.7,0,4.1,2.1,4.1,4.3h4.3v-0.5c0-4.2-3.2-7.7-8.4-7.7c-5.6,0-9,3.7-9,10v2.4c0,6.3,3.3,10,9,10c5.4,0,8.5-3.5,8.5-7.5
		v-0.5h-4.3c0,2.2-1.4,4.1-4.1,4.1c-2.7,0-4.5-1.9-4.5-6.1v-2.4C111.6,13,113.3,11,116,11L116,11z M68.3,21.2c0,2.9-1.7,4.5-4.2,4.5
		c-2.5,0-4.2-1.6-4.2-4.5V7.6h-4.5v14.3c0,4.6,3.3,7.7,8.7,7.7c5.4,0,8.7-3.1,8.7-7.7V7.6h-4.5V21.2L68.3,21.2z M87.7,16.6l-3.2-0.7
		c-1.9-0.4-2.9-1.2-2.9-2.5c0-1.7,1.3-2.7,3.5-2.7c2.5,0,3.7,1.4,3.8,2.9h4.2c0-3.8-3.2-6.5-8-6.5c-4.5,0-8,2.4-8,6.6
		c0,3.7,2.5,5.4,5.5,6l3.2,0.7c2.1,0.5,3.2,1.2,3.2,2.7c0,1.7-1.3,2.8-3.8,2.8c-2.7,0-4.1-1.4-4.2-3h-4.3c0.1,3.1,2.1,6.6,8.3,6.6
		c5.3,0,8.5-2.6,8.5-6.9C93.4,18.8,90.8,17.3,87.7,16.6L87.7,16.6z"/>
</g>
</svg>
