<?xml version="1.0" encoding="utf-8"?>
<!-- Generator: Adobe Illustrator 18.1.1, SVG Export Plug-In . SVG Version: 6.00 Build 0)  -->
<!DOCTYPE svg PUBLIC "-//W3C//DTD SVG 1.1//EN" "http://www.w3.org/Graphics/SVG/1.1/DTD/svg11.dtd">
<svg version="1.1" id="Layer_1" xmlns="http://www.w3.org/2000/svg" xmlns:xlink="http://www.w3.org/1999/xlink" x="0px" y="0px"
	 viewBox="0 0 52.5 29.9" enable-background="new 0 0 52.5 29.9" xml:space="preserve">
<path fill="#FFFFFF" d="M47.4,28.9H47V26h0.5c1,0,1.4,0.5,1.4,1.5C48.9,28.3,48.4,28.9,47.4,28.9L47.4,28.9z M47.5,25H46v4.8h1.4
	c1.2,0,2.5-0.7,2.5-2.4C49.9,25.7,48.9,25,47.5,25L47.5,25z M43.8,27.7c0,0.8-0.4,1.2-1,1.2c-0.6,0-1-0.5-1-1.3V25h-1v2.7
	c0,1.4,0.8,2.2,1.9,2.2c1.2,0,2-0.8,2-2.2V25h-1V27.7L43.8,27.7z M37.8,29c-0.8,0-1.1-0.7-1.1-1.5c0-0.9,0.3-1.5,1.1-1.5
	c0.8,0,1.1,0.7,1.1,1.5C38.9,28.3,38.6,29,37.8,29L37.8,29z M37.8,24.9c-1.3,0-2.1,1-2.1,2.5c0,1.5,0.8,2.5,2.1,2.5
	c1.3,0,2.1-1,2.1-2.5C39.9,26,39.2,24.9,37.8,24.9L37.8,24.9z M33.4,25h-1v4.8h2.9v-1h-1.9V25L33.4,25z M29.8,25.9
	c0.4,0,0.7,0.2,0.9,0.5l0.9-0.4c-0.3-0.6-0.8-1.1-1.8-1.1c-1.3,0-2.1,1-2.1,2.5c0,1.5,0.8,2.5,2.1,2.5c0.9,0,1.5-0.4,1.8-1.1
	l-0.8-0.5c-0.3,0.4-0.5,0.6-0.9,0.6c-0.7,0-1.1-0.7-1.1-1.5C28.7,26.5,29.1,25.9,29.8,25.9L29.8,25.9z M24.4,28.9h-0.5V26h0.5
	c1,0,1.4,0.5,1.4,1.5C25.8,28.3,25.4,28.9,24.4,28.9L24.4,28.9z M24.4,25h-1.5v4.8h1.4c1.2,0,2.5-0.7,2.5-2.4
	C26.8,25.7,25.8,25,24.4,25L24.4,25z M20.7,27.1c0,0.3,0,0.9,0,1.1c-0.1-0.1-0.2-0.4-0.3-0.5L18.7,25h-0.9v4.8h0.9v-2.1
	c0-0.3,0-0.9,0-1.1c0.1,0.1,0.2,0.4,0.3,0.5l1.8,2.6h0.9V25h-0.9V27.1L20.7,27.1z M15.6,27.7c0,0.8-0.4,1.2-1,1.2
	c-0.6,0-1-0.5-1-1.3V25h-1v2.7c0,1.4,0.8,2.2,1.9,2.2c1.2,0,2-0.8,2-2.2V25h-1V27.7L15.6,27.7z M9.6,29c-0.8,0-1.1-0.7-1.1-1.5
	c0-0.9,0.3-1.5,1.1-1.5c0.8,0,1.1,0.7,1.1,1.5C10.7,28.3,10.4,29,9.6,29L9.6,29z M9.6,24.9c-1.3,0-2.1,1-2.1,2.5
	c0,1.5,0.8,2.5,2.1,2.5c1.3,0,2.1-1,2.1-2.5C11.7,26,11,24.9,9.6,24.9L9.6,24.9z M5.2,26.9c-0.8-0.2-1-0.3-1-0.6
	c0-0.2,0.2-0.4,0.7-0.4c0.4,0,0.8,0.2,1.1,0.5l0.7-0.7c-0.5-0.5-1-0.8-1.8-0.8c-1,0-1.7,0.5-1.7,1.4c0,0.9,0.6,1.2,1.5,1.4
	c0.9,0.2,1.1,0.3,1.1,0.7C5.8,28.8,5.6,29,5,29c-0.5,0-0.9-0.2-1.2-0.6L3.1,29c0.4,0.5,1.1,0.9,1.9,0.9c1.3,0,1.9-0.6,1.9-1.5
	C6.8,27.3,6,27.1,5.2,26.9L5.2,26.9z M26.1,1.5c-0.4,0-0.7,0.3-0.7,0.7l-0.3,14.5l0.3,5.3c0,0.4,0.3,0.7,0.7,0.7
	c0.4,0,0.7-0.3,0.7-0.7v0l0.3-5.3L26.8,2.2C26.8,1.8,26.5,1.5,26.1,1.5L26.1,1.5z M46,9.9c-0.9,0-1.7,0.2-2.5,0.5
	C43,4.6,38.1,0,32.2,0c-1.5,0-2.9,0.3-4.1,0.8c-0.5,0.2-0.6,0.4-0.6,0.8V22c0,0.4,0.3,0.7,0.7,0.8c0,0,17.8,0,17.9,0
	c3.6,0,6.5-2.9,6.5-6.5C52.5,12.8,49.6,9.9,46,9.9L46,9.9z M17.9,22.2L17.9,22.2l0.4-5.5L17.9,4.8c0-0.3-0.2-0.5-0.5-0.5
	c-0.3,0-0.5,0.2-0.5,0.5l-0.3,11.9l0.3,5.5c0,0.3,0.2,0.5,0.5,0.5C17.6,22.8,17.8,22.5,17.9,22.2L17.9,22.2L17.9,22.2z M13,22.8
	c0.2,0,0.4-0.2,0.4-0.4l0.4-5.6L13.5,6.1c0-0.2-0.2-0.4-0.4-0.4c-0.2,0-0.4,0.2-0.4,0.4l-0.4,10.7l0.4,5.6
	C12.6,22.6,12.8,22.8,13,22.8L13,22.8z M21.7,4.9c-0.3,0-0.6,0.3-0.6,0.6l-0.3,11.2l0.3,5.4c0,0.3,0.3,0.6,0.6,0.6
	c0.3,0,0.6-0.3,0.6-0.6v0l0.3-5.4L22.3,5.6C22.3,5.2,22,4.9,21.7,4.9L21.7,4.9z M4.6,22.4c0.1,0,0.2-0.1,0.3-0.3l0.6-5.4l-0.6-5.6
	c0-0.1-0.1-0.3-0.3-0.3c-0.1,0-0.2,0.1-0.3,0.3l-0.5,5.6l0.5,5.4C4.3,22.3,4.5,22.4,4.6,22.4L4.6,22.4z M8.8,22.7
	c0.2,0,0.3-0.2,0.4-0.3l0.5-5.6l-0.5-5.3c0-0.2-0.2-0.3-0.4-0.3c-0.2,0-0.3,0.1-0.4,0.3L8,16.7l0.4,5.6C8.4,22.5,8.6,22.7,8.8,22.7
	L8.8,22.7z M19.5,22.8c0.3,0,0.6-0.3,0.6-0.6v0l0.3-5.4L20.1,5.1c0-0.3-0.3-0.6-0.6-0.6c-0.3,0-0.6,0.3-0.6,0.6l-0.3,11.6l0.3,5.4
	C18.9,22.5,19.2,22.8,19.5,22.8L19.5,22.8z M23.9,22.8c0.4,0,0.7-0.3,0.7-0.7v0v0l0.3-5.4L24.6,3.4c0-0.4-0.3-0.7-0.7-0.7
	s-0.7,0.3-0.7,0.7L23,16.8c0,0,0.3,5.4,0.3,5.4C23.2,22.5,23.5,22.8,23.9,22.8L23.9,22.8z M15.2,22.7c0.3,0,0.5-0.2,0.5-0.5l0.4-5.5
	L15.6,5.2c0-0.3-0.2-0.5-0.5-0.5c-0.3,0-0.5,0.2-0.5,0.5l-0.4,11.5l0.4,5.5C14.7,22.5,14.9,22.7,15.2,22.7L15.2,22.7z M6.7,10.7
	c-0.2,0-0.3,0.1-0.3,0.3l-0.5,5.7l0.5,5.6c0,0.2,0.1,0.3,0.3,0.3c0.2,0,0.3-0.1,0.3-0.3l0.5-5.6L7,11C7,10.8,6.8,10.7,6.7,10.7
	L6.7,10.7z M10.9,7.7c-0.2,0-0.4,0.2-0.4,0.4l-0.4,8.7l0.4,5.6c0,0.2,0.2,0.4,0.4,0.4c0.2,0,0.4-0.2,0.4-0.4v0l0.5-5.6l-0.5-8.7
	C11.3,7.9,11.1,7.7,10.9,7.7L10.9,7.7z M2.8,12c0-0.1-0.1-0.2-0.2-0.2c-0.1,0-0.2,0.1-0.2,0.2l-0.5,4.7l0.5,4.6
	c0,0.1,0.1,0.2,0.2,0.2c0.1,0,0.2-0.1,0.2-0.2l0.6-4.6L2.8,12L2.8,12z M0.6,13.6c-0.1,0-0.2,0.1-0.2,0.2L0,16.7l0.4,2.9
	c0,0.1,0.1,0.2,0.2,0.2c0.1,0,0.2-0.1,0.2-0.2l0,0v0v0l0.5-2.9l-0.5-2.9C0.8,13.7,0.7,13.6,0.6,13.6L0.6,13.6z"/>
</svg>
