<?xml version="1.0" encoding="utf-8"?>
<!-- Generator: Adobe Illustrator 18.1.1, SVG Export Plug-In . SVG Version: 6.00 Build 0)  -->
<!DOCTYPE svg PUBLIC "-//W3C//DTD SVG 1.1//EN" "http://www.w3.org/Graphics/SVG/1.1/DTD/svg11.dtd">
<svg version="1.1" id="Layer_1" xmlns="http://www.w3.org/2000/svg" xmlns:xlink="http://www.w3.org/1999/xlink" x="0px" y="0px"
	 viewBox="0 0 100 29.6" enable-background="new 0 0 100 29.6" xml:space="preserve">
<g>
	<g>
		<path fill="#FFFFFF" d="M96.3,29.6H3.7c-2,0-3.7-1.7-3.7-3.7V3.7C0,1.7,1.7,0,3.7,0h92.6c2,0,3.7,1.7,3.7,3.7v22.2
			C100,28,98.4,29.6,96.3,29.6z"/>
	</g>
	<g>
		<g>
			<path fill="#A6A5A5" d="M96.3,0.6c1.7,0,3.1,1.4,3.1,3.1v22.2c0,1.7-1.4,3.1-3.1,3.1H3.7c-1.7,0-3.1-1.4-3.1-3.1V3.7
				C0.6,2,2,0.6,3.7,0.6H96.3 M96.3,0H3.7C1.7,0,0,1.7,0,3.7v22.2c0,2,1.7,3.7,3.7,3.7h92.6c2,0,3.7-1.7,3.7-3.7V3.7
				C100,1.7,98.4,0,96.3,0L96.3,0z"/>
		</g>
	</g>
	<g>
		<path fill="#231F20" stroke="#FFFFFF" stroke-width="0.2" stroke-miterlimit="10" d="M35.1,7.6c0,0.6-0.2,1.1-0.6,1.5
			c-0.4,0.4-1,0.7-1.6,0.7c-0.6,0-1.2-0.2-1.6-0.7c-0.4-0.4-0.7-1-0.7-1.7c0-0.7,0.2-1.2,0.7-1.7c0.4-0.4,1-0.7,1.6-0.7
			c0.3,0,0.6,0.1,0.9,0.2c0.3,0.1,0.5,0.3,0.7,0.5l-0.4,0.4c-0.3-0.4-0.7-0.5-1.2-0.5c-0.5,0-0.9,0.2-1.2,0.5
			c-0.3,0.3-0.5,0.8-0.5,1.3c0,0.5,0.2,1,0.5,1.3c0.3,0.3,0.7,0.5,1.2,0.5c0.5,0,0.9-0.2,1.2-0.5c0.2-0.2,0.3-0.5,0.4-0.9h-1.6V7.3
			h2.2C35.1,7.4,35.1,7.5,35.1,7.6z"/>
		<path fill="#231F20" stroke="#FFFFFF" stroke-width="0.2" stroke-miterlimit="10" d="M38.5,5.7h-2v1.4h1.8v0.5h-1.8v1.4h2v0.5H36
			V5.2h2.6V5.7z"/>
		<path fill="#231F20" stroke="#FFFFFF" stroke-width="0.2" stroke-miterlimit="10" d="M41,9.6h-0.6V5.7h-1.2V5.2h3.1v0.5H41V9.6z"
			/>
		<path fill="#231F20" stroke="#FFFFFF" stroke-width="0.2" stroke-miterlimit="10" d="M44.4,9.6V5.2H45v4.4H44.4z"/>
		<path fill="#231F20" stroke="#FFFFFF" stroke-width="0.2" stroke-miterlimit="10" d="M47.5,9.6h-0.6V5.7h-1.2V5.2h3.1v0.5h-1.2
			V9.6z"/>
		<path fill="#231F20" stroke="#FFFFFF" stroke-width="0.2" stroke-miterlimit="10" d="M54.5,9.1c-0.4,0.4-1,0.7-1.6,0.7
			c-0.6,0-1.2-0.2-1.6-0.7c-0.4-0.5-0.7-1-0.7-1.7c0-0.6,0.2-1.2,0.7-1.6c0.4-0.5,1-0.7,1.6-0.7c0.6,0,1.2,0.2,1.6,0.7
			c0.4,0.5,0.7,1,0.7,1.6C55.2,8.1,55,8.6,54.5,9.1z M51.7,8.7C52,9,52.4,9.2,52.9,9.2c0.5,0,0.9-0.2,1.2-0.5
			c0.3-0.3,0.5-0.8,0.5-1.3c0-0.5-0.2-0.9-0.5-1.3c-0.3-0.3-0.7-0.5-1.2-0.5c-0.5,0-0.9,0.2-1.2,0.5c-0.3,0.3-0.5,0.8-0.5,1.3
			C51.2,7.9,51.4,8.4,51.7,8.7z"/>
		<path fill="#231F20" stroke="#FFFFFF" stroke-width="0.2" stroke-miterlimit="10" d="M56,9.6V5.2h0.7l2.2,3.5h0l0-0.9V5.2h0.6v4.4
			h-0.6L56.6,6h0l0,0.9v2.8H56z"/>
	</g>
	<path fill="#231F20" d="M50.5,16.1c-1.7,0-3.2,1.3-3.2,3.2c0,1.8,1.4,3.2,3.2,3.2c1.7,0,3.2-1.3,3.2-3.2
		C53.6,17.4,52.2,16.1,50.5,16.1z M50.5,21.2c-1,0-1.8-0.8-1.8-1.9c0-1.1,0.8-1.9,1.8-1.9c1,0,1.8,0.8,1.8,1.9
		C52.3,20.4,51.4,21.2,50.5,21.2z M43.6,16.1c-1.7,0-3.2,1.3-3.2,3.2c0,1.8,1.4,3.2,3.2,3.2c1.7,0,3.2-1.3,3.2-3.2
		C46.7,17.4,45.3,16.1,43.6,16.1z M43.6,21.2c-1,0-1.8-0.8-1.8-1.9c0-1.1,0.8-1.9,1.8-1.9c1,0,1.8,0.8,1.8,1.9
		C45.4,20.4,44.5,21.2,43.6,21.2z M35.4,17.1v1.3h3.2c-0.1,0.8-0.3,1.3-0.7,1.7c-0.5,0.5-1.2,1-2.5,1c-2,0-3.5-1.6-3.5-3.6
		c0-2,1.5-3.6,3.5-3.6c1.1,0,1.8,0.4,2.4,1l0.9-0.9c-0.8-0.8-1.9-1.3-3.4-1.3c-2.7,0-5,2.2-5,4.9c0,2.7,2.3,4.9,5,4.9
		c1.5,0,2.6-0.5,3.4-1.4c0.9-0.9,1.2-2.1,1.2-3.1c0-0.3,0-0.6-0.1-0.8H35.4z M68.9,18.1c-0.3-0.7-1.1-2-2.7-2c-1.6,0-3,1.3-3,3.2
		c0,1.8,1.3,3.2,3.1,3.2c1.4,0,2.3-0.9,2.6-1.4L68,20.3c-0.4,0.5-0.8,0.9-1.6,0.9c-0.7,0-1.2-0.3-1.5-1l4.2-1.7L68.9,18.1z
		 M64.6,19.2c0-1.2,0.9-1.8,1.7-1.8c0.5,0,1,0.3,1.2,0.7L64.6,19.2z M61.2,22.2h1.4V13h-1.4V22.2z M59,16.8L59,16.8
		c-0.4-0.4-1-0.7-1.7-0.7c-1.6,0-3,1.4-3,3.2c0,1.8,1.4,3.1,3,3.1c0.8,0,1.3-0.3,1.7-0.7h0v0.5c0,1.2-0.6,1.9-1.7,1.9
		c-0.8,0-1.4-0.6-1.6-1.1l-1.2,0.5c0.3,0.8,1.3,1.9,2.8,1.9c1.6,0,3-1,3-3.3v-5.7H59V16.8z M57.4,21.2c-1,0-1.8-0.8-1.8-1.9
		c0-1.1,0.8-1.9,1.8-1.9c0.9,0,1.7,0.8,1.7,1.9C59,20.4,58.3,21.2,57.4,21.2z M75.4,13h-3.3v9.3h1.4v-3.5h1.9c1.5,0,3-1.1,3-2.9
		S77,13,75.4,13z M75.5,17.4h-2v-3.2h2c1,0,1.6,0.9,1.6,1.6C77.1,16.6,76.5,17.4,75.5,17.4z M84,16.1c-1,0-2,0.4-2.5,1.4l1.2,0.5
		c0.3-0.5,0.8-0.7,1.3-0.7c0.7,0,1.4,0.4,1.5,1.2v0.1c-0.2-0.1-0.8-0.4-1.4-0.4c-1.3,0-2.7,0.7-2.7,2.1c0,1.2,1.1,2,2.3,2
		c0.9,0,1.4-0.4,1.8-0.9h0v0.7h1.3v-3.6C86.8,17,85.6,16.1,84,16.1z M83.8,21.2c-0.5,0-1.1-0.2-1.1-0.8c0-0.7,0.8-1,1.5-1
		c0.6,0,0.9,0.1,1.3,0.3C85.4,20.6,84.6,21.2,83.8,21.2z M91.7,16.3l-1.6,4h-0.1l-1.6-4h-1.5l2.5,5.6L88,25h1.4l3.8-8.7H91.7z
		 M79.2,22.2h1.4V13h-1.4V22.2z"/>
	<g>
		<g>
			<g>
				<path fill="#5BC8F3" d="M7.7,5.6c-0.2,0.2-0.3,0.6-0.3,1V23c0,0.5,0.1,0.8,0.3,1l0.1,0.1l9.2-9.2v-0.1v-0.1L7.7,5.6L7.7,5.6z"/>
				<linearGradient id="SVGID_1_" gradientUnits="userSpaceOnUse" x1="23.0338" y1="14.8184" x2="5.1255" y2="14.8184">
					<stop  offset="0" style="stop-color:#FFDF00"/>
					<stop  offset="0.4087" style="stop-color:#FBBC0E"/>
					<stop  offset="0.7754" style="stop-color:#F9A418"/>
					<stop  offset="1" style="stop-color:#F89B1C"/>
				</linearGradient>
				<path fill="url(#SVGID_1_)" d="M20,18L17,14.9v-0.1v-0.1l3.1-3.1l0.1,0l3.6,2.1c1,0.6,1,1.5,0,2.1L20,18L20,18z"/>
				<linearGradient id="SVGID_2_" gradientUnits="userSpaceOnUse" x1="18.3858" y1="16.5164" x2="1.5373" y2="33.3649">
					<stop  offset="0" style="stop-color:#EE4447"/>
					<stop  offset="1" style="stop-color:#C5166C"/>
				</linearGradient>
				<path fill="url(#SVGID_2_)" d="M20.1,17.9L17,14.8L7.7,24c0.3,0.4,0.9,0.4,1.5,0L20.1,17.9"/>
				<linearGradient id="SVGID_3_" gradientUnits="userSpaceOnUse" x1="1.4624" y1="-3.8032" x2="15.2186" y2="9.953">
					<stop  offset="0" style="stop-color:#269E6F"/>
					<stop  offset="5.089003e-02" style="stop-color:#2BA06F"/>
					<stop  offset="0.4663" style="stop-color:#53B26B"/>
					<stop  offset="0.7971" style="stop-color:#6BBD69"/>
					<stop  offset="1" style="stop-color:#74C168"/>
				</linearGradient>
				<path fill="url(#SVGID_3_)" d="M20.1,11.7L9.3,5.5c-0.6-0.4-1.2-0.3-1.5,0l9.2,9.2L20.1,11.7z"/>
			</g>
		</g>
	</g>
</g>
</svg>
