<?xml version="1.0" encoding="utf-8"?>
<!-- Generator: Adobe Illustrator 18.1.1, SVG Export Plug-In . SVG Version: 6.00 Build 0)  -->
<!DOCTYPE svg PUBLIC "-//W3C//DTD SVG 1.1//EN" "http://www.w3.org/Graphics/SVG/1.1/DTD/svg11.dtd">
<svg version="1.1" id="Layer_1" xmlns="http://www.w3.org/2000/svg" xmlns:xlink="http://www.w3.org/1999/xlink" x="0px" y="0px"
	 viewBox="0 0 155.6 16.1" enable-background="new 0 0 155.6 16.1" xml:space="preserve">
<g>
	<g>
		<g>
			<path d="M5,0.2v7.5h0.9v1.5H5v4.3H3.6V9.2H0V7.8l1.6-5H3L1.4,7.7h2.1V0.2H5z"/>
			<path d="M12.1,2.9v1.9c0,1.1-0.3,1.6-1,1.9c0.7,0.3,1.1,0.9,1.1,2v2.5c0,1.6-1.2,2.6-2.8,2.6s-2.7-1-2.7-2.6v-0.7l1.4,0.4v0.3
				c0,0.8,0.5,1.2,1.2,1.2c0.7,0,1.2-0.4,1.2-1.2V8.7c0-1-0.3-1.3-1.2-1.3H8.5V6h0.8c0.9,0,1.2-0.3,1.2-1.2V2.9
				c0-0.8-0.3-1.3-1.2-1.3C8.6,1.5,8.3,2,8.3,2.7v0.3H6.8V2.6C6.8,1,7.8,0,9.4,0C11.2,0,12.1,1.2,12.1,2.9z"/>
			<path d="M15,12.7c0,0.5-0.3,0.9-0.9,0.9c-0.6,0-0.9-0.4-0.9-0.9c0-0.5,0.3-0.9,0.9-0.9C14.8,11.7,15,12.1,15,12.7z"/>
			<path d="M17.8,4.9c0.4-0.4,1-0.6,1.7-0.6c1.2,0,2.1,0.8,2.1,2.4v4.5c0,1.6-1.2,2.6-2.7,2.6c-1.5,0-2.6-1-2.6-2.6V2.6
				C16.2,1,17.3,0,18.9,0s2.6,1,2.6,2.6v0.4h-1.4V2.7c0-0.8-0.4-1.2-1.1-1.2c-0.7,0-1.2,0.4-1.2,1.2V4.9z M17.8,6.4v4.8
				c0,0.8,0.5,1.2,1.1,1.2s1.2-0.4,1.2-1.2V7c0-0.8-0.3-1.3-1-1.3C18.5,5.7,18.1,5.9,17.8,6.4z"/>
			<path d="M27.9,0.2v1.5h-3.5L24.2,4c0.4-0.3,1-0.6,1.8-0.6c1.1,0,2,0.5,2,2.4v5.4c0,1.6-1.2,2.6-2.6,2.6c-1.5,0-2.7-1-2.7-2.6
				v-0.7l1.4,0.4v0.3c0,0.7,0.5,1.2,1.1,1.2c0.7,0,1.2-0.4,1.2-1.2V5.8c0-0.7-0.4-1-0.9-1c-0.7,0-1.2,0.4-1.5,0.9l-1.3-0.4l0.4-5
				H27.9z"/>
			<path d="M34.5,2.9v1.9c0,1.1-0.3,1.6-1,1.9c0.7,0.3,1.1,0.9,1.1,2v2.5c0,1.6-1.2,2.6-2.8,2.6c-1.5,0-2.7-1-2.7-2.6v-0.7l1.4,0.4
				v0.3c0,0.8,0.5,1.2,1.2,1.2c0.7,0,1.2-0.4,1.2-1.2V8.7c0-1-0.3-1.3-1.2-1.3h-0.9V6h0.8C32.6,6,33,5.7,33,4.8V2.9
				c0-0.8-0.3-1.3-1.2-1.3c-0.8,0-1.1,0.4-1.1,1.2v0.3h-1.4V2.6c0-1.6,1-2.6,2.6-2.6C33.6,0,34.5,1.2,34.5,2.9z"/>
			<path d="M41,2.9c0,1-0.2,1.5-0.6,2.2c-0.6,1-1.7,2.5-2.4,3.6c-0.5,0.8-0.6,1.2-0.6,2.2V12H41v1.5h-5.2v-2.6
				c0-0.8,0.2-1.7,0.7-2.6c0.6-1,1.8-2.5,2.4-3.6c0.4-0.7,0.5-1.2,0.5-1.9c0-1-0.4-1.4-1.1-1.4c-0.7,0-1.2,0.4-1.2,1.2v0.4h-1.4V2.6
				c0-1.6,1-2.6,2.7-2.6C39.9,0,41,0.9,41,2.9z"/>
			<path d="M42.3,1.9c0-1.2,0.9-1.9,2-1.9c1.1,0,2,0.7,2,1.9v1.6c0,1.2-0.9,1.9-2,1.9c-1.1,0-2-0.7-2-1.9V1.9z M43.3,3.5
				c0,0.5,0.4,0.9,0.9,0.9c0.5,0,0.9-0.4,0.9-0.9V1.9c0-0.5-0.4-0.9-0.9-0.9c-0.6,0-0.9,0.4-0.9,0.9V3.5z"/>
			<path d="M52.8,0.2L55,9.4V0.2h1.4v13.3H55l-2.6-9.8v9.8h-1.4V0.2H52.8z"/>
			<path d="M58,16.1h-0.5l0.2-3.4c0-0.5,0.3-0.9,0.9-0.9c0.6,0,0.9,0.4,0.9,0.9c0,0.2-0.1,0.4-0.2,0.7L58,16.1z"/>
			<path d="M68.2,0.2v1.3l-2.6,12H64l2.7-11.8h-3.3V0.2H68.2z"/>
			<path d="M73,11.1V8.4c-0.4,0.4-1,0.6-1.7,0.6c-1.2,0-2.1-0.8-2.1-2.4v-4C69.3,1,70.5,0,72,0c1.5,0,2.6,1,2.6,2.6v8.5
				c0,1.6-1.1,2.6-2.7,2.6c-1.6,0-2.6-1-2.6-2.6v-0.7l1.4,0.4v0.3c0,0.8,0.4,1.2,1.1,1.2C72.6,12.3,73,11.9,73,11.1z M70.8,6.3
				c0,0.8,0.3,1.3,1,1.3c0.5,0,0.9-0.2,1.3-0.6V2.7c0-0.8-0.5-1.2-1.1-1.2s-1.2,0.4-1.2,1.2V6.3z"/>
			<path d="M77.5,12.7c0,0.5-0.3,0.9-0.9,0.9c-0.6,0-0.9-0.4-0.9-0.9c0-0.5,0.3-0.9,0.9-0.9C77.2,11.7,77.5,12.1,77.5,12.7z"/>
			<path d="M83.8,2.9v1.9c0,1.1-0.3,1.6-1,1.9c0.7,0.3,1.1,0.9,1.1,2v2.5c0,1.6-1.2,2.6-2.8,2.6s-2.7-1-2.7-2.6v-0.7l1.4,0.4v0.3
				c0,0.8,0.5,1.2,1.2,1.2c0.7,0,1.2-0.4,1.2-1.2V8.7c0-1-0.3-1.3-1.2-1.3h-0.9V6h0.8c0.9,0,1.2-0.3,1.2-1.2V2.9
				c0-0.8-0.3-1.3-1.2-1.3C80.4,1.5,80,2,80,2.7v0.3h-1.4V2.6c0-1.6,1-2.6,2.6-2.6C82.9,0,83.8,1.2,83.8,2.9z"/>
			<path d="M85.2,2.9c0-1.6,0.9-2.9,2.6-2.9c1.7,0,2.6,1.2,2.6,2.9v1.6c0,1.2-0.4,1.8-1.1,2.1c0.8,0.3,1.2,0.9,1.2,2.2v2.4
				c0,1.6-1.2,2.6-2.8,2.6c-1.6,0-2.8-1-2.8-2.6V8.8c0-1.2,0.4-1.9,1.2-2.2c-0.7-0.3-1.1-1-1.1-2.1V2.9z M86.5,11
				c0,0.9,0.6,1.3,1.3,1.3s1.3-0.4,1.3-1.3V8.6c0-1-0.5-1.3-1.3-1.3c-0.9,0-1.3,0.4-1.3,1.3V11z M86.6,4.8c0,0.9,0.4,1.2,1.2,1.2
				c0.8,0,1.2-0.3,1.2-1.2v-2c0-0.8-0.4-1.3-1.2-1.3c-0.8,0-1.2,0.5-1.2,1.3V4.8z"/>
			<path d="M97,2.9v1.9c0,1.1-0.3,1.6-1,1.9c0.7,0.3,1.1,0.9,1.1,2v2.5c0,1.6-1.2,2.6-2.8,2.6s-2.7-1-2.7-2.6v-0.7l1.4,0.4v0.3
				c0,0.8,0.5,1.2,1.2,1.2c0.7,0,1.2-0.4,1.2-1.2V8.7c0-1-0.3-1.3-1.2-1.3h-0.9V6h0.8c0.9,0,1.2-0.3,1.2-1.2V2.9
				c0-0.8-0.3-1.3-1.2-1.3c-0.8,0-1.1,0.4-1.1,1.2v0.3h-1.4V2.6c0-1.6,1-2.6,2.6-2.6C96.1,0,97,1.2,97,2.9z"/>
			<path d="M103.5,2.9c0,1-0.2,1.5-0.6,2.2c-0.6,1-1.7,2.5-2.4,3.6c-0.5,0.8-0.6,1.2-0.6,2.2V12h3.6v1.5h-5.2v-2.6
				c0-0.8,0.2-1.7,0.7-2.6c0.6-1,1.8-2.5,2.4-3.6c0.4-0.7,0.5-1.2,0.5-1.9c0-1-0.4-1.4-1.1-1.4c-0.7,0-1.2,0.4-1.2,1.2v0.4h-1.4V2.6
				c0-1.6,1-2.6,2.7-2.6C102.4,0,103.5,0.9,103.5,2.9z"/>
			<path d="M104.8,1.9c0-1.2,0.9-1.9,2-1.9c1.1,0,2,0.7,2,1.9v1.6c0,1.2-0.9,1.9-2,1.9c-1.1,0-2-0.7-2-1.9V1.9z M105.8,3.5
				c0,0.5,0.4,0.9,0.9,0.9c0.5,0,0.9-0.4,0.9-0.9V1.9c0-0.5-0.4-0.9-0.9-0.9c-0.6,0-0.9,0.4-0.9,0.9V3.5z"/>
			<path d="M114.6,0.2l0.8,9.4l1.4-9.4h1.5l1.3,9.4l1-9.4h1.5l-1.5,13.3h-1.6l-1.5-10l-1.6,10h-1.5l-1.4-13.3H114.6z"/>
		</g>
	</g>
	<g>
		<rect x="148.7" y="0.7" width="6.9" height="13"/>
		<rect x="128.1" y="0.7" width="6.9" height="13"/>
		<polygon points="141.5,11.6 141.5,9.5 139.5,10.3 139.6,9.7 138.9,9.8 139.7,9.1 137.2,7.3 137.8,7.1 137.4,5.6 138.8,5.8 
			139.2,5.2 140.4,6.3 139.9,3.3 140.9,3.8 141.8,2.2 142.7,3.8 143.7,3.3 143.2,6.3 144.4,5.2 144.8,5.8 146.2,5.6 145.7,7.1 
			146.4,7.3 143.9,9.1 144.7,9.8 144,9.7 144.1,10.3 142.1,9.5 142.1,11.6 		"/>
	</g>
</g>
</svg>
